<?xml version="1.0" standalone="no"?>
<!DOCTYPE svg PUBLIC "-//W3C//DTD SVG 1.1//EN" "http://www.w3.org/Graphics/SVG/1.1/DTD/svg11.dtd" >
<svg xmlns="http://www.w3.org/2000/svg" xmlns:xlink="http://www.w3.org/1999/xlink" version="1.1">
<metadata>
Created by FontForge 20201107 at Mon Nov  5 16:35:48 2018
 By 
Modern and elegant sans serif font family.
</metadata>
<defs>
<font id="Mont-SemiBold" horiz-adv-x="0" >
  <font-face 
    font-family="Mont SemiBold"
    font-weight="500"
    font-stretch="normal"
    units-per-em="1000"
    panose-1="0 0 6 0 0 0 0 0 0 0"
    ascent="800"
    descent="-200"
    x-height="540"
    cap-height="700"
    bbox="-800 -304 1139 995"
    underline-thickness="50"
    underline-position="-100"
    unicode-range="U+0020-25CA"
  />
<missing-glyph horiz-adv-x="464" 
d="M380 -194h-294v928h294v-928zM156 671v-30h60v-34h-61v-31h154v31h-61v34h61v30h-153zM155 552v-97h154v32h-61v65h-93zM216 487h-31v33h31v-33zM155 430v-30h61v-35h-61v-30h93v65h61v30h-154zM278 375v-61h-123v-32h154v93h-31zM216 262v-52h32v21h30v-44h-93v75h-30
v-105h154v105h-93zM155 101v-105h154v105h-154zM278 27h-93v44h93v-44zM155 -25v-30h65l-65 -44v-31h154v31h-95l65 44h30v30h-154z" />
    <glyph glyph-name="f_f.liga" unicode="ff" horiz-adv-x="759" 
d="M745 443h-153v-443h-111v443h-248v-443h-111v443h-101v92h101v46q0 84 42.5 127.5t129.5 43.5h90v-89h-68q-46 0 -66.5 -20t-20.5 -65v-43h253v46q0 171 172 171h90v-89h-69q-45 0 -65.5 -20t-20.5 -65v-43h156v-92z" />
    <glyph glyph-name="f_f_t.liga" unicode="fft" horiz-adv-x="1136" 
d="M1106 103v-103h-78q-92 0 -146 54.5t-54 146.5v242h-236v-443h-111v443h-248v-443h-111v443h-101v92h101v46q0 84 42.5 127.5t129.5 43.5h90v-89h-68q-46 0 -66.5 -20t-20.5 -65v-43h253v46q0 171 172 171h81v-89h-60q-45 0 -65.5 -20t-20.5 -65v-43h239v159h111v-159
h166v-92h-166v-236q0 -50 26.5 -77t76.5 -27h64z" />
    <glyph glyph-name="f_t.liga" unicode="ft" horiz-adv-x="795" 
d="M765 103v-103h-77q-92 0 -146 54t-54 146v243h-255v-443h-111v443h-101v92h101v46q0 84 42.5 127.5t129.5 43.5h90v-89h-68q-46 0 -66.5 -20t-20.5 -65v-43h259v159h111v-159h165v-92h-165v-237q0 -50 26.5 -76.5t76.5 -26.5h63z" />
    <glyph glyph-name="f_t_t.liga" unicode="ftt" horiz-adv-x="1169" 
d="M1139 103v-103h-79q-92 0 -145.5 54t-53.5 146v243h-274v-237q0 -49 27 -76t76 -27h64v-103h-77q-93 0 -147 54t-54 146v243h-243v-443h-111v443h-101v92h101v53q0 84 42.5 127.5t129.5 43.5h90v-89h-68q-46 0 -66.5 -20t-20.5 -65v-50h247v159h111v-159h274v159h111
v-159h166v-92h-166v-237q0 -50 26.5 -76.5t76.5 -26.5h64z" />
    <glyph glyph-name="r_f.liga" unicode="rf" horiz-adv-x="800" 
d="M786 446h-153v-446h-111v446h-101v94h102v41q0 171 172 171h90v-89h-69q-45 0 -65.5 -20t-20.5 -65v-38h156v-94zM338 541h45v-103h-55q-69 -1 -103.5 -39t-34.5 -111v-288h-111v540h75l19 -75q58 76 165 76z" />
    <glyph glyph-name="t_f.liga" unicode="tf" horiz-adv-x="758" 
d="M745 443h-153v-443h-111v443h-264v-242q0 -48 26 -74t75 -26h60v-101h-81q-89 0 -140 51.5t-51 140.5v251h-96v18l189 205h17v-131h265v55q0 84 42.5 127.5t129.5 43.5h91v-89h-69q-45 0 -66 -20t-21 -65v-52h157v-92z" />
    <glyph glyph-name=".notdef" horiz-adv-x="464" 
d="M380 -194h-294v928h294v-928zM156 671v-30h60v-34h-61v-31h154v31h-61v34h61v30h-153zM155 552v-97h154v32h-61v65h-93zM216 487h-31v33h31v-33zM155 430v-30h61v-35h-61v-30h93v65h61v30h-154zM278 375v-61h-123v-32h154v93h-31zM216 262v-52h32v21h30v-44h-93v75h-30
v-105h154v105h-93zM155 101v-105h154v105h-154zM278 27h-93v44h93v-44zM155 -25v-30h65l-65 -44v-31h154v31h-95l65 44h30v30h-154z" />
    <glyph glyph-name=".null" 
 />
    <glyph glyph-name="nonmarkingreturn" horiz-adv-x="333" 
 />
    <glyph glyph-name="space" unicode=" " horiz-adv-x="252" 
 />
    <glyph glyph-name="exclam" unicode="!" horiz-adv-x="292" 
d="M90 720h112v-514h-112v514zM85 128h122v-128h-122v128z" />
    <glyph glyph-name="quotedbl" unicode="&#x22;" horiz-adv-x="410" 
d="M241 702h103v-254h-103v254zM66 702h103v-254h-103v254z" />
    <glyph glyph-name="numbersign" unicode="#" horiz-adv-x="646" 
d="M516 422l-20 -138h82v-96h-98l-28 -187h-102l27 187h-154l-30 -187h-102l29 187h-75v96h91l22 138h-90v93h105l29 185h102l-29 -185h152l28 185h102l-28 -185h72v-93h-85zM413 422h-152l-23 -138h155z" />
    <glyph glyph-name="dollar" unicode="$" horiz-adv-x="577" 
d="M484 58.5q-54 -53.5 -145 -64.5v-77h-90v76q-98 11 -153.5 69.5t-55.5 152.5h112q0 -55 39.5 -86.5t100.5 -31.5q56 0 95 27t39 71q0 31 -19.5 49.5t-49 28.5t-82.5 23q-70 16 -115 33t-77 56t-32 105q0 80 50.5 129.5t139.5 60.5v71h92v-72q88 -12 137 -67t49 -141h-110
q0 51 -35 79.5t-90 28.5q-52 0 -87.5 -22.5t-35.5 -61.5q0 -29 19 -47t48 -27.5t81 -22.5q71 -16 117 -34.5t79 -58.5t33 -109q0 -84 -54 -137.5z" />
    <glyph glyph-name="percent" unicode="%" horiz-adv-x="779" 
d="M74 411.5q-44 43.5 -44 110.5t44 110t112 43t111 -43t43 -110t-43 -110.5t-111 -43.5t-112 43.5zM534 666h101l-401 -665h-100zM237 469.5q20 20.5 20 52.5q0 31 -20 51.5t-51 20.5t-51.5 -20.5t-20.5 -51.5q0 -32 20.5 -52.5t51.5 -20.5t51 20.5zM483 34q-43 43 -43 110
t43 110t111 43t111.5 -43t43.5 -110t-43.5 -110t-111.5 -43t-111 43zM645 93q20 20 20 51q0 32 -19.5 51.5t-51.5 19.5q-31 0 -51 -20t-20 -51t20 -51t51 -20t51 20z" />
    <glyph glyph-name="ampersand" unicode="&#x26;" horiz-adv-x="633" 
d="M507 0q-19 20 -48 53q-84 -64 -201 -64q-64 0 -112.5 24t-75.5 67.5t-27 100.5q0 69 35.5 115.5t97.5 86.5q-42 57 -57.5 95t-15.5 76q0 72 51 114.5t135 42.5q82 0 132.5 -42.5t50.5 -111.5q0 -46 -21.5 -81.5t-54 -61.5t-82.5 -55q40 -50 140 -164q32 55 33 125h94
q-1 -117 -60 -200l109 -120h-123zM226 607q-24 -20 -24 -53q0 -41 57 -122q57 32 86 59.5t29 64.5q0 31 -23.5 51t-61.5 20q-39 0 -63 -20zM393 126q-98 108 -160 184q-41 -28 -63.5 -57.5t-22.5 -67.5q0 -44 33.5 -71t87.5 -27q69 0 125 39z" />
    <glyph glyph-name="quotesingle" unicode="'" horiz-adv-x="236" 
d="M66 702h103v-254h-103v254z" />
    <glyph glyph-name="parenleft" unicode="(" horiz-adv-x="321" 
d="M84.5 76q-37.5 118 -37.5 248t37.5 249t105.5 216h123q-66 -87 -111 -209.5t-45 -255.5q0 -134 44.5 -256.5t110.5 -207.5h-122q-68 98 -105.5 216z" />
    <glyph glyph-name="parenright" unicode=")" horiz-adv-x="321" 
d="M9 -140q67 85 111.5 207.5t44.5 256.5q0 133 -45 255.5t-111 209.5h123q68 -98 105.5 -216.5t37.5 -248.5q0 -129 -37.5 -247.5t-105.5 -216.5h-123z" />
    <glyph glyph-name="asterisk" unicode="*" horiz-adv-x="410" 
d="M273 526l67 -82l-65 -54l-70 89l-70 -89l-66 54l68 82l-99 34l28 79l97 -35v103h85v-103l96 35l29 -79z" />
    <glyph glyph-name="plus" unicode="+" horiz-adv-x="534" 
d="M500 288h-178v-188h-109v188h-179v102h179v183h109v-183h178v-102z" />
    <glyph glyph-name="comma" unicode="," horiz-adv-x="258" 
d="M72 -86q62 15 62 86h-68v127h126v-118q0 -64 -31.5 -102.5t-88.5 -50.5v58z" />
    <glyph glyph-name="hyphen" unicode="-" horiz-adv-x="452" 
d="M66 334h321v-108h-321v108z" />
    <glyph glyph-name="period" unicode="." horiz-adv-x="252" 
d="M65 128h122v-128h-122v128z" />
    <glyph glyph-name="slash" unicode="/" horiz-adv-x="462" 
d="M321 761h116l-297 -835h-116z" />
    <glyph glyph-name="zero" unicode="0" horiz-adv-x="627" 
d="M174.5 30q-59.5 42 -91.5 120t-32 183q0 106 31.5 183.5t91 119t140.5 41.5q80 0 139 -41.5t91 -119t32 -183.5q0 -105 -32 -183t-91.5 -120t-138.5 -42q-80 0 -139.5 42zM426.5 154q40.5 64 40.5 179q0 114 -40.5 178t-112.5 64q-73 0 -113.5 -63.5t-40.5 -178.5
q0 -116 40.5 -179.5t113.5 -63.5q72 0 112.5 64z" />
    <glyph glyph-name="one" unicode="1" horiz-adv-x="343" 
d="M253 665v-665h-107v568h-117v97h224z" />
    <glyph glyph-name="two" unicode="2" horiz-adv-x="535" 
d="M490 102v-102h-455v29q149 163 216 243t88.5 122.5t21.5 83.5q0 44 -27.5 71t-72.5 27q-47 0 -75.5 -27.5t-28.5 -71.5v-15h-108v15q0 59 26.5 105t74.5 71t110 25q61 0 109 -25.5t74.5 -71t26.5 -103.5q0 -46 -17.5 -90.5t-66 -110.5t-144.5 -175h248z" />
    <glyph glyph-name="three" unicode="3" horiz-adv-x="542" 
d="M447.5 345q47.5 -57 47.5 -136q0 -63 -30 -113.5t-82.5 -79t-116.5 -28.5q-63 0 -112.5 27t-79 75.5t-32.5 110.5h108q3 -50 34.5 -80.5t81.5 -30.5q52 0 86 34.5t34 87.5t-36.5 86.5t-93.5 33.5h-84v21l138 214h-248v98h407v-22l-147 -227q78 -14 125.5 -71z" />
    <glyph glyph-name="four" unicode="4" horiz-adv-x="547" 
d="M518 135h-64v-135h-104v135h-331v22l227 508h110l-194 -435h190l18 185h84v-185h64v-95z" />
    <glyph glyph-name="five" unicode="5" horiz-adv-x="533" 
d="M380 397.5q53 -28.5 83 -78t30 -110.5q0 -63 -30 -113.5t-81.5 -79t-115.5 -28.5q-63 0 -114 27.5t-81 76t-31 109.5h108q2 -49 35 -80t83 -31q51 0 84.5 33.5t33.5 85.5q0 53 -36.5 87.5t-91.5 34.5h-176l-13 16l36 318h344v-98h-257l-15 -141h85q67 0 120 -28.5z" />
    <glyph glyph-name="six" unicode="6" horiz-adv-x="562" 
d="M421 410q51 -27 81.5 -76.5t30.5 -113.5q0 -67 -31 -120t-86.5 -82.5t-125.5 -29.5q-71 0 -127 29.5t-87 82.5t-31 120q0 91 72 217l133 232h118l-28 -49q-96 -172 -110 -198q39 15 79 15q61 0 112 -27zM386 126.5q38 36.5 38 93.5q0 58 -38 94.5t-97 36.5t-97 -37
t-38 -94q0 -56 38.5 -93t96.5 -37q59 0 97 36.5z" />
    <glyph glyph-name="seven" unicode="7" horiz-adv-x="509" 
d="M488 665v-16l-258 -649h-114l227 567h-316v98h461z" />
    <glyph glyph-name="eight" unicode="8" horiz-adv-x="581" 
d="M508.5 288.5q23.5 -41.5 23.5 -92.5q0 -60 -31 -107.5t-86 -74t-125 -26.5q-71 0 -125.5 26t-85 73.5t-30.5 108.5q0 50 23.5 91.5t65.5 67.5q-32 24 -49.5 60.5t-17.5 78.5q0 53 27.5 95t77.5 65.5t114 23.5t114 -23t77.5 -65t27.5 -96q0 -42 -17.5 -79t-47.5 -60
q41 -25 64.5 -66.5zM208.5 560.5q-31.5 -26.5 -31.5 -67.5q0 -42 31.5 -69t81.5 -27t81.5 27t31.5 69q0 41 -31.5 67.5t-81.5 26.5t-81.5 -26.5zM386.5 113.5q36.5 31.5 36.5 81.5q0 51 -36.5 82.5t-96.5 31.5q-58 0 -95 -32t-37 -82t37 -81.5t95 -31.5q60 0 96.5 31.5z" />
    <glyph glyph-name="nine" unicode="9" horiz-adv-x="560" 
d="M397.5 648q55.5 -30 86.5 -82.5t31 -119.5q0 -96 -70 -217l-133 -229h-119q115 199 138 243q-37 -15 -79 -15q-63 0 -114 28.5t-80 78.5t-29 111q0 67 31 119.5t86 82.5t125 30q71 0 126.5 -30zM369.5 352q38.5 37 38.5 94q0 56 -38.5 93t-97.5 37t-97.5 -36.5
t-38.5 -93.5q0 -58 38.5 -94.5t97.5 -36.5t97.5 37z" />
    <glyph glyph-name="colon" unicode=":" horiz-adv-x="255" 
d="M66 501h122v-128h-122v128zM66 128h122v-128h-122v128z" />
    <glyph glyph-name="semicolon" unicode=";" horiz-adv-x="261" 
d="M70 502h122v-128h-122v128zM73 -86q62 15 62 86h-68v127h126v-118q0 -64 -31.5 -102.5t-88.5 -50.5v58z" />
    <glyph glyph-name="less" unicode="&#x3c;" horiz-adv-x="531" 
d="M457 499l-264 -162l264 -161v-124l-430 272v22l430 278v-125z" />
    <glyph glyph-name="equal" unicode="=" horiz-adv-x="619" 
d="M69 278h480v-103h-480v103zM69 498h480v-103h-480v103z" />
    <glyph glyph-name="greater" unicode="&#x3e;" horiz-adv-x="531" 
d="M504 346v-22l-430 -272v124l264 161l-264 162v125z" />
    <glyph glyph-name="question" unicode="?" horiz-adv-x="526" 
d="M191 225q0 46 14 79t34.5 53.5t52.5 45.5q40 30 60 56t20 68q0 50 -33 80.5t-84 30.5q-49 0 -84.5 -29.5t-37.5 -78.5h-104q1 66 33 113.5t83 72t110 24.5q61 0 112.5 -25.5t82 -74t30.5 -113.5q0 -47 -14 -80t-34 -54t-52 -46q-40 -33 -59 -57.5t-19 -64.5v-22h-111v22z
M185 128h122v-128h-122v128z" />
    <glyph glyph-name="at" unicode="@" horiz-adv-x="1006" 
d="M736.5 617.5q104.5 -52.5 164 -148.5t59.5 -223q0 -69 -24.5 -120t-66 -78.5t-91.5 -27.5q-43 0 -77 18.5t-51 51.5q-30 -38 -73 -59t-94 -21q-64 0 -115 29.5t-80 81.5t-29 116t29 115.5t80 81t115 29.5q47 0 88 -18t70 -51l14 45h55v-255q0 -36 20 -58.5t51 -22.5
q39 0 65 39t26 104q0 98 -46.5 175.5t-130 120.5t-191.5 43t-193 -44.5t-132.5 -123.5t-47.5 -179q0 -99 44.5 -176t124.5 -120t183 -43q98 0 171 39v-86q-92 -39 -182 -39q-124 0 -222 54.5t-153 151t-55 219.5q0 130 60 228t165 151t235 53t234.5 -52.5zM585 141.5
q37 37.5 37 96.5q0 58 -37 95.5t-95 37.5q-57 0 -94.5 -38t-37.5 -95q0 -58 37.5 -96t94.5 -38q58 0 95 37.5z" />
    <glyph glyph-name="A" unicode="A" horiz-adv-x="706" 
d="M507 152h-312l-60 -152h-122l282 700h108l289 -700h-124zM235 255h232l-117 295z" />
    <glyph glyph-name="B" unicode="B" horiz-adv-x="644" 
d="M565.5 297.5q26.5 -45.5 26.5 -101.5q0 -54 -28.5 -99t-78 -71t-108.5 -26h-288v700h282q58 0 104 -23.5t72.5 -64.5t26.5 -92q0 -46 -22 -88t-59 -67q46 -22 72.5 -67.5zM432.5 568.5q-27.5 25.5 -68.5 25.5h-162v-182h162q42 0 69 26t27 65q0 40 -27.5 65.5zM445.5 138
q29.5 28 29.5 71t-29.5 71t-75.5 28h-168v-198h168q46 0 75.5 28z" />
    <glyph glyph-name="C" unicode="C" horiz-adv-x="774" 
d="M219.5 35q-82.5 47 -129 129.5t-46.5 185.5t46.5 185.5t129 129.5t184.5 47q82 0 152 -32t117.5 -91t65.5 -137h-116q-25 70 -83 109.5t-136 39.5q-69 0 -124.5 -32.5t-87 -89.5t-31.5 -129t31.5 -129t87 -89.5t124.5 -32.5q80 0 139 42.5t82 116.5h117
q-18 -81 -65.5 -142t-118 -94.5t-154.5 -33.5q-102 0 -184.5 47z" />
    <glyph glyph-name="D" unicode="D" horiz-adv-x="736" 
d="M519 655q81 -45 126.5 -125t45.5 -180t-45.5 -180t-126.5 -125t-183 -45h-247v700h247q102 0 183 -45zM457.5 138.5q54.5 31.5 85 86.5t30.5 125t-30.5 125.5t-85 86.5t-124.5 31h-129v-486h129q70 0 124.5 31.5z" />
    <glyph glyph-name="E" unicode="E" horiz-adv-x="556" 
d="M507 109v-109h-418v700h407v-108h-292v-182h266v-106h-266v-195h303z" />
    <glyph glyph-name="F" unicode="F" horiz-adv-x="528" 
d="M204 592v-198h263v-105h-263v-289h-115v700h404v-108h-289z" />
    <glyph glyph-name="G" unicode="G" horiz-adv-x="798" 
d="M756 355q-1 -106 -46.5 -190t-125.5 -131t-181 -47q-102 0 -184 47t-128.5 130t-46.5 186t46 185.5t127.5 129.5t182.5 47q84 0 157.5 -33t123 -92t65.5 -134h-119q-22 67 -83.5 107.5t-140.5 40.5q-70 0 -125 -32t-86 -89t-31 -130q0 -74 30.5 -131t85.5 -89t126 -32
q83 0 146 43.5t82 114.5h-249v99h374z" />
    <glyph glyph-name="H" unicode="H" horiz-adv-x="728" 
d="M639 700v-700h-115v305h-320v-305h-115v700h115v-286h320v286h115z" />
    <glyph glyph-name="I" unicode="I" horiz-adv-x="293" 
d="M89 700h115v-700h-115v700z" />
    <glyph glyph-name="J" unicode="J" horiz-adv-x="602" 
d="M146.5 19q-56.5 32 -88.5 88.5t-32 127.5v19h113v-14q0 -63 38 -103t97 -40q58 0 95 40t37 103v460h114v-465q0 -71 -31.5 -127.5t-87.5 -88.5t-127 -32t-127.5 32z" />
    <glyph glyph-name="K" unicode="K" horiz-adv-x="645" 
d="M286 307h-82v-307h-115v700h115v-286h81l200 286h141l-239 -338l261 -362h-143z" />
    <glyph glyph-name="L" unicode="L" horiz-adv-x="516" 
d="M495 107v-107h-406v700h115v-593h291z" />
    <glyph glyph-name="M" unicode="M" horiz-adv-x="964" 
d="M806 0l-82 507l-227 -496h-29l-228 496l-82 -507h-117l114 700h113l214 -476l214 476h114l113 -700h-117z" />
    <glyph glyph-name="N" unicode="N" horiz-adv-x="751" 
d="M662 700v-700h-97l-363 500v-500h-113v700h104l356 -492v492h113z" />
    <glyph glyph-name="O" unicode="O" horiz-adv-x="826" 
d="M224.5 34.5q-84.5 47.5 -132.5 130.5t-48 185t48 185t132.5 130.5t188.5 47.5q105 0 189 -47.5t132 -130t48 -185.5t-48 -185.5t-132 -130t-189 -47.5q-104 0 -188.5 47.5zM542 130q58 33 90.5 91t32.5 129q0 72 -32.5 129.5t-90.5 90.5t-129 33t-128.5 -33t-90.5 -91
t-33 -129t33 -128.5t90.5 -91t128.5 -33.5t129 33z" />
    <glyph glyph-name="P" unicode="P" horiz-adv-x="615" 
d="M469.5 670q54.5 -30 85.5 -83t31 -118t-31 -118t-85.5 -83t-121.5 -30h-144v-238h-115v700h259q67 0 121.5 -30zM434 381.5q36 34.5 36 87.5t-36 87.5t-92 34.5h-138v-244h138q56 0 92 34.5z" />
    <glyph glyph-name="Q" unicode="Q" horiz-adv-x="827" 
d="M671 -79l-89 103q-76 -37 -169 -37q-104 0 -188.5 47.5t-132.5 130.5t-48 185t48 185t132.5 130.5t188.5 47.5q105 0 189 -47.5t132 -130t48 -185.5q0 -81 -30.5 -151.5t-86.5 -119.5l135 -158h-129zM506 113l-153 179h129l108 -126q36 34 55.5 81.5t19.5 102.5
q0 72 -32.5 129.5t-90.5 90.5t-129 33t-128.5 -33t-90.5 -91t-33 -129t33 -128.5t90.5 -91t128.5 -33.5q47 0 93 16z" />
    <glyph glyph-name="R" unicode="R" horiz-adv-x="651" 
d="M337 259h-133v-259h-115v700h273q66 0 120 -28.5t84.5 -79t30.5 -113.5q0 -71 -39 -125.5t-104 -78.5l162 -275h-129zM204 367h151q56 0 90.5 31.5t34.5 81.5q0 49 -34.5 80.5t-90.5 31.5h-151v-225z" />
    <glyph glyph-name="S" unicode="S" horiz-adv-x="606" 
d="M170 17q-60 28 -93 80.5t-33 122.5h116q0 -57 41.5 -89t105.5 -32q58 0 98 28t40 75q0 33 -21 53t-52.5 31t-86.5 24q-74 18 -119.5 36t-78 57.5t-32.5 106.5q0 94 66 147t179 53q114 0 178 -57.5t64 -156.5h-114q0 51 -36.5 79t-93.5 28q-55 0 -91.5 -24t-36.5 -65
q0 -30 20 -49t51 -29.5t84 -23.5q75 -19 122 -38t81 -59.5t34 -110.5q0 -68 -33.5 -116.5t-91 -73.5t-129.5 -25q-78 0 -138 28z" />
    <glyph glyph-name="T" unicode="T" horiz-adv-x="568" 
d="M547 593h-206v-593h-114v593h-206v107h526v-107z" />
    <glyph glyph-name="U" unicode="U" horiz-adv-x="725" 
d="M218.5 22q-64.5 35 -101 97.5t-36.5 142.5v438h116v-431q0 -77 46.5 -124.5t119.5 -47.5t119 47.5t46 124.5v431h115v-438q0 -80 -36.5 -142.5t-100.5 -97.5t-143 -35q-80 0 -144.5 35z" />
    <glyph glyph-name="V" unicode="V" horiz-adv-x="690" 
d="M673 700l-273 -700h-107l-279 700h127l205 -536l201 536h126z" />
    <glyph glyph-name="W" unicode="W" horiz-adv-x="1033" 
d="M1013 700l-218 -700h-102l-177 452l-173 -452h-102l-223 700h122l158 -517l196 507h43l201 -507l155 517h120z" />
    <glyph glyph-name="X" unicode="X" horiz-adv-x="611" 
d="M476 0l-170 273l-170 -273h-129l229 367l-213 333h129l154 -246l153 246h128l-211 -337l229 -363h-129z" />
    <glyph glyph-name="Y" unicode="Y" horiz-adv-x="667" 
d="M392 280v-280h-118v281l-251 419h124l187 -313l187 313h125z" />
    <glyph glyph-name="Z" unicode="Z" horiz-adv-x="572" 
d="M545 107v-107h-519v18l332 575h-316v107h492v-21l-329 -572h340z" />
    <glyph glyph-name="bracketleft" unicode="[" horiz-adv-x="341" 
d="M89 795h221v-94h-117v-749h119v-96h-223v939z" />
    <glyph glyph-name="backslash" unicode="\" horiz-adv-x="462" 
d="M322 -74l-297 835h116l297 -835h-116z" />
    <glyph glyph-name="bracketright" unicode="]" horiz-adv-x="341" 
d="M30 -144v96h118v749h-116v94h220v-939h-222z" />
    <glyph glyph-name="asciicircum" unicode="^" horiz-adv-x="548" 
d="M266 702h18l232 -363h-125l-118 189l-117 -189h-125z" />
    <glyph glyph-name="underscore" unicode="_" horiz-adv-x="516" 
d="M0 -43h516v-106h-516v106z" />
    <glyph glyph-name="grave" unicode="`" horiz-adv-x="600" 
d="M207 602l-95 152h118l62 -152h-85z" />
    <glyph glyph-name="a" unicode="a" horiz-adv-x="696" 
d="M617 540v-540h-90l-11 66q-37 -38 -87 -58.5t-108 -20.5q-79 0 -143.5 37t-101.5 101.5t-37 144.5t37 145t101.5 101.5t143.5 36.5q58 0 109 -21t88 -59l13 67h86zM419.5 116q40.5 23 63 63.5t22.5 90.5t-22.5 90.5t-63 63.5t-90.5 23t-90.5 -23t-63.5 -63.5t-23 -90.5
t23 -90.5t63.5 -63.5t90.5 -23t90.5 23z" />
    <glyph glyph-name="b" unicode="b" horiz-adv-x="688" 
d="M513 516.5q64 -36.5 100 -101t36 -145.5q0 -80 -36 -144.5t-100 -101.5t-145 -37q-56 0 -104.5 19.5t-86.5 54.5l-14 -61h-84v734h111v-244q36 30 81.5 46.5t96.5 16.5q81 0 145 -36.5zM449.5 116q40.5 23 63 63.5t22.5 90.5t-22.5 90.5t-63 63.5t-90.5 23t-90.5 -23
t-63.5 -63.5t-23 -90.5q0 -49 23 -89.5t63.5 -64t90.5 -23.5t90.5 23z" />
    <glyph glyph-name="c" unicode="c" horiz-adv-x="622" 
d="M178.5 24q-64.5 37 -102 102t-37.5 145q0 79 37 143.5t102 101.5t145 37q99 0 171.5 -56t95.5 -149h-110q-21 47 -63 73t-95 26q-48 0 -86.5 -23.5t-61 -64t-22.5 -89.5t22.5 -89.5t61.5 -64t86 -23.5q53 0 94 27t64 77h112q-23 -95 -96.5 -152.5t-173.5 -57.5
q-79 0 -143.5 37z" />
    <glyph glyph-name="d" unicode="d" horiz-adv-x="688" 
d="M609 734v-734h-84l-14 61q-37 -36 -86 -55t-105 -19q-80 0 -144.5 37t-100.5 101.5t-36 144.5q0 81 36 145.5t100.5 101t144.5 36.5q51 0 96.5 -16.5t81.5 -46.5v244h111zM419.5 116.5q40.5 23.5 63.5 64t23 89.5q0 50 -23 90.5t-63.5 63.5t-90.5 23t-90.5 -23t-63 -63.5
t-22.5 -90.5t22.5 -90.5t63 -63.5t90.5 -23t90.5 23.5z" />
    <glyph glyph-name="e" unicode="e" horiz-adv-x="631" 
d="M590 232h-438q10 -65 54 -103t111 -38q48 0 86 21t59 58h117q-32 -85 -102 -134t-160 -49q-78 0 -141.5 37t-100 102t-36.5 144q0 80 36.5 144.5t100 101.5t141.5 37q81 0 143.5 -38t97 -103t34.5 -143q0 -13 -2 -37zM211 418q-43 -35 -57 -96h327q-15 61 -58.5 96
t-105.5 35q-63 0 -106 -35z" />
    <glyph glyph-name="f" unicode="f" horiz-adv-x="399" 
d="M385 443h-152v-443h-111v443h-101v92h101v46q0 84 42.5 127.5t129.5 43.5h90v-89h-68q-46 0 -66.5 -20t-20.5 -65v-43h156v-92z" />
    <glyph glyph-name="g" unicode="g" horiz-adv-x="673" 
d="M594 540v-469q0 -130 -72.5 -204t-197.5 -74q-103 0 -173 51t-91 140h111q15 -44 57 -68t95 -24q72 0 117 44t45 120v24q-36 -31 -81.5 -47.5t-97.5 -16.5q-74 0 -135 35.5t-96.5 97t-35.5 135.5t35.5 136t96.5 97.5t135 35.5q59 0 110 -22t87 -61l18 70h73zM404 140.5
q38 21.5 59.5 59t21.5 84.5t-21.5 85t-59.5 59.5t-85 21.5t-85.5 -21.5t-60 -59.5t-21.5 -85t21.5 -84.5t60 -59t85.5 -21.5t85 21.5z" />
    <glyph glyph-name="h" unicode="h" horiz-adv-x="642" 
d="M515 491q55 -61 55 -166v-325h-111v303q0 73 -31.5 111.5t-92.5 38.5q-63 0 -104 -46t-41 -118v-289h-111v734h111v-255q32 35 77 54t98 19q95 0 150 -61z" />
    <glyph glyph-name="i" unicode="i" horiz-adv-x="269" 
d="M77 738h115v-114h-115v114zM79 540h111v-540h-111v540z" />
    <glyph glyph-name="j" unicode="j" horiz-adv-x="281" 
d="M89 738h115v-114h-115v114zM-43 -92h39q46 0 70.5 24.5t24.5 71.5v536h111v-544q0 -56 -24 -99t-67 -67t-99 -24h-55v102z" />
    <glyph glyph-name="k" unicode="k" horiz-adv-x="556" 
d="M257 230h-67v-230h-111v734h111v-403h68l146 209h132l-183 -259l202 -281h-136z" />
    <glyph glyph-name="l" unicode="l" horiz-adv-x="269" 
d="M79 734h111v-734h-111v734z" />
    <glyph glyph-name="m" unicode="m" horiz-adv-x="945" 
d="M782.5 525.5q43.5 -26.5 67.5 -74t24 -108.5v-343h-111v316q0 65 -27.5 101t-77.5 36q-36 0 -65 -20.5t-45.5 -56.5t-16.5 -81v-295h-109v316q0 66 -27 101.5t-78 35.5q-36 0 -65 -20.5t-45.5 -56.5t-16.5 -81v-295h-111v540h79l19 -70q30 38 74.5 60t93.5 22
q54 0 96 -25t66 -69q29 44 76 69t100 25q56 0 99.5 -26.5z" />
    <glyph glyph-name="n" unicode="n" horiz-adv-x="642" 
d="M473.5 523q46.5 -29 71.5 -80.5t25 -117.5v-325h-111v303q0 73 -31.5 111.5t-92.5 38.5q-64 0 -104.5 -46t-40.5 -118v-289h-111v540h77l22 -75q31 41 79.5 64t107.5 23q62 0 108.5 -29z" />
    <glyph glyph-name="o" unicode="o" horiz-adv-x="656" 
d="M181 24q-66 37 -104 101.5t-38 144.5t37.5 145t104 101.5t147.5 36.5t147.5 -36.5t104 -101.5t37.5 -145t-38 -144.5t-104 -101.5t-147 -37t-147 37zM418.5 115.5q40.5 22.5 63 63t22.5 91.5t-22.5 91.5t-63 63t-90.5 22.5t-90.5 -22.5t-63 -63t-22.5 -91.5t22.5 -91.5
t63 -63t90.5 -22.5t90.5 22.5z" />
    <glyph glyph-name="p" unicode="p" horiz-adv-x="689" 
d="M513 516.5q64 -36.5 100 -101.5t36 -145t-36 -144.5t-100 -101.5t-144 -37q-52 0 -97.5 17t-81.5 48v-246h-111v734h75l21 -66q37 37 87 58t107 21q80 0 144 -36.5zM451 116q40 23 63 63.5t23 90.5t-23 90.5t-63 63.5t-90 23t-90.5 -23t-63.5 -63.5t-23 -90.5t23 -90.5
t63.5 -63.5t90.5 -23t90 23z" />
    <glyph glyph-name="q" unicode="q" horiz-adv-x="689" 
d="M609 540v-734h-111v246q-36 -31 -81.5 -48t-97.5 -17q-79 0 -143 37t-100.5 101.5t-36.5 144.5t36 145t100 101.5t144 36.5q57 0 107 -20.5t88 -58.5l21 66h74zM418.5 116q40.5 23 63.5 63.5t23 90.5t-23 90.5t-63.5 63.5t-90.5 23t-90.5 -23t-63 -63.5t-22.5 -90.5
t22.5 -90.5t63 -63.5t90.5 -23t90.5 23z" />
    <glyph glyph-name="r" unicode="r" horiz-adv-x="394" 
d="M386 543v-105h-58q-69 0 -103.5 -38t-34.5 -112v-288h-111v540h75l19 -74q29 39 69.5 58t95.5 19h48z" />
    <glyph glyph-name="s" unicode="s" horiz-adv-x="518" 
d="M100 37q-60 50 -62 134h109q2 -42 34 -64t82 -22q46 0 75.5 18.5t29.5 51.5q0 34 -31 49t-93 25q-60 10 -100 23.5t-68 46.5t-28 91q0 48 26 85t73.5 57.5t109.5 20.5q94 0 150.5 -47t58.5 -126h-105q-1 39 -29 59t-77 20q-46 0 -73 -18t-27 -47q0 -32 29.5 -45.5
t91.5 -22.5q65 -11 104.5 -24t68.5 -46.5t29 -95.5q0 -78 -60 -125.5t-159 -47.5t-159 50z" />
    <glyph glyph-name="t" unicode="t" horiz-adv-x="410" 
d="M381 101v-101h-82q-89 0 -140 51.5t-51 140.5v253h-97v21l188 200h19v-126h160v-95h-159v-244q0 -48 26 -74t75 -26h61z" />
    <glyph glyph-name="u" unicode="u" horiz-adv-x="632" 
d="M187.5 17q-55.5 30 -86 84.5t-30.5 126.5v312h111v-296q0 -70 36 -110.5t98 -40.5q63 0 99 40.5t36 110.5v296h111v-312q0 -72 -30.5 -126.5t-86 -84.5t-129.5 -30q-73 0 -128.5 30z" />
    <glyph glyph-name="v" unicode="v" horiz-adv-x="577" 
d="M563 540l-222 -540h-102l-228 540h117l162 -401l159 401h114z" />
    <glyph glyph-name="w" unicode="w" horiz-adv-x="850" 
d="M835 540l-181 -540h-90l-139 329l-139 -329h-90l-180 540h114l122 -364l155 358h36l157 -361l124 367h111z" />
    <glyph glyph-name="x" unicode="x" horiz-adv-x="527" 
d="M398 0l-135 206l-136 -206h-122l192 279l-177 261h124l120 -182l123 182h122l-180 -255l194 -285h-125z" />
    <glyph glyph-name="y" unicode="y" horiz-adv-x="593" 
d="M583 540l-248 -550q-31 -70 -61.5 -109.5t-69.5 -57t-94 -17.5h-55v100h46q37 0 58.5 9t38 31t36.5 68l12 25l-235 501h121l171 -377l161 377h119z" />
    <glyph glyph-name="z" unicode="z" horiz-adv-x="490" 
d="M457 103v-103h-433v14l261 424h-241v102h412v-17l-259 -420h260z" />
    <glyph glyph-name="braceleft" unicode="{" horiz-adv-x="356" 
d="M325 -45v-97h-89q-35 0 -65.5 17.5t-48 47.5t-17.5 66v232q0 23 -16 38.5t-39 15.5h-17v92h17q23 0 39 16t16 39v236q0 35 17.5 65t48 47.5t65.5 17.5h88v-98h-48q-26 0 -43.5 -17t-17.5 -43v-201q0 -36 -18.5 -65.5t-47.5 -41.5q29 -12 47.5 -41.5t18.5 -65.5v-199
q0 -26 17.5 -43.5t43.5 -17.5h49z" />
    <glyph glyph-name="bar" unicode="|" horiz-adv-x="282" 
d="M89 840h104v-1030h-104v1030z" />
    <glyph glyph-name="braceright" unicode="}" horiz-adv-x="356" 
d="M323 367v-92h-17q-23 0 -39 -15.5t-16 -38.5v-232q0 -36 -17.5 -66t-48 -47.5t-65.5 -17.5h-88v97h49q26 0 43.5 17.5t17.5 43.5v199q0 36 18.5 65.5t47.5 41.5q-29 12 -47.5 41.5t-18.5 65.5v201q0 26 -17.5 43t-43.5 17h-48v98h87q35 0 65.5 -17.5t48 -47.5t17.5 -65
v-236q0 -23 16 -39t39 -16h17z" />
    <glyph glyph-name="asciitilde" unicode="~" horiz-adv-x="584" 
d="M326 244.5q-29 12.5 -62 41.5q-21 18 -34 25t-27 7q-25 0 -41 -19.5t-16 -50.5v-14h-79v18q0 74 36.5 118.5t98.5 44.5q35 0 62.5 -13t59.5 -41q22 -20 35.5 -27.5t28.5 -7.5q26 0 41.5 19.5t15.5 50.5v15h78v-17q0 -75 -35.5 -118.5t-97.5 -43.5q-35 0 -64 12.5z" />
    <glyph glyph-name="uni00A0" unicode="&#xa0;" horiz-adv-x="252" 
 />
    <glyph glyph-name="exclamdown" unicode="&#xa1;" horiz-adv-x="276" 
d="M199 412h-122v128h122v-128zM194 -180h-112v514h112v-514z" />
    <glyph glyph-name="cent" unicode="&#xa2;" horiz-adv-x="598" 
d="M492 57q-56 -52 -135 -64v-76h-88v75q-65 10 -116.5 47t-80.5 94.5t-29 124.5q0 68 29 125t80.5 94t116.5 46v82h88v-82q79 -12 134.5 -63.5t74.5 -128.5h-106q-20 44 -59.5 68.5t-89.5 24.5q-45 0 -81.5 -21.5t-57.5 -59.5t-21 -85q0 -46 21 -84.5t58 -60.5t81 -22
q50 0 89.5 26t59.5 71l107 -1q-19 -78 -75 -130z" />
    <glyph glyph-name="sterling" unicode="&#xa3;" horiz-adv-x="600" 
d="M555 175v-175h-509v76l67 15v183h-54v91h54v118q0 59 27 104.5t75.5 71t109.5 25.5q60 0 106 -25t71.5 -70.5t25.5 -103.5v-12h-99v6q0 47 -29 76.5t-75 29.5t-75.5 -30.5t-29.5 -78.5v-111h162v-91h-162v-180h236v81h99z" />
    <glyph glyph-name="currency" unicode="&#xa4;" horiz-adv-x="602" 
d="M493 44l-76 77q-54 -35 -117 -35t-116 34l-73 -76l-64 64l73 75q-35 54 -35 117q0 68 38 123l-73 74l63 63l76 -75q52 30 111 30q61 0 112 -31l76 76l63 -63l-74 -75q38 -55 38 -122q0 -62 -35 -116l76 -77zM193 239.5q17 -28.5 46 -45t62 -16.5q50 0 85.5 36.5
t35.5 86.5q0 51 -35 87t-86 36q-33 0 -62 -16.5t-46 -45t-17 -61.5t17 -61.5z" />
    <glyph glyph-name="yen" unicode="&#xa5;" horiz-adv-x="650" 
d="M379 274h179v-67h-179v-55h179v-66h-179v-86h-109v86h-179v66h179v55h-179v67h179v22l-240 369h113l181 -283l183 283h114l-242 -368v-23z" />
    <glyph glyph-name="brokenbar" unicode="&#xa6;" horiz-adv-x="282" 
d="M89 840h104v-440h-104v440zM89 260h104v-450h-104v450z" />
    <glyph glyph-name="section" unicode="&#xa7;" horiz-adv-x="524" 
d="M452 82q0 -71 -50.5 -110.5t-134.5 -39.5q-90 0 -143.5 46t-53.5 121h92q0 -38 30.5 -60t75.5 -22q39 0 65 17.5t26 46.5q0 33 -30 49.5t-92 32.5q-59 15 -97 30t-65.5 48.5t-27.5 89.5q0 87 75 131q-47 37 -47 100q0 73 49 112.5t131 39.5q88 0 142 -46.5t54 -121.5h-92
q0 38 -30 60t-75 22q-37 0 -61.5 -17.5t-24.5 -47.5q0 -33 29.5 -50t88.5 -33q59 -14 97 -29.5t65.5 -48.5t27.5 -89q0 -79 -71 -129q47 -39 47 -102zM159.5 291q17.5 -18 43 -28.5t71.5 -23.5q12 -3 44 -13q30 12 47 32t17 48q0 30 -18 49.5t-44 30t-74 24.5q-8 2 -17 5
t-19 6q-32 -11 -50 -33t-18 -50q0 -29 17.5 -47z" />
    <glyph glyph-name="dieresis" unicode="&#xa8;" horiz-adv-x="600" 
d="M99 738h122v-115h-122v115zM310 738h122v-115h-122v115z" />
    <glyph glyph-name="copyright" unicode="&#xa9;" horiz-adv-x="835" 
d="M225.5 35q-84.5 46 -132 128t-47.5 186t47.5 186t132 128t191.5 46t191.5 -46t132 -128t47.5 -186t-47.5 -186t-132 -128t-191.5 -46t-191.5 46zM571 94q68 37 106.5 103.5t38.5 151.5t-38.5 152t-106.5 104t-154 37q-87 0 -155 -37t-106 -104t-38 -152t38 -151.5
t106 -103.5t155 -37q86 0 154 37zM322.5 190.5q-42.5 24.5 -67 66.5t-24.5 93q0 52 24.5 94.5t67 66.5t94.5 24q64 0 111 -36.5t62 -97.5h-73q-14 30 -40 46.5t-60 16.5q-48 0 -80 -33t-32 -81q0 -47 32 -79.5t80 -32.5q34 0 59.5 17t39.5 47h75q-15 -62 -62.5 -99
t-111.5 -37q-52 0 -94.5 24.5z" />
    <glyph glyph-name="ordfeminine" unicode="&#xaa;" horiz-adv-x="460" 
d="M393 708v-333h-64l-8 41q-48 -46 -115 -46q-46 0 -84 23t-60 62.5t-22 86.5t22 86t60 62t84 23q67 0 116 -47l10 42h61zM283 472q27 28 27 70t-27 70t-67 28q-41 0 -68 -28t-27 -70t27 -70t68 -28q40 0 67 28z" />
    <glyph glyph-name="guillemotleft" unicode="&#xab;" horiz-adv-x="630" 
d="M34 259v16l165 202h131l-168 -210l168 -210h-131zM290 259v16l164 202h132l-168 -210l168 -210h-132z" />
    <glyph glyph-name="logicalnot" unicode="&#xac;" horiz-adv-x="596" 
d="M522 412v-288h-110v184h-359v104h469z" />
    <glyph glyph-name="registered" unicode="&#xae;" horiz-adv-x="484" 
d="M342 683.5q45 -26.5 71.5 -72t26.5 -99.5t-26.5 -100t-71.5 -72.5t-100 -26.5q-54 0 -99.5 27t-72 72.5t-26.5 99.5t26.5 99.5t72 72t99.5 26.5q55 0 100 -26.5zM319.5 378.5q35.5 20.5 56 56t20.5 77.5t-20.5 77t-56 55.5t-77.5 20.5q-43 0 -78 -20.5t-55.5 -55.5
t-20.5 -77t20.5 -77.5t56 -56t77.5 -20.5t77.5 20.5zM316 509q-10 -15 -27 -22l43 -73h-47l-39 66h-29v-66h-45v200h85q30 0 49.5 -19.5t19.5 -49.5q0 -21 -10 -36zM217 521h37q13 0 20.5 7t7.5 19q0 11 -7.5 18.5t-20.5 7.5h-37v-52z" />
    <glyph glyph-name="macron" unicode="&#xaf;" horiz-adv-x="507" 
d="M97 723h313v-88h-313v88z" />
    <glyph glyph-name="degree" unicode="&#xb0;" horiz-adv-x="375" 
d="M110 564q-35 20 -55 54t-20 75q0 39 20.5 73t55 54t76.5 20q41 0 76 -20t56 -53.5t21 -73.5t-20.5 -74.5t-56 -54.5t-76.5 -20q-42 0 -77 20zM243.5 637.5q22.5 22.5 22.5 55.5q0 32 -22.5 54t-55.5 22q-34 0 -56.5 -22t-22.5 -54q0 -33 22.5 -55.5t56.5 -22.5
q33 0 55.5 22.5z" />
    <glyph glyph-name="plusminus" unicode="&#xb1;" horiz-adv-x="603" 
d="M247 374h-185v103h185v171h109v-171h185v-103h-185v-172h-109v172zM542 109v-101h-480v101h480z" />
    <glyph glyph-name="acute" unicode="&#xb4;" horiz-adv-x="502" 
d="M162 754h118l-95 -152h-85z" />
    <glyph glyph-name="paragraph" unicode="&#xb6;" horiz-adv-x="640" 
d="M600 597h-91v-660h-100v660h-102v-660h-100v348q-79 14 -128 69t-49 135q0 60 29 108t81 75.5t119 27.5h341v-103z" />
    <glyph glyph-name="periodcentered" unicode="&#xb7;" horiz-adv-x="255" 
d="M66 401h122v-128h-122v128z" />
    <glyph glyph-name="cedilla" unicode="&#xb8;" horiz-adv-x="388" 
d="M265 -67.5q25 -25.5 25 -64.5q0 -44 -33 -71t-85 -27h-71v60h62q22 0 35.5 11.5t13.5 30.5q0 18 -13.5 29t-35.5 11h-31l-10 10l32 116h65l-21 -75q42 -5 67 -30.5z" />
    <glyph glyph-name="ordmasculine" unicode="&#xba;" horiz-adv-x="431" 
d="M126.5 392.5q-40.5 22.5 -63.5 61.5t-23 87t23 87t63.5 61.5t90.5 22.5q49 0 89.5 -22.5t63.5 -61.5t23 -87t-23 -87t-63.5 -61.5t-89.5 -22.5q-50 0 -90.5 22.5zM285 472.5q27 26.5 27 68.5t-27 69t-68 27q-43 0 -69.5 -27t-26.5 -69q0 -41 27 -68t69 -27q41 0 68 26.5z
" />
    <glyph glyph-name="guillemotright" unicode="&#xbb;" horiz-adv-x="630" 
d="M44 57l168 210l-168 210h132l164 -202v-16l-164 -202h-132zM300 57l168 210l-168 210h131l164 -202v-16l-164 -202h-131z" />
    <glyph glyph-name="onequarter" unicode="&#xbc;" horiz-adv-x="701" 
d="M169 700v-385h-83v313h-63v72h146zM466 730h87l-404 -760h-87zM676 74h-35v-74h-78v74h-187v15l128 296h81l-104 -240h84l15 94h61v-94h35v-71z" />
    <glyph glyph-name="onehalf" unicode="&#xbd;" horiz-adv-x="722" 
d="M169 700v-385h-83v313h-63v72h146zM466 730h87l-404 -760h-87zM688 77v-77h-273v19q84 97 120.5 142t48.5 68t12 44q0 22 -12.5 34.5t-32.5 12.5q-21 0 -34.5 -13.5t-13.5 -35.5v-8h-80v8q0 56 34.5 89.5t92.5 33.5t94 -33.5t36 -86.5q0 -37 -22.5 -76.5t-91.5 -120.5
h122z" />
    <glyph glyph-name="threequarters" unicode="&#xbe;" horiz-adv-x="811" 
d="M276 515.5q26 -32.5 26 -77.5q0 -57 -39 -93.5t-98 -36.5q-58 0 -95.5 35.5t-38.5 91.5h78q2 -24 17 -39t39 -15q25 0 41 16.5t16 42.5t-17 41.5t-45 15.5h-56v15l71 117h-134v71h247v-16l-81 -126q43 -10 69 -42.5zM575 730h87l-404 -760h-87zM786 74h-35v-74h-78v74
h-187v15l128 296h81l-104 -240h84l15 94h61v-94h35v-71z" />
    <glyph glyph-name="questiondown" unicode="&#xbf;" horiz-adv-x="514" 
d="M332 412h-122v128h122v-128zM327 315q0 -46 -14 -79t-34.5 -53.5t-52.5 -45.5q-40 -30 -60 -56t-20 -68q0 -50 33 -80.5t83 -30.5q49 0 84.5 29.5t37.5 78.5h105q-2 -66 -34 -113.5t-83 -72t-110 -24.5q-61 0 -112.5 25.5t-82 74t-30.5 113.5q0 46 14 79t34 54t52 47
q40 33 59 57.5t19 64.5v22h112v-22z" />
    <glyph glyph-name="Agrave" unicode="&#xc0;" horiz-adv-x="706" 
d="M507 152h-312l-60 -152h-122l282 700h108l289 -700h-124zM235 255h232l-117 295zM212 916h119l65 -142h-85z" />
    <glyph glyph-name="Aacute" unicode="&#xc1;" horiz-adv-x="706" 
d="M507 152h-312l-60 -152h-122l282 700h108l289 -700h-124zM235 255h232l-117 295zM366 916h118l-98 -142h-86z" />
    <glyph glyph-name="Acircumflex" unicode="&#xc2;" horiz-adv-x="706" 
d="M507 152h-312l-60 -152h-122l282 700h108l289 -700h-124zM235 255h232l-117 295zM434 774l-84 83l-83 -83h-97l117 142h126l117 -142h-96z" />
    <glyph glyph-name="Atilde" unicode="&#xc3;" horiz-adv-x="706" 
d="M507 152h-312l-60 -152h-122l282 700h108l289 -700h-124zM235 255h232l-117 295zM369.5 784q-21.5 11 -46.5 32q-16 13 -26.5 19t-21.5 6q-18 0 -30 -15t-12 -39v-10h-65v13q0 59 28 93.5t78 34.5q28 0 46.5 -10t42.5 -29q17 -15 29.5 -22.5t27.5 -7.5q19 0 30.5 14.5
t11.5 40.5v9h66v-11q0 -59 -28.5 -94t-77.5 -35q-31 0 -52.5 11z" />
    <glyph glyph-name="Adieresis" unicode="&#xc4;" horiz-adv-x="706" 
d="M507 152h-312l-60 -152h-122l282 700h108l289 -700h-124zM235 255h232l-117 295zM178 893h121v-114h-121v114zM402 893h122v-114h-122v114z" />
    <glyph glyph-name="Aring" unicode="&#xc5;" horiz-adv-x="706" 
d="M507 152h-312l-60 -152h-122l282 700h108l289 -700h-124zM235 255h232l-117 295zM257.5 788.5q-35.5 33.5 -35.5 86.5t35.5 86.5t92.5 33.5q56 0 91.5 -33.5t35.5 -86.5t-35.5 -86.5t-91.5 -33.5q-57 0 -92.5 33.5zM394 832.5q17 16.5 17 42.5q0 27 -17 43.5t-44 16.5
q-28 0 -45 -16.5t-17 -43.5q0 -26 17 -42.5t45 -16.5q27 0 44 16.5z" />
    <glyph glyph-name="AE" unicode="&#xc6;" horiz-adv-x="910" 
d="M861 109v-109h-417v145h-240l-85 -145h-135l415 700h451v-107h-290v-183h264v-106h-264v-195h301zM444 247v305l-180 -305h180z" />
    <glyph glyph-name="Ccedilla" unicode="&#xc7;" horiz-adv-x="774" 
d="M633 69.5q-84 -72.5 -201 -80.5l-6 -26q40 -8 64 -32.5t24 -60.5q0 -44 -36 -72t-91 -28h-70v62h69q20 0 33 11t13 28t-13 28t-34 11h-33l-9 12l17 68q-91 10 -163 59t-112.5 127t-40.5 174q0 103 46.5 185.5t129 129.5t184.5 47q82 0 152 -32t117.5 -91t65.5 -137h-116
q-25 70 -83 109.5t-136 39.5q-69 0 -124.5 -32.5t-87 -89.5t-31.5 -129t31.5 -129t87 -89.5t124.5 -32.5q80 0 139 42.5t82 116.5h117q-25 -116 -109 -188.5z" />
    <glyph glyph-name="Egrave" unicode="&#xc8;" horiz-adv-x="556" 
d="M507 109v-109h-418v700h407v-108h-292v-182h266v-106h-266v-195h303zM153 916h119l65 -142h-85z" />
    <glyph glyph-name="Eacute" unicode="&#xc9;" horiz-adv-x="556" 
d="M507 109v-109h-418v700h407v-108h-292v-182h266v-106h-266v-195h303zM307 916h118l-98 -142h-86z" />
    <glyph glyph-name="Ecircumflex" unicode="&#xca;" horiz-adv-x="556" 
d="M507 109v-109h-418v700h407v-108h-292v-182h266v-106h-266v-195h303zM375 774l-84 83l-83 -83h-97l117 142h126l117 -142h-96z" />
    <glyph glyph-name="Edieresis" unicode="&#xcb;" horiz-adv-x="556" 
d="M507 109v-109h-418v700h407v-108h-292v-182h266v-106h-266v-195h303zM119 893h121v-114h-121v114zM343 893h122v-114h-122v114z" />
    <glyph glyph-name="Igrave" unicode="&#xcc;" horiz-adv-x="293" 
d="M89 700h115v-700h-115v700zM99 774l-74 142h116l45 -142h-87z" />
    <glyph glyph-name="Iacute" unicode="&#xcd;" horiz-adv-x="293" 
d="M89 700h115v-700h-115v700zM143 916h113l-75 -142h-83z" />
    <glyph glyph-name="Icircumflex" unicode="&#xce;" horiz-adv-x="293" 
d="M89 700h115v-700h-115v700zM214 774l-69 82l-68 -82h-91l103 142h113l104 -142h-92z" />
    <glyph glyph-name="Idieresis" unicode="&#xcf;" horiz-adv-x="293" 
d="M89 700h115v-700h-115v700zM12 893h110v-114h-110v114zM171 893h110v-114h-110v114z" />
    <glyph glyph-name="Eth" unicode="&#xd0;" horiz-adv-x="765" 
d="M548 655q81 -45 126.5 -125t45.5 -180t-45.5 -180t-126.5 -125t-183 -45h-247v302h-98v97h98v301h247q102 0 183 -45zM486.5 138.5q54.5 31.5 85.5 86.5t31 125t-31 125.5t-85.5 86.5t-124.5 31h-129v-194h177v-97h-177v-195h129q70 0 124.5 31.5z" />
    <glyph glyph-name="Ntilde" unicode="&#xd1;" horiz-adv-x="751" 
d="M662 700v-700h-97l-363 500v-500h-113v700h104l356 -492v492h113zM398.5 784q-21.5 11 -46.5 32q-16 13 -26.5 19t-21.5 6q-18 0 -30 -15t-12 -39v-10h-65v13q0 59 28 93.5t78 34.5q28 0 46.5 -10t42.5 -29q17 -15 29.5 -22.5t27.5 -7.5q19 0 30.5 14.5t11.5 40.5v9h66
v-11q0 -59 -28.5 -94t-77.5 -35q-31 0 -52.5 11z" />
    <glyph glyph-name="Ograve" unicode="&#xd2;" horiz-adv-x="826" 
d="M224.5 34.5q-84.5 47.5 -132.5 130.5t-48 185t48 185t132.5 130.5t188.5 47.5q105 0 189 -47.5t132 -130t48 -185.5t-48 -185.5t-132 -130t-189 -47.5q-104 0 -188.5 47.5zM542 130q58 33 90.5 91t32.5 129q0 72 -32.5 129.5t-90.5 90.5t-129 33t-128.5 -33t-90.5 -91
t-33 -129t33 -128.5t90.5 -91t128.5 -33.5t129 33zM275 916h119l65 -142h-85z" />
    <glyph glyph-name="Oacute" unicode="&#xd3;" horiz-adv-x="826" 
d="M224.5 34.5q-84.5 47.5 -132.5 130.5t-48 185t48 185t132.5 130.5t188.5 47.5q105 0 189 -47.5t132 -130t48 -185.5t-48 -185.5t-132 -130t-189 -47.5q-104 0 -188.5 47.5zM542 130q58 33 90.5 91t32.5 129q0 72 -32.5 129.5t-90.5 90.5t-129 33t-128.5 -33t-90.5 -91
t-33 -129t33 -128.5t90.5 -91t128.5 -33.5t129 33zM429 916h118l-98 -142h-86z" />
    <glyph glyph-name="Ocircumflex" unicode="&#xd4;" horiz-adv-x="826" 
d="M224.5 34.5q-84.5 47.5 -132.5 130.5t-48 185t48 185t132.5 130.5t188.5 47.5q105 0 189 -47.5t132 -130t48 -185.5t-48 -185.5t-132 -130t-189 -47.5q-104 0 -188.5 47.5zM542 130q58 33 90.5 91t32.5 129q0 72 -32.5 129.5t-90.5 90.5t-129 33t-128.5 -33t-90.5 -91
t-33 -129t33 -128.5t90.5 -91t128.5 -33.5t129 33zM497 774l-84 83l-83 -83h-97l117 142h126l117 -142h-96z" />
    <glyph glyph-name="Otilde" unicode="&#xd5;" horiz-adv-x="826" 
d="M224.5 34.5q-84.5 47.5 -132.5 130.5t-48 185t48 185t132.5 130.5t188.5 47.5q105 0 189 -47.5t132 -130t48 -185.5t-48 -185.5t-132 -130t-189 -47.5q-104 0 -188.5 47.5zM542 130q58 33 90.5 91t32.5 129q0 72 -32.5 129.5t-90.5 90.5t-129 33t-128.5 -33t-90.5 -91
t-33 -129t33 -128.5t90.5 -91t128.5 -33.5t129 33zM433.5 784q-21.5 11 -46.5 32q-16 13 -26.5 19t-21.5 6q-18 0 -30 -15t-12 -39v-10h-65v13q0 59 28 93.5t78 34.5q28 0 46.5 -10t42.5 -29q17 -15 29.5 -22.5t27.5 -7.5q19 0 30.5 14.5t11.5 40.5v9h66v-11
q0 -59 -28.5 -94t-77.5 -35q-31 0 -52.5 11z" />
    <glyph glyph-name="Odieresis" unicode="&#xd6;" horiz-adv-x="826" 
d="M224.5 34.5q-84.5 47.5 -132.5 130.5t-48 185t48 185t132.5 130.5t188.5 47.5q105 0 189 -47.5t132 -130t48 -185.5t-48 -185.5t-132 -130t-189 -47.5q-104 0 -188.5 47.5zM542 130q58 33 90.5 91t32.5 129q0 72 -32.5 129.5t-90.5 90.5t-129 33t-128.5 -33t-90.5 -91
t-33 -129t33 -128.5t90.5 -91t128.5 -33.5t129 33zM241 893h121v-114h-121v114zM465 893h122v-114h-122v114z" />
    <glyph glyph-name="multiply" unicode="&#xd7;" horiz-adv-x="529" 
d="M337 337l142 -144l-74 -72l-141 142l-140 -142l-75 72l142 144l-142 143l76 73l139 -142l140 142l75 -73z" />
    <glyph glyph-name="Oslash" unicode="&#xd8;" horiz-adv-x="836" 
d="M754 510.5q37 -74.5 37 -163.5q0 -101 -48 -183t-132 -128.5t-188 -46.5q-76 0 -143 26l-46 -77h-125l78 125q-67 49 -105.5 124t-38.5 163q0 102 48.5 184.5t133 130t188.5 47.5q76 0 146 -28l46 78h124l-78 -128q66 -49 103 -123.5zM284.5 568q-57.5 -33 -90.5 -90
t-33 -127q0 -58 23.5 -108t64.5 -84l254 427q-42 15 -90 15q-71 0 -128.5 -33zM549.5 131.5q57.5 32.5 90.5 89.5t33 127q0 57 -22 106t-61 83l-253 -424q39 -14 84 -14q71 0 128.5 32.5z" />
    <glyph glyph-name="Ugrave" unicode="&#xd9;" horiz-adv-x="725" 
d="M218.5 22q-64.5 35 -101 97.5t-36.5 142.5v438h116v-431q0 -77 46.5 -124.5t119.5 -47.5t119 47.5t46 124.5v431h115v-438q0 -80 -36.5 -142.5t-100.5 -97.5t-143 -35q-80 0 -144.5 35zM224 916h119l65 -142h-85z" />
    <glyph glyph-name="Uacute" unicode="&#xda;" horiz-adv-x="725" 
d="M218.5 22q-64.5 35 -101 97.5t-36.5 142.5v438h116v-431q0 -77 46.5 -124.5t119.5 -47.5t119 47.5t46 124.5v431h115v-438q0 -80 -36.5 -142.5t-100.5 -97.5t-143 -35q-80 0 -144.5 35zM378 916h118l-98 -142h-86z" />
    <glyph glyph-name="Ucircumflex" unicode="&#xdb;" horiz-adv-x="725" 
d="M218.5 22q-64.5 35 -101 97.5t-36.5 142.5v438h116v-431q0 -77 46.5 -124.5t119.5 -47.5t119 47.5t46 124.5v431h115v-438q0 -80 -36.5 -142.5t-100.5 -97.5t-143 -35q-80 0 -144.5 35zM446 774l-84 83l-83 -83h-97l117 142h126l117 -142h-96z" />
    <glyph glyph-name="Udieresis" unicode="&#xdc;" horiz-adv-x="725" 
d="M218.5 22q-64.5 35 -101 97.5t-36.5 142.5v438h116v-431q0 -77 46.5 -124.5t119.5 -47.5t119 47.5t46 124.5v431h115v-438q0 -80 -36.5 -142.5t-100.5 -97.5t-143 -35q-80 0 -144.5 35zM190 893h121v-114h-121v114zM414 893h122v-114h-122v114z" />
    <glyph glyph-name="Yacute" unicode="&#xdd;" horiz-adv-x="667" 
d="M392 280v-280h-118v281l-251 419h124l187 -313l187 313h125zM350 916h118l-98 -142h-86z" />
    <glyph glyph-name="Thorn" unicode="&#xde;" horiz-adv-x="626" 
d="M471 552q54 -30 84.5 -82.5t30.5 -119.5t-30.5 -120t-84.5 -82.5t-123 -29.5h-144v-118h-115v700h115v-118h144q69 0 123 -30zM434 260.5q36 34.5 36 89.5t-36 89.5t-92 34.5h-138v-248h138q56 0 92 34.5z" />
    <glyph glyph-name="germandbls" unicode="&#xdf;" horiz-adv-x="615" 
d="M546.5 318.5q27.5 -45.5 27.5 -108.5q0 -62 -30.5 -109.5t-85.5 -74t-127 -26.5h-67v104h67q61 0 97.5 31.5t36.5 83.5q0 51 -37 82t-99 31h-56v99h47q55 0 89.5 30.5t34.5 78.5q0 46 -34.5 75.5t-87.5 29.5q-62 0 -97 -39t-35 -107v-499h-111v494q0 118 64 184.5
t177 66.5q64 0 115.5 -26t80.5 -71.5t29 -102.5q0 -50 -20.5 -91t-56.5 -67q51 -23 78.5 -68.5z" />
    <glyph glyph-name="agrave" unicode="&#xe0;" horiz-adv-x="696" 
d="M617 540v-540h-90l-11 66q-37 -38 -87 -58.5t-108 -20.5q-79 0 -143.5 37t-101.5 101.5t-37 144.5t37 145t101.5 101.5t143.5 36.5q58 0 109 -21t88 -59l13 67h86zM419.5 116q40.5 23 63 63.5t22.5 90.5t-22.5 90.5t-63 63.5t-90.5 23t-90.5 -23t-63.5 -63.5t-23 -90.5
t23 -90.5t63.5 -63.5t90.5 -23t90.5 23zM305 602l-95 152h118l62 -152h-85z" />
    <glyph glyph-name="aacute" unicode="&#xe1;" horiz-adv-x="696" 
d="M617 540v-540h-90l-11 66q-37 -38 -87 -58.5t-108 -20.5q-79 0 -143.5 37t-101.5 101.5t-37 144.5t37 145t101.5 101.5t143.5 36.5q58 0 109 -21t88 -59l13 67h86zM419.5 116q40.5 23 63 63.5t22.5 90.5t-22.5 90.5t-63 63.5t-90.5 23t-90.5 -23t-63.5 -63.5t-23 -90.5
t23 -90.5t63.5 -63.5t90.5 -23t90.5 23zM345 754h118l-95 -152h-85z" />
    <glyph glyph-name="acircumflex" unicode="&#xe2;" horiz-adv-x="696" 
d="M617 540v-540h-90l-11 66q-37 -38 -87 -58.5t-108 -20.5q-79 0 -143.5 37t-101.5 101.5t-37 144.5t37 145t101.5 101.5t143.5 36.5q58 0 109 -21t88 -59l13 67h86zM419.5 116q40.5 23 63 63.5t22.5 90.5t-22.5 90.5t-63 63.5t-90.5 23t-90.5 -23t-63.5 -63.5t-23 -90.5
t23 -90.5t63.5 -63.5t90.5 -23t90.5 23zM425 602l-84 88l-84 -88h-97l117 152h127l117 -152h-96z" />
    <glyph glyph-name="atilde" unicode="&#xe3;" horiz-adv-x="696" 
d="M617 540v-540h-90l-11 66q-37 -38 -87 -58.5t-108 -20.5q-79 0 -143.5 37t-101.5 101.5t-37 144.5t37 145t101.5 101.5t143.5 36.5q58 0 109 -21t88 -59l13 67h86zM419.5 116q40.5 23 63 63.5t22.5 90.5t-22.5 90.5t-63 63.5t-90.5 23t-90.5 -23t-63.5 -63.5t-23 -90.5
t23 -90.5t63.5 -63.5t90.5 -23t90.5 23zM359.5 616.5q-20.5 10.5 -45.5 30.5q-17 14 -27 20t-21 6q-17 0 -29 -15t-12 -38v-10h-65v12q0 58 28 92.5t77 34.5q29 0 48.5 -10.5t40.5 -29.5q17 -15 28.5 -22t26.5 -7q18 0 29 15t11 39v9h66v-11q0 -58 -28 -92t-77 -34
q-30 0 -50.5 10.5z" />
    <glyph glyph-name="adieresis" unicode="&#xe4;" horiz-adv-x="696" 
d="M617 540v-540h-90l-11 66q-37 -38 -87 -58.5t-108 -20.5q-79 0 -143.5 37t-101.5 101.5t-37 144.5t37 145t101.5 101.5t143.5 36.5q58 0 109 -21t88 -59l13 67h86zM419.5 116q40.5 23 63 63.5t22.5 90.5t-22.5 90.5t-63 63.5t-90.5 23t-90.5 -23t-63.5 -63.5t-23 -90.5
t23 -90.5t63.5 -63.5t90.5 -23t90.5 23zM172 738h122v-115h-122v115zM384 738h122v-115h-122v115z" />
    <glyph glyph-name="aring" unicode="&#xe5;" horiz-adv-x="696" 
d="M617 540v-540h-90l-11 66q-37 -38 -87 -58.5t-108 -20.5q-79 0 -143.5 37t-101.5 101.5t-37 144.5t37 145t101.5 101.5t143.5 36.5q58 0 109 -21t88 -59l13 67h86zM419.5 116q40.5 23 63 63.5t22.5 90.5t-22.5 90.5t-63 63.5t-90.5 23t-90.5 -23t-63.5 -63.5t-23 -90.5
t23 -90.5t63.5 -63.5t90.5 -23t90.5 23zM253.5 619.5q-33.5 31.5 -33.5 81.5t33.5 81.5t86.5 31.5t86.5 -31.5t33.5 -81.5t-33.5 -81.5t-86.5 -31.5t-86.5 31.5zM382 660.5q16 15.5 16 40.5t-16 40.5t-42 15.5t-42 -15.5t-16 -40.5t16 -40.5t42 -15.5t42 15.5z" />
    <glyph glyph-name="ae" unicode="&#xe6;" horiz-adv-x="1088" 
d="M1048 232h-440q11 -65 55 -102t112 -37q47 0 85 20t60 57h117q-32 -85 -101.5 -134t-158.5 -49q-55 0 -103 21t-84 59l-5 -68h-75l-4 63q-36 -36 -83.5 -55t-101.5 -19q-79 0 -143.5 37t-101.5 101.5t-37 143.5t37 143.5t101.5 101.5t143.5 37q55 0 102 -19.5t84 -55.5
l5 64h73l5 -68q36 38 84 58.5t103 20.5q78 0 140 -37t97.5 -101.5t35.5 -144.5q0 -11 -2 -37zM668 417.5q-44 -35.5 -58 -95.5h329q-14 61 -58 96t-106 35q-63 0 -107 -35.5zM416.5 116.5q39.5 22.5 61.5 63t22 90.5q0 51 -22 91t-61.5 62.5t-89.5 22.5t-89.5 -22.5t-62 -63
t-22.5 -90.5t22.5 -90t62 -63t89.5 -23t89.5 22.5z" />
    <glyph glyph-name="ccedilla" unicode="&#xe7;" horiz-adv-x="622" 
d="M502.5 50q-67.5 -57 -160.5 -63l-7 -24q42 -5 67 -30.5t25 -64.5q0 -44 -33 -71t-85 -27h-72v60h63q22 0 35.5 11.5t13.5 30.5q0 18 -13.5 29t-35.5 11h-32l-9 10l18 68q-68 10 -122.5 49.5t-85 99.5t-30.5 132q0 79 37 143.5t102 101.5t145 37q99 0 171.5 -56t95.5 -149
h-110q-21 47 -63 73t-95 26q-48 0 -86.5 -23.5t-61 -64t-22.5 -89.5t22.5 -89.5t61.5 -64t86 -23.5q53 0 94 27t64 77h112q-22 -90 -89.5 -147z" />
    <glyph glyph-name="egrave" unicode="&#xe8;" horiz-adv-x="631" 
d="M590 232h-438q10 -65 54 -103t111 -38q48 0 86 21t59 58h117q-32 -85 -102 -134t-160 -49q-78 0 -141.5 37t-100 102t-36.5 144q0 80 36.5 144.5t100 101.5t141.5 37q81 0 143.5 -38t97 -103t34.5 -143q0 -13 -2 -37zM211 418q-43 -35 -57 -96h327q-15 61 -58.5 96
t-105.5 35q-63 0 -106 -35zM281 602l-95 152h118l62 -152h-85z" />
    <glyph glyph-name="eacute" unicode="&#xe9;" horiz-adv-x="631" 
d="M590 232h-438q10 -65 54 -103t111 -38q48 0 86 21t59 58h117q-32 -85 -102 -134t-160 -49q-78 0 -141.5 37t-100 102t-36.5 144q0 80 36.5 144.5t100 101.5t141.5 37q81 0 143.5 -38t97 -103t34.5 -143q0 -13 -2 -37zM211 418q-43 -35 -57 -96h327q-15 61 -58.5 96
t-105.5 35q-63 0 -106 -35zM321 754h118l-95 -152h-85z" />
    <glyph glyph-name="ecircumflex" unicode="&#xea;" horiz-adv-x="631" 
d="M590 232h-438q10 -65 54 -103t111 -38q48 0 86 21t59 58h117q-32 -85 -102 -134t-160 -49q-78 0 -141.5 37t-100 102t-36.5 144q0 80 36.5 144.5t100 101.5t141.5 37q81 0 143.5 -38t97 -103t34.5 -143q0 -13 -2 -37zM211 418q-43 -35 -57 -96h327q-15 61 -58.5 96
t-105.5 35q-63 0 -106 -35zM401 602l-84 88l-84 -88h-97l117 152h127l117 -152h-96z" />
    <glyph glyph-name="edieresis" unicode="&#xeb;" horiz-adv-x="631" 
d="M590 232h-438q10 -65 54 -103t111 -38q48 0 86 21t59 58h117q-32 -85 -102 -134t-160 -49q-78 0 -141.5 37t-100 102t-36.5 144q0 80 36.5 144.5t100 101.5t141.5 37q81 0 143.5 -38t97 -103t34.5 -143q0 -13 -2 -37zM211 418q-43 -35 -57 -96h327q-15 61 -58.5 96
t-105.5 35q-63 0 -106 -35zM148 738h122v-115h-122v115zM360 738h122v-115h-122v115z" />
    <glyph glyph-name="igrave" unicode="&#xec;" horiz-adv-x="269" 
d="M79 540h111v-540h-111v540zM89 602l-74 152h116l45 -152h-87z" />
    <glyph glyph-name="iacute" unicode="&#xed;" horiz-adv-x="269" 
d="M79 540h111v-540h-111v540zM131 754h116l-74 -152h-87z" />
    <glyph glyph-name="icircumflex" unicode="&#xee;" horiz-adv-x="269" 
d="M79 540h111v-540h-111v540zM203 602l-69 87l-68 -87h-91l103 152h113l104 -152h-92z" />
    <glyph glyph-name="idieresis" unicode="&#xef;" horiz-adv-x="269" 
d="M79 540h111v-540h-111v540zM0 738h105v-115h-105v115zM171 737h106v-115h-106v115z" />
    <glyph glyph-name="eth" unicode="&#xf0;" horiz-adv-x="646" 
d="M543.5 546.5q49.5 -106.5 50.5 -250.5q0 -93 -34.5 -162.5t-97.5 -107.5t-147 -38q-81 0 -143.5 33.5t-97 94.5t-34.5 139q0 75 34 134.5t94 92.5t134 33q48 0 92 -15.5t77 -45.5q-13 63 -49.5 110.5t-93.5 77.5l-104 -101l-46 44l85 83q-59 18 -129 18v95q116 0 207 -38
l69 67l45 -44l-55 -54q94 -59 143.5 -165.5zM400.5 111.5q38.5 21.5 60 59.5t21.5 85q0 48 -22 85.5t-60 59t-85 21.5q-48 0 -86 -21.5t-60 -59.5t-22 -85t22 -85t60 -59.5t86 -21.5q47 0 85.5 21.5z" />
    <glyph glyph-name="ntilde" unicode="&#xf1;" horiz-adv-x="642" 
d="M473.5 523q46.5 -29 71.5 -80.5t25 -117.5v-325h-111v303q0 73 -31.5 111.5t-92.5 38.5q-64 0 -104.5 -46t-40.5 -118v-289h-111v540h77l22 -75q31 41 79.5 64t107.5 23q62 0 108.5 -29zM350.5 616.5q-20.5 10.5 -45.5 30.5q-17 14 -27 20t-21 6q-17 0 -29 -15t-12 -38
v-10h-65v12q0 58 28 92.5t77 34.5q29 0 48.5 -10.5t40.5 -29.5q17 -15 28.5 -22t26.5 -7q18 0 29 15t11 39v9h66v-11q0 -58 -28 -92t-77 -34q-30 0 -50.5 10.5z" />
    <glyph glyph-name="ograve" unicode="&#xf2;" horiz-adv-x="656" 
d="M181 24q-66 37 -104 101.5t-38 144.5t37.5 145t104 101.5t147.5 36.5t147.5 -36.5t104 -101.5t37.5 -145t-38 -144.5t-104 -101.5t-147 -37t-147 37zM418.5 115.5q40.5 22.5 63 63t22.5 91.5t-22.5 91.5t-63 63t-90.5 22.5t-90.5 -22.5t-63 -63t-22.5 -91.5t22.5 -91.5
t63 -63t90.5 -22.5t90.5 22.5zM294 602l-95 152h118l62 -152h-85z" />
    <glyph glyph-name="oacute" unicode="&#xf3;" horiz-adv-x="656" 
d="M181 24q-66 37 -104 101.5t-38 144.5t37.5 145t104 101.5t147.5 36.5t147.5 -36.5t104 -101.5t37.5 -145t-38 -144.5t-104 -101.5t-147 -37t-147 37zM418.5 115.5q40.5 22.5 63 63t22.5 91.5t-22.5 91.5t-63 63t-90.5 22.5t-90.5 -22.5t-63 -63t-22.5 -91.5t22.5 -91.5
t63 -63t90.5 -22.5t90.5 22.5zM334 754h118l-95 -152h-85z" />
    <glyph glyph-name="ocircumflex" unicode="&#xf4;" horiz-adv-x="656" 
d="M181 24q-66 37 -104 101.5t-38 144.5t37.5 145t104 101.5t147.5 36.5t147.5 -36.5t104 -101.5t37.5 -145t-38 -144.5t-104 -101.5t-147 -37t-147 37zM418.5 115.5q40.5 22.5 63 63t22.5 91.5t-22.5 91.5t-63 63t-90.5 22.5t-90.5 -22.5t-63 -63t-22.5 -91.5t22.5 -91.5
t63 -63t90.5 -22.5t90.5 22.5zM413 602l-84 88l-84 -88h-97l117 152h127l117 -152h-96z" />
    <glyph glyph-name="otilde" unicode="&#xf5;" horiz-adv-x="656" 
d="M181 24q-66 37 -104 101.5t-38 144.5t37.5 145t104 101.5t147.5 36.5t147.5 -36.5t104 -101.5t37.5 -145t-38 -144.5t-104 -101.5t-147 -37t-147 37zM418.5 115.5q40.5 22.5 63 63t22.5 91.5t-22.5 91.5t-63 63t-90.5 22.5t-90.5 -22.5t-63 -63t-22.5 -91.5t22.5 -91.5
t63 -63t90.5 -22.5t90.5 22.5zM348.5 616.5q-20.5 10.5 -45.5 30.5q-17 14 -27 20t-21 6q-17 0 -29 -15t-12 -38v-10h-65v12q0 58 28 92.5t77 34.5q29 0 48.5 -10.5t40.5 -29.5q17 -15 28.5 -22t26.5 -7q18 0 29 15t11 39v9h66v-11q0 -58 -28 -92t-77 -34q-30 0 -50.5 10.5z
" />
    <glyph glyph-name="odieresis" unicode="&#xf6;" horiz-adv-x="656" 
d="M181 24q-66 37 -104 101.5t-38 144.5t37.5 145t104 101.5t147.5 36.5t147.5 -36.5t104 -101.5t37.5 -145t-38 -144.5t-104 -101.5t-147 -37t-147 37zM418.5 115.5q40.5 22.5 63 63t22.5 91.5t-22.5 91.5t-63 63t-90.5 22.5t-90.5 -22.5t-63 -63t-22.5 -91.5t22.5 -91.5
t63 -63t90.5 -22.5t90.5 22.5zM160 738h122v-115h-122v115zM372 738h122v-115h-122v115z" />
    <glyph glyph-name="divide" unicode="&#xf7;" horiz-adv-x="580" 
d="M247.5 480.5q-17.5 17.5 -17.5 42.5t17.5 42t42.5 17t42.5 -17t17.5 -42t-17.5 -42.5t-42.5 -17.5t-42.5 17.5zM50 386h480v-100h-480v100zM247.5 107.5q-17.5 17.5 -17.5 42.5t17 42t43 17q25 0 42.5 -17t17.5 -42t-17.5 -42.5t-42.5 -17.5t-42.5 17.5z" />
    <glyph glyph-name="oslash" unicode="&#xf8;" horiz-adv-x="663" 
d="M591.5 401q31.5 -60 31.5 -132q0 -79 -37 -143t-101.5 -100.5t-144.5 -36.5q-58 0 -105 19l-39 -69h-102l60 106q-54 38 -84.5 97t-30.5 129q0 79 37.5 143t102.5 101t145 37q52 0 98 -17l35 66h102l-55 -102q56 -38 87.5 -98zM232.5 428.5q-40.5 -23.5 -63 -64.5
t-22.5 -93q0 -88 59 -138l170 311q-26 8 -52 8q-51 0 -91.5 -23.5zM431 112q40 23 62.5 64t22.5 93q0 44 -16.5 79.5t-46.5 59.5l-171 -310q27 -9 58 -9q51 0 91 23z" />
    <glyph glyph-name="ugrave" unicode="&#xf9;" horiz-adv-x="632" 
d="M187.5 17q-55.5 30 -86 84.5t-30.5 126.5v312h111v-296q0 -70 36 -110.5t98 -40.5q63 0 99 40.5t36 110.5v296h111v-312q0 -72 -30.5 -126.5t-86 -84.5t-129.5 -30q-73 0 -128.5 30zM282 602l-95 152h118l62 -152h-85z" />
    <glyph glyph-name="uacute" unicode="&#xfa;" horiz-adv-x="632" 
d="M187.5 17q-55.5 30 -86 84.5t-30.5 126.5v312h111v-296q0 -70 36 -110.5t98 -40.5q63 0 99 40.5t36 110.5v296h111v-312q0 -72 -30.5 -126.5t-86 -84.5t-129.5 -30q-73 0 -128.5 30zM322 754h118l-95 -152h-85z" />
    <glyph glyph-name="ucircumflex" unicode="&#xfb;" horiz-adv-x="632" 
d="M187.5 17q-55.5 30 -86 84.5t-30.5 126.5v312h111v-296q0 -70 36 -110.5t98 -40.5q63 0 99 40.5t36 110.5v296h111v-312q0 -72 -30.5 -126.5t-86 -84.5t-129.5 -30q-73 0 -128.5 30zM402 602l-84 88l-84 -88h-97l117 152h127l117 -152h-96z" />
    <glyph glyph-name="udieresis" unicode="&#xfc;" horiz-adv-x="632" 
d="M187.5 17q-55.5 30 -86 84.5t-30.5 126.5v312h111v-296q0 -70 36 -110.5t98 -40.5q63 0 99 40.5t36 110.5v296h111v-312q0 -72 -30.5 -126.5t-86 -84.5t-129.5 -30q-73 0 -128.5 30zM149 738h122v-115h-122v115zM361 738h122v-115h-122v115z" />
    <glyph glyph-name="yacute" unicode="&#xfd;" horiz-adv-x="593" 
d="M583 540l-248 -550q-31 -70 -61.5 -109.5t-69.5 -57t-94 -17.5h-55v100h46q37 0 58.5 9t38 31t36.5 68l12 25l-235 501h121l171 -377l161 377h119zM305 754h118l-95 -152h-85z" />
    <glyph glyph-name="thorn" unicode="&#xfe;" horiz-adv-x="689" 
d="M514 515.5q64 -36.5 100 -101t36 -144.5t-36 -144.5t-100 -101.5t-144 -37q-52 0 -98 17t-82 49v-247h-111v926h111v-245q37 31 82.5 48t97.5 17q80 0 144 -36.5zM452 116q40 23 63 63.5t23 90.5t-23 90t-63 63t-90 23t-90.5 -23t-63.5 -63.5t-23 -89.5q0 -50 23 -90.5
t63.5 -63.5t90.5 -23t90 23z" />
    <glyph glyph-name="ydieresis" unicode="&#xff;" horiz-adv-x="593" 
d="M583 540l-248 -550q-31 -70 -61.5 -109.5t-69.5 -57t-94 -17.5h-55v100h46q37 0 58.5 9t38 31t36.5 68l12 25l-235 501h121l171 -377l161 377h119zM131 738h122v-115h-122v115zM343 738h122v-115h-122v115z" />
    <glyph glyph-name="Amacron" unicode="&#x100;" horiz-adv-x="706" 
d="M507 152h-312l-60 -152h-122l282 700h108l289 -700h-124zM235 255h232l-117 295zM194 893h313v-95h-313v95z" />
    <glyph glyph-name="amacron" unicode="&#x101;" horiz-adv-x="696" 
d="M617 540v-540h-90l-11 66q-37 -38 -87 -58.5t-108 -20.5q-79 0 -143.5 37t-101.5 101.5t-37 144.5t37 145t101.5 101.5t143.5 36.5q58 0 109 -21t88 -59l13 67h86zM419.5 116q40.5 23 63 63.5t22.5 90.5t-22.5 90.5t-63 63.5t-90.5 23t-90.5 -23t-63.5 -63.5t-23 -90.5
t23 -90.5t63.5 -63.5t90.5 -23t90.5 23zM183 723h313v-88h-313v88z" />
    <glyph glyph-name="Abreve" unicode="&#x102;" horiz-adv-x="706" 
d="M507 152h-312l-60 -152h-122l282 700h108l289 -700h-124zM235 255h232l-117 295zM233 808q-44 40 -44 108h86v-3q0 -34 20 -53t55 -19q34 0 53.5 19t19.5 53v3h89q0 -68 -44.5 -108t-117.5 -40t-117 40z" />
    <glyph glyph-name="abreve" unicode="&#x103;" horiz-adv-x="696" 
d="M617 540v-540h-90l-11 66q-37 -38 -87 -58.5t-108 -20.5q-79 0 -143.5 37t-101.5 101.5t-37 144.5t37 145t101.5 101.5t143.5 36.5q58 0 109 -21t88 -59l13 67h86zM419.5 116q40.5 23 63 63.5t22.5 90.5t-22.5 90.5t-63 63.5t-90.5 23t-90.5 -23t-63.5 -63.5t-23 -90.5
t23 -90.5t63.5 -63.5t90.5 -23t90.5 23zM219 638.5q-46 43.5 -46 115.5h86v-4q0 -38 22 -59.5t59 -21.5t58 21t21 60v4h88q0 -72 -46 -115.5t-121 -43.5t-121 43.5z" />
    <glyph glyph-name="Aogonek" unicode="&#x104;" horiz-adv-x="705" 
d="M573 -139.5q19 -14.5 52 -14.5q31 0 52 11v-64q-37 -22 -84 -22q-55 0 -89.5 28.5t-34.5 74.5q0 41 25 78t68 62l-55 138h-312l-60 -152h-122l281 700h108l287 -693l5 -7q-69 -11 -104.5 -37.5t-35.5 -62.5q0 -25 19 -39.5zM234 255h233l-117 295z" />
    <glyph glyph-name="aogonek" unicode="&#x105;" horiz-adv-x="696" 
d="M632 -143v-63q-37 -23 -86 -23q-51 0 -86 28t-35 75q0 46 25.5 84t72.5 66l-7 42q-37 -38 -87 -58.5t-108 -20.5q-79 0 -143.5 37t-101.5 101.5t-37 144.5t37 145t101.5 101.5t143.5 36.5q58 0 109 -21t88 -59l13 67h86v-540v0v0q-50 -14 -78.5 -40t-28.5 -58
q0 -27 18.5 -41.5t48.5 -14.5t55 11zM419.5 116q40.5 23 63 63.5t22.5 90.5t-22.5 90.5t-63 63.5t-90.5 23t-90.5 -23t-63.5 -63.5t-23 -90.5t23 -90.5t63.5 -63.5t90.5 -23t90.5 23z" />
    <glyph glyph-name="Cacute" unicode="&#x106;" horiz-adv-x="774" 
d="M219.5 35q-82.5 47 -129 129.5t-46.5 185.5t46.5 185.5t129 129.5t184.5 47q82 0 152 -32t117.5 -91t65.5 -137h-116q-25 70 -83 109.5t-136 39.5q-69 0 -124.5 -32.5t-87 -89.5t-31.5 -129t31.5 -129t87 -89.5t124.5 -32.5q80 0 139 42.5t82 116.5h117
q-18 -81 -65.5 -142t-118 -94.5t-154.5 -33.5q-102 0 -184.5 47zM415 916h118l-98 -142h-86z" />
    <glyph glyph-name="cacute" unicode="&#x107;" horiz-adv-x="622" 
d="M178.5 24q-64.5 37 -102 102t-37.5 145q0 79 37 143.5t102 101.5t145 37q99 0 171.5 -56t95.5 -149h-110q-21 47 -63 73t-95 26q-48 0 -86.5 -23.5t-61 -64t-22.5 -89.5t22.5 -89.5t61.5 -64t86 -23.5q53 0 94 27t64 77h112q-23 -95 -96.5 -152.5t-173.5 -57.5
q-79 0 -143.5 37zM327 754h118l-95 -152h-85z" />
    <glyph glyph-name="Ccircumflex" unicode="&#x108;" horiz-adv-x="774" 
d="M219.5 35q-82.5 47 -129 129.5t-46.5 185.5t46.5 185.5t129 129.5t184.5 47q82 0 152 -32t117.5 -91t65.5 -137h-116q-25 70 -83 109.5t-136 39.5q-69 0 -124.5 -32.5t-87 -89.5t-31.5 -129t31.5 -129t87 -89.5t124.5 -32.5q80 0 139 42.5t82 116.5h117
q-18 -81 -65.5 -142t-118 -94.5t-154.5 -33.5q-102 0 -184.5 47zM483 774l-84 83l-83 -83h-97l117 142h126l117 -142h-96z" />
    <glyph glyph-name="ccircumflex" unicode="&#x109;" horiz-adv-x="622" 
d="M178.5 24q-64.5 37 -102 102t-37.5 145q0 79 37 143.5t102 101.5t145 37q99 0 171.5 -56t95.5 -149h-110q-21 47 -63 73t-95 26q-48 0 -86.5 -23.5t-61 -64t-22.5 -89.5t22.5 -89.5t61.5 -64t86 -23.5q53 0 94 27t64 77h112q-23 -95 -96.5 -152.5t-173.5 -57.5
q-79 0 -143.5 37zM407 602l-84 88l-84 -88h-97l117 152h127l117 -152h-96z" />
    <glyph glyph-name="Cdotaccent" unicode="&#x10a;" horiz-adv-x="774" 
d="M219.5 35q-82.5 47 -129 129.5t-46.5 185.5t46.5 185.5t129 129.5t184.5 47q82 0 152 -32t117.5 -91t65.5 -137h-116q-25 70 -83 109.5t-136 39.5q-69 0 -124.5 -32.5t-87 -89.5t-31.5 -129t31.5 -129t87 -89.5t124.5 -32.5q80 0 139 42.5t82 116.5h117
q-18 -81 -65.5 -142t-118 -94.5t-154.5 -33.5q-102 0 -184.5 47zM339 893h121v-114h-121v114z" />
    <glyph glyph-name="cdotaccent" unicode="&#x10b;" horiz-adv-x="622" 
d="M178.5 24q-64.5 37 -102 102t-37.5 145q0 79 37 143.5t102 101.5t145 37q99 0 171.5 -56t95.5 -149h-110q-21 47 -63 73t-95 26q-48 0 -86.5 -23.5t-61 -64t-22.5 -89.5t22.5 -89.5t61.5 -64t86 -23.5q53 0 94 27t64 77h112q-23 -95 -96.5 -152.5t-173.5 -57.5
q-79 0 -143.5 37zM264 738h115v-115h-115v115z" />
    <glyph glyph-name="Ccaron" unicode="&#x10c;" horiz-adv-x="774" 
d="M219.5 35q-82.5 47 -129 129.5t-46.5 185.5t46.5 185.5t129 129.5t184.5 47q82 0 152 -32t117.5 -91t65.5 -137h-116q-25 70 -83 109.5t-136 39.5q-69 0 -124.5 -32.5t-87 -89.5t-31.5 -129t31.5 -129t87 -89.5t124.5 -32.5q80 0 139 42.5t82 116.5h117
q-18 -81 -65.5 -142t-118 -94.5t-154.5 -33.5q-102 0 -184.5 47zM580 916l-117 -142h-127l-117 142h97l83 -82l84 82h97z" />
    <glyph glyph-name="ccaron" unicode="&#x10d;" horiz-adv-x="622" 
d="M178.5 24q-64.5 37 -102 102t-37.5 145q0 79 37 143.5t102 101.5t145 37q99 0 171.5 -56t95.5 -149h-110q-21 47 -63 73t-95 26q-48 0 -86.5 -23.5t-61 -64t-22.5 -89.5t22.5 -89.5t61.5 -64t86 -23.5q53 0 94 27t64 77h112q-23 -95 -96.5 -152.5t-173.5 -57.5
q-79 0 -143.5 37zM502 754l-117 -152h-127l-117 152h97l84 -88l84 88h96z" />
    <glyph glyph-name="Dcaron" unicode="&#x10e;" horiz-adv-x="736" 
d="M519 655q81 -45 126.5 -125t45.5 -180t-45.5 -180t-126.5 -125t-183 -45h-247v700h247q102 0 183 -45zM457.5 138.5q54.5 31.5 85 86.5t30.5 125t-30.5 125.5t-85 86.5t-124.5 31h-129v-486h129q70 0 124.5 31.5zM475 916l-117 -142h-127l-117 142h97l83 -82l84 82h97z
" />
    <glyph glyph-name="dcaron" unicode="&#x10f;" horiz-adv-x="708" 
d="M609 734v-734h-84l-14 61q-37 -36 -86 -55t-105 -19q-80 0 -144.5 37t-100.5 101.5t-36 144.5q0 81 36 145.5t100.5 101t144.5 36.5q51 0 96.5 -16.5t81.5 -46.5v244h111zM419.5 116.5q40.5 23.5 63.5 64t23 89.5q0 50 -23 90.5t-63.5 63.5t-90.5 23t-90.5 -23t-63 -63.5
t-22.5 -90.5t22.5 -90.5t63 -63.5t90.5 -23t90.5 23.5zM664 580q23 4 36 19.5t13 39.5h-54v95h107v-87q0 -45 -28.5 -77.5t-73.5 -37.5v48z" />
    <glyph glyph-name="Dcroat" unicode="&#x110;" horiz-adv-x="765" 
d="M548 655q81 -45 126.5 -125t45.5 -180t-45.5 -180t-126.5 -125t-183 -45h-247v302h-98v97h98v301h247q102 0 183 -45zM486.5 138.5q54.5 31.5 85.5 86.5t31 125t-31 125.5t-85.5 86.5t-124.5 31h-129v-194h177v-97h-177v-195h129q70 0 124.5 31.5z" />
    <glyph glyph-name="dcroat" unicode="&#x111;" horiz-adv-x="688" 
d="M685 591h-76v-591h-84l-14 61q-37 -36 -86 -55t-105 -19q-80 0 -144.5 37t-100.5 101.5t-36 144.5q0 81 36 145.5t100.5 101t144.5 36.5q51 0 96.5 -16.5t81.5 -46.5v101h-190v84h190v59h111v-59h76v-84zM419.5 116.5q40.5 23.5 63.5 64t23 89.5q0 50 -23 90.5
t-63.5 63.5t-90.5 23t-90.5 -23t-63 -63.5t-22.5 -90.5t22.5 -90.5t63 -63.5t90.5 -23t90.5 23.5z" />
    <glyph glyph-name="Emacron" unicode="&#x112;" horiz-adv-x="556" 
d="M507 109v-109h-418v700h407v-108h-292v-182h266v-106h-266v-195h303zM135 893h313v-95h-313v95z" />
    <glyph glyph-name="emacron" unicode="&#x113;" horiz-adv-x="631" 
d="M590 232h-438q10 -65 54 -103t111 -38q48 0 86 21t59 58h117q-32 -85 -102 -134t-160 -49q-78 0 -141.5 37t-100 102t-36.5 144q0 80 36.5 144.5t100 101.5t141.5 37q81 0 143.5 -38t97 -103t34.5 -143q0 -13 -2 -37zM211 418q-43 -35 -57 -96h327q-15 61 -58.5 96
t-105.5 35q-63 0 -106 -35zM158 723h313v-88h-313v88z" />
    <glyph glyph-name="Ebreve" unicode="&#x114;" horiz-adv-x="556" 
d="M507 109v-109h-418v700h407v-108h-292v-182h266v-106h-266v-195h303zM174 808q-44 40 -44 108h86v-3q0 -34 20 -53t55 -19q34 0 53.5 19t19.5 53v3h89q0 -68 -44.5 -108t-117.5 -40t-117 40z" />
    <glyph glyph-name="ebreve" unicode="&#x115;" horiz-adv-x="631" 
d="M590 232h-438q10 -65 54 -103t111 -38q48 0 86 21t59 58h117q-32 -85 -102 -134t-160 -49q-78 0 -141.5 37t-100 102t-36.5 144q0 80 36.5 144.5t100 101.5t141.5 37q81 0 143.5 -38t97 -103t34.5 -143q0 -13 -2 -37zM211 418q-43 -35 -57 -96h327q-15 61 -58.5 96
t-105.5 35q-63 0 -106 -35zM194 638.5q-46 43.5 -46 115.5h86v-4q0 -38 22 -59.5t59 -21.5t58 21t21 60v4h88q0 -72 -46 -115.5t-121 -43.5t-121 43.5z" />
    <glyph glyph-name="Edotaccent" unicode="&#x116;" horiz-adv-x="556" 
d="M507 109v-109h-418v700h407v-108h-292v-182h266v-106h-266v-195h303zM231 893h121v-114h-121v114z" />
    <glyph glyph-name="edotaccent" unicode="&#x117;" horiz-adv-x="631" 
d="M590 232h-438q10 -65 54 -103t111 -38q48 0 86 21t59 58h117q-32 -85 -102 -134t-160 -49q-78 0 -141.5 37t-100 102t-36.5 144q0 80 36.5 144.5t100 101.5t141.5 37q81 0 143.5 -38t97 -103t34.5 -143q0 -13 -2 -37zM211 418q-43 -35 -57 -96h327q-15 61 -58.5 96
t-105.5 35q-63 0 -106 -35zM258 738h115v-115h-115v115z" />
    <glyph glyph-name="Eogonek" unicode="&#x118;" horiz-adv-x="556" 
d="M514 -143v-63q-38 -23 -86 -23q-55 0 -88.5 28.5t-33.5 74.5q0 37 18.5 69.5t52.5 56.5h-288v700h407v-108h-292v-182h266v-106h-266v-195h303v-109q-52 -9 -84 -36.5t-32 -61.5q0 -26 18 -41t50 -15q30 0 55 11z" />
    <glyph glyph-name="eogonek" unicode="&#x119;" horiz-adv-x="632" 
d="M591 232h-440q10 -64 55.5 -101.5t112.5 -37.5q48 0 85 20t59 57h117q-34 -94 -138 -155q-41 -24 -63 -53t-22 -58q0 -27 18 -42.5t49 -15.5t56 11v-61q-39 -25 -85 -25q-55 0 -88.5 28.5t-33.5 73.5q0 29 14.5 60t40.5 56h-9q-78 0 -142 37t-100.5 101.5t-36.5 143.5
q0 78 36.5 142t100.5 101t142 37q79 0 142 -37t98 -100.5t35 -138.5q0 -22 -3 -43zM210.5 416.5q-44.5 -34.5 -56.5 -93.5h327q-14 59 -57.5 93.5t-104.5 34.5q-64 0 -108.5 -34.5z" />
    <glyph glyph-name="Ecaron" unicode="&#x11a;" horiz-adv-x="556" 
d="M507 109v-109h-418v700h407v-108h-292v-182h266v-106h-266v-195h303zM471 916l-117 -142h-127l-117 142h97l83 -82l84 82h97z" />
    <glyph glyph-name="ecaron" unicode="&#x11b;" horiz-adv-x="631" 
d="M590 232h-438q10 -65 54 -103t111 -38q48 0 86 21t59 58h117q-32 -85 -102 -134t-160 -49q-78 0 -141.5 37t-100 102t-36.5 144q0 80 36.5 144.5t100 101.5t141.5 37q81 0 143.5 -38t97 -103t34.5 -143q0 -13 -2 -37zM211 418q-43 -35 -57 -96h327q-15 61 -58.5 96
t-105.5 35q-63 0 -106 -35zM495 754l-117 -152h-127l-117 152h97l84 -88l84 88h96z" />
    <glyph glyph-name="Gcircumflex" unicode="&#x11c;" horiz-adv-x="798" 
d="M756 355q-1 -106 -46.5 -190t-125.5 -131t-181 -47q-102 0 -184 47t-128.5 130t-46.5 186t46 185.5t127.5 129.5t182.5 47q84 0 157.5 -33t123 -92t65.5 -134h-119q-22 67 -83.5 107.5t-140.5 40.5q-70 0 -125 -32t-86 -89t-31 -130q0 -74 30.5 -131t85.5 -89t126 -32
q83 0 146 43.5t82 114.5h-249v99h374zM485 774l-84 83l-83 -83h-97l117 142h126l117 -142h-96z" />
    <glyph glyph-name="gcircumflex" unicode="&#x11d;" horiz-adv-x="673" 
d="M594 540v-469q0 -130 -72.5 -204t-197.5 -74q-103 0 -173 51t-91 140h111q15 -44 57 -68t95 -24q72 0 117 44t45 120v24q-36 -31 -81.5 -47.5t-97.5 -16.5q-74 0 -135 35.5t-96.5 97t-35.5 135.5t35.5 136t96.5 97.5t135 35.5q59 0 110 -22t87 -61l18 70h73zM404 140.5
q38 21.5 59.5 59t21.5 84.5t-21.5 85t-59.5 59.5t-85 21.5t-85.5 -21.5t-60 -59.5t-21.5 -85t21.5 -84.5t60 -59t85.5 -21.5t85 21.5zM406 602l-84 88l-84 -88h-97l117 152h127l117 -152h-96z" />
    <glyph glyph-name="Gbreve" unicode="&#x11e;" horiz-adv-x="798" 
d="M756 355q-1 -106 -46.5 -190t-125.5 -131t-181 -47q-102 0 -184 47t-128.5 130t-46.5 186t46 185.5t127.5 129.5t182.5 47q84 0 157.5 -33t123 -92t65.5 -134h-119q-22 67 -83.5 107.5t-140.5 40.5q-70 0 -125 -32t-86 -89t-31 -130q0 -74 30.5 -131t85.5 -89t126 -32
q83 0 146 43.5t82 114.5h-249v99h374zM285 808q-44 40 -44 108h86v-3q0 -34 20 -53t55 -19q34 0 53.5 19t19.5 53v3h89q0 -68 -44.5 -108t-117.5 -40t-117 40z" />
    <glyph glyph-name="gbreve" unicode="&#x11f;" horiz-adv-x="673" 
d="M594 540v-469q0 -130 -72.5 -204t-197.5 -74q-103 0 -173 51t-91 140h111q15 -44 57 -68t95 -24q72 0 117 44t45 120v24q-36 -31 -81.5 -47.5t-97.5 -16.5q-74 0 -135 35.5t-96.5 97t-35.5 135.5t35.5 136t96.5 97.5t135 35.5q59 0 110 -22t87 -61l18 70h73zM404 140.5
q38 21.5 59.5 59t21.5 84.5t-21.5 85t-59.5 59.5t-85 21.5t-85.5 -21.5t-60 -59.5t-21.5 -85t21.5 -84.5t60 -59t85.5 -21.5t85 21.5zM199 638.5q-46 43.5 -46 115.5h86v-4q0 -38 22 -59.5t59 -21.5t58 21t21 60v4h88q0 -72 -46 -115.5t-121 -43.5t-121 43.5z" />
    <glyph glyph-name="Gdotaccent" unicode="&#x120;" horiz-adv-x="798" 
d="M756 355q-1 -106 -46.5 -190t-125.5 -131t-181 -47q-102 0 -184 47t-128.5 130t-46.5 186t46 185.5t127.5 129.5t182.5 47q84 0 157.5 -33t123 -92t65.5 -134h-119q-22 67 -83.5 107.5t-140.5 40.5q-70 0 -125 -32t-86 -89t-31 -130q0 -74 30.5 -131t85.5 -89t126 -32
q83 0 146 43.5t82 114.5h-249v99h374zM341 893h121v-114h-121v114z" />
    <glyph glyph-name="gdotaccent" unicode="&#x121;" horiz-adv-x="673" 
d="M594 540v-469q0 -130 -72.5 -204t-197.5 -74q-103 0 -173 51t-91 140h111q15 -44 57 -68t95 -24q72 0 117 44t45 120v24q-36 -31 -81.5 -47.5t-97.5 -16.5q-74 0 -135 35.5t-96.5 97t-35.5 135.5t35.5 136t96.5 97.5t135 35.5q59 0 110 -22t87 -61l18 70h73zM404 140.5
q38 21.5 59.5 59t21.5 84.5t-21.5 85t-59.5 59.5t-85 21.5t-85.5 -21.5t-60 -59.5t-21.5 -85t21.5 -84.5t60 -59t85.5 -21.5t85 21.5zM263 738h115v-115h-115v115z" />
    <glyph glyph-name="uni0122" unicode="&#x122;" horiz-adv-x="798" 
d="M756 355q-1 -106 -46.5 -190t-125.5 -131t-181 -47q-102 0 -184 47t-128.5 130t-46.5 186t46 185.5t127.5 129.5t182.5 47q84 0 157.5 -33t123 -92t65.5 -134h-119q-22 67 -83.5 107.5t-140.5 40.5q-70 0 -125 -32t-86 -89t-31 -130q0 -74 30.5 -131t85.5 -89t126 -32
q83 0 146 43.5t82 114.5h-249v99h374zM357 -203q23 4 36 19.5t13 39.5h-54v95h107v-87q0 -45 -28.5 -77.5t-73.5 -37.5v48z" />
    <glyph glyph-name="uni0123" unicode="&#x123;" horiz-adv-x="673" 
d="M594 540v-469q0 -130 -72.5 -204t-197.5 -74q-103 0 -173 51t-91 140h111q15 -44 57 -68t95 -24q72 0 117 44t45 120v24q-36 -31 -81.5 -47.5t-97.5 -16.5q-74 0 -135 35.5t-96.5 97t-35.5 135.5t35.5 136t96.5 97.5t135 35.5q59 0 110 -22t87 -61l18 70h73zM404 140.5
q38 21.5 59.5 59t21.5 84.5t-21.5 85t-59.5 59.5t-85 21.5t-85.5 -21.5t-60 -59.5t-21.5 -85t21.5 -84.5t60 -59t85.5 -21.5t85 21.5zM373 715v-95h-106v87q0 45 28.5 77.5t73.5 37.5v-48q-24 -4 -36.5 -19.5t-13.5 -39.5h54z" />
    <glyph glyph-name="Hcircumflex" unicode="&#x124;" horiz-adv-x="728" 
d="M639 700v-700h-115v305h-320v-305h-115v700h115v-286h320v286h115zM450 774l-84 83l-83 -83h-97l117 142h126l117 -142h-96z" />
    <glyph glyph-name="hcircumflex" unicode="&#x125;" horiz-adv-x="642" 
d="M515 491q55 -61 55 -166v-325h-111v303q0 73 -31.5 111.5t-92.5 38.5q-63 0 -104 -46t-41 -118v-289h-111v734h111v-255q32 35 77 54t98 19q95 0 150 -61zM218 798l-84 83l-83 -83h-97l117 142h126l117 -142h-96z" />
    <glyph glyph-name="Hbar" unicode="&#x126;" horiz-adv-x="751" 
d="M726 530h-76v-530h-115v306h-320v-306h-115v530h-74v89h74v81h115v-81h320v81h115v-81h76v-89zM535 530h-320v-117h320v117z" />
    <glyph glyph-name="hbar" unicode="&#x127;" horiz-adv-x="642" 
d="M515 491q55 -61 55 -166v-325h-111v303q0 73 -31.5 111.5t-92.5 38.5q-63 0 -104 -46t-41 -118v-289h-111v591h-92v84h92v59h111v-59h174v-84h-174v-112q32 35 77 54t98 19q95 0 150 -61z" />
    <glyph glyph-name="Itilde" unicode="&#x128;" horiz-adv-x="293" 
d="M89 700h115v-700h-115v700zM171 784q-21 11 -45 31q-19 14 -28.5 20t-21.5 6q-15 0 -25.5 -15t-10.5 -39v-10h-62v13q0 59 25.5 93.5t71.5 34.5q30 0 49.5 -10.5t39.5 -29.5q18 -16 28.5 -22.5t26.5 -6.5t25.5 14.5t9.5 40.5v9h64v-11q0 -59 -26 -94t-72 -35
q-28 0 -49 11z" />
    <glyph glyph-name="itilde" unicode="&#x129;" horiz-adv-x="269" 
d="M79 540h111v-540h-111v540zM159.5 614q-18.5 11 -42.5 33q-15 13 -25 19.5t-21 6.5q-15 0 -24 -10.5t-9 -29.5v-21h-67v18q0 57 24 90t71 33q28 0 47 -11.5t39 -31.5q16 -15 25.5 -21.5t21.5 -6.5q15 0 23.5 11t8.5 31v19h67v-16q0 -59 -24.5 -91.5t-69.5 -32.5
q-26 0 -44.5 11z" />
    <glyph glyph-name="Imacron" unicode="&#x12a;" horiz-adv-x="293" 
d="M89 700h115v-700h-115v700zM23 894h249v-96h-249v96z" />
    <glyph glyph-name="imacron" unicode="&#x12b;" horiz-adv-x="269" 
d="M79 540h111v-540h-111v540zM9 723h252v-88h-252v88z" />
    <glyph glyph-name="Ibreve" unicode="&#x12c;" horiz-adv-x="293" 
d="M89 700h115v-700h-115v700zM37 808q-41 40 -41 108h86v-3q0 -34 17.5 -53t47.5 -19q29 0 46 19t17 53v3h89q0 -68 -41.5 -108t-110.5 -40t-110 40z" />
    <glyph glyph-name="ibreve" unicode="&#x12d;" horiz-adv-x="269" 
d="M79 540h111v-540h-111v540zM22 638.5q-43 43.5 -43 115.5h86v-4q0 -38 19 -59.5t52 -21.5q32 0 50.5 21t18.5 60v4h88q0 -72 -43 -115.5t-114 -43.5t-114 43.5z" />
    <glyph glyph-name="Iogonek" unicode="&#x12e;" horiz-adv-x="293" 
d="M242 -143v-63q-38 -23 -86 -23q-54 0 -87.5 28.5t-33.5 74.5q0 35 17 67.5t48 58.5h-11v700h115v-700q-41 -19 -63 -44t-22 -54q0 -26 18 -41t50 -15q30 0 55 11z" />
    <glyph glyph-name="iogonek" unicode="&#x12f;" horiz-adv-x="269" 
d="M192 623h-115v115h115v-115zM207 -143v-63q-39 -23 -87 -23q-51 0 -86 28t-35 75q0 36 21 69t59 60v537h111v-522l1 -18q-50 -14 -78.5 -40t-28.5 -58q0 -27 18.5 -41.5t49.5 -14.5q29 0 55 11z" />
    <glyph glyph-name="Idotaccent" unicode="&#x130;" horiz-adv-x="293" 
d="M89 700h115v-700h-115v700zM85 893h121v-114h-121v114z" />
    <glyph glyph-name="dotlessi" unicode="&#x131;" horiz-adv-x="269" 
d="M79 540h111v-540h-111v540z" />
    <glyph glyph-name="IJ" unicode="&#x132;" horiz-adv-x="854" 
d="M89 700h115v-700h-115v700zM398.5 19q-56.5 32 -88.5 88.5t-32 127.5v19h113v-14q0 -63 38 -103t97 -40q58 0 95 40t37 103v460h114v-465q0 -71 -31.5 -127.5t-87.5 -88.5t-127 -32t-127.5 32z" />
    <glyph glyph-name="ij" unicode="&#x133;" horiz-adv-x="588" 
d="M77 738h115v-114h-115v114zM79 540h111v-540h-111v540zM396 738h115v-114h-115v114zM264 -92h39q46 0 70.5 24.5t24.5 71.5v536h111v-544q0 -56 -24 -99t-67 -67t-99 -24h-55v102z" />
    <glyph glyph-name="Jcircumflex" unicode="&#x134;" horiz-adv-x="602" 
d="M146.5 19q-56.5 32 -88.5 88.5t-32 127.5v19h113v-14q0 -63 38 -103t97 -40q58 0 95 40t37 103v460h114v-465q0 -71 -31.5 -127.5t-87.5 -88.5t-127 -32t-127.5 32zM527 774l-69 82l-68 -82h-91l103 142h113l104 -142h-92z" />
    <glyph glyph-name="jcircumflex" unicode="&#x135;" horiz-adv-x="281" 
d="M304 602h-92l-68 87l-68 -87h-91l103 152h113zM91 540h111v-537q0 -85 -52.5 -137t-137.5 -52h-54v101h37q46 0 71 24.5t25 70.5v530z" />
    <glyph glyph-name="uni0136" unicode="&#x136;" horiz-adv-x="645" 
d="M286 307h-82v-307h-115v700h115v-286h81l200 286h141l-239 -338l261 -362h-143zM292 -203q23 4 36 19.5t13 39.5h-54v95h107v-87q0 -45 -28.5 -77.5t-73.5 -37.5v48z" />
    <glyph glyph-name="uni0137" unicode="&#x137;" horiz-adv-x="556" 
d="M257 230h-67v-230h-111v734h111v-403h68l146 209h132l-183 -259l202 -281h-136zM238 -203q23 4 36 19.5t13 39.5h-54v95h107v-87q0 -45 -28.5 -77.5t-73.5 -37.5v48z" />
    <glyph glyph-name="kgreenlandic" unicode="&#x138;" horiz-adv-x="554" 
d="M257 230h-67v-230h-111v540h111v-209h68l147 209h131l-183 -259l203 -281h-137z" />
    <glyph glyph-name="Lacute" unicode="&#x139;" horiz-adv-x="516" 
d="M495 107v-107h-406v700h115v-593h291zM171 916h118l-98 -142h-86z" />
    <glyph glyph-name="lacute" unicode="&#x13a;" horiz-adv-x="269" 
d="M79 734h111v-734h-111v734zM151 950h118l-98 -142h-86z" />
    <glyph glyph-name="uni013B" unicode="&#x13b;" horiz-adv-x="516" 
d="M495 107v-107h-406v700h115v-593h291zM242 -203q23 4 36 19.5t13 39.5h-54v95h107v-87q0 -45 -28.5 -77.5t-73.5 -37.5v48z" />
    <glyph glyph-name="uni013C" unicode="&#x13c;" horiz-adv-x="269" 
d="M79 734h111v-734h-111v734zM85 -203q23 4 36 19.5t13 39.5h-54v95h107v-87q0 -45 -28.5 -77.5t-73.5 -37.5v48z" />
    <glyph glyph-name="Lcaron" unicode="&#x13d;" horiz-adv-x="516" 
d="M495 107v-107h-406v700h115v-593h291zM359 580q23 4 36 19.5t13 39.5h-54v95h107v-87q0 -45 -28.5 -77.5t-73.5 -37.5v48z" />
    <glyph glyph-name="lcaron" unicode="&#x13e;" horiz-adv-x="269" 
d="M79 734h111v-734h-111v734zM250 580q23 4 36 19.5t13 39.5h-54v95h107v-87q0 -45 -28.5 -77.5t-73.5 -37.5v48z" />
    <glyph glyph-name="Ldot" unicode="&#x13f;" horiz-adv-x="521" 
d="M495 107v-107h-406v700h115v-593h291zM326 403h122v-128h-122v128z" />
    <glyph glyph-name="ldot" unicode="&#x140;" horiz-adv-x="381" 
d="M79 734h111v-734h-111v734zM266 423h122v-127h-122v127z" />
    <glyph glyph-name="Lslash" unicode="&#x141;" horiz-adv-x="516" 
d="M495 107v-107h-406v239l-81 -41v99l81 41v362h115v-302l190 98v-101l-190 -97v-191h291z" />
    <glyph glyph-name="lslash" unicode="&#x142;" horiz-adv-x="294" 
d="M294 445l-92 -52v-393h-111v330l-92 -52v103l92 52v301h111v-239l92 53v-103z" />
    <glyph glyph-name="Nacute" unicode="&#x143;" horiz-adv-x="751" 
d="M662 700v-700h-97l-363 500v-500h-113v700h104l356 -492v492h113zM394 916h118l-98 -142h-86z" />
    <glyph glyph-name="nacute" unicode="&#x144;" horiz-adv-x="642" 
d="M473.5 523q46.5 -29 71.5 -80.5t25 -117.5v-325h-111v303q0 73 -31.5 111.5t-92.5 38.5q-64 0 -104.5 -46t-40.5 -118v-289h-111v540h77l22 -75q31 41 79.5 64t107.5 23q62 0 108.5 -29zM336 754h118l-95 -152h-85z" />
    <glyph glyph-name="uni0145" unicode="&#x145;" horiz-adv-x="751" 
d="M662 700v-700h-97l-363 500v-500h-113v700h104l356 -492v492h113zM331 -203q23 4 36 19.5t13 39.5h-54v95h107v-87q0 -45 -28.5 -77.5t-73.5 -37.5v48z" />
    <glyph glyph-name="uni0146" unicode="&#x146;" horiz-adv-x="642" 
d="M473.5 523q46.5 -29 71.5 -80.5t25 -117.5v-325h-111v303q0 73 -31.5 111.5t-92.5 38.5q-64 0 -104.5 -46t-40.5 -118v-289h-111v540h77l22 -75q31 41 79.5 64t107.5 23q62 0 108.5 -29zM272 -203q23 4 36 19.5t13 39.5h-54v95h107v-87q0 -45 -28.5 -77.5t-73.5 -37.5v48
z" />
    <glyph glyph-name="Ncaron" unicode="&#x147;" horiz-adv-x="751" 
d="M662 700v-700h-97l-363 500v-500h-113v700h104l356 -492v492h113zM559 916l-117 -142h-127l-117 142h97l83 -82l84 82h97z" />
    <glyph glyph-name="ncaron" unicode="&#x148;" horiz-adv-x="642" 
d="M473.5 523q46.5 -29 71.5 -80.5t25 -117.5v-325h-111v303q0 73 -31.5 111.5t-92.5 38.5q-64 0 -104.5 -46t-40.5 -118v-289h-111v540h77l22 -75q31 41 79.5 64t107.5 23q62 0 108.5 -29zM510 754l-117 -152h-127l-117 152h97l84 -88l84 88h96z" />
    <glyph glyph-name="Eng" unicode="&#x14a;" horiz-adv-x="751" 
d="M423 -84h34q44 0 72 27t28 70l-355 487v-500h-113v700h104l356 -492v492h113v-674q0 -101 -57 -158.5t-158 -57.5h-24v106z" />
    <glyph glyph-name="eng" unicode="&#x14b;" horiz-adv-x="642" 
d="M515 490q55 -61 55 -166v-322q0 -90 -52.5 -143t-142.5 -53h-38v101h22q47 0 73.5 26.5t26.5 73.5v295q0 74 -31.5 112.5t-92.5 38.5q-64 0 -104.5 -46.5t-40.5 -118.5v-288h-111v540h77l22 -76q31 41 79.5 64t107.5 23q95 0 150 -61z" />
    <glyph glyph-name="Omacron" unicode="&#x14c;" horiz-adv-x="826" 
d="M224.5 34.5q-84.5 47.5 -132.5 130.5t-48 185t48 185t132.5 130.5t188.5 47.5q105 0 189 -47.5t132 -130t48 -185.5t-48 -185.5t-132 -130t-189 -47.5q-104 0 -188.5 47.5zM542 130q58 33 90.5 91t32.5 129q0 72 -32.5 129.5t-90.5 90.5t-129 33t-128.5 -33t-90.5 -91
t-33 -129t33 -128.5t90.5 -91t128.5 -33.5t129 33zM257 893h313v-95h-313v95z" />
    <glyph glyph-name="omacron" unicode="&#x14d;" horiz-adv-x="656" 
d="M181 24q-66 37 -104 101.5t-38 144.5t37.5 145t104 101.5t147.5 36.5t147.5 -36.5t104 -101.5t37.5 -145t-38 -144.5t-104 -101.5t-147 -37t-147 37zM418.5 115.5q40.5 22.5 63 63t22.5 91.5t-22.5 91.5t-63 63t-90.5 22.5t-90.5 -22.5t-63 -63t-22.5 -91.5t22.5 -91.5
t63 -63t90.5 -22.5t90.5 22.5zM171 723h313v-88h-313v88z" />
    <glyph glyph-name="Obreve" unicode="&#x14e;" horiz-adv-x="826" 
d="M224.5 34.5q-84.5 47.5 -132.5 130.5t-48 185t48 185t132.5 130.5t188.5 47.5q105 0 189 -47.5t132 -130t48 -185.5t-48 -185.5t-132 -130t-189 -47.5q-104 0 -188.5 47.5zM542 130q58 33 90.5 91t32.5 129q0 72 -32.5 129.5t-90.5 90.5t-129 33t-128.5 -33t-90.5 -91
t-33 -129t33 -128.5t90.5 -91t128.5 -33.5t129 33zM296 808q-44 40 -44 108h86v-3q0 -34 20 -53t55 -19q34 0 53.5 19t19.5 53v3h89q0 -68 -44.5 -108t-117.5 -40t-117 40z" />
    <glyph glyph-name="obreve" unicode="&#x14f;" horiz-adv-x="656" 
d="M181 24q-66 37 -104 101.5t-38 144.5t37.5 145t104 101.5t147.5 36.5t147.5 -36.5t104 -101.5t37.5 -145t-38 -144.5t-104 -101.5t-147 -37t-147 37zM418.5 115.5q40.5 22.5 63 63t22.5 91.5t-22.5 91.5t-63 63t-90.5 22.5t-90.5 -22.5t-63 -63t-22.5 -91.5t22.5 -91.5
t63 -63t90.5 -22.5t90.5 22.5zM207 638.5q-46 43.5 -46 115.5h86v-4q0 -38 22 -59.5t59 -21.5t58 21t21 60v4h88q0 -72 -46 -115.5t-121 -43.5t-121 43.5z" />
    <glyph glyph-name="Ohungarumlaut" unicode="&#x150;" horiz-adv-x="826" 
d="M224.5 34.5q-84.5 47.5 -132.5 130.5t-48 185t48 185t132.5 130.5t188.5 47.5q105 0 189 -47.5t132 -130t48 -185.5t-48 -185.5t-132 -130t-189 -47.5q-104 0 -188.5 47.5zM542 130q58 33 90.5 91t32.5 129q0 72 -32.5 129.5t-90.5 90.5t-129 33t-128.5 -33t-90.5 -91
t-33 -129t33 -128.5t90.5 -91t128.5 -33.5t129 33zM331 916h105l-82 -142h-78zM530 916h109l-108 -142h-80z" />
    <glyph glyph-name="ohungarumlaut" unicode="&#x151;" horiz-adv-x="656" 
d="M181 24q-66 37 -104 101.5t-38 144.5t37.5 145t104 101.5t147.5 36.5t147.5 -36.5t104 -101.5t37.5 -145t-38 -144.5t-104 -101.5t-147 -37t-147 37zM418.5 115.5q40.5 22.5 63 63t22.5 91.5t-22.5 91.5t-63 63t-90.5 22.5t-90.5 -22.5t-63 -63t-22.5 -91.5t22.5 -91.5
t63 -63t90.5 -22.5t90.5 22.5zM242 754h112l-85 -152h-83zM447 754h108l-102 -152h-82z" />
    <glyph glyph-name="OE" unicode="&#x152;" horiz-adv-x="960" 
d="M911 0h-416q-51 -13 -104 -13q-94 0 -173.5 47.5t-126.5 130.5t-47 185q0 101 46 184t125.5 131t175.5 48q56 0 105 -13h404v-106h-293v-185h267v-104h-267v-198h304v-107zM192.5 217q31.5 -57 87 -87.5t126.5 -30.5q44 0 85 7v487q-50 10 -89 10q-67 0 -122 -33t-87 -91
t-32 -129q0 -76 31.5 -133z" />
    <glyph glyph-name="oe" unicode="&#x153;" horiz-adv-x="1091" 
d="M1051 232h-440q11 -65 55.5 -102.5t111.5 -37.5q47 0 85 20.5t60 57.5h117q-32 -85 -102 -134t-160 -49q-69 0 -126.5 30.5t-95.5 84.5q-38 -53 -97.5 -83.5t-131.5 -30.5q-81 0 -147 36.5t-103.5 101t-37.5 144.5t37.5 145t103.5 101.5t147 36.5q72 0 131.5 -30.5
t97.5 -83.5q37 53 95 83.5t127 30.5q78 0 141 -37t98.5 -102t35.5 -145q0 -11 -2 -37zM671.5 418.5q-43.5 -35.5 -57.5 -96.5h328q-14 61 -58 96.5t-106 35.5q-63 0 -106.5 -35.5zM417 116q40 23 62.5 63t22.5 91t-22.5 91t-62.5 63t-90 23t-90 -23t-62.5 -63t-22.5 -91
t22.5 -91t62.5 -63t90 -23t90 23z" />
    <glyph glyph-name="Racute" unicode="&#x154;" horiz-adv-x="651" 
d="M337 259h-133v-259h-115v700h273q66 0 120 -28.5t84.5 -79t30.5 -113.5q0 -71 -39 -125.5t-104 -78.5l162 -275h-129zM204 367h151q56 0 90.5 31.5t34.5 81.5q0 49 -34.5 80.5t-90.5 31.5h-151v-225zM316 916h118l-98 -142h-86z" />
    <glyph glyph-name="racute" unicode="&#x155;" horiz-adv-x="394" 
d="M386 543v-105h-58q-69 0 -103.5 -38t-34.5 -112v-288h-111v540h75l19 -74q29 39 69.5 58t95.5 19h48zM237 755h118l-95 -152h-85z" />
    <glyph glyph-name="uni0156" unicode="&#x156;" horiz-adv-x="651" 
d="M337 259h-133v-259h-115v700h273q66 0 120 -28.5t84.5 -79t30.5 -113.5q0 -71 -39 -125.5t-104 -78.5l162 -275h-129zM204 367h151q56 0 90.5 31.5t34.5 81.5q0 49 -34.5 80.5t-90.5 31.5h-151v-225zM288 -203q23 4 36 19.5t13 39.5h-54v95h107v-87q0 -45 -28.5 -77.5
t-73.5 -37.5v48z" />
    <glyph glyph-name="uni0157" unicode="&#x157;" horiz-adv-x="394" 
d="M386 543v-105h-58q-69 0 -103.5 -38t-34.5 -112v-288h-111v540h75l19 -74q29 39 69.5 58t95.5 19h48zM86 -203q23 4 36 19.5t13 39.5h-54v95h107v-87q0 -45 -28.5 -77.5t-73.5 -37.5v48z" />
    <glyph glyph-name="Rcaron" unicode="&#x158;" horiz-adv-x="651" 
d="M337 259h-133v-259h-115v700h273q66 0 120 -28.5t84.5 -79t30.5 -113.5q0 -71 -39 -125.5t-104 -78.5l162 -275h-129zM204 367h151q56 0 90.5 31.5t34.5 81.5q0 49 -34.5 80.5t-90.5 31.5h-151v-225zM481 916l-117 -142h-127l-117 142h97l83 -82l84 82h97z" />
    <glyph glyph-name="rcaron" unicode="&#x159;" horiz-adv-x="394" 
d="M386 543v-105h-58q-69 0 -103.5 -38t-34.5 -112v-288h-111v540h75l19 -74q29 39 69.5 58t95.5 19h48zM411 755l-117 -152h-127l-117 152h97l84 -88l84 88h96z" />
    <glyph glyph-name="Sacute" unicode="&#x15a;" horiz-adv-x="606" 
d="M170 17q-60 28 -93 80.5t-33 122.5h116q0 -57 41.5 -89t105.5 -32q58 0 98 28t40 75q0 33 -21 53t-52.5 31t-86.5 24q-74 18 -119.5 36t-78 57.5t-32.5 106.5q0 94 66 147t179 53q114 0 178 -57.5t64 -156.5h-114q0 51 -36.5 79t-93.5 28q-55 0 -91.5 -24t-36.5 -65
q0 -30 20 -49t51 -29.5t84 -23.5q75 -19 122 -38t81 -59.5t34 -110.5q0 -68 -33.5 -116.5t-91 -73.5t-129.5 -25q-78 0 -138 28zM308 916h118l-98 -142h-86z" />
    <glyph glyph-name="sacute" unicode="&#x15b;" horiz-adv-x="518" 
d="M100 37q-60 50 -62 134h109q2 -42 34 -64t82 -22q46 0 75.5 18.5t29.5 51.5q0 34 -31 49t-93 25q-60 10 -100 23.5t-68 46.5t-28 91q0 48 26 85t73.5 57.5t109.5 20.5q94 0 150.5 -47t58.5 -126h-105q-1 39 -29 59t-77 20q-46 0 -73 -18t-27 -47q0 -32 29.5 -45.5
t91.5 -22.5q65 -11 104.5 -24t68.5 -46.5t29 -95.5q0 -78 -60 -125.5t-159 -47.5t-159 50zM264 754h118l-95 -152h-85z" />
    <glyph glyph-name="Scircumflex" unicode="&#x15c;" horiz-adv-x="606" 
d="M170 17q-60 28 -93 80.5t-33 122.5h116q0 -57 41.5 -89t105.5 -32q58 0 98 28t40 75q0 33 -21 53t-52.5 31t-86.5 24q-74 18 -119.5 36t-78 57.5t-32.5 106.5q0 94 66 147t179 53q114 0 178 -57.5t64 -156.5h-114q0 51 -36.5 79t-93.5 28q-55 0 -91.5 -24t-36.5 -65
q0 -30 20 -49t51 -29.5t84 -23.5q75 -19 122 -38t81 -59.5t34 -110.5q0 -68 -33.5 -116.5t-91 -73.5t-129.5 -25q-78 0 -138 28zM376 774l-84 83l-83 -83h-97l117 142h126l117 -142h-96z" />
    <glyph glyph-name="scircumflex" unicode="&#x15d;" horiz-adv-x="518" 
d="M100 37q-60 50 -62 134h109q2 -42 34 -64t82 -22q46 0 75.5 18.5t29.5 51.5q0 34 -31 49t-93 25q-60 10 -100 23.5t-68 46.5t-28 91q0 48 26 85t73.5 57.5t109.5 20.5q94 0 150.5 -47t58.5 -126h-105q-1 39 -29 59t-77 20q-46 0 -73 -18t-27 -47q0 -32 29.5 -45.5
t91.5 -22.5q65 -11 104.5 -24t68.5 -46.5t29 -95.5q0 -78 -60 -125.5t-159 -47.5t-159 50zM343 602l-84 88l-84 -88h-97l117 152h127l117 -152h-96z" />
    <glyph glyph-name="Scedilla" unicode="&#x15e;" horiz-adv-x="606" 
d="M501 55.5q-61 -55.5 -158 -64.5l-9 -34q40 -8 64 -32.5t24 -60.5q0 -45 -36 -73t-91 -28h-70v62h69q20 0 33 11t13 29q0 17 -13 28t-34 11h-33l-9 11l19 76q-103 10 -164.5 71t-61.5 158h116q0 -57 41.5 -89t105.5 -32q58 0 98 28t40 75q0 33 -21 53t-52.5 31t-86.5 24
q-74 18 -119.5 36t-78 57.5t-32.5 106.5q0 94 66 147t179 53q114 0 178 -57.5t64 -156.5h-114q0 51 -36.5 79t-93.5 28q-55 0 -91.5 -24t-36.5 -65q0 -30 20 -49t51 -29.5t84 -23.5q75 -19 122 -38t81 -59.5t34 -110.5q0 -93 -61 -148.5z" />
    <glyph glyph-name="scedilla" unicode="&#x15f;" horiz-adv-x="518" 
d="M428.5 43q-49.5 -46 -133.5 -54l-10 -35q42 -5 67.5 -30.5t25.5 -63.5q0 -44 -32.5 -71.5t-85.5 -27.5h-72v61h62q22 0 35.5 11.5t13.5 29.5q0 19 -13.5 30t-35.5 11h-31l-9 10l20 74q-86 8 -138 57t-54 126h109q2 -42 34 -64t82 -22q46 0 75.5 18.5t29.5 51.5
q0 34 -31 49t-93 25q-60 10 -100 23.5t-68 46.5t-28 91q0 48 26 85t73.5 57.5t109.5 20.5q94 0 150.5 -47t58.5 -126h-105q-1 39 -29 59t-77 20q-46 0 -73 -18t-27 -47q0 -32 29.5 -45.5t91.5 -22.5q65 -11 104.5 -24t68.5 -46.5t29 -95.5q0 -71 -49.5 -117z" />
    <glyph glyph-name="Scaron" unicode="&#x160;" horiz-adv-x="606" 
d="M170 17q-60 28 -93 80.5t-33 122.5h116q0 -57 41.5 -89t105.5 -32q58 0 98 28t40 75q0 33 -21 53t-52.5 31t-86.5 24q-74 18 -119.5 36t-78 57.5t-32.5 106.5q0 94 66 147t179 53q114 0 178 -57.5t64 -156.5h-114q0 51 -36.5 79t-93.5 28q-55 0 -91.5 -24t-36.5 -65
q0 -30 20 -49t51 -29.5t84 -23.5q75 -19 122 -38t81 -59.5t34 -110.5q0 -68 -33.5 -116.5t-91 -73.5t-129.5 -25q-78 0 -138 28zM473 916l-117 -142h-127l-117 142h97l83 -82l84 82h97z" />
    <glyph glyph-name="scaron" unicode="&#x161;" horiz-adv-x="518" 
d="M100 37q-60 50 -62 134h109q2 -42 34 -64t82 -22q46 0 75.5 18.5t29.5 51.5q0 34 -31 49t-93 25q-60 10 -100 23.5t-68 46.5t-28 91q0 48 26 85t73.5 57.5t109.5 20.5q94 0 150.5 -47t58.5 -126h-105q-1 39 -29 59t-77 20q-46 0 -73 -18t-27 -47q0 -32 29.5 -45.5
t91.5 -22.5q65 -11 104.5 -24t68.5 -46.5t29 -95.5q0 -78 -60 -125.5t-159 -47.5t-159 50zM438 754l-117 -152h-127l-117 152h97l84 -88l84 88h96z" />
    <glyph glyph-name="uni0162" unicode="&#x162;" horiz-adv-x="568" 
d="M318 0l-10 -37q41 -8 65 -32.5t24 -60.5q0 -44 -36 -72t-92 -28h-69v62h68q21 0 34 11t13 28t-13 28t-35 11h-32l-10 12l19 78h-17v593h-206v107h526v-107h-206v-593h-23z" />
    <glyph glyph-name="uni0163" unicode="&#x163;" horiz-adv-x="411" 
d="M294 0l-11 -37q42 -5 67.5 -31t25.5 -64q0 -44 -33 -71t-85 -27h-72v60h62q22 0 35.5 11.5t13.5 30.5q0 18 -13.5 29t-35.5 11h-31l-9 10l23 87q-59 17 -91 65t-32 118v253h-97v20l189 201h18v-126h161v-95h-160v-244q0 -48 26 -74t75 -26h62v-101h-83h-5z" />
    <glyph glyph-name="Tcaron" unicode="&#x164;" horiz-adv-x="568" 
d="M547 593h-206v-593h-114v593h-206v107h526v-107zM464 916l-117 -142h-127l-117 142h97l83 -82l84 82h97z" />
    <glyph glyph-name="tcaron" unicode="&#x165;" horiz-adv-x="428" 
d="M493 734v-88q0 -45 -28.5 -77.5t-73.5 -37.5v49q24 3 37 18.5t13 39.5h-54v96h106zM245 127q26 -26 75 -26h61v-101h-82q-89 0 -140 51.5t-51 140.5v253h-97v20l189 201h18v-126h146v-95h-145v-244q0 -48 26 -74z" />
    <glyph glyph-name="Tbar" unicode="&#x166;" horiz-adv-x="568" 
d="M341 593v-195h140v-100h-140v-298h-114v298h-136v100h136v195h-206v107h526v-107h-206z" />
    <glyph glyph-name="tbar" unicode="&#x167;" horiz-adv-x="429" 
d="M396 103v-103h-75q-92 0 -146 54t-54 147v31h-98v92h98v121h-96v21l187 200h19v-126h161v-95h-160v-121h160v-92h-160v-27q0 -50 26.5 -76t77.5 -26h60z" />
    <glyph glyph-name="Utilde" unicode="&#x168;" horiz-adv-x="725" 
d="M218.5 22q-64.5 35 -101 97.5t-36.5 142.5v438h116v-431q0 -77 46.5 -124.5t119.5 -47.5t119 47.5t46 124.5v431h115v-438q0 -80 -36.5 -142.5t-100.5 -97.5t-143 -35q-80 0 -144.5 35zM382.5 784q-21.5 11 -46.5 32q-16 13 -26.5 19t-21.5 6q-18 0 -30 -15t-12 -39v-10
h-65v13q0 59 28 93.5t78 34.5q28 0 46.5 -10t42.5 -29q17 -15 29.5 -22.5t27.5 -7.5q19 0 30.5 14.5t11.5 40.5v9h66v-11q0 -59 -28.5 -94t-77.5 -35q-31 0 -52.5 11z" />
    <glyph glyph-name="utilde" unicode="&#x169;" horiz-adv-x="632" 
d="M187.5 17q-55.5 30 -86 84.5t-30.5 126.5v312h111v-296q0 -70 36 -110.5t98 -40.5q63 0 99 40.5t36 110.5v296h111v-312q0 -72 -30.5 -126.5t-86 -84.5t-129.5 -30q-73 0 -128.5 30zM336.5 616.5q-20.5 10.5 -45.5 30.5q-17 14 -27 20t-21 6q-17 0 -29 -15t-12 -38v-10
h-65v12q0 58 28 92.5t77 34.5q29 0 48.5 -10.5t40.5 -29.5q17 -15 28.5 -22t26.5 -7q18 0 29 15t11 39v9h66v-11q0 -58 -28 -92t-77 -34q-30 0 -50.5 10.5z" />
    <glyph glyph-name="Umacron" unicode="&#x16a;" horiz-adv-x="725" 
d="M218.5 22q-64.5 35 -101 97.5t-36.5 142.5v438h116v-431q0 -77 46.5 -124.5t119.5 -47.5t119 47.5t46 124.5v431h115v-438q0 -80 -36.5 -142.5t-100.5 -97.5t-143 -35q-80 0 -144.5 35zM207 893h313v-95h-313v95z" />
    <glyph glyph-name="umacron" unicode="&#x16b;" horiz-adv-x="632" 
d="M187.5 17q-55.5 30 -86 84.5t-30.5 126.5v312h111v-296q0 -70 36 -110.5t98 -40.5q63 0 99 40.5t36 110.5v296h111v-312q0 -72 -30.5 -126.5t-86 -84.5t-129.5 -30q-73 0 -128.5 30zM159 723h313v-88h-313v88z" />
    <glyph glyph-name="Ubreve" unicode="&#x16c;" horiz-adv-x="725" 
d="M218.5 22q-64.5 35 -101 97.5t-36.5 142.5v438h116v-431q0 -77 46.5 -124.5t119.5 -47.5t119 47.5t46 124.5v431h115v-438q0 -80 -36.5 -142.5t-100.5 -97.5t-143 -35q-80 0 -144.5 35zM246 808q-44 40 -44 108h86v-3q0 -34 20 -53t55 -19q34 0 53.5 19t19.5 53v3h89
q0 -68 -44.5 -108t-117.5 -40t-117 40z" />
    <glyph glyph-name="ubreve" unicode="&#x16d;" horiz-adv-x="632" 
d="M187.5 17q-55.5 30 -86 84.5t-30.5 126.5v312h111v-296q0 -70 36 -110.5t98 -40.5q63 0 99 40.5t36 110.5v296h111v-312q0 -72 -30.5 -126.5t-86 -84.5t-129.5 -30q-73 0 -128.5 30zM195 638.5q-46 43.5 -46 115.5h86v-4q0 -38 22 -59.5t59 -21.5t58 21t21 60v4h88
q0 -72 -46 -115.5t-121 -43.5t-121 43.5z" />
    <glyph glyph-name="Uring" unicode="&#x16e;" horiz-adv-x="725" 
d="M218.5 22q-64.5 35 -101 97.5t-36.5 142.5v438h116v-431q0 -77 46.5 -124.5t119.5 -47.5t119 47.5t46 124.5v431h115v-438q0 -80 -36.5 -142.5t-100.5 -97.5t-143 -35q-80 0 -144.5 35zM270.5 788.5q-35.5 33.5 -35.5 86.5t35.5 86.5t92.5 33.5q56 0 91.5 -33.5
t35.5 -86.5t-35.5 -86.5t-91.5 -33.5q-57 0 -92.5 33.5zM407 832.5q17 16.5 17 42.5q0 27 -17 43.5t-44 16.5q-28 0 -45 -16.5t-17 -43.5q0 -26 17 -42.5t45 -16.5q27 0 44 16.5z" />
    <glyph glyph-name="uring" unicode="&#x16f;" horiz-adv-x="632" 
d="M187.5 17q-55.5 30 -86 84.5t-30.5 126.5v312h111v-296q0 -70 36 -110.5t98 -40.5q63 0 99 40.5t36 110.5v296h111v-312q0 -72 -30.5 -126.5t-86 -84.5t-129.5 -30q-73 0 -128.5 30zM229.5 619.5q-33.5 31.5 -33.5 81.5t33.5 81.5t86.5 31.5t86.5 -31.5t33.5 -81.5
t-33.5 -81.5t-86.5 -31.5t-86.5 31.5zM358 660.5q16 15.5 16 40.5t-16 40.5t-42 15.5t-42 -15.5t-16 -40.5t16 -40.5t42 -15.5t42 15.5z" />
    <glyph glyph-name="Uhungarumlaut" unicode="&#x170;" horiz-adv-x="725" 
d="M218.5 22q-64.5 35 -101 97.5t-36.5 142.5v438h116v-431q0 -77 46.5 -124.5t119.5 -47.5t119 47.5t46 124.5v431h115v-438q0 -80 -36.5 -142.5t-100.5 -97.5t-143 -35q-80 0 -144.5 35zM280 916h105l-82 -142h-78zM479 916h109l-108 -142h-80z" />
    <glyph glyph-name="uhungarumlaut" unicode="&#x171;" horiz-adv-x="632" 
d="M187.5 17q-55.5 30 -86 84.5t-30.5 126.5v312h111v-296q0 -70 36 -110.5t98 -40.5q63 0 99 40.5t36 110.5v296h111v-312q0 -72 -30.5 -126.5t-86 -84.5t-129.5 -30q-73 0 -128.5 30zM231 754h112l-85 -152h-83zM436 754h108l-102 -152h-82z" />
    <glyph glyph-name="Uogonek" unicode="&#x172;" horiz-adv-x="724" 
d="M643 700v-436q0 -98 -48 -157.5t-126 -96.5q-42 -20 -67.5 -48t-25.5 -59q0 -28 20 -43t51 -15q28 0 52 12v-64q-41 -22 -90 -22q-54 0 -91 28.5t-37 77.5q0 28 14.5 59t39.5 54q-73 6 -131 42.5t-90.5 96.5t-32.5 135v436h115v-431q0 -76 46.5 -122t119.5 -46t119.5 46
t46.5 122v431h115z" />
    <glyph glyph-name="uogonek" unicode="&#x173;" horiz-adv-x="631" 
d="M560 540v-311q0 -71 -30.5 -122.5t-97.5 -91.5q-39 -24 -60 -51t-21 -54q0 -28 19 -43t50 -15q24 0 54 11v-64q-38 -22 -84 -22q-52 0 -87 29t-35 78q0 54 40 104h-2q-67 0 -120.5 31.5t-84 86.5t-30.5 125v309h111v-297q0 -70 35.5 -109.5t97.5 -39.5t98 39.5t36 109.5
v297h111z" />
    <glyph glyph-name="Wcircumflex" unicode="&#x174;" horiz-adv-x="1033" 
d="M1013 700l-218 -700h-102l-177 452l-173 -452h-102l-223 700h122l158 -517l196 507h43l201 -507l155 517h120zM599 774l-84 83l-83 -83h-97l117 142h126l117 -142h-96z" />
    <glyph glyph-name="wcircumflex" unicode="&#x175;" horiz-adv-x="850" 
d="M835 540l-181 -540h-90l-139 329l-139 -329h-90l-180 540h114l122 -364l155 358h36l157 -361l124 367h111zM508 602l-84 88l-84 -88h-97l117 152h127l117 -152h-96z" />
    <glyph glyph-name="Ycircumflex" unicode="&#x176;" horiz-adv-x="667" 
d="M392 280v-280h-118v281l-251 419h124l187 -313l187 313h125zM418 774l-84 83l-83 -83h-97l117 142h126l117 -142h-96z" />
    <glyph glyph-name="ycircumflex" unicode="&#x177;" horiz-adv-x="593" 
d="M583 540l-248 -550q-31 -70 -61.5 -109.5t-69.5 -57t-94 -17.5h-55v100h46q37 0 58.5 9t38 31t36.5 68l12 25l-235 501h121l171 -377l161 377h119zM384 602l-84 88l-84 -88h-97l117 152h127l117 -152h-96z" />
    <glyph glyph-name="Ydieresis" unicode="&#x178;" horiz-adv-x="667" 
d="M392 280v-280h-118v281l-251 419h124l187 -313l187 313h125zM161 893h121v-114h-121v114zM385 893h122v-114h-122v114z" />
    <glyph glyph-name="Zacute" unicode="&#x179;" horiz-adv-x="572" 
d="M545 107v-107h-519v18l332 575h-316v107h492v-21l-329 -572h340zM316 916h118l-98 -142h-86z" />
    <glyph glyph-name="zacute" unicode="&#x17a;" horiz-adv-x="490" 
d="M457 103v-103h-433v14l261 424h-241v102h412v-17l-259 -420h260zM257 754h118l-95 -152h-85z" />
    <glyph glyph-name="Zdotaccent" unicode="&#x17b;" horiz-adv-x="572" 
d="M545 107v-107h-519v18l332 575h-316v107h492v-21l-329 -572h340zM240 893h121v-114h-121v114z" />
    <glyph glyph-name="zdotaccent" unicode="&#x17c;" horiz-adv-x="490" 
d="M457 103v-103h-433v14l261 424h-241v102h412v-17l-259 -420h260zM194 738h115v-115h-115v115z" />
    <glyph glyph-name="Zcaron" unicode="&#x17d;" horiz-adv-x="572" 
d="M545 107v-107h-519v18l332 575h-316v107h492v-21l-329 -572h340zM481 916l-117 -142h-127l-117 142h97l83 -82l84 82h97z" />
    <glyph glyph-name="zcaron" unicode="&#x17e;" horiz-adv-x="490" 
d="M457 103v-103h-433v14l261 424h-241v102h412v-17l-259 -420h260zM432 754l-117 -152h-127l-117 152h97l84 -88l84 88h96z" />
    <glyph glyph-name="longs" unicode="&#x17f;" horiz-adv-x="289" 
d="M79 582q0 71 40 110.5t112 39.5h105v-101h-72q-74 0 -74 -73v-558h-111v582z" />
    <glyph glyph-name="florin" unicode="&#x192;" horiz-adv-x="444" 
d="M289.5 570.5q-22.5 -18.5 -25.5 -49.5l-10 -73h142l-12 -84h-139l-61 -431q-10 -68 -57.5 -109t-117.5 -41h-67l14 96h37q35 0 59 21t29 56l57 408h-93l12 84h93l12 85q8 62 52.5 99.5t110.5 37.5h101l-10 -81h-71q-33 0 -55.5 -18.5z" />
    <glyph glyph-name="AEacute" unicode="&#x1fc;" horiz-adv-x="910" 
d="M861 109v-109h-417v145h-240l-85 -145h-135l415 700h451v-107h-290v-183h264v-106h-264v-195h301zM444 247v305l-180 -305h180zM534 916h118l-98 -142h-86z" />
    <glyph glyph-name="aeacute" unicode="&#x1fd;" horiz-adv-x="1088" 
d="M1048 232h-440q11 -65 55 -102t112 -37q47 0 85 20t60 57h117q-32 -85 -101.5 -134t-158.5 -49q-55 0 -103 21t-84 59l-5 -68h-75l-4 63q-36 -36 -83.5 -55t-101.5 -19q-79 0 -143.5 37t-101.5 101.5t-37 143.5t37 143.5t101.5 101.5t143.5 37q55 0 102 -19.5t84 -55.5
l5 64h73l5 -68q36 38 84 58.5t103 20.5q78 0 140 -37t97.5 -101.5t35.5 -144.5q0 -11 -2 -37zM668 417.5q-44 -35.5 -58 -95.5h329q-14 61 -58 96t-106 35q-63 0 -107 -35.5zM416.5 116.5q39.5 22.5 61.5 63t22 90.5q0 51 -22 91t-61.5 62.5t-89.5 22.5t-89.5 -22.5t-62 -63
t-22.5 -90.5t22.5 -90t62 -63t89.5 -23t89.5 22.5zM560 754h118l-95 -152h-85z" />
    <glyph glyph-name="Oslashacute" unicode="&#x1fe;" horiz-adv-x="836" 
d="M754 510.5q37 -74.5 37 -163.5q0 -101 -48 -183t-132 -128.5t-188 -46.5q-76 0 -143 26l-46 -77h-125l78 125q-67 49 -105.5 124t-38.5 163q0 102 48.5 184.5t133 130t188.5 47.5q76 0 146 -28l46 78h124l-78 -128q66 -49 103 -123.5zM284.5 568q-57.5 -33 -90.5 -90
t-33 -127q0 -58 23.5 -108t64.5 -84l254 427q-42 15 -90 15q-71 0 -128.5 -33zM549.5 131.5q57.5 32.5 90.5 89.5t33 127q0 57 -22 106t-61 83l-253 -424q39 -14 84 -14q71 0 128.5 32.5zM432 916h118l-98 -142h-86z" />
    <glyph glyph-name="oslashacute" unicode="&#x1ff;" horiz-adv-x="663" 
d="M591.5 401q31.5 -60 31.5 -132q0 -79 -37 -143t-101.5 -100.5t-144.5 -36.5q-58 0 -105 19l-39 -69h-102l60 106q-54 38 -84.5 97t-30.5 129q0 79 37.5 143t102.5 101t145 37q52 0 98 -17l35 66h102l-55 -102q56 -38 87.5 -98zM232.5 428.5q-40.5 -23.5 -63 -64.5
t-22.5 -93q0 -88 59 -138l170 311q-26 8 -52 8q-51 0 -91.5 -23.5zM431 112q40 23 62.5 64t22.5 93q0 44 -16.5 79.5t-46.5 59.5l-171 -310q27 -9 58 -9q51 0 91 23zM337 754h118l-95 -152h-85z" />
    <glyph glyph-name="uni0218" unicode="&#x218;" horiz-adv-x="606" 
d="M170 17q-60 28 -93 80.5t-33 122.5h116q0 -57 41.5 -89t105.5 -32q58 0 98 28t40 75q0 33 -21 53t-52.5 31t-86.5 24q-74 18 -119.5 36t-78 57.5t-32.5 106.5q0 94 66 147t179 53q114 0 178 -57.5t64 -156.5h-114q0 51 -36.5 79t-93.5 28q-55 0 -91.5 -24t-36.5 -65
q0 -30 20 -49t51 -29.5t84 -23.5q75 -19 122 -38t81 -59.5t34 -110.5q0 -68 -33.5 -116.5t-91 -73.5t-129.5 -25q-78 0 -138 28zM271 -209q23 4 36 19.5t13 39.5h-54v95h107v-87q0 -45 -28.5 -77.5t-73.5 -37.5v48z" />
    <glyph glyph-name="uni0219" unicode="&#x219;" horiz-adv-x="518" 
d="M100 37q-60 50 -62 134h109q2 -42 34 -64t82 -22q46 0 75.5 18.5t29.5 51.5q0 34 -31 49t-93 25q-60 10 -100 23.5t-68 46.5t-28 91q0 48 26 85t73.5 57.5t109.5 20.5q94 0 150.5 -47t58.5 -126h-105q-1 39 -29 59t-77 20q-46 0 -73 -18t-27 -47q0 -32 29.5 -45.5
t91.5 -22.5q65 -11 104.5 -24t68.5 -46.5t29 -95.5q0 -78 -60 -125.5t-159 -47.5t-159 50zM226 -211q23 4 36 19.5t13 39.5h-54v95h107v-87q0 -45 -28.5 -77.5t-73.5 -37.5v48z" />
    <glyph glyph-name="uni021A" unicode="&#x21a;" horiz-adv-x="568" 
d="M547 593h-206v-593h-114v593h-206v107h526v-107zM235 -203q23 4 36 19.5t13 39.5h-54v95h107v-87q0 -45 -28.5 -77.5t-73.5 -37.5v48z" />
    <glyph glyph-name="uni021B" unicode="&#x21b;" horiz-adv-x="428" 
d="M381 101v-101h-82q-89 0 -140 51.5t-51 140.5v253h-97v21l188 200h19v-126h160v-95h-159v-244q0 -48 26 -74t75 -26h61zM210 -203q23 4 36 19.5t13 39.5h-54v95h107v-87q0 -45 -28.5 -77.5t-73.5 -37.5v48z" />
    <glyph glyph-name="circumflex" unicode="&#x2c6;" horiz-adv-x="600" 
d="M400 602l-84 88l-84 -88h-97l117 152h127l117 -152h-96z" />
    <glyph glyph-name="caron" unicode="&#x2c7;" horiz-adv-x="600" 
d="M466 754l-117 -152h-127l-117 152h97l84 -88l84 88h96z" />
    <glyph glyph-name="breve" unicode="&#x2d8;" horiz-adv-x="600" 
d="M150 638.5q-46 43.5 -46 115.5h86v-4q0 -38 22 -59.5t59 -21.5t58 21t21 60v4h88q0 -72 -46 -115.5t-121 -43.5t-121 43.5z" />
    <glyph glyph-name="dotaccent" unicode="&#x2d9;" horiz-adv-x="318" 
d="M102 738h115v-115h-115v115z" />
    <glyph glyph-name="ring" unicode="&#x2da;" horiz-adv-x="410" 
d="M118.5 619.5q-33.5 31.5 -33.5 81.5t33.5 81.5t86.5 31.5t86.5 -31.5t33.5 -81.5t-33.5 -81.5t-86.5 -31.5t-86.5 31.5zM247 660.5q16 15.5 16 40.5t-16 40.5t-42 15.5t-42 -15.5t-16 -40.5t16 -40.5t42 -15.5t42 15.5z" />
    <glyph glyph-name="ogonek" unicode="&#x2db;" horiz-adv-x="433" 
d="M141 -199.5q-34 29.5 -34 76.5q0 60 54.5 114.5t140.5 80.5l1 -58q-51 -13 -83 -44t-32 -67q0 -26 19 -42t51 -16q26 0 52 12v-64q-38 -22 -82 -22q-53 0 -87 29.5z" />
    <glyph glyph-name="tilde" unicode="&#x2dc;" horiz-adv-x="600" 
d="M318.5 616.5q-20.5 10.5 -45.5 30.5q-17 14 -27 20t-21 6q-17 0 -29 -15t-12 -38v-10h-65v12q0 58 28 92.5t77 34.5q29 0 48.5 -10.5t40.5 -29.5q17 -15 28.5 -22t26.5 -7q18 0 29 15t11 39v9h66v-11q0 -58 -28 -92t-77 -34q-30 0 -50.5 10.5z" />
    <glyph glyph-name="hungarumlaut" unicode="&#x2dd;" horiz-adv-x="563" 
d="M148 754h112l-85 -152h-83zM353 754h108l-102 -152h-82z" />
    <glyph glyph-name="gravecomb" unicode="&#x300;" 
d="M-173 602l-95 152h118l62 -152h-85z" />
    <glyph glyph-name="acutecomb" unicode="&#x301;" 
d="M-218 754h118l-95 -152h-85z" />
    <glyph glyph-name="uni0302" unicode="&#x302;" 
d="M-232 602l-84 88l-84 -88h-97l117 152h127l117 -152h-96z" />
    <glyph glyph-name="tildecomb" unicode="&#x303;" 
d="M-281.5 616.5q-20.5 10.5 -45.5 30.5q-17 14 -27 20t-21 6q-17 0 -29 -15t-12 -38v-10h-65v12q0 58 28 92.5t77 34.5q29 0 48.5 -10.5t40.5 -29.5q17 -15 28.5 -22t26.5 -7q18 0 29 15t11 39v9h66v-11q0 -58 -28 -92t-77 -34q-30 0 -50.5 10.5z" />
    <glyph glyph-name="uni0304" unicode="&#x304;" 
d="M-410 723h313v-88h-313v88z" />
    <glyph glyph-name="uni0306" unicode="&#x306;" 
d="M-389 638.5q-46 43.5 -46 115.5h86v-4q0 -38 22 -59.5t59 -21.5t58 21t21 60v4h88q0 -72 -46 -115.5t-121 -43.5t-121 43.5z" />
    <glyph glyph-name="uni0307" unicode="&#x307;" 
d="M-216 738h115v-115h-115v115z" />
    <glyph glyph-name="uni0308" unicode="&#x308;" 
d="M-429 738h122v-115h-122v115zM-217 738h122v-115h-122v115z" />
    <glyph glyph-name="uni030A" unicode="&#x30a;" 
d="M-291.5 619.5q-33.5 31.5 -33.5 81.5t33.5 81.5t86.5 31.5t86.5 -31.5t33.5 -81.5t-33.5 -81.5t-86.5 -31.5t-86.5 31.5zM-163 660.5q16 15.5 16 40.5t-16 40.5t-42 15.5t-42 -15.5t-16 -40.5t16 -40.5t42 -15.5t42 15.5z" />
    <glyph glyph-name="uni030B" unicode="&#x30b;" 
d="M-447 754h112l-85 -152h-83zM-242 754h108l-102 -152h-82z" />
    <glyph glyph-name="uni030C" unicode="&#x30c;" 
d="M-134 754l-117 -152h-127l-117 152h97l84 -88l84 88h96z" />
    <glyph glyph-name="uni0312" unicode="&#x312;" 
d="M-270 715v-95h-106v87q0 45 28.5 77.5t73.5 37.5v-48q-24 -4 -36.5 -19.5t-13.5 -39.5h54z" />
    <glyph glyph-name="uni0326" unicode="&#x326;" 
d="M-137 -203q23 4 36 19.5t13 39.5h-54v95h107v-87q0 -45 -28.5 -77.5t-73.5 -37.5v48z" />
    <glyph glyph-name="uni0327" unicode="&#x327;" 
d="M-123 -67.5q25 -25.5 25 -64.5q0 -44 -33 -71t-85 -27h-71v60h62q22 0 35.5 11.5t13.5 30.5q0 18 -13.5 29t-35.5 11h-31l-10 10l32 116h65l-21 -75q42 -5 67 -30.5z" />
    <glyph glyph-name="uni0328" unicode="&#x328;" 
d="M-292 -199.5q-34 29.5 -34 76.5q0 60 54.5 114.5t140.5 80.5l1 -58q-51 -13 -83 -44t-32 -67q0 -26 19 -42t51 -16q26 0 52 12v-64q-38 -22 -82 -22q-53 0 -87 29.5z" />
    <glyph glyph-name="uni0335" unicode="&#x335;" 
d="M-500 689h378v-83h-378v83z" />
    <glyph glyph-name="uni0337" unicode="&#x337;" 
d="M-406 329l296 167v-102l-296 -167v102z" />
    <glyph glyph-name="tonos" unicode="&#x384;" horiz-adv-x="380" 
d="M162 754h118l-94 -152h-86z" />
    <glyph glyph-name="dieresistonos" unicode="&#x385;" horiz-adv-x="467" 
d="M199 754h104l-64 -152h-84zM34 727h92v-92h-92v92zM330 727h92v-92h-92v92z" />
    <glyph glyph-name="Alphatonos" unicode="&#x386;" horiz-adv-x="706" 
d="M507 152h-312l-60 -152h-122l282 700h108l289 -700h-124zM235 255h232l-117 295zM109 700h119l-98 -145h-86z" />
    <glyph glyph-name="Epsilontonos" unicode="&#x388;" horiz-adv-x="556" 
d="M507 109v-109h-418v700h407v-108h-292v-182h266v-106h-266v-195h303zM-57 700h119l-98 -145h-86z" />
    <glyph glyph-name="Etatonos" unicode="&#x389;" horiz-adv-x="728" 
d="M639 700v-700h-115v305h-320v-305h-115v700h115v-286h320v286h115zM-57 700h119l-98 -145h-86z" />
    <glyph glyph-name="Iotatonos" unicode="&#x38a;" horiz-adv-x="293" 
d="M89 700h115v-700h-115v700zM-59 700h119l-98 -145h-86z" />
    <glyph glyph-name="Omicrontonos" unicode="&#x38c;" horiz-adv-x="826" 
d="M224.5 34.5q-84.5 47.5 -132.5 130.5t-48 185t48 185t132.5 130.5t188.5 47.5q105 0 189 -47.5t132 -130t48 -185.5t-48 -185.5t-132 -130t-189 -47.5q-104 0 -188.5 47.5zM542 130q58 33 90.5 91t32.5 129q0 72 -32.5 129.5t-90.5 90.5t-129 33t-128.5 -33t-90.5 -91
t-33 -129t33 -128.5t90.5 -91t128.5 -33.5t129 33zM17 700h119l-98 -145h-86z" />
    <glyph glyph-name="Upsilontonos" unicode="&#x38e;" horiz-adv-x="667" 
d="M392 280v-280h-118v281l-250 417l-97 -143h-86l65 145h241l187 -313l187 313h125z" />
    <glyph glyph-name="Omegatonos" unicode="&#x38f;" horiz-adv-x="865" 
d="M807 107v-107h-317v104q88 31 140 100.5t52 158.5q0 66 -33 121t-90.5 87t-126.5 32q-68 0 -125.5 -32t-90.5 -87t-33 -121q0 -89 52 -158.5t140 -100.5v-104h-317v107h125q-56 52 -86.5 119t-30.5 145q0 95 48.5 173.5t132.5 123.5t185 45q102 0 186 -45t133 -123.5
t49 -173.5q0 -78 -31 -145t-88 -119h126zM32 700h119l-98 -145h-86z" />
    <glyph glyph-name="iotadieresistonos" unicode="&#x390;" horiz-adv-x="350" 
d="M124.5 47.5q-51.5 50.5 -51.5 139.5v353h111v-344q0 -47 26 -72t74 -25h52v-102h-69q-91 0 -142.5 50.5zM124 754h98l-61 -152h-71zM-31 727h92v-92h-92v92zM246 727h92v-92h-92v92z" />
    <glyph glyph-name="Alpha" unicode="&#x391;" horiz-adv-x="706" 
d="M507 152h-312l-60 -152h-122l282 700h108l289 -700h-124zM235 255h232l-117 295z" />
    <glyph glyph-name="Beta" unicode="&#x392;" horiz-adv-x="644" 
d="M565.5 297.5q26.5 -45.5 26.5 -101.5q0 -54 -28.5 -99t-78 -71t-108.5 -26h-288v700h282q58 0 104 -23.5t72.5 -64.5t26.5 -92q0 -46 -22 -88t-59 -67q46 -22 72.5 -67.5zM432.5 568.5q-27.5 25.5 -68.5 25.5h-162v-182h162q42 0 69 26t27 65q0 40 -27.5 65.5zM445.5 138
q29.5 28 29.5 71t-29.5 71t-75.5 28h-168v-198h168q46 0 75.5 28z" />
    <glyph glyph-name="Gamma" unicode="&#x393;" horiz-adv-x="495" 
d="M474 593h-270v-593h-115v700h385v-107z" />
    <glyph glyph-name="uni0394" unicode="&#x394;" horiz-adv-x="707" 
d="M696 0h-681l285 700h100zM185 107h334l-168 430z" />
    <glyph glyph-name="Epsilon" unicode="&#x395;" horiz-adv-x="556" 
d="M507 109v-109h-418v700h407v-108h-292v-182h266v-106h-266v-195h303z" />
    <glyph glyph-name="Zeta" unicode="&#x396;" horiz-adv-x="572" 
d="M545 107v-107h-519v18l332 575h-316v107h492v-21l-329 -572h340z" />
    <glyph glyph-name="Eta" unicode="&#x397;" horiz-adv-x="728" 
d="M639 700v-700h-115v305h-320v-305h-115v700h115v-286h320v286h115z" />
    <glyph glyph-name="Theta" unicode="&#x398;" horiz-adv-x="827" 
d="M225 34.5q-84 47.5 -132.5 130t-48.5 184.5t48.5 185.5t132.5 131t188 47.5q105 0 189 -47.5t132 -130.5t48 -186t-48 -185.5t-132 -129.5t-189 -47q-104 0 -188 47.5zM542 130q58 33 91 91t33 129t-33 129t-91 91t-129 33t-128.5 -33t-90.5 -91t-33 -129
q0 -72 32 -129.5t89.5 -90.5t130.5 -33q71 0 129 33zM243 405h339v-107h-339v107z" />
    <glyph glyph-name="Iota" unicode="&#x399;" horiz-adv-x="293" 
d="M89 700h115v-700h-115v700z" />
    <glyph glyph-name="Kappa" unicode="&#x39a;" horiz-adv-x="645" 
d="M286 307h-82v-307h-115v700h115v-286h81l200 286h141l-239 -338l261 -362h-143z" />
    <glyph glyph-name="Lambda" unicode="&#x39b;" horiz-adv-x="680" 
d="M539 0l-199 541l-203 -541h-121l270 700h108l270 -700h-125z" />
    <glyph glyph-name="Mu" unicode="&#x39c;" horiz-adv-x="964" 
d="M806 0l-82 507l-227 -496h-29l-228 496l-82 -507h-117l114 700h113l214 -476l214 476h114l113 -700h-117z" />
    <glyph glyph-name="Nu" unicode="&#x39d;" horiz-adv-x="751" 
d="M662 700v-700h-97l-363 500v-500h-113v700h104l356 -492v492h113z" />
    <glyph glyph-name="Xi" unicode="&#x39e;" horiz-adv-x="565" 
d="M56 700h453v-112h-453v112zM95 413h375v-109h-375v109zM48 114h468v-114h-468v114z" />
    <glyph glyph-name="Omicron" unicode="&#x39f;" horiz-adv-x="826" 
d="M224.5 34.5q-84.5 47.5 -132.5 130.5t-48 185t48 185t132.5 130.5t188.5 47.5q105 0 189 -47.5t132 -130t48 -185.5t-48 -185.5t-132 -130t-189 -47.5q-104 0 -188.5 47.5zM542 130q58 33 90.5 91t32.5 129q0 72 -32.5 129.5t-90.5 90.5t-129 33t-128.5 -33t-90.5 -91
t-33 -129t33 -128.5t90.5 -91t128.5 -33.5t129 33z" />
    <glyph glyph-name="Pi" unicode="&#x3a0;" horiz-adv-x="703" 
d="M614 700v-700h-116v593h-294v-593h-115v700h525z" />
    <glyph glyph-name="Rho" unicode="&#x3a1;" horiz-adv-x="615" 
d="M469.5 670q54.5 -30 85.5 -83t31 -118t-31 -118t-85.5 -83t-121.5 -30h-144v-238h-115v700h259q67 0 121.5 -30zM434 381.5q36 34.5 36 87.5t-36 87.5t-92 34.5h-138v-244h138q56 0 92 34.5z" />
    <glyph glyph-name="Sigma" unicode="&#x3a3;" horiz-adv-x="566" 
d="M527 107v-107h-508v23l243 332l-237 322v23h493v-107h-293l169 -230v-16l-176 -240h309z" />
    <glyph glyph-name="Tau" unicode="&#x3a4;" horiz-adv-x="568" 
d="M547 593h-206v-593h-114v593h-206v107h526v-107z" />
    <glyph glyph-name="Upsilon" unicode="&#x3a5;" horiz-adv-x="667" 
d="M392 280v-280h-118v281l-251 419h124l187 -313l187 313h125z" />
    <glyph glyph-name="Phi" unicode="&#x3a6;" horiz-adv-x="882" 
d="M796 177.5q-40 -80.5 -117 -132t-182 -57.5v-107h-112v107q-105 6 -182 57t-117.5 131.5t-40.5 172.5q0 93 40.5 173.5t117.5 132t182 57.5v94h112v-94q105 -6 182 -56.5t117 -131t40 -173.5t-40 -173.5zM615 138.5q51 35.5 78 91.5t27 120t-27 119.5t-78 91t-119 41.5
v-505q68 6 119 41.5zM189 230.5q27 -55.5 77.5 -91.5t118.5 -42v505q-68 -6 -118.5 -42t-77.5 -91.5t-27 -118.5q0 -64 27 -119.5z" />
    <glyph glyph-name="Chi" unicode="&#x3a7;" horiz-adv-x="611" 
d="M476 0l-170 273l-170 -273h-129l229 367l-213 333h129l154 -246l153 246h128l-211 -337l229 -363h-129z" />
    <glyph glyph-name="Psi" unicode="&#x3a8;" horiz-adv-x="806" 
d="M757 700v-249q0 -82 -36.5 -146t-102.5 -100t-150 -36h-7v-169h-115v169h-7q-84 0 -149.5 36t-102 100t-36.5 146v249h114v-239q0 -82 47.5 -129.5t128.5 -47.5h7v416h111v-416h8q80 0 127.5 47.5t47.5 129.5v239h115z" />
    <glyph glyph-name="uni03A9" unicode="&#x3a9;" horiz-adv-x="865" 
d="M807 107v-107h-317v104q88 31 140 100.5t52 158.5q0 66 -33 121t-90.5 87t-126.5 32q-68 0 -125.5 -32t-90.5 -87t-33 -121q0 -89 52 -158.5t140 -100.5v-104h-317v107h125q-56 52 -86.5 119t-30.5 145q0 95 48.5 173.5t132.5 123.5t185 45q102 0 186 -45t133 -123.5
t49 -173.5q0 -78 -31 -145t-88 -119h126z" />
    <glyph glyph-name="Iotadieresis" unicode="&#x3aa;" horiz-adv-x="293" 
d="M89 700h115v-700h-115v700zM12 893h110v-114h-110v114zM171 893h110v-114h-110v114z" />
    <glyph glyph-name="Upsilondieresis" unicode="&#x3ab;" horiz-adv-x="667" 
d="M392 280v-280h-118v281l-251 419h124l187 -313l187 313h125zM161 893h121v-114h-121v114zM385 893h122v-114h-122v114z" />
    <glyph glyph-name="alphatonos" unicode="&#x3ac;" horiz-adv-x="696" 
d="M617 540v-540h-90l-11 66q-37 -38 -87 -58.5t-108 -20.5q-79 0 -143.5 37t-101.5 101.5t-37 144.5t37 145t101.5 101.5t143.5 36.5q58 0 109 -21t88 -59l13 67h86zM419.5 116q40.5 23 63 63.5t22.5 90.5t-22.5 90.5t-63 63.5t-90.5 23t-90.5 -23t-63.5 -63.5t-23 -90.5
t23 -90.5t63.5 -63.5t90.5 -23t90.5 23zM351 754h118l-94 -152h-86z" />
    <glyph glyph-name="epsilontonos" unicode="&#x3ad;" horiz-adv-x="494" 
d="M466 164q-5 -80 -62 -128.5t-148 -48.5q-62 0 -111 22t-76 62t-27 91q0 88 72 128q-57 39 -57 108q0 44 25.5 79.5t70.5 55.5t101 20q85 0 140.5 -43.5t59.5 -114.5h-102q-4 33 -29.5 51.5t-65.5 18.5q-43 0 -68.5 -19.5t-25.5 -52.5q0 -31 22 -49.5t59 -18.5h71v-81h-71
q-42 0 -67.5 -21t-25.5 -56q0 -36 29 -58t76 -22q46 0 75 21t32 56h103zM265 754h118l-94 -152h-86z" />
    <glyph glyph-name="etatonos" unicode="&#x3ae;" horiz-adv-x="642" 
d="M514.5 491.5q55.5 -61.5 55.5 -165.5v-520h-111v495q0 73 -31.5 111.5t-92.5 38.5q-64 0 -104.5 -46t-40.5 -118v-287h-111v540h77l22 -75q31 42 79.5 65t107.5 23q94 0 149.5 -61.5zM357 754h118l-94 -152h-86z" />
    <glyph glyph-name="iotatonos" unicode="&#x3af;" horiz-adv-x="350" 
d="M124.5 47.5q-51.5 50.5 -51.5 139.5v353h111v-344q0 -47 26 -72t74 -25h52v-102h-69q-91 0 -142.5 50.5zM141 754h118l-94 -152h-86z" />
    <glyph glyph-name="upsilondieresistonos" unicode="&#x3b0;" horiz-adv-x="632" 
d="M187.5 17q-55.5 30 -86 84.5t-30.5 126.5v312h111v-296q0 -70 36 -110.5t98 -40.5q63 0 99 40.5t36 110.5v296h111v-312q0 -72 -30.5 -126.5t-86 -84.5t-129.5 -30q-73 0 -128.5 30zM292 754h104l-64 -152h-84zM127 727h92v-92h-92v92zM423 727h92v-92h-92v92z" />
    <glyph glyph-name="alpha" unicode="&#x3b1;" horiz-adv-x="696" 
d="M617 540v-540h-90l-11 66q-37 -38 -87 -58.5t-108 -20.5q-79 0 -143.5 37t-101.5 101.5t-37 144.5t37 145t101.5 101.5t143.5 36.5q58 0 109 -21t88 -59l13 67h86zM419.5 116q40.5 23 63 63.5t22.5 90.5t-22.5 90.5t-63 63.5t-90.5 23t-90.5 -23t-63.5 -63.5t-23 -90.5
t23 -90.5t63.5 -63.5t90.5 -23t90.5 23z" />
    <glyph glyph-name="beta" unicode="&#x3b2;" horiz-adv-x="622" 
d="M553.5 317q27.5 -46 27.5 -109q0 -62 -32.5 -112t-90.5 -78t-130 -28t-138 29v-204h-111v654q0 131 65 204t180 73q65 0 118 -25.5t83 -71.5t30 -104q0 -52 -21 -93t-60 -66q52 -23 79.5 -69zM432 127q41 33 41 89q0 51 -36.5 83t-94.5 32h-85v97h82q51 0 83.5 29.5
t32.5 76.5q0 51 -36 82.5t-92 31.5q-67 0 -102 -46.5t-35 -132.5v-341q29 -16 63.5 -25t68.5 -9q69 0 110 33z" />
    <glyph glyph-name="gamma" unicode="&#x3b3;" horiz-adv-x="575" 
d="M346 28v-219h-109v218l-225 513h118l160 -382l154 382h117z" />
    <glyph glyph-name="delta" unicode="&#x3b4;" horiz-adv-x="617" 
d="M495 454q84 -96 84 -206q0 -71 -34.5 -131t-96 -95t-139.5 -35q-77 0 -139 34t-97 94t-35 134q0 67 33.5 124t90 90t121.5 33q17 0 41 -4q-111 77 -260 123v97h472v-100h-259q134 -62 218 -158zM392 110q37 21 58 57.5t21 81.5t-21 81.5t-58 57.5t-83 21t-83 -20.5
t-57.5 -57t-20.5 -82.5t20.5 -82.5t57.5 -57t83 -20.5t83 21z" />
    <glyph glyph-name="epsilon" unicode="&#x3b5;" horiz-adv-x="494" 
d="M466 164q-5 -80 -62 -128.5t-148 -48.5q-62 0 -111 22t-76 62t-27 91q0 88 72 128q-57 39 -57 108q0 44 25.5 79.5t70.5 55.5t101 20q85 0 140.5 -43.5t59.5 -114.5h-102q-4 33 -29.5 51.5t-65.5 18.5q-43 0 -68.5 -19.5t-25.5 -52.5q0 -31 22 -49.5t59 -18.5h71v-81h-71
q-42 0 -67.5 -21t-25.5 -56q0 -36 29 -58t76 -22q46 0 75 21t32 56h103z" />
    <glyph glyph-name="zeta" unicode="&#x3b6;" horiz-adv-x="512" 
d="M241.5 431.5q-88.5 -108.5 -88.5 -193.5q0 -44 21.5 -72t52.5 -43t86 -34q59 -19 94.5 -36.5t60 -51.5t24.5 -89q0 -52 -16 -106h-106q12 45 12 80q0 32 -18 53t-45 34t-74 28q-66 22 -106.5 43t-69.5 64.5t-29 114.5q0 99 65 195t200 208h-238v108h441v-56
q-178 -138 -266.5 -246.5z" />
    <glyph glyph-name="eta" unicode="&#x3b7;" horiz-adv-x="642" 
d="M514.5 491.5q55.5 -61.5 55.5 -165.5v-520h-111v495q0 73 -31.5 111.5t-92.5 38.5q-64 0 -104.5 -46t-40.5 -118v-287h-111v540h77l22 -75q31 42 79.5 65t107.5 23q94 0 149.5 -61.5z" />
    <glyph glyph-name="theta" unicode="&#x3b8;" horiz-adv-x="699" 
d="M510.5 684q68.5 -48 104.5 -132.5t36 -192.5q0 -107 -36 -191.5t-104.5 -132.5t-161.5 -48q-94 0 -162 48t-103.5 132.5t-35.5 191.5t35.5 192t103.5 133t162 48q93 0 161.5 -48zM220 568.5q-49 -57.5 -59 -158.5h377q-10 101 -59.5 158.5t-129.5 57.5t-129 -57.5z
M478 151q50 58 60 159h-377q10 -101 59.5 -159t128.5 -58t129 58z" />
    <glyph glyph-name="iota" unicode="&#x3b9;" horiz-adv-x="350" 
d="M124.5 47.5q-51.5 50.5 -51.5 139.5v353h111v-344q0 -47 26 -72t74 -25h52v-102h-69q-91 0 -142.5 50.5z" />
    <glyph glyph-name="kappa" unicode="&#x3ba;" horiz-adv-x="554" 
d="M257 230h-67v-230h-111v540h111v-209h68l147 209h131l-183 -259l203 -281h-137z" />
    <glyph glyph-name="lambda" unicode="&#x3bb;" horiz-adv-x="573" 
d="M437 0l-147 366l-162 -366h-120l227 500l-8 18q-23 57 -45.5 78t-64.5 21h-34v102h44q50 0 85.5 -17t63 -55t54.5 -104l226 -543h-119z" />
    <glyph glyph-name="uni03BC" unicode="&#x3bc;" horiz-adv-x="654" 
d="M575 540v-540h-74l-23 83q-31 -42 -80.5 -67.5t-101.5 -25.5q-32 0 -60.5 6.5t-47.5 20.5v-211h-109v734h111v-293q0 -149 120 -149q43 0 78 21t55.5 57.5t20.5 80.5v283h111z" />
    <glyph glyph-name="nu" unicode="&#x3bd;" horiz-adv-x="577" 
d="M563 540l-222 -540h-102l-228 540h117l162 -401l159 401h114z" />
    <glyph glyph-name="xi" unicode="&#x3be;" horiz-adv-x="528" 
d="M413 42.5q35 -17.5 59.5 -49t24.5 -81.5q0 -49 -17 -106h-112q6 18 9.5 40.5t3.5 40.5q0 37 -30.5 60.5t-104.5 48.5q-106 36 -155 83t-49 129q0 61 30.5 108.5t82.5 71.5q-44 23 -68.5 63.5t-24.5 90.5q0 56 30.5 101t83.5 70.5t120 25.5q64 0 115 -25t81.5 -69.5
t32.5 -101.5h-110q-4 45 -37 72.5t-82 27.5q-53 0 -85.5 -29t-32.5 -76q0 -45 31 -74t78 -29h83v-96h-85q-55 0 -89 -34t-34 -86q0 -39 21 -64.5t52 -40.5t84 -34q59 -20 94 -37.5z" />
    <glyph glyph-name="omicron" unicode="&#x3bf;" horiz-adv-x="656" 
d="M181 24q-66 37 -104 101.5t-38 144.5t37.5 145t104 101.5t147.5 36.5t147.5 -36.5t104 -101.5t37.5 -145t-38 -144.5t-104 -101.5t-147 -37t-147 37zM418.5 115.5q40.5 22.5 63 63t22.5 91.5t-22.5 91.5t-63 63t-90.5 22.5t-90.5 -22.5t-63 -63t-22.5 -91.5t22.5 -91.5
t63 -63t90.5 -22.5t90.5 22.5z" />
    <glyph glyph-name="pi" unicode="&#x3c0;" horiz-adv-x="629" 
d="M550 540v-540h-110v439h-250v-439h-111v540h471z" />
    <glyph glyph-name="rho" unicode="&#x3c1;" horiz-adv-x="671" 
d="M493.5 515q64.5 -37 101 -101.5t36.5 -143.5t-36.5 -144t-100.5 -102t-141 -37q-47 0 -94.5 17t-79.5 45v-243h-113v456q0 85 36 151t100.5 102.5t146.5 36.5q80 0 144.5 -37zM437.5 115.5q39.5 22.5 61.5 63t22 91.5t-22 91t-61.5 62.5t-89.5 22.5t-89 -22.5t-61 -62.5
t-22 -91t22 -91.5t61.5 -63t88.5 -22.5q50 0 89.5 22.5z" />
    <glyph glyph-name="uni03C2" unicode="&#x3c2;" horiz-adv-x="603" 
d="M445 -113q0 32 -19 52t-47 31.5t-82 26.5q-79 22 -130.5 47t-88.5 81t-37 153q0 77 37 139.5t101.5 98.5t143.5 36q100 0 173.5 -55.5t92.5 -148.5h-110q-23 48 -63.5 72.5t-93.5 24.5q-47 0 -85.5 -22t-60.5 -60t-22 -86q0 -62 28 -98.5t68 -54t108 -36.5
q66 -18 104 -34.5t64.5 -50.5t26.5 -91q0 -44 -15 -106h-106q13 49 13 81z" />
    <glyph glyph-name="sigma" unicode="&#x3c3;" horiz-adv-x="689" 
d="M667 440h-130q35 -34 54 -80t19 -95q0 -77 -35.5 -140.5t-100 -100.5t-148.5 -37q-81 0 -146.5 36.5t-103 100.5t-37.5 142t37.5 141t104 98.5t148.5 35.5h338v-101zM416 115q40 22 62 62t22 90t-22 89t-62 61t-91 22q-50 0 -90 -22t-62 -61t-22 -89t22 -90t62 -62
t90 -22q51 0 91 22z" />
    <glyph glyph-name="tau" unicode="&#x3c4;" horiz-adv-x="488" 
d="M288 440v-244q0 -47 26 -72t74 -25h52v-102h-69q-91 0 -142.5 50.5t-51.5 139.5v253h-162v100h431v-100h-158z" />
    <glyph glyph-name="upsilon" unicode="&#x3c5;" horiz-adv-x="632" 
d="M187.5 17q-55.5 30 -86 84.5t-30.5 126.5v312h111v-296q0 -70 36 -110.5t98 -40.5q63 0 99 40.5t36 110.5v296h111v-312q0 -72 -30.5 -126.5t-86 -84.5t-129.5 -30q-73 0 -128.5 30z" />
    <glyph glyph-name="phi" unicode="&#x3c6;" horiz-adv-x="750" 
d="M674.5 125.5q-35.5 -61.5 -98.5 -97.5t-145 -39v-181h-109v181q-80 3 -145 40t-101.5 99t-36.5 137q0 94 53.5 166t145.5 103l31 -93q-57 -23 -88.5 -68t-31.5 -108q0 -71 48.5 -119t125.5 -53v447h91q87 0 154 -34.5t104.5 -97t37.5 -143.5q0 -78 -35.5 -139.5z
M552.5 146q48.5 48 48.5 119q0 72 -48.5 119t-124.5 52v-343q76 5 124.5 53z" />
    <glyph glyph-name="chi" unicode="&#x3c7;" horiz-adv-x="527" 
d="M398 0l-135 206l-136 -206h-122l192 279l-177 261h124l120 -182l123 182h122l-180 -255l194 -285h-125z" />
    <glyph glyph-name="psi" unicode="&#x3c8;" horiz-adv-x="792" 
d="M724 540v-279q0 -78 -33.5 -140t-93 -97t-133.5 -35h-9v-181h-118v181h-9q-74 0 -133.5 35.5t-93 97.5t-33.5 139v279h111v-279q0 -44 20.5 -81t55.5 -58.5t78 -21.5h8v439h110v-439h9q42 0 77 21t55.5 58t20.5 82v279h111z" />
    <glyph glyph-name="omega" unicode="&#x3c9;" horiz-adv-x="872" 
d="M825 265q0 -84 -24.5 -146.5t-70.5 -96.5t-107 -34q-69 0 -118.5 32.5t-68.5 89.5q-20 -57 -69.5 -89.5t-118.5 -32.5q-61 0 -106.5 33.5t-70 96t-24.5 147.5q0 130 60 275h116q-31 -63 -47.5 -132t-16.5 -131q0 -86 29.5 -135t81.5 -49q50 0 82 38.5t32 98.5v182h103
v-182q0 -60 32 -98.5t81 -38.5q53 0 82.5 49t29.5 136q0 62 -16.5 131t-46.5 131h116q60 -142 60 -275z" />
    <glyph glyph-name="iotadieresis" unicode="&#x3ca;" horiz-adv-x="350" 
d="M124.5 47.5q-51.5 50.5 -51.5 139.5v353h111v-344q0 -47 26 -72t74 -25h52v-102h-69q-91 0 -142.5 50.5zM-37 738h122v-115h-122v115zM175 738h122v-115h-122v115z" />
    <glyph glyph-name="upsilondieresis" unicode="&#x3cb;" horiz-adv-x="632" 
d="M187.5 17q-55.5 30 -86 84.5t-30.5 126.5v312h111v-296q0 -70 36 -110.5t98 -40.5q63 0 99 40.5t36 110.5v296h111v-312q0 -72 -30.5 -126.5t-86 -84.5t-129.5 -30q-73 0 -128.5 30zM149 738h122v-115h-122v115zM361 738h122v-115h-122v115z" />
    <glyph glyph-name="omicrontonos" unicode="&#x3cc;" horiz-adv-x="656" 
d="M181 24q-66 37 -104 101.5t-38 144.5t37.5 145t104 101.5t147.5 36.5t147.5 -36.5t104 -101.5t37.5 -145t-38 -144.5t-104 -101.5t-147 -37t-147 37zM418.5 115.5q40.5 22.5 63 63t22.5 91.5t-22.5 91.5t-63 63t-90.5 22.5t-90.5 -22.5t-63 -63t-22.5 -91.5t22.5 -91.5
t63 -63t90.5 -22.5t90.5 22.5zM339 754h118l-94 -152h-86z" />
    <glyph glyph-name="upsilontonos" unicode="&#x3cd;" horiz-adv-x="632" 
d="M187.5 17q-55.5 30 -86 84.5t-30.5 126.5v312h111v-296q0 -70 36 -110.5t98 -40.5q63 0 99 40.5t36 110.5v296h111v-312q0 -72 -30.5 -126.5t-86 -84.5t-129.5 -30q-73 0 -128.5 30zM327 754h118l-94 -152h-86z" />
    <glyph glyph-name="omegatonos" unicode="&#x3ce;" horiz-adv-x="872" 
d="M825 265q0 -84 -24.5 -146.5t-70.5 -96.5t-107 -34q-69 0 -118.5 32.5t-68.5 89.5q-20 -57 -69.5 -89.5t-118.5 -32.5q-61 0 -106.5 33.5t-70 96t-24.5 147.5q0 130 60 275h116q-31 -63 -47.5 -132t-16.5 -131q0 -86 29.5 -135t81.5 -49q50 0 82 38.5t32 98.5v182h103
v-182q0 -60 32 -98.5t81 -38.5q53 0 82.5 49t29.5 136q0 62 -16.5 131t-46.5 131h116q60 -142 60 -275zM446 754h118l-94 -152h-86z" />
    <glyph glyph-name="uni0401" unicode="&#x401;" horiz-adv-x="556" 
d="M507 109v-109h-418v700h407v-108h-292v-182h266v-106h-266v-195h303zM119 893h121v-114h-121v114zM343 893h122v-114h-122v114z" />
    <glyph glyph-name="uni0402" unicode="&#x402;" horiz-adv-x="745" 
d="M592.5 442.5q54.5 -30.5 84.5 -85t30 -125.5q0 -72 -31 -126.5t-87 -84.5t-129 -30h-8v111h8q60 -1 95.5 36t35.5 93t-35.5 93.5t-96.5 37.5q-35 0 -67.5 -16t-56.5 -43v-303h-115v593h-199v107h518v-107h-204v-162q59 42 132 42q71 0 125.5 -30.5z" />
    <glyph glyph-name="uni0403" unicode="&#x403;" horiz-adv-x="495" 
d="M474 593h-270v-593h-115v700h385v-107zM273 916h118l-98 -142h-86z" />
    <glyph glyph-name="uni0404" unicode="&#x404;" horiz-adv-x="778" 
d="M746 258q-18 -82 -66.5 -143.5t-119 -94.5t-155.5 -33q-102 0 -184.5 47.5t-129.5 130.5t-47 185t47.5 185t130 130.5t183.5 47.5q125 0 215 -69.5t124 -191.5h-116q-29 71 -87 110t-136 39q-91 0 -157 -54.5t-83 -142.5h308v-105h-309q17 -89 83 -144.5t158 -55.5
q81 0 141 42t86 117h114z" />
    <glyph glyph-name="uni0405" unicode="&#x405;" horiz-adv-x="606" 
d="M170 17q-60 28 -93 80.5t-33 122.5h116q0 -57 41.5 -89t105.5 -32q58 0 98 28t40 75q0 33 -21 53t-52.5 31t-86.5 24q-74 18 -119.5 36t-78 57.5t-32.5 106.5q0 94 66 147t179 53q114 0 178 -57.5t64 -156.5h-114q0 51 -36.5 79t-93.5 28q-55 0 -91.5 -24t-36.5 -65
q0 -30 20 -49t51 -29.5t84 -23.5q75 -19 122 -38t81 -59.5t34 -110.5q0 -68 -33.5 -116.5t-91 -73.5t-129.5 -25q-78 0 -138 28z" />
    <glyph glyph-name="uni0406" unicode="&#x406;" horiz-adv-x="293" 
d="M89 700h115v-700h-115v700z" />
    <glyph glyph-name="uni0407" unicode="&#x407;" horiz-adv-x="293" 
d="M89 700h115v-700h-115v700zM12 893h110v-114h-110v114zM171 893h110v-114h-110v114z" />
    <glyph glyph-name="uni0408" unicode="&#x408;" horiz-adv-x="602" 
d="M146.5 19q-56.5 32 -88.5 88.5t-32 127.5v19h113v-14q0 -63 38 -103t97 -40q58 0 95 40t37 103v460h114v-465q0 -71 -31.5 -127.5t-87.5 -88.5t-127 -32t-127.5 32z" />
    <glyph glyph-name="uni0409" unicode="&#x409;" horiz-adv-x="1075" 
d="M928.5 435.5q55.5 -29.5 86.5 -82.5t31 -121q0 -66 -31.5 -119t-86.5 -83t-125 -30h-263v593h-229l-33 -357q-12 -119 -68 -178t-158 -59h-31v113h32q50 0 77 29.5t33 90.5l48 468h444v-235h148q70 0 125.5 -29.5zM891 142.5q38 35.5 38 90.5q0 56 -37.5 91.5t-96.5 35.5
h-140v-253h140q58 0 96 35.5z" />
    <glyph glyph-name="uni040A" unicode="&#x40a;" horiz-adv-x="1013" 
d="M874.5 404.5q52.5 -27.5 81.5 -77t29 -111.5t-29 -111.5t-81.5 -77t-120.5 -27.5h-263v317h-287v-317h-115v700h115v-275h287v275h114v-268h149q68 0 120.5 -27.5zM835.5 137q32.5 29 32.5 79t-32.5 79t-87.5 29h-143v-216h143q55 0 87.5 29z" />
    <glyph glyph-name="uni040B" unicode="&#x40b;" horiz-adv-x="767" 
d="M601.5 433.5q55.5 -29.5 87 -86t31.5 -135.5v-212h-116v202q0 77 -38 116t-105 39q-52 0 -119 -23v-334h-115v593h-206v107h526v-107h-205v-154q69 24 133 24q71 0 126.5 -29.5z" />
    <glyph glyph-name="uni040E" unicode="&#x40e;" horiz-adv-x="615" 
d="M610 700l-209 -479q-38 -88 -74.5 -135.5t-84 -67.5t-117.5 -20h-30v107h41q53 0 81 19.5t57 77.5l-265 498h131l193 -365l155 365h122zM172 885h292v-87h-292v87z" />
    <glyph glyph-name="uni040F" unicode="&#x40f;" horiz-adv-x="712" 
d="M622 0h-210v-135h-113v135h-210v700h115v-593h303v593h115v-700z" />
    <glyph glyph-name="uni0410" unicode="&#x410;" horiz-adv-x="706" 
d="M507 152h-312l-60 -152h-122l282 700h108l289 -700h-124zM235 255h232l-117 295z" />
    <glyph glyph-name="uni0411" unicode="&#x411;" horiz-adv-x="615" 
d="M469.5 412q51.5 -28 80.5 -78t29 -113t-29.5 -113.5t-81 -79t-116.5 -28.5h-263v700h437v-107h-323v-153h150q65 0 116.5 -28zM428 140.5q33 31.5 33 80.5t-33 79.5t-85 30.5h-140v-222h140q52 0 85 31.5z" />
    <glyph glyph-name="uni0412" unicode="&#x412;" horiz-adv-x="644" 
d="M565.5 297.5q26.5 -45.5 26.5 -101.5q0 -54 -28.5 -99t-78 -71t-108.5 -26h-288v700h282q58 0 104 -23.5t72.5 -64.5t26.5 -92q0 -46 -22 -88t-59 -67q46 -22 72.5 -67.5zM432.5 568.5q-27.5 25.5 -68.5 25.5h-162v-182h162q42 0 69 26t27 65q0 40 -27.5 65.5zM445.5 138
q29.5 28 29.5 71t-29.5 71t-75.5 28h-168v-198h168q46 0 75.5 28z" />
    <glyph glyph-name="uni0413" unicode="&#x413;" horiz-adv-x="495" 
d="M474 593h-270v-593h-115v700h385v-107z" />
    <glyph glyph-name="uni0414" unicode="&#x414;" horiz-adv-x="760" 
d="M716 107v-243h-106v136h-479v-136h-106v243h55q33 23 50.5 72.5t31 160.5t34.5 360h450v-593h70zM275.5 332.5q-11.5 -93.5 -28 -145.5t-43.5 -80h326v486h-231q-12 -167 -23.5 -260.5z" />
    <glyph glyph-name="uni0415" unicode="&#x415;" horiz-adv-x="556" 
d="M507 109v-109h-418v700h407v-108h-292v-182h266v-106h-266v-195h303z" />
    <glyph glyph-name="uni0416" unicode="&#x416;" horiz-adv-x="986" 
d="M628 307h-77v-307h-116v307h-78l-216 -307h-142l258 365l-232 335h136l197 -286h77v286h116v-286h76l197 286h136l-231 -335l258 -365h-142z" />
    <glyph glyph-name="uni0417" unicode="&#x417;" horiz-adv-x="579" 
d="M505 297.5q25 -44.5 25 -98.5q0 -62 -33 -110t-89.5 -74.5t-124.5 -26.5q-67 0 -122 26.5t-87.5 75.5t-34.5 113h112q4 -51 41 -81t91 -30q58 0 96 31t38 81q0 49 -34 80t-88 31h-74v98h74q48 0 78 28t30 72q0 45 -33.5 72.5t-86.5 27.5q-49 0 -83.5 -27.5t-39.5 -71.5
h-110q3 59 34.5 104.5t83.5 70t114 24.5q65 0 118 -24.5t83.5 -69.5t30.5 -104q0 -46 -20.5 -85t-57.5 -63q44 -25 69 -69.5z" />
    <glyph glyph-name="uni0418" unicode="&#x418;" horiz-adv-x="740" 
d="M650 700v-700h-114v485l-367 -485h-80v700h115v-480l363 480h83z" />
    <glyph glyph-name="uni0419" unicode="&#x419;" horiz-adv-x="740" 
d="M650 700v-700h-114v485l-367 -485h-80v700h115v-480l363 480h83zM219 885h292v-87h-292v87z" />
    <glyph glyph-name="uni041A" unicode="&#x41a;" horiz-adv-x="645" 
d="M286 307h-82v-307h-115v700h115v-286h81l200 286h141l-239 -338l261 -362h-143z" />
    <glyph glyph-name="uni041B" unicode="&#x41b;" horiz-adv-x="746" 
d="M657 700v-700h-115v593h-229l-33 -357q-22 -237 -226 -237h-33v113h33q49 0 76 29.5t33 90.5l47 468h447z" />
    <glyph glyph-name="uni041C" unicode="&#x41c;" horiz-adv-x="964" 
d="M806 0l-82 507l-227 -496h-29l-228 496l-82 -507h-117l114 700h113l214 -476l214 476h114l113 -700h-117z" />
    <glyph glyph-name="uni041D" unicode="&#x41d;" horiz-adv-x="728" 
d="M639 700v-700h-115v305h-320v-305h-115v700h115v-286h320v286h115z" />
    <glyph glyph-name="uni041E" unicode="&#x41e;" horiz-adv-x="826" 
d="M224.5 34.5q-84.5 47.5 -132.5 130.5t-48 185t48 185t132.5 130.5t188.5 47.5q105 0 189 -47.5t132 -130t48 -185.5t-48 -185.5t-132 -130t-189 -47.5q-104 0 -188.5 47.5zM542 130q58 33 90.5 91t32.5 129q0 72 -32.5 129.5t-90.5 90.5t-129 33t-128.5 -33t-90.5 -91
t-33 -129t33 -128.5t90.5 -91t128.5 -33.5t129 33z" />
    <glyph glyph-name="uni041F" unicode="&#x41f;" horiz-adv-x="703" 
d="M614 700v-700h-116v593h-294v-593h-115v700h525z" />
    <glyph glyph-name="uni0420" unicode="&#x420;" horiz-adv-x="615" 
d="M469.5 670q54.5 -30 85.5 -83t31 -118t-31 -118t-85.5 -83t-121.5 -30h-144v-238h-115v700h259q67 0 121.5 -30zM434 381.5q36 34.5 36 87.5t-36 87.5t-92 34.5h-138v-244h138q56 0 92 34.5z" />
    <glyph glyph-name="uni0421" unicode="&#x421;" horiz-adv-x="774" 
d="M219.5 35q-82.5 47 -129 129.5t-46.5 185.5t46.5 185.5t129 129.5t184.5 47q82 0 152 -32t117.5 -91t65.5 -137h-116q-25 70 -83 109.5t-136 39.5q-69 0 -124.5 -32.5t-87 -89.5t-31.5 -129t31.5 -129t87 -89.5t124.5 -32.5q80 0 139 42.5t82 116.5h117
q-18 -81 -65.5 -142t-118 -94.5t-154.5 -33.5q-102 0 -184.5 47z" />
    <glyph glyph-name="uni0422" unicode="&#x422;" horiz-adv-x="568" 
d="M547 593h-206v-593h-114v593h-206v107h526v-107z" />
    <glyph glyph-name="uni0423" unicode="&#x423;" horiz-adv-x="615" 
d="M610 700l-209 -479q-38 -88 -74.5 -135.5t-84 -67.5t-117.5 -20h-30v107h41q53 0 81 19.5t57 77.5l-265 498h131l193 -365l155 365h122z" />
    <glyph glyph-name="uni0424" unicode="&#x424;" horiz-adv-x="882" 
d="M796 177.5q-40 -80.5 -117 -132t-182 -57.5v-107h-112v107q-105 6 -182 57t-117.5 131.5t-40.5 172.5q0 93 40.5 173.5t117.5 132t182 57.5v94h112v-94q105 -6 182 -56.5t117 -131t40 -173.5t-40 -173.5zM615 138.5q51 35.5 78 91.5t27 120t-27 119.5t-78 91t-119 41.5
v-505q68 6 119 41.5zM189 230.5q27 -55.5 77.5 -91.5t118.5 -42v505q-68 -6 -118.5 -42t-77.5 -91.5t-27 -118.5q0 -64 27 -119.5z" />
    <glyph glyph-name="uni0425" unicode="&#x425;" horiz-adv-x="611" 
d="M476 0l-170 273l-170 -273h-129l229 367l-213 333h129l154 -246l153 246h128l-211 -337l229 -363h-129z" />
    <glyph glyph-name="uni0426" unicode="&#x426;" horiz-adv-x="721" 
d="M676 107v-243h-106v136h-481v700h115v-593h289v593h114v-593h69z" />
    <glyph glyph-name="uni0427" unicode="&#x427;" horiz-adv-x="647" 
d="M558 700v-700h-116v266q-74 -29 -147 -29q-72 0 -128.5 30.5t-88.5 88.5t-32 139v205h115v-200q0 -75 37.5 -115t107.5 -40q58 0 136 32v323h116z" />
    <glyph glyph-name="uni0428" unicode="&#x428;" horiz-adv-x="973" 
d="M883 700v-700h-794v700h115v-593h226v593h112v-593h227v593h114z" />
    <glyph glyph-name="uni0429" unicode="&#x429;" horiz-adv-x="999" 
d="M956 107v-243h-106v136h-761v700h115v-593h226v593h112v-593h227v593h114v-593h73z" />
    <glyph glyph-name="uni042A" unicode="&#x42a;" horiz-adv-x="707" 
d="M561 437q55 -30 86 -83t31 -121q0 -67 -31 -120t-86.5 -83t-124.5 -30h-263v593h-154v107h269v-233h148q70 0 125 -30zM523.5 143.5q37.5 35.5 37.5 90.5q0 56 -37.5 91t-96.5 35h-139v-252h139q59 0 96.5 35.5z" />
    <glyph glyph-name="uni042B" unicode="&#x42b;" horiz-adv-x="889" 
d="M477 437q55 -30 86 -83t31 -121q0 -67 -31 -120t-86 -83t-125 -30h-263v700h115v-233h148q70 0 125 -30zM439.5 143.5q37.5 35.5 37.5 90.5t-37 90.5t-96 35.5h-140v-252h140q58 0 95.5 35.5zM685 700h115v-700h-115v700z" />
    <glyph glyph-name="uni042C" unicode="&#x42c;" horiz-adv-x="624" 
d="M477 437q55 -30 86 -83t31 -121q0 -67 -31 -120t-86 -83t-125 -30h-263v700h115v-233h148q70 0 125 -30zM439.5 143.5q37.5 35.5 37.5 90.5t-37 90.5t-96 35.5h-140v-252h140q58 0 95.5 35.5z" />
    <glyph glyph-name="uni042D" unicode="&#x42d;" horiz-adv-x="778" 
d="M556.5 665.5q82.5 -47.5 129.5 -130.5t47 -185t-47 -185t-129 -130.5t-184 -47.5q-85 0 -156 33t-119 94.5t-67 143.5h115q26 -75 86 -117.5t141 -42.5q61 0 111.5 25.5t84.5 71t44 104.5h-308v105h307q-17 89 -82.5 143.5t-156.5 54.5q-78 0 -136 -39.5t-87 -110.5h-116
q34 122 124 191.5t215 69.5q101 0 183.5 -47.5z" />
    <glyph glyph-name="uni042E" unicode="&#x42e;" horiz-adv-x="1053" 
d="M835 666q81 -47 127 -129.5t46 -186.5t-45.5 -187t-126.5 -129.5t-183 -46.5q-92 0 -167.5 39.5t-124 110t-59.5 160.5h-98v-297h-115v700h115v-296h98q12 90 60 160.5t123.5 109.5t167.5 39q101 0 182 -47zM775 130.5q55 32.5 86 90t31 129.5t-31 129.5t-86 90
t-125 32.5q-69 0 -124.5 -32.5t-87 -90.5t-31.5 -129t31.5 -129t87 -90.5t124.5 -32.5q70 0 125 32.5z" />
    <glyph glyph-name="uni042F" unicode="&#x42f;" horiz-adv-x="656" 
d="M567 700v-700h-116v259h-130l-149 -259h-133l163 275q-70 24 -110.5 78t-40.5 126q0 62 31 112.5t85.5 79.5t121.5 29h278zM451 364v228h-156q-56 0 -91 -31.5t-35 -81.5q0 -51 35 -83t91 -32h156z" />
    <glyph glyph-name="uni0430" unicode="&#x430;" horiz-adv-x="696" 
d="M617 540v-540h-90l-11 66q-37 -38 -87 -58.5t-108 -20.5q-79 0 -143.5 37t-101.5 101.5t-37 144.5t37 145t101.5 101.5t143.5 36.5q58 0 109 -21t88 -59l13 67h86zM419.5 116q40.5 23 63 63.5t22.5 90.5t-22.5 90.5t-63 63.5t-90.5 23t-90.5 -23t-63.5 -63.5t-23 -90.5
t23 -90.5t63.5 -63.5t90.5 -23t90.5 23z" />
    <glyph glyph-name="uni0431" unicode="&#x431;" horiz-adv-x="658" 
d="M492 481q60 -33 93 -91.5t33 -134.5q0 -79 -35 -139.5t-98.5 -94.5t-146.5 -34q-87 0 -151 37t-98 107t-34 165q0 132 33 220t104.5 142t190.5 83l169 41v-110l-167 -40q-88 -21 -138.5 -65.5t-66.5 -115.5q70 63 174 63q78 0 138 -33zM423.5 113.5q38.5 21.5 60 58.5
t21.5 83t-21.5 84t-60 59.5t-85.5 21.5t-85.5 -21.5t-60 -59t-21.5 -84.5q0 -46 21.5 -83t60 -58.5t85.5 -21.5t85.5 21.5z" />
    <glyph glyph-name="uni0432" unicode="&#x432;" horiz-adv-x="575" 
d="M506 232.5q23 -34.5 23 -77.5t-22 -78.5t-60.5 -56t-85.5 -20.5h-282v540h278q68 0 111.5 -38.5t43.5 -99.5q0 -38 -18 -70.5t-49 -49.5q38 -15 61 -49.5zM383.5 429q-18.5 17 -48.5 17h-147v-124h147q31 0 49 17t18 45t-18.5 45zM394.5 116q20.5 19 20.5 48
q0 30 -20.5 49t-54.5 19h-152v-135h153q33 0 53.5 19z" />
    <glyph glyph-name="uni0433" unicode="&#x433;" horiz-adv-x="441" 
d="M424 441h-236v-441h-109v540h345v-99z" />
    <glyph glyph-name="uni0434" unicode="&#x434;" horiz-adv-x="658" 
d="M618 105v-241h-101v136h-394v-136h-101v241h57q23 19 36 56t23 118t25 261h385v-435h70zM236 208q-14 -71 -41 -103h244v337h-178q-11 -163 -25 -234z" />
    <glyph glyph-name="uni0435" unicode="&#x435;" horiz-adv-x="631" 
d="M590 232h-438q10 -65 54 -103t111 -38q48 0 86 21t59 58h117q-32 -85 -102 -134t-160 -49q-78 0 -141.5 37t-100 102t-36.5 144q0 80 36.5 144.5t100 101.5t141.5 37q81 0 143.5 -38t97 -103t34.5 -143q0 -13 -2 -37zM211 418q-43 -35 -57 -96h327q-15 61 -58.5 96
t-105.5 35q-63 0 -106 -35z" />
    <glyph glyph-name="uni0436" unicode="&#x436;" horiz-adv-x="820" 
d="M528 230h-64v-230h-107v230h-65l-157 -230h-135l200 284l-180 256h127l146 -211h64v211h107v-211h64l145 211h128l-180 -256l200 -284h-135z" />
    <glyph glyph-name="uni0437" unicode="&#x437;" horiz-adv-x="494" 
d="M452 156q0 -49 -27.5 -87.5t-76 -60t-110.5 -21.5q-91 0 -148.5 48t-62.5 128h101q6 -36 35 -56t75 -20q47 0 76 21t29 56q0 33 -26 54t-67 21h-70v86h70q38 0 60 17.5t22 47.5q0 32 -25.5 51t-69.5 19q-39 0 -64.5 -18t-30.5 -49h-101q2 47 28.5 83.5t71 56.5t99.5 20
q56 0 101 -20t70.5 -55.5t25.5 -79.5q0 -72 -56 -111q71 -42 71 -131z" />
    <glyph glyph-name="uni0438" unicode="&#x438;" horiz-adv-x="616" 
d="M537 540v-540h-106v343l-288 -343h-64v540h107v-340l289 340h62z" />
    <glyph glyph-name="uni0439" unicode="&#x439;" horiz-adv-x="616" 
d="M537 540v-540h-106v343l-288 -343h-64v540h107v-340l289 340h62zM178 718h268v-83h-268v83z" />
    <glyph glyph-name="uni043A" unicode="&#x43a;" horiz-adv-x="554" 
d="M257 230h-67v-230h-111v540h111v-209h68l147 209h131l-183 -259l203 -281h-137z" />
    <glyph glyph-name="uni043B" unicode="&#x43b;" horiz-adv-x="620" 
d="M541 540v-540h-109v444h-167l-24 -239q-11 -114 -58.5 -161t-143.5 -47h-19v102h26q79 0 89 99l39 342h367z" />
    <glyph glyph-name="uni043C" unicode="&#x43c;" horiz-adv-x="800" 
d="M657 0l-65 368l-181 -362h-23l-180 362l-65 -368h-107l97 540h94l173 -345l174 345h93l97 -540h-107z" />
    <glyph glyph-name="uni043D" unicode="&#x43d;" horiz-adv-x="627" 
d="M548 540v-540h-109v226h-250v-226h-110v540h110v-212h250v212h109z" />
    <glyph glyph-name="uni043E" unicode="&#x43e;" horiz-adv-x="656" 
d="M181 24q-66 37 -104 101.5t-38 144.5t37.5 145t104 101.5t147.5 36.5t147.5 -36.5t104 -101.5t37.5 -145t-38 -144.5t-104 -101.5t-147 -37t-147 37zM418.5 115.5q40.5 22.5 63 63t22.5 91.5t-22.5 91.5t-63 63t-90.5 22.5t-90.5 -22.5t-63 -63t-22.5 -91.5t22.5 -91.5
t63 -63t90.5 -22.5t90.5 22.5z" />
    <glyph glyph-name="uni043F" unicode="&#x43f;" horiz-adv-x="629" 
d="M550 540v-540h-110v439h-250v-439h-111v540h471z" />
    <glyph glyph-name="uni0440" unicode="&#x440;" horiz-adv-x="689" 
d="M513 516.5q64 -36.5 100 -101.5t36 -145t-36 -144.5t-100 -101.5t-144 -37q-52 0 -97.5 17t-81.5 48v-246h-111v734h75l21 -66q37 37 87 58t107 21q80 0 144 -36.5zM451 116q40 23 63 63.5t23 90.5t-23 90.5t-63 63.5t-90 23t-90.5 -23t-63.5 -63.5t-23 -90.5t23 -90.5
t63.5 -63.5t90.5 -23t90 23z" />
    <glyph glyph-name="uni0441" unicode="&#x441;" horiz-adv-x="622" 
d="M178.5 24q-64.5 37 -102 102t-37.5 145q0 79 37 143.5t102 101.5t145 37q99 0 171.5 -56t95.5 -149h-110q-21 47 -63 73t-95 26q-48 0 -86.5 -23.5t-61 -64t-22.5 -89.5t22.5 -89.5t61.5 -64t86 -23.5q53 0 94 27t64 77h112q-23 -95 -96.5 -152.5t-173.5 -57.5
q-79 0 -143.5 37z" />
    <glyph glyph-name="uni0442" unicode="&#x442;" horiz-adv-x="524" 
d="M506 440h-190v-440h-108v440h-191v100h489v-100z" />
    <glyph glyph-name="uni0443" unicode="&#x443;" horiz-adv-x="593" 
d="M583 540l-248 -550q-31 -70 -61.5 -109.5t-69.5 -57t-94 -17.5h-55v100h46q37 0 58.5 9t38 31t36.5 68l12 25l-235 501h121l171 -377l161 377h119z" />
    <glyph glyph-name="uni0444" unicode="&#x444;" horiz-adv-x="740" 
d="M665 127q-36 -63 -99 -100t-143 -40v-157h-106v157q-80 3 -143 40t-99 100t-36 141q0 79 36 142.5t99.5 101t142.5 41.5v151h106v-151q79 -4 142.5 -41.5t99.5 -101t36 -142.5q0 -78 -36 -141zM195.5 144.5q47.5 -50.5 122.5 -54.5v360q-74 -5 -122 -56t-48 -125
t47.5 -124.5zM544.5 145q47.5 50 47.5 124t-48 125t-122 56v-360q75 5 122.5 55z" />
    <glyph glyph-name="uni0445" unicode="&#x445;" horiz-adv-x="527" 
d="M398 0l-135 206l-136 -206h-122l192 279l-177 261h124l120 -182l123 182h122l-180 -255l194 -285h-125z" />
    <glyph glyph-name="uni0446" unicode="&#x446;" horiz-adv-x="644" 
d="M605 102v-238h-101v136h-425v540h109v-438h236v438h109v-438h72z" />
    <glyph glyph-name="uni0447" unicode="&#x447;" horiz-adv-x="560" 
d="M481 540v-540h-108v193q-54 -20 -116 -20q-99 0 -159 58.5t-60 159.5v149h109v-145q0 -58 30.5 -89t88.5 -31q27 0 56 7t51 19v239h108z" />
    <glyph glyph-name="uni0448" unicode="&#x448;" horiz-adv-x="843" 
d="M764 540v-540h-685v540h109v-438h181v438h106v-438h180v438h109z" />
    <glyph glyph-name="uni0449" unicode="&#x449;" horiz-adv-x="875" 
d="M837 102v-238h-101v136h-657v540h109v-438h181v438h106v-438h180v438h109v-438h73z" />
    <glyph glyph-name="uni044A" unicode="&#x44a;" horiz-adv-x="621" 
d="M498.5 356q45.5 -24 70.5 -67.5t25 -99.5q0 -55 -25 -98t-70.5 -67t-103.5 -24h-224v444h-153v96h262v-160h115q58 0 103.5 -24zM455.5 121.5q27.5 25.5 27.5 67.5q0 43 -27.5 69t-73.5 26h-102v-188h102q46 0 73.5 25.5z" />
    <glyph glyph-name="uni044B" unicode="&#x44b;" horiz-adv-x="786" 
d="M406.5 356q45.5 -24 70.5 -67.5t25 -99.5q0 -55 -25 -98t-70.5 -67t-103.5 -24h-224v540h109v-160h115q58 0 103.5 -24zM707 540v-540h-111v540h111zM363.5 121.5q27.5 25.5 27.5 67.5q0 43 -27.5 69t-73.5 26h-102v-188h102q46 0 73.5 25.5z" />
    <glyph glyph-name="uni044C" unicode="&#x44c;" horiz-adv-x="529" 
d="M406.5 356q45.5 -24 70.5 -67.5t25 -99.5q0 -55 -25 -98t-70.5 -67t-103.5 -24h-224v540h109v-160h115q58 0 103.5 -24zM363.5 121.5q27.5 25.5 27.5 67.5q0 43 -27.5 69t-73.5 26h-102v-188h102q46 0 73.5 25.5z" />
    <glyph glyph-name="uni044D" unicode="&#x44d;" horiz-adv-x="623" 
d="M445 516q65 -37 102 -101t37 -143t-37.5 -144.5t-102.5 -103t-144 -37.5q-66 0 -122 27t-95 75t-54 111h110q20 -52 63.5 -82.5t98.5 -30.5q66 0 112.5 39t59.5 102h-224v88h223q-13 62 -59.5 100t-111.5 38q-54 0 -98 -29.5t-64 -77.5h-108q23 92 96.5 149t172.5 57
q80 0 145 -37z" />
    <glyph glyph-name="uni044E" unicode="&#x44e;" horiz-adv-x="864" 
d="M687 516q64 -37 100.5 -101.5t36.5 -145.5q0 -80 -36 -144.5t-100 -101t-144 -36.5q-71 0 -129.5 29t-96 81.5t-48.5 120.5h-81v-219h-110v541h110v-218h81q11 68 49 120.5t96.5 81.5t128.5 29q79 0 143 -37zM630.5 116q38.5 23 60 63t21.5 90t-22 91t-60.5 64t-85.5 23
q-48 0 -86 -23t-60 -64t-22 -91t21.5 -90t60 -63t86.5 -23t86.5 23z" />
    <glyph glyph-name="uni044F" unicode="&#x44f;" horiz-adv-x="567" 
d="M488 540v-540h-108v198h-113l-118 -198h-121l129 216q-49 20 -77 60t-28 93q0 48 23 87t64 61.5t91 22.5h258zM380 295v147h-135q-37 0 -59 -20.5t-22 -53.5q0 -32 22 -52.5t59 -20.5h135z" />
    <glyph glyph-name="uni0451" unicode="&#x451;" horiz-adv-x="631" 
d="M590 232h-438q10 -65 54 -103t111 -38q48 0 86 21t59 58h117q-32 -85 -102 -134t-160 -49q-78 0 -141.5 37t-100 102t-36.5 144q0 80 36.5 144.5t100 101.5t141.5 37q81 0 143.5 -38t97 -103t34.5 -143q0 -13 -2 -37zM211 418q-43 -35 -57 -96h327q-15 61 -58.5 96
t-105.5 35q-63 0 -106 -35zM148 738h122v-115h-122v115zM360 738h122v-115h-122v115z" />
    <glyph glyph-name="uni0452" unicode="&#x452;" horiz-adv-x="642" 
d="M515 490q55 -61 55 -166v-318q0 -88 -53.5 -142t-141.5 -54h-38v101h21q47 0 74 27t27 74v287q0 74 -31.5 112.5t-92.5 38.5q-64 0 -104.5 -46.5t-40.5 -117.5v-286h-111v591h-93v84h93v59h111v-59h173v-84h-173v-111q32 34 77 52.5t98 18.5q95 0 150 -61z" />
    <glyph glyph-name="uni0453" unicode="&#x453;" horiz-adv-x="441" 
d="M424 441h-236v-441h-109v540h345v-99zM256 754h118l-95 -152h-85z" />
    <glyph glyph-name="uni0454" unicode="&#x454;" horiz-adv-x="623" 
d="M594 200q-15 -63 -54 -111t-95 -75t-122 -27q-79 0 -144 37.5t-102.5 103t-37.5 144.5t37 143t102 101t145 37q99 0 172.5 -57t96.5 -149h-108q-20 48 -64 77.5t-98 29.5q-65 0 -111.5 -38t-59.5 -100h223v-88h-224q13 -63 59.5 -102t112.5 -39q55 0 98.5 30.5t63.5 82.5
h110z" />
    <glyph glyph-name="uni0455" unicode="&#x455;" horiz-adv-x="518" 
d="M100 37q-60 50 -62 134h109q2 -42 34 -64t82 -22q46 0 75.5 18.5t29.5 51.5q0 34 -31 49t-93 25q-60 10 -100 23.5t-68 46.5t-28 91q0 48 26 85t73.5 57.5t109.5 20.5q94 0 150.5 -47t58.5 -126h-105q-1 39 -29 59t-77 20q-46 0 -73 -18t-27 -47q0 -32 29.5 -45.5
t91.5 -22.5q65 -11 104.5 -24t68.5 -46.5t29 -95.5q0 -78 -60 -125.5t-159 -47.5t-159 50z" />
    <glyph glyph-name="uni0456" unicode="&#x456;" horiz-adv-x="269" 
d="M77 738h115v-114h-115v114zM79 540h111v-540h-111v540z" />
    <glyph glyph-name="uni0457" unicode="&#x457;" horiz-adv-x="269" 
d="M79 540h111v-540h-111v540zM-4 738h105v-115h-105v115zM167 737h106v-115h-106v115z" />
    <glyph glyph-name="uni0458" unicode="&#x458;" horiz-adv-x="281" 
d="M89 738h115v-114h-115v114zM-43 -92h39q46 0 70.5 24.5t24.5 71.5v536h111v-544q0 -56 -24 -99t-67 -67t-99 -24h-55v102z" />
    <glyph glyph-name="uni0459" unicode="&#x459;" horiz-adv-x="869" 
d="M747.5 353q45.5 -24 70.5 -67t25 -98t-25 -98t-70.5 -66.5t-103.5 -23.5h-224v444h-154l-23 -238q-11 -113 -59 -160.5t-144 -47.5h-20v100h27q79 0 89 99l39 343h349v-163h120q58 0 103.5 -24zM706 118.5q28 26.5 28 69.5t-28 70t-73 27h-109v-193h109q45 0 73 26.5z
" />
    <glyph glyph-name="uni045A" unicode="&#x45a;" horiz-adv-x="859" 
d="M779.5 318.5q52.5 -50.5 52.5 -133.5t-52.5 -134t-141.5 -51h-222v236h-228v-236h-109v540h109v-202h228v202h109v-171h113q89 0 141.5 -50.5zM695 120.5q26 23.5 26 64.5q0 40 -26 63.5t-71 23.5h-99v-175h99q45 0 71 23.5z" />
    <glyph glyph-name="uni045B" unicode="&#x45b;" horiz-adv-x="642" 
d="M515 491q55 -61 55 -166v-325h-111v303q0 73 -31.5 111.5t-92.5 38.5q-63 0 -104 -46t-41 -118v-289h-111v591h-92v84h92v59h111v-59h174v-84h-174v-112q32 35 77 54t98 19q95 0 150 -61z" />
    <glyph glyph-name="uni045C" unicode="&#x45c;" horiz-adv-x="554" 
d="M257 230h-67v-230h-111v540h111v-209h68l147 209h131l-183 -259l203 -281h-137zM307 754h118l-95 -152h-85z" />
    <glyph glyph-name="uni045D" unicode="&#x45d;" horiz-adv-x="616" 
d="M537 540v-540h-106v343l-288 -343h-64v540h107v-340l289 340h62zM277 602l-95 152h118l62 -152h-85z" />
    <glyph glyph-name="uni045E" unicode="&#x45e;" horiz-adv-x="593" 
d="M583 540l-248 -550q-31 -70 -61.5 -109.5t-69.5 -57t-94 -17.5h-55v100h46q37 0 58.5 9t38 31t36.5 68l12 25l-235 501h121l171 -377l161 377h119zM165 718h268v-83h-268v83z" />
    <glyph glyph-name="uni045F" unicode="&#x45f;" horiz-adv-x="624" 
d="M545 0h-179v-135h-107v135h-180v540h109v-438h249v438h108v-540z" />
    <glyph glyph-name="uni0490" unicode="&#x490;" horiz-adv-x="495" 
d="M474 805v-212h-270v-593h-115v700h278v105h107z" />
    <glyph glyph-name="uni0491" unicode="&#x491;" horiz-adv-x="441" 
d="M424 655v-214h-236v-441h-109v540h240v115h105z" />
    <glyph glyph-name="Wgrave" unicode="&#x1e80;" horiz-adv-x="1033" 
d="M1013 700l-218 -700h-102l-177 452l-173 -452h-102l-223 700h122l158 -517l196 507h43l201 -507l155 517h120zM377 916h119l65 -142h-85z" />
    <glyph glyph-name="wgrave" unicode="&#x1e81;" horiz-adv-x="850" 
d="M835 540l-181 -540h-90l-139 329l-139 -329h-90l-180 540h114l122 -364l155 358h36l157 -361l124 367h111zM389 602l-95 152h118l62 -152h-85z" />
    <glyph glyph-name="Wacute" unicode="&#x1e82;" horiz-adv-x="1033" 
d="M1013 700l-218 -700h-102l-177 452l-173 -452h-102l-223 700h122l158 -517l196 507h43l201 -507l155 517h120zM531 916h118l-98 -142h-86z" />
    <glyph glyph-name="wacute" unicode="&#x1e83;" horiz-adv-x="850" 
d="M835 540l-181 -540h-90l-139 329l-139 -329h-90l-180 540h114l122 -364l155 358h36l157 -361l124 367h111zM429 754h118l-95 -152h-85z" />
    <glyph glyph-name="Wdieresis" unicode="&#x1e84;" horiz-adv-x="1033" 
d="M1013 700l-218 -700h-102l-177 452l-173 -452h-102l-223 700h122l158 -517l196 507h43l201 -507l155 517h120zM342 893h121v-114h-121v114zM566 893h122v-114h-122v114z" />
    <glyph glyph-name="wdieresis" unicode="&#x1e85;" horiz-adv-x="850" 
d="M835 540l-181 -540h-90l-139 329l-139 -329h-90l-180 540h114l122 -364l155 358h36l157 -361l124 367h111zM256 738h122v-115h-122v115zM468 738h122v-115h-122v115z" />
    <glyph glyph-name="uni1E9E" unicode="&#x1e9e;" horiz-adv-x="705" 
d="M615.5 377.5q47.5 -57.5 47.5 -143.5q0 -68 -31.5 -121t-90 -83t-137.5 -30h-94v110h94q63 0 102 35t39 90q0 56 -39 91.5t-102 35.5h-75v21l111 208h-110q-64 0 -97.5 -33t-33.5 -97v-461h-116v472q0 105 61.5 166.5t166.5 61.5h296v-19l-122 -230q83 -16 130.5 -73.5z
" />
    <glyph glyph-name="Ygrave" unicode="&#x1ef2;" horiz-adv-x="667" 
d="M392 280v-280h-118v281l-251 419h124l187 -313l187 313h125zM196 916h119l65 -142h-85z" />
    <glyph glyph-name="ygrave" unicode="&#x1ef3;" horiz-adv-x="593" 
d="M583 540l-248 -550q-31 -70 -61.5 -109.5t-69.5 -57t-94 -17.5h-55v100h46q37 0 58.5 9t38 31t36.5 68l12 25l-235 501h121l171 -377l161 377h119zM265 602l-95 152h118l62 -152h-85z" />
    <glyph glyph-name="endash" unicode="&#x2013;" horiz-adv-x="640" 
d="M66 334h508v-108h-508v108z" />
    <glyph glyph-name="emdash" unicode="&#x2014;" horiz-adv-x="899" 
d="M66 334h768v-108h-768v108z" />
    <glyph glyph-name="quoteleft" unicode="&#x2018;" horiz-adv-x="242" 
d="M177 701q-62 -15 -62 -86h68v-127h-126v118q0 64 31.5 102.5t88.5 50.5v-58z" />
    <glyph glyph-name="quoteright" unicode="&#x2019;" horiz-adv-x="236" 
d="M68 508q62 15 62 86h-68v127h126v-118q0 -64 -31.5 -102.5t-88.5 -50.5v58z" />
    <glyph glyph-name="quotesinglbase" unicode="&#x201a;" horiz-adv-x="258" 
d="M72 -86q62 15 62 86h-68v127h126v-118q0 -64 -31.5 -102.5t-88.5 -50.5v58z" />
    <glyph glyph-name="quotedblleft" unicode="&#x201c;" horiz-adv-x="439" 
d="M177 703q-62 -15 -62 -87h68v-126h-126v117q0 65 32 103.5t88 49.5v-57zM374 703q-62 -15 -62 -87h68v-126h-126v117q0 65 32 103.5t88 49.5v-57z" />
    <glyph glyph-name="quotedblright" unicode="&#x201d;" horiz-adv-x="433" 
d="M68 508q62 15 62 86h-68v127h126v-118q0 -64 -31.5 -102.5t-88.5 -50.5v58zM265 508q62 15 62 86h-68v127h126v-118q0 -64 -31.5 -102.5t-88.5 -50.5v58z" />
    <glyph glyph-name="quotedblbase" unicode="&#x201e;" horiz-adv-x="455" 
d="M72 -86q62 15 62 86h-68v127h126v-118q0 -64 -31.5 -102.5t-88.5 -50.5v58zM269 -86q62 15 62 86h-68v127h126v-118q0 -64 -31.5 -102.5t-88.5 -50.5v58z" />
    <glyph glyph-name="dagger" unicode="&#x2020;" horiz-adv-x="508" 
d="M479 416h-171v-456h-108v456h-171v101h171v183h108v-183h171v-101z" />
    <glyph glyph-name="daggerdbl" unicode="&#x2021;" horiz-adv-x="549" 
d="M329 416v-172h170v-101h-170v-183h-109v183h-171v101h171v172h-171v101h171v183h109v-183h170v-101h-170z" />
    <glyph glyph-name="bullet" unicode="&#x2022;" horiz-adv-x="364" 
d="M108 219q-30 30 -30 74q0 45 30 74.5t74 29.5q45 0 74.5 -29.5t29.5 -74.5q0 -44 -29.5 -74t-74.5 -30q-44 0 -74 30z" />
    <glyph glyph-name="ellipsis" unicode="&#x2026;" horiz-adv-x="614" 
d="M65 128h122v-128h-122v128zM427 128h122v-128h-122v128zM246 128h122v-128h-122v128z" />
    <glyph glyph-name="perthousand" unicode="&#x2030;" horiz-adv-x="1148" 
d="M73.5 411q-43.5 43 -43.5 111q0 67 43.5 110t111.5 43t111.5 -43t43.5 -110t-43.5 -110.5t-111.5 -43.5t-111.5 43zM534 666h100l-400 -665h-101zM236.5 469.5q20.5 20.5 20.5 52.5q0 31 -20.5 51.5t-51.5 20.5t-51 -20.5t-20 -51.5q0 -32 20 -52.5t51 -20.5t51.5 20.5z
M483 34q-43 43 -43 110t43 110t111 43t111 -43t43 -110t-43 -110t-111 -43t-111 43zM853.5 34q-43.5 43 -43.5 110t43.5 110t111.5 43t111 -43t43 -110t-43 -110t-111 -43t-111.5 43zM645 93q20 20 20 51t-20 51t-51 20t-51 -20t-20 -51t20 -51t51 -20t51 20zM1016 93
q20 20 20 51t-20 51t-51 20t-51 -20t-20 -51t20 -51t51 -20t51 20z" />
    <glyph glyph-name="guilsinglleft" unicode="&#x2039;" horiz-adv-x="374" 
d="M34 259v16l165 202h131l-168 -210l168 -210h-131z" />
    <glyph glyph-name="guilsinglright" unicode="&#x203a;" horiz-adv-x="374" 
d="M44 57l168 210l-168 210h132l164 -202v-16l-164 -202h-132z" />
    <glyph glyph-name="fraction" unicode="&#x2044;" horiz-adv-x="164" 
d="M242 730h87l-404 -760h-87z" />
    <glyph glyph-name="Euro" unicode="&#x20ac;" horiz-adv-x="649" 
d="M344.5 552.5q-58.5 -33.5 -89.5 -93.5h308l-22 -87h-313q-2 -24 -2 -37q0 -21 3 -42h292l-21 -87h-242q31 -58 88.5 -90t127.5 -32q59 0 111 21v-98q-56 -21 -121 -21q-109 0 -197 60t-125 160h-108l21 87h67q-2 14 -2 42q0 25 1 37h-85l21 87h83q36 103 125.5 164
t200.5 61q77 0 149 -29l-23 -92q-55 23 -118 23q-71 0 -129.5 -33.5z" />
    <glyph glyph-name="uni20BD" unicode="&#x20bd;" horiz-adv-x="601" 
d="M235 274v-69h195v-79h-195v-126h-108v126h-72v79h72v73h-72v87h72v300h241q59 0 104.5 -25t71 -69.5t25.5 -101.5t-25.5 -101.5t-71 -69t-104.5 -24.5h-133zM432 541q-30 29 -75 29h-122v-201h122q45 0 75 28.5t30 71.5t-30 72z" />
    <glyph glyph-name="uni2113" unicode="&#x2113;" horiz-adv-x="457" 
d="M420 157v-3q0 -76 -42.5 -121.5t-114.5 -45.5q-74 0 -118 46.5t-44 124.5v30q-40 -17 -66 -25v90q40 16 66 28v257q0 80 43 127t116 47q72 0 115 -45t43 -120q0 -86 -61.5 -169.5t-168.5 -146.5v-74q0 -39 20 -61.5t55 -22.5q34 0 53.5 22t19.5 59v3h84zM188 331
q70 48 106.5 104t36.5 116q0 37 -18.5 58t-53.5 20q-35 1 -53 -21.5t-18 -63.5v-213z" />
    <glyph glyph-name="uni2116" unicode="&#x2116;" horiz-adv-x="1110" 
d="M530 666h107v-666h-91l-347 476v-476h-107v666h99l339 -468v468zM972 586q38 -21 59 -57.5t21 -81.5q0 -46 -21.5 -82.5t-58.5 -57t-84 -20.5q-46 0 -83.5 21t-59 57.5t-21.5 81.5t21.5 81.5t59 57.5t83.5 21t84 -21zM946.5 390q22.5 22 22.5 57t-23 58t-58 23t-57.5 -23
t-22.5 -58q0 -34 22.5 -56.5t57.5 -22.5q36 0 58.5 22zM726 194h324v-95h-324v95z" />
    <glyph glyph-name="uni2117" unicode="&#x2117;" horiz-adv-x="835" 
d="M608.5 663q84.5 -46 132 -128t47.5 -186t-47.5 -186t-132 -128t-191.5 -46t-191.5 46t-132 128t-47.5 186t47.5 186t132 128t191.5 46t191.5 -46zM571 92.5q68 37.5 106.5 104.5t38.5 152t-38.5 152t-106.5 104.5t-154 37.5q-87 0 -155 -37.5t-106 -104.5t-38 -152
t38 -152t106 -104.5t155 -37.5q86 0 154 37.5zM561.5 505q41.5 -39 41.5 -98t-41 -98.5t-104 -39.5h-92v-136h-73v411h165q62 0 103.5 -39zM511 352.5q22 21.5 22 54.5q0 34 -22 55t-56 21h-90v-152h90q34 0 56 21.5z" />
    <glyph glyph-name="trademark" unicode="&#x2122;" horiz-adv-x="654" 
d="M31 700h218v-47h-81v-203h-52v203h-85v47zM545 450l-28 170l-83 -170h-11l-83 170l-29 -170h-50l42 250h45l80 -166l81 166h45l41 -250h-50z" />
    <glyph glyph-name="estimated" unicode="&#x212e;" horiz-adv-x="751" 
d="M195 301v-182q37 -34 85 -53t102 -19q61 0 118.5 23t96.5 63l72 -2q-46 -66 -124.5 -103.5t-162.5 -37.5q-92 0 -168.5 44.5t-121 121t-44.5 168.5q0 90 45.5 166.5t122 122t166.5 45.5q88 0 165.5 -45t124 -120t46.5 -159q0 -14 -2 -33h-521zM281.5 581.5
q-48.5 -19.5 -86.5 -54.5v-171h375v171q-38 35 -87 54.5t-101 19.5t-100.5 -19.5z" />
    <glyph glyph-name="uni2150" unicode="&#x2150;" horiz-adv-x="704" 
d="M169 700v-385h-83v313h-63v72h146zM466 730h87l-404 -760h-87zM686 385v-10l-146 -375h-83l123 312h-166v73h272z" />
    <glyph glyph-name="uni2151" unicode="&#x2151;" horiz-adv-x="736" 
d="M169 700v-385h-83v313h-63v72h146zM466 730h87l-404 -760h-87zM663 355.5q41 -38.5 41 -100.5q0 -53 -40 -125l-76 -130h-90l67 115l12 21q-15 -5 -37 -5q-55 0 -91.5 35t-36.5 89q0 61 40.5 100t104.5 39q65 0 106 -38.5zM606 208.5q19 18.5 19 46.5t-19 46.5t-48 18.5
q-30 0 -48.5 -18t-18.5 -47t18.5 -47t48.5 -18q29 0 48 18.5z" />
    <glyph glyph-name="uni2152" unicode="&#x2152;" horiz-adv-x="998" 
d="M169 700v-385h-83v313h-63v72h146zM466 730h87l-404 -760h-87zM560 385v-385h-83v313h-63v72h146zM691 46.5q-42 54.5 -42 146.5q0 93 42 146.5t115 53.5t115 -54t42 -146t-42 -146.5t-115 -54.5t-115 54.5zM860.5 104q19.5 32 19.5 89t-19.5 88t-54.5 31t-54.5 -31
t-19.5 -88t19.5 -89t54.5 -32t54.5 32z" />
    <glyph glyph-name="uni2153" unicode="&#x2153;" horiz-adv-x="721" 
d="M169 700v-385h-83v313h-63v72h146zM466 730h87l-404 -760h-87zM664 200.5q26 -32.5 26 -77.5q0 -57 -39 -93.5t-98 -36.5q-58 0 -95.5 35.5t-38.5 92.5h78q2 -24 17 -39t39 -15q25 0 41 16.5t16 42.5t-17 41.5t-45 15.5h-56v14l71 117h-134v71h247v-15l-81 -127
q43 -10 69 -42.5z" />
    <glyph glyph-name="uni2154" unicode="&#x2154;" horiz-adv-x="832" 
d="M300 392v-76h-273v18q84 97 120.5 142t48.5 68t12 44q0 22 -12.5 35t-32.5 13q-21 0 -34.5 -13.5t-13.5 -35.5v-8h-80v7q0 56 34.5 89.5t92.5 33.5t94 -33.5t36 -86.5q0 -37 -22.5 -76.5t-91.5 -120.5h122zM576 730h87l-404 -760h-87zM774 200.5q26 -32.5 26 -77.5
q0 -57 -39 -93.5t-98 -36.5q-58 0 -95.5 35.5t-38.5 92.5h78q2 -24 17 -39t39 -15q25 0 41 16.5t16 42.5t-17 41.5t-45 15.5h-56v14l71 117h-134v71h247v-15l-81 -127q43 -10 69 -42.5z" />
    <glyph glyph-name="uni2155" unicode="&#x2155;" horiz-adv-x="716" 
d="M169 700v-385h-83v313h-63v72h146zM466 730h87l-404 -760h-87zM649 214.5q39 -35.5 39 -91.5t-38.5 -93t-96.5 -37q-59 0 -97.5 36t-38.5 92h79q0 -24 16 -39.5t41 -15.5q24 0 39.5 16t15.5 41q0 26 -17 42.5t-43 16.5h-111l-7 10l21 193h210v-71h-145l-7 -64h40
q61 0 100 -35.5z" />
    <glyph glyph-name="uni2156" unicode="&#x2156;" horiz-adv-x="826" 
d="M300 392v-76h-273v18q84 97 120.5 142t48.5 68t12 44q0 22 -12.5 35t-32.5 13q-21 0 -34.5 -13.5t-13.5 -35.5v-8h-80v7q0 56 34.5 89.5t92.5 33.5t94 -33.5t36 -86.5q0 -37 -22.5 -76.5t-91.5 -120.5h122zM576 730h87l-404 -760h-87zM759 214.5q39 -35.5 39 -91.5
t-38.5 -93t-96.5 -37q-59 0 -97.5 36t-38.5 92h79q0 -24 16 -39.5t41 -15.5q24 0 39.5 16t15.5 41q0 26 -17 42.5t-43 16.5h-111l-7 10l21 193h210v-71h-145l-7 -64h40q61 0 100 -35.5z" />
    <glyph glyph-name="uni2157" unicode="&#x2157;" horiz-adv-x="826" 
d="M276 515.5q26 -32.5 26 -77.5q0 -57 -39 -93.5t-98 -36.5q-58 0 -95.5 35.5t-38.5 91.5h78q2 -24 17 -39t39 -15q25 0 41 16.5t16 42.5t-17 41.5t-45 15.5h-56v15l71 117h-134v71h247v-16l-81 -126q43 -10 69 -42.5zM575 730h87l-404 -760h-87zM759 214.5
q39 -35.5 39 -91.5t-38.5 -93t-96.5 -37q-59 0 -97.5 36t-38.5 92h79q0 -24 16 -39.5t41 -15.5q24 0 39.5 16t15.5 41q0 26 -17 42.5t-43 16.5h-111l-7 10l21 193h210v-71h-145l-7 -64h40q61 0 100 -35.5z" />
    <glyph glyph-name="uni2158" unicode="&#x2158;" horiz-adv-x="836" 
d="M319 389h-35v-74h-78v74h-187v14l128 297h81l-104 -241h84l15 94h61v-94h35v-70zM586 730h87l-404 -760h-87zM769 214.5q39 -35.5 39 -91.5t-38.5 -93t-96.5 -37q-59 0 -97.5 36t-38.5 92h79q0 -24 16 -39.5t41 -15.5q24 0 39.5 16t15.5 41q0 26 -17 42.5t-43 16.5h-111
l-7 10l21 193h210v-71h-145l-7 -64h40q61 0 100 -35.5z" />
    <glyph glyph-name="uni2159" unicode="&#x2159;" horiz-adv-x="711" 
d="M169 700v-385h-83v313h-63v72h146zM466 730h87l-404 -760h-87zM650.5 220q36.5 -35 36.5 -89q0 -61 -40.5 -100t-104.5 -39q-65 0 -106 38.5t-41 100.5q0 54 40 124l76 130h90l-68 -116q-10 -17 -11 -20q18 6 37 6q55 0 91.5 -35zM589.5 84q18.5 18 18.5 47
q0 28 -18.5 46t-48.5 18q-29 0 -48 -18t-19 -46q0 -29 19 -47t48 -18q30 0 48.5 18z" />
    <glyph glyph-name="uni215A" unicode="&#x215a;" horiz-adv-x="816" 
d="M261 529.5q39 -35.5 39 -91.5t-38.5 -93t-96.5 -37q-59 0 -97.5 36t-38.5 91h79q0 -23 16 -38.5t41 -15.5q24 0 39.5 16t15.5 41t-17 41.5t-43 16.5h-111l-7 11l21 193h210v-71h-145l-7 -64h40q61 0 100 -35.5zM570 730h87l-404 -760h-87zM755.5 220q36.5 -35 36.5 -89
q0 -61 -40.5 -100t-104.5 -39q-65 0 -106 38.5t-41 100.5q0 54 40 124l76 130h90l-68 -116q-10 -17 -11 -20q18 6 37 6q55 0 91.5 -35zM694.5 84q18.5 18 18.5 47q0 28 -18.5 46t-48.5 18q-29 0 -48 -18t-19 -46q0 -29 19 -47t48 -18q30 0 48.5 18z" />
    <glyph glyph-name="oneeighth" unicode="&#x215b;" horiz-adv-x="740" 
d="M169 700v-385h-83v313h-63v72h146zM466 730h87l-404 -760h-87zM706 117q0 -55 -40.5 -88.5t-101.5 -33.5t-101 33.5t-40 88.5q0 59 49 90q-39 31 -39 79q0 49 37.5 79.5t94.5 30.5q56 0 93 -30.5t37 -79.5q0 -24 -10 -44.5t-28 -34.5q49 -32 49 -90zM526.5 318
q-15.5 -13 -15.5 -33q0 -21 15 -33.5t39 -12.5q23 0 38 12.5t15 33.5q0 20 -15 33t-38 13t-38.5 -13zM609.5 79q17.5 15 17.5 39q0 25 -17.5 40t-45.5 15q-27 0 -45 -15.5t-18 -39.5t18 -39t46 -15q27 0 44.5 15z" />
    <glyph glyph-name="threeeighths" unicode="&#x215c;" horiz-adv-x="850" 
d="M276 515.5q26 -32.5 26 -77.5q0 -57 -39 -93.5t-98 -36.5q-58 0 -95.5 35.5t-38.5 91.5h78q2 -24 17 -39t39 -15q25 0 41 16.5t16 42.5t-17 41.5t-45 15.5h-56v15l71 117h-134v71h247v-16l-81 -126q43 -10 69 -42.5zM575 730h87l-404 -760h-87zM816 117
q0 -55 -40.5 -88.5t-101.5 -33.5t-101 33.5t-40 88.5q0 59 49 90q-39 31 -39 79q0 49 37.5 79.5t94.5 30.5q56 0 93 -30.5t37 -79.5q0 -24 -10 -44.5t-28 -34.5q49 -32 49 -90zM636.5 318q-15.5 -13 -15.5 -33q0 -21 15 -33.5t39 -12.5q23 0 38 12.5t15 33.5q0 20 -15 33
t-38 13t-38.5 -13zM719.5 79q17.5 15 17.5 39q0 25 -17.5 40t-45.5 15q-27 0 -45 -15.5t-18 -39.5t18 -39t46 -15q27 0 44.5 15z" />
    <glyph glyph-name="fiveeighths" unicode="&#x215d;" horiz-adv-x="845" 
d="M261 529.5q39 -35.5 39 -91.5t-38.5 -93t-96.5 -37q-59 0 -97.5 36t-38.5 91h79q0 -23 16 -38.5t41 -15.5q24 0 39.5 16t15.5 41t-17 41.5t-43 16.5h-111l-7 11l21 193h210v-71h-145l-7 -64h40q61 0 100 -35.5zM570 730h87l-404 -760h-87zM811 117q0 -55 -40.5 -88.5
t-101.5 -33.5t-101 33.5t-40 88.5q0 59 49 90q-39 31 -39 79q0 49 37.5 79.5t94.5 30.5q56 0 93 -30.5t37 -79.5q0 -24 -10 -44.5t-28 -34.5q49 -32 49 -90zM631.5 318q-15.5 -13 -15.5 -33q0 -21 15 -33.5t39 -12.5q23 0 38 12.5t15 33.5q0 20 -15 33t-38 13t-38.5 -13z
M714.5 79q17.5 15 17.5 39q0 25 -17.5 40t-45.5 15q-27 0 -45 -15.5t-18 -39.5t18 -39t46 -15q27 0 44.5 15z" />
    <glyph glyph-name="seveneighths" unicode="&#x215e;" horiz-adv-x="789" 
d="M296 700v-10l-146 -375h-83l123 312h-167v73h273zM514 730h87l-404 -760h-87zM754 117q0 -55 -40.5 -88.5t-101.5 -33.5t-101 33.5t-40 88.5q0 59 49 90q-39 31 -39 79q0 49 37.5 79.5t94.5 30.5q56 0 93 -30.5t37 -79.5q0 -24 -10 -44.5t-28 -34.5q49 -32 49 -90z
M574.5 318q-15.5 -13 -15.5 -33q0 -21 15 -33.5t39 -12.5q23 0 38 12.5t15 33.5q0 20 -15 33t-38 13t-38.5 -13zM657.5 79q17.5 15 17.5 39q0 25 -17.5 40t-45.5 15q-27 0 -45 -15.5t-18 -39.5t18 -39t46 -15q27 0 44.5 15z" />
    <glyph glyph-name="uni215F" unicode="&#x215f;" horiz-adv-x="388" 
d="M169 700v-385h-83v313h-63v72h146zM466 730h87l-404 -760h-87z" />
    <glyph glyph-name="uni2189" unicode="&#x2189;" horiz-adv-x="882" 
d="M77 362q-42 54 -42 147t42 146.5t115 53.5t115 -54t42 -146q0 -93 -42 -147t-115 -54t-115 54zM246.5 419.5q19.5 31.5 19.5 88.5t-19.5 88.5t-54.5 31.5t-54.5 -31t-19.5 -88t19.5 -89t54.5 -32t54.5 31.5zM626 730h87l-404 -760h-87zM824 200.5q26 -32.5 26 -77.5
q0 -57 -39 -93.5t-98 -36.5q-58 0 -95.5 35.5t-38.5 92.5h78q2 -24 17 -39t39 -15q25 0 41 16.5t16 42.5t-17 41.5t-45 15.5h-56v14l71 117h-134v71h247v-15l-81 -127q43 -10 69 -42.5z" />
    <glyph glyph-name="arrowleft" unicode="&#x2190;" horiz-adv-x="654" 
d="M619 283h-418l169 -170l-69 -61l-271 274v12l271 274l69 -61l-169 -170h418v-98z" />
    <glyph glyph-name="arrowup" unicode="&#x2191;" horiz-adv-x="609" 
d="M523 317l-169 169v-418h-99v418l-169 -169l-62 69l274 271h13l273 -271z" />
    <glyph glyph-name="arrowright" unicode="&#x2192;" horiz-adv-x="654" 
d="M624 338v-12l-271 -274l-69 61l169 170h-418v98h418l-169 170l69 61z" />
    <glyph glyph-name="arrowdown" unicode="&#x2193;" horiz-adv-x="609" 
d="M584 326l-273 -271h-13l-274 271l62 69l169 -169v418h99v-418l169 169z" />
    <glyph glyph-name="uni2196" unicode="&#x2196;" horiz-adv-x="586" 
d="M489 89l-329 333v-249h-91v399l10 11h400v-91h-250l329 -333z" />
    <glyph glyph-name="uni2197" unicode="&#x2197;" horiz-adv-x="586" 
d="M517 572v-399h-91v249l-329 -333l-69 70l329 333h-250v91h399z" />
    <glyph glyph-name="uni2198" unicode="&#x2198;" horiz-adv-x="608" 
d="M518 484v-399l-11 -11h-399v91h249l-329 333l70 70l329 -333v249h91z" />
    <glyph glyph-name="uni2199" unicode="&#x2199;" horiz-adv-x="608" 
d="M251 165h250v-91h-400l-10 11v399h91v-249l329 333l69 -70z" />
    <glyph glyph-name="partialdiff" unicode="&#x2202;" horiz-adv-x="626" 
d="M493.5 631q81.5 -81 81.5 -245q0 -83 -17 -160q-26 -112 -103.5 -175.5t-192.5 -63.5q-74 0 -126.5 29.5t-79 79.5t-26.5 111q0 71 34.5 134t98.5 101t150 38q97 0 159 -60q-4 103 -62 150.5t-163 47.5q-46 0 -114 -10v93q69 11 124 11q155 0 236.5 -81zM365.5 107.5
q40.5 23.5 64 64t23.5 89.5q0 58 -38 93.5t-100 35.5q-49 0 -89.5 -23t-64 -62.5t-23.5 -88.5q0 -59 38 -95.5t100 -36.5q49 0 89.5 23.5z" />
    <glyph glyph-name="emptyset" unicode="&#x2205;" horiz-adv-x="671" 
d="M596.5 389.5q27.5 -56.5 27.5 -123.5q0 -78 -36.5 -141.5t-100.5 -99.5t-143 -36q-57 0 -116 23l-30 -49h-103l58 93q-50 38 -78.5 95t-28.5 124q0 78 37 141t101.5 99t143.5 36q60 0 114 -23l29 48h103l-55 -92q50 -38 77.5 -94.5zM239 427q-39 -22 -61 -62t-22 -90
q0 -40 14.5 -73.5t40.5 -57.5l180 295q-29 10 -64 10q-49 0 -88 -22zM432 113.5q39 22.5 61 62t22 90.5q0 39 -14 73t-40 57l-179 -295q27 -10 62 -10q49 0 88 22.5z" />
    <glyph glyph-name="product" unicode="&#x220f;" horiz-adv-x="734" 
d="M700 593h-96v-753h-117v753h-240v-753h-117v753h-96v107h666v-107z" />
    <glyph glyph-name="summation" unicode="&#x2211;" horiz-adv-x="599" 
d="M557 -54v-107h-528v19l278 418l-278 405v19h524v-106h-323l215 -310v-16l-216 -322h328z" />
    <glyph glyph-name="minus" unicode="&#x2212;" horiz-adv-x="619" 
d="M69 388h480v-103h-480v103z" />
    <glyph glyph-name="radical" unicode="&#x221a;" horiz-adv-x="679" 
d="M150 406h-136v95h203l127 -309l236 558h111l-326 -750h-45z" />
    <glyph glyph-name="infinity" unicode="&#x221e;" horiz-adv-x="967" 
d="M818 507.5q47 -25.5 74 -70.5t27 -102t-27 -102t-74 -70.5t-105 -25.5q-68 0 -121.5 34.5t-107.5 95.5q-55 -62 -108 -96t-122 -34q-58 0 -105 25.5t-74 71t-27 101.5q0 57 27 102t74 70.5t105 25.5q68 0 121.5 -34.5t108.5 -95.5q54 61 107.5 95.5t121.5 34.5
q58 0 105 -25.5zM343 255.5q38 27.5 83 79.5q-46 53 -83.5 80t-82.5 27q-52 0 -83 -29t-31 -78t31 -78t83 -29q45 0 83 27.5zM790.5 257q30.5 29 30.5 78t-30.5 78t-82.5 29q-45 0 -82.5 -27t-83.5 -80q46 -52 84 -79.5t82 -27.5q52 0 82.5 29z" />
    <glyph glyph-name="integral" unicode="&#x222b;" horiz-adv-x="394" 
d="M-6 -203h27q60 0 91.5 31.5t31.5 91.5v807q0 92 52.5 144.5t143.5 52.5h60v-101h-28q-58 0 -88.5 -30.5t-30.5 -88.5v-807q0 -94 -53.5 -147.5t-145.5 -53.5h-60v101z" />
    <glyph glyph-name="approxequal" unicode="&#x2248;" horiz-adv-x="589" 
d="M329 144.5q-29 12.5 -62 41.5q-21 18 -34 25t-27 7q-25 0 -41 -19.5t-16 -50.5v-14h-79v18q0 74 36.5 118.5t98.5 44.5q35 0 62.5 -13t59.5 -41q22 -20 35.5 -27.5t28.5 -7.5q26 0 41.5 19.5t15.5 50.5v15h78v-17q0 -75 -35.5 -118.5t-97.5 -43.5q-35 0 -64 12.5z
M328 372.5q-29 12.5 -62 41.5q-21 18 -34 25t-27 7q-25 0 -41 -19.5t-16 -50.5v-14h-79v18q0 74 36.5 118.5t98.5 44.5q35 0 62.5 -13t59.5 -41q22 -20 35.5 -27.5t28.5 -7.5q26 0 41.5 19.5t15.5 50.5v15h78v-17q0 -75 -35.5 -118.5t-97.5 -43.5q-35 0 -64 12.5z" />
    <glyph glyph-name="notequal" unicode="&#x2260;" horiz-adv-x="619" 
d="M367 395l-30 -118h212v-102h-238l-33 -132h-93l33 132h-149v102h175l29 118h-204v102h230l36 142h93l-36 -142h157v-102h-182z" />
    <glyph glyph-name="lessequal" unicode="&#x2264;" horiz-adv-x="553" 
d="M485 157l-446 231v43l446 237v-105l-276 -152l276 -148v-106zM489 100v-100h-429v100h429z" />
    <glyph glyph-name="greaterequal" unicode="&#x2265;" horiz-adv-x="553" 
d="M514 431v-43l-447 -231v106l277 148l-277 152v105zM64 100h429v-100h-429v100z" />
    <glyph glyph-name="lozenge" unicode="&#x25ca;" horiz-adv-x="557" 
d="M32 343v16l239 341h15l238 -341v-16l-238 -343h-15zM432 351l-154 219l-153 -220l153 -219z" />
    <glyph glyph-name="K.ss01" horiz-adv-x="634" 
d="M89 700h115v-700h-115v700zM642 0h-149l-288 355v12l268 333h143l-271 -336z" />
    <glyph glyph-name="K.ss03" horiz-adv-x="634" 
d="M89 700h115v-700h-115v700zM642 0h-149l-288 355v12l268 333h143l-271 -336z" />
    <glyph glyph-name="K.ss04" horiz-adv-x="634" 
d="M89 700h115v-700h-115v700zM642 0h-149l-288 355v12l268 333h143l-271 -336z" />
    <glyph glyph-name="germandbls.calt" horiz-adv-x="705" 
d="M615.5 377.5q47.5 -57.5 47.5 -143.5q0 -68 -31.5 -121t-90 -83t-137.5 -30h-94v110h94q63 0 102 35t39 90q0 56 -39 91.5t-102 35.5h-75v21l111 208h-110q-64 0 -97.5 -33t-33.5 -97v-461h-116v472q0 105 61.5 166.5t166.5 61.5h296v-19l-122 -230q83 -16 130.5 -73.5z
" />
    <glyph glyph-name="i.loclTRK" horiz-adv-x="269" 
d="M79 540h111v-540h-111v540zM77 738h115v-115h-115v115z" />
    <glyph glyph-name="k.ss01" horiz-adv-x="537" 
d="M79 734h111v-734h-111v734zM542 0h-138l-209 275v10l196 255h133l-204 -259z" />
    <glyph glyph-name="k.ss03" horiz-adv-x="537" 
d="M79 734h111v-734h-111v734zM542 0h-138l-209 275v10l196 255h133l-204 -259z" />
    <glyph glyph-name="k.ss04" horiz-adv-x="537" 
d="M79 734h111v-734h-111v734zM542 0h-138l-209 275v10l196 255h133l-204 -259z" />
    <glyph glyph-name="uni0414.loclBGR" horiz-adv-x="758" 
d="M727 107v-238h-106v131h-484v-131h-106v238h57l235 593h107l240 -593h57zM207 107h341l-171 432z" />
    <glyph glyph-name="uni041B.loclBGR" horiz-adv-x="680" 
d="M539 0l-199 541l-203 -541h-121l270 700h108l270 -700h-125z" />
    <glyph glyph-name="uni0416.ss01" horiz-adv-x="944" 
d="M165 700l247 -333v-13l-269 -354h-146l280 364l-254 336h142zM413 700h115v-700h-115v700zM948 0h-147l-272 355v11l250 334h142l-256 -336z" />
    <glyph glyph-name="uni041A.ss01" horiz-adv-x="634" 
d="M89 700h115v-700h-115v700zM642 0h-149l-288 355v12l268 333h143l-271 -336z" />
    <glyph glyph-name="uni0424.ss01" horiz-adv-x="882" 
d="M796 177.5q-40 -80.5 -117 -132t-182 -57.5v-107h-112v107q-105 6 -182 57t-117.5 131.5t-40.5 172.5q0 93 40.5 173.5t117.5 132t182 57.5v94h112v-94q105 -6 182 -56.5t117 -131t40 -173.5t-40 -173.5zM615 138.5q51 35.5 78 91.5t27 120t-27 119.5t-78 91t-119 41.5
v-505q68 6 119 41.5zM189 230.5q27 -55.5 77.5 -91.5t118.5 -42v505q-68 -6 -118.5 -42t-77.5 -91.5t-27 -118.5q0 -64 27 -119.5z" />
    <glyph glyph-name="uni0414.ss02" horiz-adv-x="758" 
d="M727 107v-238h-106v131h-484v-131h-106v238h57l235 593h107l240 -593h57zM207 107h341l-171 432z" />
    <glyph glyph-name="uni041B.ss02" horiz-adv-x="680" 
d="M539 0l-199 541l-203 -541h-121l270 700h108l270 -700h-125z" />
    <glyph glyph-name="uni0414.ss03" horiz-adv-x="758" 
d="M727 107v-238h-106v131h-484v-131h-106v238h57l235 593h107l240 -593h57zM207 107h341l-171 432z" />
    <glyph glyph-name="uni0416.ss03" horiz-adv-x="944" 
d="M165 700l247 -333v-13l-269 -354h-146l280 364l-254 336h142zM413 700h115v-700h-115v700zM948 0h-147l-272 355v11l250 334h142l-256 -336z" />
    <glyph glyph-name="uni041A.ss03" horiz-adv-x="634" 
d="M89 700h115v-700h-115v700zM642 0h-149l-288 355v12l268 333h143l-271 -336z" />
    <glyph glyph-name="uni041B.ss03" horiz-adv-x="680" 
d="M539 0l-199 541l-203 -541h-121l270 700h108l270 -700h-125z" />
    <glyph glyph-name="uni0416.ss04" horiz-adv-x="944" 
d="M165 700l247 -333v-13l-269 -354h-146l280 364l-254 336h142zM413 700h115v-700h-115v700zM948 0h-147l-272 355v11l250 334h142l-256 -336z" />
    <glyph glyph-name="uni041A.ss04" horiz-adv-x="634" 
d="M89 700h115v-700h-115v700zM642 0h-149l-288 355v12l268 333h143l-271 -336z" />
    <glyph glyph-name="uni0424.ss04" horiz-adv-x="824" 
d="M637.5 620q71.5 -45 109 -116t37.5 -152t-37.5 -151.5t-109 -115t-167.5 -50.5v-80h-116v80q-96 6 -167.5 50.5t-109 115t-37.5 151.5t37.5 152t109 116t168.5 51v72h114v-72q97 -6 168.5 -51zM182.5 249.5q24.5 -47.5 69.5 -76.5t105 -32v426q-60 -4 -105 -34.5
t-69.5 -78t-24.5 -102.5t24.5 -102.5zM572 173q45 29 69 76.5t24 102.5t-24 102.5t-69 78t-105 34.5v-426q60 3 105 32z" />
    <glyph glyph-name="uni0424.ss05" horiz-adv-x="824" 
d="M637.5 620q71.5 -45 109 -116t37.5 -152t-37.5 -151.5t-109 -115t-167.5 -50.5v-80h-116v80q-96 6 -167.5 50.5t-109 115t-37.5 151.5t37.5 152t109 116t168.5 51v72h114v-72q97 -6 168.5 -51zM182.5 249.5q24.5 -47.5 69.5 -76.5t105 -32v426q-60 -4 -105 -34.5
t-69.5 -78t-24.5 -102.5t24.5 -102.5zM572 173q45 29 69 76.5t24 102.5t-24 102.5t-69 78t-105 34.5v-426q60 3 105 32z" />
    <glyph glyph-name="uni0432.loclBGR" horiz-adv-x="623" 
d="M555.5 311.5q27.5 -48.5 27.5 -105.5q0 -64 -34.5 -114t-93 -77t-130.5 -27q-121 0 -189 75.5t-68 207.5v200q0 129 68.5 202t186.5 73q66 0 119 -25t83 -70.5t30 -104.5q0 -47 -20 -89.5t-57 -69.5q50 -27 77.5 -75.5zM214.5 601q-38.5 -44 -38.5 -130v-40h150
q58 0 93 29.5t35 79.5q0 48 -35.5 76.5t-95.5 28.5q-70 0 -108.5 -44zM432.5 125.5q40.5 33.5 40.5 87.5q0 53 -38.5 85.5t-102.5 32.5h-156v-60q0 -88 38 -133.5t111 -45.5q67 0 107.5 33.5z" />
    <glyph glyph-name="uni0433.loclBGR" horiz-adv-x="517" 
d="M98.5 35q-60.5 45 -60.5 120q0 58 28.5 91t68.5 47.5t102 26.5q45 9 69 16.5t40.5 21.5t16.5 37q0 29 -27.5 47t-74.5 18q-50 0 -76.5 -21.5t-26.5 -62.5h-100q0 82 55 129t147 47q61 0 108 -20t73 -55.5t26 -81.5q0 -57 -27.5 -89t-66 -45.5t-99.5 -25.5q-44 -8 -69 -16
t-41.5 -22.5t-16.5 -39.5q0 -31 31 -49t81 -18q54 0 83.5 23t29.5 66h106q0 -87 -60 -138t-159 -51q-100 0 -160.5 45z" />
    <glyph glyph-name="uni0434.loclBGR" horiz-adv-x="673" 
d="M594 540v-469q0 -130 -72.5 -204t-197.5 -74q-103 0 -173 51t-91 140h111q15 -44 57 -68t95 -24q72 0 117 44t45 120v24q-36 -31 -81.5 -47.5t-97.5 -16.5q-74 0 -135 35.5t-96.5 97t-35.5 135.5t35.5 136t96.5 97.5t135 35.5q59 0 110 -22t87 -61l18 70h73zM404 140.5
q38 21.5 59.5 59t21.5 84.5t-21.5 85t-59.5 59.5t-85 21.5t-85.5 -21.5t-60 -59.5t-21.5 -85t21.5 -84.5t60 -59t85.5 -21.5t85 21.5z" />
    <glyph glyph-name="uni0436.loclBGR" horiz-adv-x="803" 
d="M518 230h-63v-230h-107v230h-63l-152 -230h-133l191 282l-171 258h126l139 -211h63v406h107v-406h63l140 211h126l-171 -258l191 -282h-134z" />
    <glyph glyph-name="uni0437.loclBGR" horiz-adv-x="571" 
d="M507.5 120q26.5 -48 26.5 -106q0 -64 -32.5 -114t-90 -78.5t-129.5 -28.5q-70 0 -125.5 27.5t-88.5 76.5t-37 113h109q6 -49 45.5 -80t96.5 -31q62 0 101.5 34.5t39.5 88.5q0 50 -36 83t-91 33h-92l-1 103h91q44 0 73 28.5t29 73.5q0 46 -33.5 74.5t-86.5 28.5
q-51 0 -85.5 -28t-38.5 -74h-107q2 61 32 108.5t82 73.5t117 26q66 0 119 -26t83 -72t30 -104q0 -47 -19.5 -87.5t-54.5 -68.5q47 -26 73.5 -74z" />
    <glyph glyph-name="uni0438.loclBGR" horiz-adv-x="642" 
d="M563 540v-540h-82l-18 74q-31 -41 -79.5 -63.5t-106.5 -22.5q-62 0 -108.5 29t-71.5 80.5t-25 117.5v325h111v-303q0 -74 31.5 -112t92.5 -38q63 0 104 46t41 118v289h111z" />
    <glyph glyph-name="uni0439.loclBGR" horiz-adv-x="642" 
d="M456 635h-268v83h268v-83zM563 540v-540h-82l-18 74q-31 -41 -79.5 -63.5t-106.5 -22.5q-62 0 -108.5 29t-71.5 80.5t-25 117.5v325h111v-303q0 -74 31.5 -112t92.5 -38q63 0 104 46t41 118v289h111z" />
    <glyph glyph-name="uni043A.loclBGR" horiz-adv-x="556" 
d="M257 230h-67v-230h-111v734h111v-403h68l146 209h132l-183 -259l202 -281h-136z" />
    <glyph glyph-name="uni043B.loclBGR" horiz-adv-x="542" 
d="M414 0l-143 394l-145 -394h-111l206 540h101l205 -540h-113z" />
    <glyph glyph-name="uni043F.loclBGR" horiz-adv-x="642" 
d="M473.5 523q46.5 -29 71.5 -80.5t25 -117.5v-325h-111v303q0 73 -31.5 111.5t-92.5 38.5q-64 0 -104.5 -46t-40.5 -118v-289h-111v540h77l22 -75q31 41 79.5 64t107.5 23q62 0 108.5 -29z" />
    <glyph glyph-name="uni0442.loclBGR" horiz-adv-x="945" 
d="M782.5 525.5q43.5 -26.5 67.5 -74t24 -108.5v-343h-111v316q0 65 -27.5 101t-77.5 36q-36 0 -65 -20.5t-45.5 -56.5t-16.5 -81v-295h-109v316q0 66 -27 101.5t-78 35.5q-36 0 -65 -20.5t-45.5 -56.5t-16.5 -81v-295h-111v540h79l19 -70q30 38 74.5 60t93.5 22
q54 0 96 -25t66 -69q29 44 76 69t100 25q56 0 99.5 -26.5z" />
    <glyph glyph-name="uni0446.loclBGR" horiz-adv-x="680" 
d="M586 99.5q23 -26.5 72 -26.5v-209h-103v146q-57 12 -81 73q-33 -44 -84.5 -69.5t-113.5 -25.5t-108 28.5t-71 80t-25 118.5v325h111v-301q0 -74 32 -113t93 -39q63 0 103.5 46.5t40.5 118.5v288h111v-357q0 -57 23 -83.5z" />
    <glyph glyph-name="uni0448.loclBGR" horiz-adv-x="945" 
d="M865 540v-540h-80l-18 69q-30 -38 -74.5 -59.5t-92.5 -21.5q-54 0 -95.5 25.5t-65.5 69.5q-30 -44 -77 -69.5t-100 -25.5q-56 0 -99 26.5t-67 73.5t-24 107v345h111v-316q0 -66 27 -101.5t78 -35.5q54 0 90 44t36 113v296h109v-316q0 -66 27 -101.5t78 -35.5
q35 0 64 20.5t45.5 56t16.5 80.5v296h111z" />
    <glyph glyph-name="uni0449.loclBGR" horiz-adv-x="984" 
d="M889.5 99.5q23.5 -26.5 71.5 -26.5v-209h-102v145q-28 7 -49 25t-32 45q-31 -42 -78 -66.5t-100 -24.5q-54 0 -95.5 25.5t-65.5 69.5q-30 -44 -77 -69.5t-100 -25.5q-56 0 -99 26.5t-67 74t-24 107.5v344h111v-316q0 -66 27 -101.5t78 -35.5q54 0 90 44t36 113v296h109
v-316q0 -66 27 -101.5t78 -35.5q36 0 65 20.5t45.5 56t16.5 80.5v296h111v-357q0 -57 23.5 -83.5z" />
    <glyph glyph-name="uni044E.loclBGR" horiz-adv-x="866" 
d="M688.5 516q64.5 -37 101 -101.5t36.5 -145.5q0 -80 -36.5 -144.5t-101 -101t-144.5 -36.5q-71 0 -130 29.5t-97 81.5t-48 120h-80v-219h-110v733h110v-410h80q11 68 49 120t96.5 81.5t129.5 29.5q80 0 144.5 -37zM630.5 115.5q38.5 22.5 60.5 63t22 90.5q0 51 -22 91.5
t-60.5 63.5t-86.5 23t-86.5 -23t-60.5 -63.5t-22 -91.5q0 -50 22 -90.5t60.5 -63t86.5 -22.5t86.5 22.5z" />
    <glyph glyph-name="uni0436.ss01" horiz-adv-x="800" 
d="M145 540l198 -257v-10l-217 -273h-130l222 281l-202 259h129zM345 540h107v-540h-107v540zM804 0h-129l-220 273v9l200 258h129l-203 -258z" />
    <glyph glyph-name="uni043A.ss01" horiz-adv-x="539" 
d="M79 540h111v-540h-111v540zM544 0h-133l-212 275v10l199 255h126l-204 -258z" />
    <glyph glyph-name="uni0432.ss02" horiz-adv-x="623" 
d="M555.5 311.5q27.5 -48.5 27.5 -105.5q0 -64 -34.5 -114t-93 -77t-130.5 -27q-121 0 -189 75.5t-68 207.5v200q0 129 68.5 202t186.5 73q66 0 119 -25t83 -70.5t30 -104.5q0 -47 -20 -89.5t-57 -69.5q50 -27 77.5 -75.5zM214.5 601q-38.5 -44 -38.5 -130v-40h150
q58 0 93 29.5t35 79.5q0 48 -35.5 76.5t-95.5 28.5q-70 0 -108.5 -44zM432.5 125.5q40.5 33.5 40.5 87.5q0 53 -38.5 85.5t-102.5 32.5h-156v-60q0 -88 38 -133.5t111 -45.5q67 0 107.5 33.5z" />
    <glyph glyph-name="uni0433.ss02" horiz-adv-x="517" 
d="M98.5 35q-60.5 45 -60.5 120q0 58 28.5 91t68.5 47.5t102 26.5q45 9 69 16.5t40.5 21.5t16.5 37q0 29 -27.5 47t-74.5 18q-50 0 -76.5 -21.5t-26.5 -62.5h-100q0 82 55 129t147 47q61 0 108 -20t73 -55.5t26 -81.5q0 -57 -27.5 -89t-66 -45.5t-99.5 -25.5q-44 -8 -69 -16
t-41.5 -22.5t-16.5 -39.5q0 -31 31 -49t81 -18q54 0 83.5 23t29.5 66h106q0 -87 -60 -138t-159 -51q-100 0 -160.5 45z" />
    <glyph glyph-name="uni0434.ss02" horiz-adv-x="673" 
d="M594 540v-469q0 -130 -72.5 -204t-197.5 -74q-103 0 -173 51t-91 140h111q15 -44 57 -68t95 -24q72 0 117 44t45 120v24q-36 -31 -81.5 -47.5t-97.5 -16.5q-74 0 -135 35.5t-96.5 97t-35.5 135.5t35.5 136t96.5 97.5t135 35.5q59 0 110 -22t87 -61l18 70h73zM404 140.5
q38 21.5 59.5 59t21.5 84.5t-21.5 85t-59.5 59.5t-85 21.5t-85.5 -21.5t-60 -59.5t-21.5 -85t21.5 -84.5t60 -59t85.5 -21.5t85 21.5z" />
    <glyph glyph-name="uni0436.ss02" horiz-adv-x="803" 
d="M518 230h-63v-230h-107v230h-63l-152 -230h-133l191 282l-171 258h126l139 -211h63v406h107v-406h63l140 211h126l-171 -258l191 -282h-134z" />
    <glyph glyph-name="uni0437.ss02" horiz-adv-x="571" 
d="M507.5 120q26.5 -48 26.5 -106q0 -64 -32.5 -114t-90 -78.5t-129.5 -28.5q-70 0 -125.5 27.5t-88.5 76.5t-37 113h109q6 -49 45.5 -80t96.5 -31q62 0 101.5 34.5t39.5 88.5q0 50 -36 83t-91 33h-92l-1 103h91q44 0 73 28.5t29 73.5q0 46 -33.5 74.5t-86.5 28.5
q-51 0 -85.5 -28t-38.5 -74h-107q2 61 32 108.5t82 73.5t117 26q66 0 119 -26t83 -72t30 -104q0 -47 -19.5 -87.5t-54.5 -68.5q47 -26 73.5 -74z" />
    <glyph glyph-name="uni0438.ss02" horiz-adv-x="642" 
d="M563 540v-540h-82l-18 74q-31 -41 -79.5 -63.5t-106.5 -22.5q-62 0 -108.5 29t-71.5 80.5t-25 117.5v325h111v-303q0 -74 31.5 -112t92.5 -38q63 0 104 46t41 118v289h111z" />
    <glyph glyph-name="uni0439.ss02" horiz-adv-x="642" 
d="M456 635h-268v83h268v-83zM563 540v-540h-82l-18 74q-31 -41 -79.5 -63.5t-106.5 -22.5q-62 0 -108.5 29t-71.5 80.5t-25 117.5v325h111v-303q0 -74 31.5 -112t92.5 -38q63 0 104 46t41 118v289h111z" />
    <glyph glyph-name="uni043A.ss02" horiz-adv-x="556" 
d="M257 230h-67v-230h-111v734h111v-403h68l146 209h132l-183 -259l202 -281h-136z" />
    <glyph glyph-name="uni043B.ss02" horiz-adv-x="542" 
d="M414 0l-143 394l-145 -394h-111l206 540h101l205 -540h-113z" />
    <glyph glyph-name="uni043F.ss02" horiz-adv-x="642" 
d="M473.5 523q46.5 -29 71.5 -80.5t25 -117.5v-325h-111v303q0 73 -31.5 111.5t-92.5 38.5q-64 0 -104.5 -46t-40.5 -118v-289h-111v540h77l22 -75q31 41 79.5 64t107.5 23q62 0 108.5 -29z" />
    <glyph glyph-name="uni0442.ss02" horiz-adv-x="945" 
d="M782.5 525.5q43.5 -26.5 67.5 -74t24 -108.5v-343h-111v316q0 65 -27.5 101t-77.5 36q-36 0 -65 -20.5t-45.5 -56.5t-16.5 -81v-295h-109v316q0 66 -27 101.5t-78 35.5q-36 0 -65 -20.5t-45.5 -56.5t-16.5 -81v-295h-111v540h79l19 -70q30 38 74.5 60t93.5 22
q54 0 96 -25t66 -69q29 44 76 69t100 25q56 0 99.5 -26.5z" />
    <glyph glyph-name="uni0446.ss02" horiz-adv-x="680" 
d="M586 99.5q23 -26.5 72 -26.5v-209h-103v146q-57 12 -81 73q-33 -44 -84.5 -69.5t-113.5 -25.5t-108 28.5t-71 80t-25 118.5v325h111v-301q0 -74 32 -113t93 -39q63 0 103.5 46.5t40.5 118.5v288h111v-357q0 -57 23 -83.5z" />
    <glyph glyph-name="uni0448.ss02" horiz-adv-x="945" 
d="M865 540v-540h-80l-18 69q-30 -38 -74.5 -59.5t-92.5 -21.5q-54 0 -95.5 25.5t-65.5 69.5q-30 -44 -77 -69.5t-100 -25.5q-56 0 -99 26.5t-67 73.5t-24 107v345h111v-316q0 -66 27 -101.5t78 -35.5q54 0 90 44t36 113v296h109v-316q0 -66 27 -101.5t78 -35.5
q35 0 64 20.5t45.5 56t16.5 80.5v296h111z" />
    <glyph glyph-name="uni0449.ss02" horiz-adv-x="984" 
d="M889.5 99.5q23.5 -26.5 71.5 -26.5v-209h-102v145q-28 7 -49 25t-32 45q-31 -42 -78 -66.5t-100 -24.5q-54 0 -95.5 25.5t-65.5 69.5q-30 -44 -77 -69.5t-100 -25.5q-56 0 -99 26.5t-67 74t-24 107.5v344h111v-316q0 -66 27 -101.5t78 -35.5q54 0 90 44t36 113v296h109
v-316q0 -66 27 -101.5t78 -35.5q36 0 65 20.5t45.5 56t16.5 80.5v296h111v-357q0 -57 23.5 -83.5z" />
    <glyph glyph-name="uni044E.ss02" horiz-adv-x="866" 
d="M688.5 516q64.5 -37 101 -101.5t36.5 -145.5q0 -80 -36.5 -144.5t-101 -101t-144.5 -36.5q-71 0 -130 29.5t-97 81.5t-48 120h-80v-219h-110v733h110v-410h80q11 68 49 120t96.5 81.5t129.5 29.5q80 0 144.5 -37zM630.5 115.5q38.5 22.5 60.5 63t22 90.5q0 51 -22 91.5
t-60.5 63.5t-86.5 23t-86.5 -23t-60.5 -63.5t-22 -91.5q0 -50 22 -90.5t60.5 -63t86.5 -22.5t86.5 22.5z" />
    <glyph glyph-name="uni0432.ss03" horiz-adv-x="623" 
d="M555.5 311.5q27.5 -48.5 27.5 -105.5q0 -64 -34.5 -114t-93 -77t-130.5 -27q-121 0 -189 75.5t-68 207.5v200q0 129 68.5 202t186.5 73q66 0 119 -25t83 -70.5t30 -104.5q0 -47 -20 -89.5t-57 -69.5q50 -27 77.5 -75.5zM214.5 601q-38.5 -44 -38.5 -130v-40h150
q58 0 93 29.5t35 79.5q0 48 -35.5 76.5t-95.5 28.5q-70 0 -108.5 -44zM432.5 125.5q40.5 33.5 40.5 87.5q0 53 -38.5 85.5t-102.5 32.5h-156v-60q0 -88 38 -133.5t111 -45.5q67 0 107.5 33.5z" />
    <glyph glyph-name="uni0433.ss03" horiz-adv-x="517" 
d="M98.5 35q-60.5 45 -60.5 120q0 58 28.5 91t68.5 47.5t102 26.5q45 9 69 16.5t40.5 21.5t16.5 37q0 29 -27.5 47t-74.5 18q-50 0 -76.5 -21.5t-26.5 -62.5h-100q0 82 55 129t147 47q61 0 108 -20t73 -55.5t26 -81.5q0 -57 -27.5 -89t-66 -45.5t-99.5 -25.5q-44 -8 -69 -16
t-41.5 -22.5t-16.5 -39.5q0 -31 31 -49t81 -18q54 0 83.5 23t29.5 66h106q0 -87 -60 -138t-159 -51q-100 0 -160.5 45z" />
    <glyph glyph-name="uni0434.ss03" horiz-adv-x="673" 
d="M594 540v-469q0 -130 -72.5 -204t-197.5 -74q-103 0 -173 51t-91 140h111q15 -44 57 -68t95 -24q72 0 117 44t45 120v24q-36 -31 -81.5 -47.5t-97.5 -16.5q-74 0 -135 35.5t-96.5 97t-35.5 135.5t35.5 136t96.5 97.5t135 35.5q59 0 110 -22t87 -61l18 70h73zM404 140.5
q38 21.5 59.5 59t21.5 84.5t-21.5 85t-59.5 59.5t-85 21.5t-85.5 -21.5t-60 -59.5t-21.5 -85t21.5 -84.5t60 -59t85.5 -21.5t85 21.5z" />
    <glyph glyph-name="uni0436.ss03" horiz-adv-x="800" 
d="M345 734h107v-734h-107v734zM145 540l198 -257v-10l-217 -273h-130l222 281l-202 259h129zM804 0h-129l-220 273v9l200 258h129l-203 -258z" />
    <glyph glyph-name="uni0437.ss03" horiz-adv-x="571" 
d="M507.5 120q26.5 -48 26.5 -106q0 -64 -32.5 -114t-90 -78.5t-129.5 -28.5q-70 0 -125.5 27.5t-88.5 76.5t-37 113h109q6 -49 45.5 -80t96.5 -31q62 0 101.5 34.5t39.5 88.5q0 50 -36 83t-91 33h-92l-1 103h91q44 0 73 28.5t29 73.5q0 46 -33.5 74.5t-86.5 28.5
q-51 0 -85.5 -28t-38.5 -74h-107q2 61 32 108.5t82 73.5t117 26q66 0 119 -26t83 -72t30 -104q0 -47 -19.5 -87.5t-54.5 -68.5q47 -26 73.5 -74z" />
    <glyph glyph-name="uni0438.ss03" horiz-adv-x="642" 
d="M563 540v-540h-82l-18 74q-31 -41 -79.5 -63.5t-106.5 -22.5q-62 0 -108.5 29t-71.5 80.5t-25 117.5v325h111v-303q0 -74 31.5 -112t92.5 -38q63 0 104 46t41 118v289h111z" />
    <glyph glyph-name="uni0439.ss03" horiz-adv-x="642" 
d="M456 635h-268v83h268v-83zM563 540v-540h-82l-18 74q-31 -41 -79.5 -63.5t-106.5 -22.5q-62 0 -108.5 29t-71.5 80.5t-25 117.5v325h111v-303q0 -74 31.5 -112t92.5 -38q63 0 104 46t41 118v289h111z" />
    <glyph glyph-name="uni043A.ss03" horiz-adv-x="539" 
d="M79 734h111v-734h-111v734zM544 0h-133l-212 275v10l199 255h126l-204 -258z" />
    <glyph glyph-name="uni043B.ss03" horiz-adv-x="542" 
d="M414 0l-143 394l-145 -394h-111l206 540h101l205 -540h-113z" />
    <glyph glyph-name="uni043F.ss03" horiz-adv-x="642" 
d="M473.5 523q46.5 -29 71.5 -80.5t25 -117.5v-325h-111v303q0 73 -31.5 111.5t-92.5 38.5q-64 0 -104.5 -46t-40.5 -118v-289h-111v540h77l22 -75q31 41 79.5 64t107.5 23q62 0 108.5 -29z" />
    <glyph glyph-name="uni0442.ss03" horiz-adv-x="945" 
d="M782.5 525.5q43.5 -26.5 67.5 -74t24 -108.5v-343h-111v316q0 65 -27.5 101t-77.5 36q-36 0 -65 -20.5t-45.5 -56.5t-16.5 -81v-295h-109v316q0 66 -27 101.5t-78 35.5q-36 0 -65 -20.5t-45.5 -56.5t-16.5 -81v-295h-111v540h79l19 -70q30 38 74.5 60t93.5 22
q54 0 96 -25t66 -69q29 44 76 69t100 25q56 0 99.5 -26.5z" />
    <glyph glyph-name="uni0446.ss03" horiz-adv-x="680" 
d="M586 99.5q23 -26.5 72 -26.5v-209h-103v146q-57 12 -81 73q-33 -44 -84.5 -69.5t-113.5 -25.5t-108 28.5t-71 80t-25 118.5v325h111v-301q0 -74 32 -113t93 -39q63 0 103.5 46.5t40.5 118.5v288h111v-357q0 -57 23 -83.5z" />
    <glyph glyph-name="uni0448.ss03" horiz-adv-x="945" 
d="M865 540v-540h-80l-18 69q-30 -38 -74.5 -59.5t-92.5 -21.5q-54 0 -95.5 25.5t-65.5 69.5q-30 -44 -77 -69.5t-100 -25.5q-56 0 -99 26.5t-67 73.5t-24 107v345h111v-316q0 -66 27 -101.5t78 -35.5q54 0 90 44t36 113v296h109v-316q0 -66 27 -101.5t78 -35.5
q35 0 64 20.5t45.5 56t16.5 80.5v296h111z" />
    <glyph glyph-name="uni0449.ss03" horiz-adv-x="984" 
d="M889.5 99.5q23.5 -26.5 71.5 -26.5v-209h-102v145q-28 7 -49 25t-32 45q-31 -42 -78 -66.5t-100 -24.5q-54 0 -95.5 25.5t-65.5 69.5q-30 -44 -77 -69.5t-100 -25.5q-56 0 -99 26.5t-67 74t-24 107.5v344h111v-316q0 -66 27 -101.5t78 -35.5q54 0 90 44t36 113v296h109
v-316q0 -66 27 -101.5t78 -35.5q36 0 65 20.5t45.5 56t16.5 80.5v296h111v-357q0 -57 23.5 -83.5z" />
    <glyph glyph-name="uni044E.ss03" horiz-adv-x="866" 
d="M688.5 516q64.5 -37 101 -101.5t36.5 -145.5q0 -80 -36.5 -144.5t-101 -101t-144.5 -36.5q-71 0 -130 29.5t-97 81.5t-48 120h-80v-219h-110v733h110v-410h80q11 68 49 120t96.5 81.5t129.5 29.5q80 0 144.5 -37zM630.5 115.5q38.5 22.5 60.5 63t22 90.5q0 51 -22 91.5
t-60.5 63.5t-86.5 23t-86.5 -23t-60.5 -63.5t-22 -91.5q0 -50 22 -90.5t60.5 -63t86.5 -22.5t86.5 22.5z" />
    <glyph glyph-name="uni0436.ss04" horiz-adv-x="800" 
d="M145 540l198 -257v-10l-217 -273h-130l222 281l-202 259h129zM345 540h107v-540h-107v540zM804 0h-129l-220 273v9l200 258h129l-203 -258z" />
    <glyph glyph-name="uni043A.ss04" horiz-adv-x="539" 
d="M79 540h111v-540h-111v540zM544 0h-133l-212 275v10l199 255h126l-204 -258z" />
    <glyph glyph-name="zero.sinf" horiz-adv-x="384" 
d="M77 -21q-42 54 -42 147t42 146.5t115 53.5t115 -54t42 -146q0 -93 -42 -147t-115 -54t-115 54zM246.5 36.5q19.5 31.5 19.5 88.5t-19.5 88.5t-54.5 31.5t-54.5 -31t-19.5 -88t19.5 -89t54.5 -32t54.5 31.5z" />
    <glyph glyph-name="one.sinf" horiz-adv-x="224" 
d="M169 318v-385h-83v313h-63v72h146z" />
    <glyph glyph-name="two.sinf" horiz-adv-x="334" 
d="M300 10v-76h-273v18q84 97 120.5 142t48.5 68t12 44q0 22 -12.5 35t-32.5 13q-21 0 -34.5 -13.5t-13.5 -35.5v-8h-80v7q0 56 34.5 89.5t92.5 33.5t94 -33.5t36 -86.5q0 -37 -22.5 -76.5t-91.5 -120.5h122z" />
    <glyph glyph-name="three.sinf" horiz-adv-x="333" 
d="M276 132.5q26 -32.5 26 -77.5q0 -57 -39 -93.5t-98 -36.5q-58 0 -95.5 35.5t-38.5 91.5h78q2 -24 17 -39t39 -15q25 0 41 16.5t16 42.5t-17 41.5t-45 15.5h-56v15l71 117h-134v71h247v-16l-81 -126q43 -10 69 -42.5z" />
    <glyph glyph-name="four.sinf" horiz-adv-x="344" 
d="M318 7h-35v-74h-78v74h-187v14l128 297h81l-104 -241h85l14 94h61v-94h35v-70z" />
    <glyph glyph-name="five.sinf" horiz-adv-x="328" 
d="M261 147.5q39 -35.5 39 -91.5t-38.5 -93t-96.5 -37q-59 0 -97.5 36t-38.5 91h79q0 -23 16 -38.5t41 -15.5q24 0 39.5 16t15.5 41t-17 41.5t-43 16.5h-111l-7 11l21 193h210v-71h-145l-7 -64h40q61 0 100 -35.5z" />
    <glyph glyph-name="six.sinf" horiz-adv-x="348" 
d="M287.5 152.5q36.5 -34.5 36.5 -89.5q0 -61 -40.5 -100t-104.5 -39q-65 0 -106 38.5t-41 100.5q0 28 9.5 57.5t30.5 67.5l76 130h90l-68 -117l-11 -19q20 5 37 5q55 0 91.5 -34.5zM226.5 16q18.5 18 18.5 47t-18.5 47t-48.5 18q-29 0 -48 -18.5t-19 -46.5t19 -46.5
t48 -18.5q30 0 48.5 18z" />
    <glyph glyph-name="seven.sinf" horiz-adv-x="314" 
d="M296 318v-11l-146 -375h-83l123 312h-167v74h273z" />
    <glyph glyph-name="eight.sinf" horiz-adv-x="352" 
d="M318 47q0 -55 -40.5 -88.5t-101.5 -33.5t-101 33.5t-40 88.5q0 59 49 90q-39 31 -39 79q0 49 37.5 79.5t94.5 30.5q56 0 93 -30.5t37 -79.5t-38 -79q49 -32 49 -90zM138.5 248q-15.5 -13 -15.5 -33q0 -21 15 -33.5t39 -12.5q23 0 38 12.5t15 33.5q0 20 -15 33t-38 13
t-38.5 -13zM221.5 9q17.5 15 17.5 39q0 25 -17.5 40t-45.5 15q-27 0 -45 -15.5t-18 -39.5t18 -39t46 -15q27 0 44.5 15z" />
    <glyph glyph-name="nine.sinf" horiz-adv-x="348" 
d="M275 288.5q41 -38.5 41 -100.5q0 -53 -40 -125l-76 -129h-90l67 114l12 21q-15 -5 -37 -5q-55 0 -91.5 35t-36.5 89q0 61 40.5 100t104.5 39q65 0 106 -38.5zM218 142q19 18 19 46q0 29 -19 47t-48 18q-30 0 -48.5 -18t-18.5 -47t18.5 -46.5t48.5 -17.5q29 0 48 18z" />
    <glyph glyph-name="zero.tf" horiz-adv-x="582" 
d="M153 30q-59 42 -91 120t-32 183q0 106 31.5 183.5t90.5 119.5t139 42t139 -42t90.5 -119.5t31.5 -183.5q0 -105 -32 -183t-91 -120t-138 -42t-138 42zM403 154.5q40 63.5 40 178.5t-40 178.5t-112 63.5t-112 -63.5t-40 -178.5t40 -178.5t112 -63.5t112 63.5z" />
    <glyph glyph-name="one.tf" horiz-adv-x="582" 
d="M510 100v-100h-419v100h159v467h-131v98h239v-565h152z" />
    <glyph glyph-name="two.tf" horiz-adv-x="582" 
d="M515 102v-102h-457v29q149 163 216 244t88.5 123.5t21.5 83.5q0 44 -27.5 70.5t-72.5 26.5q-46 0 -75 -27t-29 -71v-15h-108v15q0 59 26.5 105t74.5 71t110 25q61 0 109 -25.5t74.5 -71t26.5 -102.5q0 -47 -17.5 -92t-65.5 -111.5t-144 -175.5h249z" />
    <glyph glyph-name="three.tf" horiz-adv-x="582" 
d="M467.5 345q47.5 -57 47.5 -136q0 -63 -30 -113.5t-82 -79t-117 -28.5q-63 0 -113 27t-79.5 75.5t-31.5 110.5h107q3 -49 35 -79.5t82 -30.5q52 0 86 34t34 87t-36 86.5t-94 33.5h-84v21l135 214h-245v98h407v-22l-146 -227q77 -14 124.5 -71z" />
    <glyph glyph-name="four.tf" horiz-adv-x="582" 
d="M536 135h-66v-135h-102v135h-332v22l228 508h108l-195 -435h193l18 185h82v-185h66v-95z" />
    <glyph glyph-name="five.tf" horiz-adv-x="582" 
d="M404 397.5q53 -28.5 83 -78t30 -110.5q0 -62 -29.5 -112.5t-81.5 -79.5t-115 -29q-64 0 -115 27.5t-81 76t-31 109.5h109q1 -49 34.5 -79.5t83.5 -30.5t83.5 33.5t33.5 84.5q0 53 -36 87.5t-91 34.5h-176l-13 16l35 318h344v-97h-256l-16 -142h86q66 0 119 -28.5z" />
    <glyph glyph-name="six.tf" horiz-adv-x="582" 
d="M433.5 409q51.5 -28 80.5 -77.5t29 -111.5q0 -67 -31 -120t-86.5 -82.5t-125.5 -29.5q-71 0 -126.5 29.5t-87 82.5t-31.5 120q0 95 72 217l133 230h118l-38 -68q-74 -129 -100 -177q38 15 79 15q63 0 114.5 -28zM396 127q38 37 38 93q0 57 -38 93t-97 36t-97 -36.5
t-38 -92.5t38.5 -93t96.5 -37q59 0 97 37z" />
    <glyph glyph-name="seven.tf" horiz-adv-x="582" 
d="M525 665v-16l-259 -649h-111l228 567h-319v98h461z" />
    <glyph glyph-name="eight.tf" horiz-adv-x="582" 
d="M508.5 289.5q23.5 -41.5 23.5 -92.5q0 -60 -31 -107.5t-86 -74.5t-125 -27q-71 0 -125.5 26t-84.5 73.5t-30 109.5q0 50 23 91.5t66 67.5q-32 24 -50 61t-18 79q0 53 28 95t78 65.5t114 23.5t114 -23t77.5 -65t27.5 -96q0 -43 -18 -80t-48 -60q41 -25 64.5 -66.5z
M209 563q-32 -27 -32 -69t32 -68.5t82 -26.5t81.5 26.5t31.5 68.5t-31.5 69t-81.5 27t-82 -27zM387 114q37 32 37 82t-37 81.5t-96 31.5q-60 0 -97 -31.5t-37 -81.5t37 -82t97 -32q59 0 96 32z" />
    <glyph glyph-name="nine.tf" horiz-adv-x="582" 
d="M410 650.5q56 -29.5 87 -82.5t31 -120q0 -95 -72 -217l-133 -231h-119q113 197 139 245q-39 -15 -79 -15q-60 0 -111.5 27.5t-82.5 77t-31 113.5q0 67 31.5 119.5t87 82.5t125.5 30q71 0 127 -29.5zM383 354.5q39 36.5 39 93.5q0 56 -39.5 93t-98.5 37q-60 0 -99 -37
t-39 -93q0 -57 39 -93.5t99 -36.5t99 36.5z" />
    <glyph glyph-name="zero.dnom" horiz-adv-x="384" 
d="M77 46.5q-42 54.5 -42 146.5q0 93 42 146.5t115 53.5t115 -54t42 -146t-42 -146.5t-115 -54.5t-115 54.5zM246.5 104q19.5 32 19.5 89t-19.5 88t-54.5 31t-54.5 -31t-19.5 -88t19.5 -89t54.5 -32t54.5 32z" />
    <glyph glyph-name="one.dnom" horiz-adv-x="224" 
d="M169 385v-385h-83v313h-63v72h146z" />
    <glyph glyph-name="two.dnom" horiz-adv-x="334" 
d="M300 77v-77h-273v19q84 97 120.5 142t48.5 68t12 44q0 22 -12.5 34.5t-32.5 12.5q-21 0 -34.5 -13.5t-13.5 -35.5v-8h-80v8q0 56 34.5 89.5t92.5 33.5t94 -33.5t36 -86.5q0 -37 -22.5 -76.5t-91.5 -120.5h122z" />
    <glyph glyph-name="three.dnom" horiz-adv-x="333" 
d="M276 200.5q26 -32.5 26 -77.5q0 -57 -39 -93.5t-98 -36.5q-58 0 -95.5 35.5t-38.5 92.5h78q2 -24 17 -39t39 -15q25 0 41 16.5t16 42.5t-17 41.5t-45 15.5h-56v14l71 117h-134v71h247v-15l-81 -127q43 -10 69 -42.5z" />
    <glyph glyph-name="four.dnom" horiz-adv-x="344" 
d="M319 74h-35v-74h-78v74h-187v15l128 296h81l-104 -240h84l15 94h61v-94h35v-71z" />
    <glyph glyph-name="five.dnom" horiz-adv-x="328" 
d="M261 214.5q39 -35.5 39 -91.5t-38.5 -93t-96.5 -37q-59 0 -97.5 36t-38.5 92h79q0 -24 16 -39.5t41 -15.5q24 0 39.5 16t15.5 41q0 26 -17 42.5t-43 16.5h-111l-7 10l21 193h210v-71h-145l-7 -64h40q61 0 100 -35.5z" />
    <glyph glyph-name="six.dnom" horiz-adv-x="348" 
d="M287.5 220q36.5 -35 36.5 -89q0 -61 -40.5 -100t-104.5 -39q-65 0 -106 38.5t-41 100.5q0 54 40 124l76 130h90l-68 -116q-10 -17 -11 -20q18 6 37 6q55 0 91.5 -35zM226.5 84q18.5 18 18.5 47q0 28 -18.5 46t-48.5 18q-29 0 -48 -18t-19 -46q0 -29 19 -47t48 -18
q30 0 48.5 18z" />
    <glyph glyph-name="seven.dnom" horiz-adv-x="314" 
d="M296 385v-10l-146 -375h-83l123 312h-166v73h272z" />
    <glyph glyph-name="eight.dnom" horiz-adv-x="352" 
d="M318 117q0 -55 -40.5 -88.5t-101.5 -33.5t-101 33.5t-40 88.5q0 59 49 90q-39 31 -39 79q0 49 37.5 79.5t94.5 30.5q56 0 93 -30.5t37 -79.5q0 -24 -10 -44.5t-28 -34.5q49 -32 49 -90zM138.5 318q-15.5 -13 -15.5 -33q0 -21 15 -33.5t39 -12.5q23 0 38 12.5t15 33.5
q0 20 -15 33t-38 13t-38.5 -13zM221.5 79q17.5 15 17.5 39q0 25 -17.5 40t-45.5 15q-27 0 -45 -15.5t-18 -39.5t18 -39t46 -15q27 0 44.5 15z" />
    <glyph glyph-name="nine.dnom" horiz-adv-x="348" 
d="M275 355.5q41 -38.5 41 -100.5q0 -53 -40 -125l-76 -130h-90l67 115l12 21q-15 -5 -37 -5q-55 0 -91.5 35t-36.5 89q0 61 40.5 100t104.5 39q65 0 106 -38.5zM218 208.5q19 18.5 19 46.5t-19 46.5t-48 18.5q-30 0 -48.5 -18t-18.5 -47t18.5 -47t48.5 -18q29 0 48 18.5z
" />
    <glyph glyph-name="zero.numr" horiz-adv-x="384" 
d="M77 362q-42 54 -42 147t42 146.5t115 53.5t115 -54t42 -146q0 -93 -42 -147t-115 -54t-115 54zM246.5 419.5q19.5 31.5 19.5 88.5t-19.5 88.5t-54.5 31.5t-54.5 -31t-19.5 -88t19.5 -89t54.5 -32t54.5 31.5z" />
    <glyph glyph-name="one.numr" horiz-adv-x="224" 
d="M169 700v-385h-83v313h-63v72h146z" />
    <glyph glyph-name="two.numr" horiz-adv-x="334" 
d="M300 392v-76h-273v18q84 97 120.5 142t48.5 68t12 44q0 22 -12.5 35t-32.5 13q-21 0 -34.5 -13.5t-13.5 -35.5v-8h-80v7q0 56 34.5 89.5t92.5 33.5t94 -33.5t36 -86.5q0 -37 -22.5 -76.5t-91.5 -120.5h122z" />
    <glyph glyph-name="three.numr" horiz-adv-x="333" 
d="M276 515.5q26 -32.5 26 -77.5q0 -57 -39 -93.5t-98 -36.5q-58 0 -95.5 35.5t-38.5 91.5h78q2 -24 17 -39t39 -15q25 0 41 16.5t16 42.5t-17 41.5t-45 15.5h-56v15l71 117h-134v71h247v-16l-81 -126q43 -10 69 -42.5z" />
    <glyph glyph-name="four.numr" horiz-adv-x="344" 
d="M319 389h-35v-74h-78v74h-187v14l128 297h81l-104 -241h84l15 94h61v-94h35v-70z" />
    <glyph glyph-name="five.numr" horiz-adv-x="328" 
d="M261 529.5q39 -35.5 39 -91.5t-38.5 -93t-96.5 -37q-59 0 -97.5 36t-38.5 91h79q0 -23 16 -38.5t41 -15.5q24 0 39.5 16t15.5 41t-17 41.5t-43 16.5h-111l-7 11l21 193h210v-71h-145l-7 -64h40q61 0 100 -35.5z" />
    <glyph glyph-name="six.numr" horiz-adv-x="348" 
d="M287.5 534.5q36.5 -34.5 36.5 -89.5q0 -61 -40.5 -100t-104.5 -39q-65 0 -106 38.5t-41 100.5q0 28 9.5 57.5t30.5 67.5l76 130h90l-68 -117l-11 -19q20 5 37 5q55 0 91.5 -34.5zM226.5 398q18.5 18 18.5 47t-18.5 47t-48.5 18q-29 0 -48 -18.5t-19 -46.5t19 -46.5
t48 -18.5q30 0 48.5 18z" />
    <glyph glyph-name="seven.numr" horiz-adv-x="314" 
d="M296 700v-10l-146 -375h-83l123 312h-167v73h273z" />
    <glyph glyph-name="eight.numr" horiz-adv-x="352" 
d="M318 430q0 -55 -40.5 -88.5t-101.5 -33.5t-101 33.5t-40 88.5q0 59 49 90q-39 31 -39 79q0 49 37.5 79.5t94.5 30.5q56 0 93 -30.5t37 -79.5t-38 -79q49 -32 49 -90zM138.5 631q-15.5 -13 -15.5 -33q0 -21 15 -33.5t39 -12.5q23 0 38 12.5t15 33.5q0 20 -15 33t-38 13
t-38.5 -13zM221.5 392q17.5 15 17.5 39q0 25 -17.5 40t-45.5 15q-27 0 -45 -15.5t-18 -39.5t18 -39t46 -15q27 0 44.5 15z" />
    <glyph glyph-name="nine.numr" horiz-adv-x="348" 
d="M275 670.5q41 -38.5 41 -100.5q0 -53 -40 -125l-76 -129h-90l67 114l12 21q-15 -5 -37 -5q-55 0 -91.5 35t-36.5 89q0 61 40.5 100t104.5 39q65 0 106 -38.5zM218 524q19 18 19 46q0 29 -19 47t-48 18q-30 0 -48.5 -18t-18.5 -47t18.5 -46.5t48.5 -17.5q29 0 48 18z" />
    <glyph glyph-name="zero.sups" horiz-adv-x="384" 
d="M77 462q-42 54 -42 147t42 146.5t115 53.5t115 -54t42 -146q0 -93 -42 -147t-115 -54t-115 54zM246.5 519.5q19.5 31.5 19.5 88.5t-19.5 88.5t-54.5 31.5t-54.5 -31t-19.5 -88t19.5 -89t54.5 -32t54.5 31.5z" />
    <glyph glyph-name="one.sups" horiz-adv-x="224" 
d="M169 800v-385h-83v313h-63v72h146z" />
    <glyph glyph-name="two.sups" horiz-adv-x="334" 
d="M300 492v-76h-273v18q84 97 120.5 142t48.5 68t12 44q0 22 -12.5 35t-32.5 13q-21 0 -34.5 -13.5t-13.5 -35.5v-8h-80v7q0 56 34.5 89.5t92.5 33.5t94 -33.5t36 -86.5q0 -37 -22.5 -76.5t-91.5 -120.5h122z" />
    <glyph glyph-name="three.sups" horiz-adv-x="333" 
d="M276 615.5q26 -32.5 26 -77.5q0 -57 -39 -93.5t-98 -36.5q-58 0 -95.5 35.5t-38.5 91.5h78q2 -24 17 -39t39 -15q25 0 41 16.5t16 42.5t-17 41.5t-45 15.5h-56v15l71 117h-134v71h247v-16l-81 -126q43 -10 69 -42.5z" />
    <glyph glyph-name="four.sups" horiz-adv-x="344" 
d="M318 489h-35v-74h-78v74h-187v14l128 297h81l-104 -241h85l14 94h61v-94h35v-70z" />
    <glyph glyph-name="five.sups" horiz-adv-x="328" 
d="M261 629.5q39 -35.5 39 -91.5t-38.5 -93t-96.5 -37q-59 0 -97.5 36t-38.5 91h79q0 -23 16 -38.5t41 -15.5q24 0 39.5 16t15.5 41t-17 41.5t-43 16.5h-111l-7 11l21 193h210v-71h-145l-7 -64h40q61 0 100 -35.5z" />
    <glyph glyph-name="six.sups" horiz-adv-x="348" 
d="M287.5 634.5q36.5 -34.5 36.5 -89.5q0 -61 -40.5 -100t-104.5 -39q-65 0 -106 38.5t-41 100.5q0 28 9.5 57.5t30.5 67.5l76 130h90l-68 -117l-11 -19q20 5 37 5q55 0 91.5 -34.5zM226.5 498q18.5 18 18.5 47t-18.5 47t-48.5 18q-29 0 -48 -18.5t-19 -46.5t19 -46.5
t48 -18.5q30 0 48.5 18z" />
    <glyph glyph-name="seven.sups" horiz-adv-x="314" 
d="M296 800v-11l-146 -375h-83l123 312h-167v74h273z" />
    <glyph glyph-name="eight.sups" horiz-adv-x="352" 
d="M318 530q0 -55 -40.5 -88.5t-101.5 -33.5t-101 33.5t-40 88.5q0 59 49 90q-39 31 -39 79q0 49 37.5 79.5t94.5 30.5q56 0 93 -30.5t37 -79.5t-38 -79q49 -32 49 -90zM138.5 731q-15.5 -13 -15.5 -33q0 -21 15 -33.5t39 -12.5q23 0 38 12.5t15 33.5q0 20 -15 33t-38 13
t-38.5 -13zM221.5 492q17.5 15 17.5 39q0 25 -17.5 40t-45.5 15q-27 0 -45 -15.5t-18 -39.5t18 -39t46 -15q27 0 44.5 15z" />
    <glyph glyph-name="nine.sups" horiz-adv-x="348" 
d="M275 770.5q41 -38.5 41 -100.5q0 -53 -40 -125l-76 -129h-90l67 114l12 21q-15 -5 -37 -5q-55 0 -91.5 35t-36.5 89q0 61 40.5 100t104.5 39q65 0 106 -38.5zM218 624q19 18 19 46q0 29 -19 47t-48 18q-30 0 -48.5 -18t-18.5 -47t18.5 -46.5t48.5 -17.5q29 0 48 18z" />
    <glyph glyph-name="bullet.case" horiz-adv-x="361" 
d="M106 289q-30 30 -30 74q0 45 30 74.5t74 29.5q45 0 74.5 -29.5t29.5 -74.5q0 -44 -29.5 -74t-74.5 -30q-44 0 -74 30z" />
    <glyph glyph-name="braceleft.case" horiz-adv-x="365" 
d="M326 -30v-98h-99q-50 0 -85.5 35t-35.5 86v243q0 26 -17.5 43.5t-43.5 17.5h-14v91h14q26 0 43.5 18t17.5 44v243q0 51 35.5 86t85.5 35h98v-98h-57q-23 0 -37.5 -14t-14.5 -36v-210q0 -39 -21 -70t-54 -43q33 -13 54 -43.5t21 -69.5v-209q0 -23 14.5 -37t37.5 -14h58z
" />
    <glyph glyph-name="braceright.case" horiz-adv-x="365" 
d="M319 388v-91h-14q-26 0 -43.5 -17.5t-17.5 -43.5v-243q0 -51 -35.5 -86t-85.5 -35h-99v98h58q23 0 37.5 14t14.5 37v209q0 39 21 69.5t54 43.5q-33 12 -54 43t-21 70v210q0 22 -14.5 36t-37.5 14h-57v98h98q50 0 85.5 -35t35.5 -86v-243q0 -26 17.5 -44t43.5 -18h14z" />
    <glyph glyph-name="bracketleft.case" horiz-adv-x="347" 
d="M92 815h220v-94h-116v-755h118v-95h-222v944z" />
    <glyph glyph-name="bracketright.case" horiz-adv-x="347" 
d="M33 -129v95h119v755h-117v94h220v-944h-222z" />
    <glyph glyph-name="parenleft.case" horiz-adv-x="329" 
d="M85 88q-35 122 -35 255q0 131 35 253.5t99 223.5h123q-62 -91 -104.5 -216t-42.5 -261q0 -138 42.5 -264t104.5 -214h-121q-66 101 -101 223z" />
    <glyph glyph-name="parenright.case" horiz-adv-x="329" 
d="M22 -135q62 88 104.5 214t42.5 264q0 136 -42.5 261t-104.5 216h123q64 -101 99 -223.5t35 -253.5q0 -133 -35 -255t-101 -223h-121z" />
    <glyph glyph-name="emdash.case" horiz-adv-x="906" 
d="M70 396h768v-108h-768v108z" />
    <glyph glyph-name="endash.case" horiz-adv-x="647" 
d="M70 396h508v-108h-508v108z" />
    <glyph glyph-name="hyphen.case" horiz-adv-x="459" 
d="M70 397h321v-108h-321v108z" />
    <glyph glyph-name="guillemotleft.case" horiz-adv-x="635" 
d="M38 323v15l164 203h131l-168 -210l168 -211h-131zM294 323v15l164 203h131l-168 -210l168 -211h-131z" />
    <glyph glyph-name="guillemotright.case" horiz-adv-x="635" 
d="M46 121l168 210l-168 211h131l165 -203v-15l-165 -203h-131zM302 121l168 210l-168 211h131l164 -203v-15l-164 -203h-131z" />
    <glyph glyph-name="guilsinglleft.case" horiz-adv-x="379" 
d="M37 323v16l165 202h131l-168 -210l168 -210h-131z" />
    <glyph glyph-name="guilsinglright.case" horiz-adv-x="379" 
d="M46 120l168 211l-168 210h131l165 -203v-15l-165 -203h-131z" />
    <glyph glyph-name="cent.tf" horiz-adv-x="582" 
d="M484 57q-56 -52 -135 -64v-76h-88v75q-65 10 -116.5 47t-80.5 94.5t-29 124.5q0 68 29 125t80.5 94t116.5 46v82h88v-82q79 -12 134.5 -63.5t74.5 -128.5h-106q-20 44 -59.5 68.5t-89.5 24.5q-45 0 -81.5 -21.5t-57.5 -59.5t-21 -85q0 -46 21 -84.5t58 -60.5t81 -22
q50 0 89.5 26t59.5 71l107 -1q-19 -78 -75 -130z" />
    <glyph glyph-name="currency.tf" horiz-adv-x="602" 
d="M493 44l-76 77q-54 -35 -117 -35t-116 34l-73 -76l-64 64l73 75q-35 54 -35 117q0 68 38 123l-73 74l63 63l76 -75q52 30 111 30q61 0 112 -31l76 76l63 -63l-74 -75q38 -55 38 -122q0 -62 -35 -116l76 -77zM193 239.5q17 -28.5 46 -45t62 -16.5q50 0 85.5 36.5
t35.5 86.5q0 51 -35 87t-86 36q-33 0 -62 -16.5t-46 -45t-17 -61.5t17 -61.5z" />
    <glyph glyph-name="dollar.tf" horiz-adv-x="582" 
d="M486 58.5q-54 -53.5 -145 -64.5v-77h-90v76q-98 11 -153.5 69.5t-55.5 152.5h112q0 -55 39.5 -86.5t100.5 -31.5q56 0 95 27t39 71q0 31 -19.5 49.5t-49 28.5t-82.5 23q-70 16 -115 33t-77 56t-32 105q0 80 50.5 129.5t139.5 60.5v71h92v-72q88 -12 137 -67t49 -141h-110
q0 51 -35 79.5t-90 28.5q-52 0 -87.5 -22.5t-35.5 -61.5q0 -29 19 -47t48 -27.5t81 -22.5q71 -16 117 -34.5t79 -58.5t33 -109q0 -84 -54 -137.5z" />
    <glyph glyph-name="Euro.tf" horiz-adv-x="649" 
d="M344.5 552.5q-58.5 -33.5 -89.5 -93.5h308l-22 -87h-313q-2 -24 -2 -37q0 -21 3 -42h292l-21 -87h-242q31 -58 88.5 -90t127.5 -32q59 0 111 21v-98q-56 -21 -121 -21q-109 0 -197 60t-125 160h-108l21 87h67q-2 14 -2 42q0 25 1 37h-85l21 87h83q36 103 125.5 164
t200.5 61q77 0 149 -29l-23 -92q-55 23 -118 23q-71 0 -129.5 -33.5z" />
    <glyph glyph-name="florin.tf" horiz-adv-x="582" 
d="M358.5 570.5q-22.5 -18.5 -25.5 -49.5l-10 -73h142l-12 -84h-139l-61 -431q-10 -68 -57.5 -109t-117.5 -41h-67l14 96h37q35 0 59 21t29 56l57 408h-93l12 84h93l12 85q8 62 52.5 99.5t110.5 37.5h101l-10 -81h-71q-33 0 -55.5 -18.5z" />
    <glyph glyph-name="uni20BD.tf" horiz-adv-x="582" 
d="M225 274v-69h195v-79h-195v-126h-108v126h-72v79h72v73h-72v87h72v300h241q59 0 104.5 -25t71 -69.5t25.5 -101.5t-25.5 -101.5t-71 -69t-104.5 -24.5h-133zM422 541q-30 29 -75 29h-122v-201h122q45 0 75 28.5t30 71.5t-30 72z" />
    <glyph glyph-name="sterling.tf" horiz-adv-x="582" 
d="M546 175v-175h-509v76l67 15v183h-54v91h54v118q0 59 27 104.5t75.5 71t109.5 25.5q60 0 106 -25t71.5 -70.5t25.5 -103.5v-12h-99v6q0 47 -29 76.5t-75 29.5t-75.5 -30.5t-29.5 -78.5v-111h162v-91h-162v-180h236v81h99z" />
    <glyph glyph-name="yen.tf" horiz-adv-x="582" 
d="M345 274h179v-67h-179v-55h179v-66h-179v-86h-109v86h-179v66h179v55h-179v67h179v22l-240 369h113l181 -283l183 283h114l-242 -368v-23z" />
    <glyph glyph-name="uni0308.case" 
d="M-444 893h121v-114h-121v114zM-220 893h122v-114h-122v114z" />
    <glyph glyph-name="uni0307.case" 
d="M-238 893h121v-114h-121v114z" />
    <glyph glyph-name="gravecomb.case" 
d="M-395 916h119l65 -142h-85z" />
    <glyph glyph-name="acutecomb.case" 
d="M-270 916h118l-98 -142h-86z" />
    <glyph glyph-name="uni030B.case" 
d="M-408 916h105l-82 -142h-78zM-209 916h109l-108 -142h-80z" />
    <glyph glyph-name="uni0302.case" 
d="M-204 774l-84 83l-83 -83h-97l117 142h126l117 -142h-96z" />
    <glyph glyph-name="uni030C.case" 
d="M-136 916l-117 -142h-127l-117 142h97l83 -82l84 82h97z" />
    <glyph glyph-name="uni0306.case" 
d="M-385 808q-44 40 -44 108h86v-3q0 -34 20 -53t55 -19q34 0 53.5 19t19.5 53v3h89q0 -68 -44.5 -108t-117.5 -40t-117 40z" />
    <glyph glyph-name="uni030A.case" 
d="M-310.5 788.5q-35.5 33.5 -35.5 86.5t35.5 86.5t92.5 33.5q56 0 91.5 -33.5t35.5 -86.5t-35.5 -86.5t-91.5 -33.5q-57 0 -92.5 33.5zM-174 832.5q17 16.5 17 42.5q0 27 -17 43.5t-44 16.5q-28 0 -45 -16.5t-17 -43.5q0 -26 17 -42.5t45 -16.5q27 0 44 16.5z" />
    <glyph glyph-name="tildecomb.case" 
d="M-281.5 784q-21.5 11 -46.5 32q-16 13 -26.5 19t-21.5 6q-18 0 -30 -15t-12 -39v-10h-65v13q0 59 28 93.5t78 34.5q28 0 46.5 -10t42.5 -29q17 -15 29.5 -22.5t27.5 -7.5q19 0 30.5 14.5t11.5 40.5v9h66v-11q0 -59 -28.5 -94t-77.5 -35q-31 0 -52.5 11z" />
    <glyph glyph-name="uni0304.case" 
d="M-429 893h313v-95h-313v95z" />
    <glyph glyph-name="uni0326.case" 
d="M-156 -203q23 4 36 19.5t13 39.5h-54v95h107v-87q0 -45 -28.5 -77.5t-73.5 -37.5v48z" />
    <glyph glyph-name="uni0327.case" 
d="M-122 -69.5q24 -24.5 24 -60.5q0 -44 -35.5 -72t-91.5 -28h-70v62h69q20 0 33.5 11t13.5 28t-13.5 28t-34.5 11h-33l-8 12l27 111h73l-18 -70q40 -8 64 -32.5z" />
    <glyph glyph-name="uni0328.case" 
d="M-302.5 -200q-32.5 29 -32.5 76q0 41 25 80.5t71.5 70t107.5 45.5l1 -51q-50 -17 -82.5 -51.5t-32.5 -68.5q0 -26 18.5 -40.5t51.5 -14.5q26 0 52 12v-64q-18 -10 -43 -16.5t-48 -6.5q-56 0 -88.5 29z" />
    <glyph glyph-name="uni0335.case" 
d="M-490 403h390v-100h-390v100z" />
    <glyph glyph-name="uni0336.case" 
d="M-800 611h700v-82h-700v82z" />
    <glyph glyph-name="uni0337.case" 
d="M-427 307l386 199v-101l-386 -197v99z" />
    <glyph glyph-name="uni0338.case" 
d="M-3 765h123l-498 -824h-123z" />
    <glyph glyph-name="uni0308.narrow.case" 
d="M-370 893h110v-114h-110v114zM-211 893h110v-114h-110v114z" />
    <glyph glyph-name="gravecomb.narrow.case" 
d="M-188 774l-74 142h116l45 -142h-87z" />
    <glyph glyph-name="acutecomb.narrow.case" 
d="M-303 916h113l-75 -142h-83z" />
    <glyph glyph-name="uni0302.narrow.case" 
d="M-248 774l-69 82l-68 -82h-91l103 142h113l104 -142h-92z" />
    <glyph glyph-name="uni0306.narrow.case" 
d="M-378 808q-41 40 -41 108h86v-3q0 -34 17.5 -53t47.5 -19q29 0 46 19t17 53v3h89q0 -68 -41.5 -108t-110.5 -40t-110 40z" />
    <glyph glyph-name="tildecomb.narrow.case" 
d="M-280 784q-21 11 -45 31q-19 14 -28.5 20t-21.5 6q-15 0 -25.5 -15t-10.5 -39v-10h-62v13q0 59 25.5 93.5t71.5 34.5q30 0 49.5 -10.5t39.5 -29.5q18 -16 28.5 -22.5t26.5 -6.5t25.5 14.5t9.5 40.5v9h64v-11q0 -59 -26 -94t-72 -35q-28 0 -49 11z" />
    </font>
</defs>
</svg>
