<svg width="24" height="24" viewBox="0 0 24 24" fill="none" xmlns="http://www.w3.org/2000/svg">
<rect x="1" y="1" width="22" height="22" rx="4" fill="#3B5A71"/>
<path d="M17.7542 8.26723C17.4224 7.91483 16.8818 7.91039 16.5448 8.25733L10.2235 14.8195L7.4756 11.8315C7.14786 11.4727 6.60527 11.4609 6.26371 11.8051C5.92212 12.1494 5.91091 12.7193 6.23865 13.0781L6.24307 13.0829L9.59356 16.7299C9.67294 16.815 9.76761 16.8827 9.87207 16.929C9.97654 16.9754 10.0887 16.9995 10.2021 17H10.2116C10.4363 16.9993 10.6518 16.9058 10.8115 16.7398L17.7464 9.53754C18.0815 9.18853 18.0849 8.62072 17.7542 8.26723Z" fill="white"/>
</svg>
