<svg width="22" height="22" viewBox="0 0 22 22" fill="none" xmlns="http://www.w3.org/2000/svg">
<rect width="22" height="22" rx="4" fill="#3B5A71"/>
<path d="M16.7542 7.26723C16.4224 6.91483 15.8818 6.91039 15.5448 7.25733L9.22351 13.8195L6.4756 10.8315C6.14786 10.4727 5.60527 10.4609 5.26371 10.8051C4.92212 11.1494 4.91091 11.7193 5.23865 12.0781L5.24307 12.0829L8.59356 15.7299C8.67294 15.815 8.76761 15.8827 8.87207 15.929C8.97654 15.9754 9.08872 15.9995 9.20212 16H9.21155C9.43629 15.9993 9.65175 15.9058 9.81154 15.7398L16.7464 8.53754C17.0815 8.18853 17.0849 7.62072 16.7542 7.26723Z" fill="white"/>
</svg>
