<svg width="428" height="300" viewBox="0 0 428 300" fill="none" xmlns="http://www.w3.org/2000/svg">
<path d="M3 2C3 0.895429 3.89543 0 5 0H25C26.1046 0 27 0.895431 27 2V271H3V2Z" fill="#A7BAA6"/>
<path d="M7.11727 288.584H4.56127V296H3.50527V288.584H0.949266V287.6H7.11727V288.584ZM8.23205 287.228H9.33605V288.392H8.23205V287.228ZM8.28005 289.52H9.30005V296H8.28005V289.52ZM17.4104 292.784C17.4104 292.872 17.4024 292.996 17.3864 293.156H11.8544C11.9424 293.756 12.1904 294.24 12.5984 294.608C13.0144 294.968 13.5264 295.148 14.1344 295.148C14.5824 295.148 14.9784 295.052 15.3224 294.86C15.6744 294.66 15.9544 294.38 16.1624 294.02H17.2304C16.9584 294.692 16.5504 295.216 16.0064 295.592C15.4704 295.96 14.8464 296.144 14.1344 296.144C13.5184 296.144 12.9584 295.996 12.4544 295.7C11.9504 295.404 11.5544 295 11.2664 294.488C10.9784 293.968 10.8344 293.392 10.8344 292.76C10.8344 292.128 10.9784 291.556 11.2664 291.044C11.5544 290.524 11.9504 290.116 12.4544 289.82C12.9584 289.524 13.5184 289.376 14.1344 289.376C14.7744 289.376 15.3424 289.528 15.8384 289.832C16.3344 290.128 16.7184 290.536 16.9904 291.056C17.2704 291.576 17.4104 292.152 17.4104 292.784ZM14.1344 290.348C13.5504 290.348 13.0544 290.516 12.6464 290.852C12.2464 291.188 11.9904 291.64 11.8784 292.208H16.3784C16.2744 291.632 16.0184 291.18 15.6104 290.852C15.2024 290.516 14.7104 290.348 14.1344 290.348ZM22.4604 289.484V290.456H21.8004C21.2084 290.456 20.7524 290.636 20.4324 290.996C20.1124 291.356 19.9524 291.852 19.9524 292.484V296H18.9324V289.52H19.6524L19.8204 290.504C20.2924 289.824 20.9804 289.484 21.8844 289.484H22.4604ZM28.1501 288.02V296H27.1661V288.932H25.6421V288.02H28.1501Z" fill="#444547"/>
<path d="M82.4004 145C82.4004 143.895 83.2958 143 84.4004 143H104.4C105.505 143 106.4 143.895 106.4 145V271H82.4004V145Z" fill="#A7BAA6"/>
<path d="M85.3516 288.584H82.7956V296H81.7396V288.584H79.1836V287.6H85.3516V288.584ZM86.4664 287.228H87.5704V288.392H86.4664V287.228ZM86.5144 289.52H87.5344V296H86.5144V289.52ZM95.6447 292.784C95.6447 292.872 95.6367 292.996 95.6207 293.156H90.0887C90.1767 293.756 90.4247 294.24 90.8327 294.608C91.2487 294.968 91.7607 295.148 92.3687 295.148C92.8167 295.148 93.2127 295.052 93.5567 294.86C93.9087 294.66 94.1887 294.38 94.3967 294.02H95.4647C95.1927 294.692 94.7847 295.216 94.2407 295.592C93.7047 295.96 93.0807 296.144 92.3687 296.144C91.7527 296.144 91.1927 295.996 90.6887 295.7C90.1847 295.404 89.7887 295 89.5007 294.488C89.2127 293.968 89.0687 293.392 89.0687 292.76C89.0687 292.128 89.2127 291.556 89.5007 291.044C89.7887 290.524 90.1847 290.116 90.6887 289.82C91.1927 289.524 91.7527 289.376 92.3687 289.376C93.0087 289.376 93.5767 289.528 94.0727 289.832C94.5687 290.128 94.9527 290.536 95.2247 291.056C95.5047 291.576 95.6447 292.152 95.6447 292.784ZM92.3687 290.348C91.7847 290.348 91.2887 290.516 90.8807 290.852C90.4807 291.188 90.2247 291.64 90.1127 292.208H94.6127C94.5087 291.632 94.2527 291.18 93.8447 290.852C93.4367 290.516 92.9447 290.348 92.3687 290.348ZM100.695 289.484V290.456H100.035C99.4428 290.456 98.9868 290.636 98.6668 290.996C98.3468 291.356 98.1868 291.852 98.1868 292.484V296H97.1668V289.52H97.8868L98.0548 290.504C98.5268 289.824 99.2148 289.484 100.119 289.484H100.695ZM109.36 295.052V296H103.996V295.676C105.236 294.38 106.132 293.408 106.684 292.76C107.244 292.104 107.612 291.6 107.788 291.248C107.972 290.896 108.064 290.54 108.064 290.18C108.064 289.78 107.932 289.456 107.668 289.208C107.412 288.952 107.072 288.824 106.648 288.824C106.208 288.824 105.852 288.952 105.58 289.208C105.308 289.456 105.172 289.784 105.172 290.192V290.384H104.188V290.192C104.188 289.496 104.412 288.936 104.86 288.512C105.316 288.088 105.912 287.876 106.648 287.876C107.12 287.876 107.536 287.976 107.896 288.176C108.264 288.368 108.548 288.64 108.748 288.992C108.956 289.336 109.06 289.732 109.06 290.18C109.06 290.572 108.984 290.952 108.832 291.32C108.68 291.688 108.384 292.16 107.944 292.736C107.512 293.304 106.848 294.076 105.952 295.052H109.36Z" fill="#444547"/>
<path d="M161.801 101C161.801 99.8954 162.696 99 163.801 99H183.801C184.905 99 185.801 99.8954 185.801 101V271H161.801V101Z" fill="#A7BAA6"/>
<path d="M164.699 288.584H162.143V296H161.087V288.584H158.531V287.6H164.699V288.584ZM165.814 287.228H166.918V288.392H165.814V287.228ZM165.862 289.52H166.882V296H165.862V289.52ZM174.992 292.784C174.992 292.872 174.984 292.996 174.968 293.156H169.436C169.524 293.756 169.772 294.24 170.18 294.608C170.596 294.968 171.108 295.148 171.716 295.148C172.164 295.148 172.56 295.052 172.904 294.86C173.256 294.66 173.536 294.38 173.744 294.02H174.812C174.54 294.692 174.132 295.216 173.588 295.592C173.052 295.96 172.428 296.144 171.716 296.144C171.1 296.144 170.54 295.996 170.036 295.7C169.532 295.404 169.136 295 168.848 294.488C168.56 293.968 168.416 293.392 168.416 292.76C168.416 292.128 168.56 291.556 168.848 291.044C169.136 290.524 169.532 290.116 170.036 289.82C170.54 289.524 171.1 289.376 171.716 289.376C172.356 289.376 172.924 289.528 173.42 289.832C173.916 290.128 174.3 290.536 174.572 291.056C174.852 291.576 174.992 292.152 174.992 292.784ZM171.716 290.348C171.132 290.348 170.636 290.516 170.228 290.852C169.828 291.188 169.572 291.64 169.46 292.208H173.96C173.856 291.632 173.6 291.18 173.192 290.852C172.784 290.516 172.292 290.348 171.716 290.348ZM180.042 289.484V290.456H179.382C178.79 290.456 178.334 290.636 178.014 290.996C177.694 291.356 177.534 291.852 177.534 292.484V296H176.514V289.52H177.234L177.402 290.504C177.874 289.824 178.562 289.484 179.466 289.484H180.042ZM186.524 291.032C187.18 291.12 187.712 291.396 188.12 291.86C188.528 292.324 188.732 292.884 188.732 293.54C188.732 294.036 188.616 294.484 188.384 294.884C188.152 295.276 187.832 295.584 187.424 295.808C187.016 296.032 186.56 296.144 186.056 296.144C185.568 296.144 185.128 296.04 184.736 295.832C184.352 295.624 184.044 295.332 183.812 294.956C183.58 294.58 183.452 294.152 183.428 293.672H184.4C184.44 294.128 184.608 294.496 184.904 294.776C185.208 295.056 185.592 295.196 186.056 295.196C186.544 295.196 186.944 295.036 187.256 294.716C187.576 294.396 187.736 293.992 187.736 293.504C187.736 293.016 187.564 292.616 187.22 292.304C186.884 291.984 186.456 291.824 185.936 291.824H185.036V291.632L186.884 288.932H183.692V288.02H188.42V288.248L186.524 291.032Z" fill="#444547"/>
<path d="M241.199 206C241.199 204.895 242.095 204 243.199 204H263.199C264.304 204 265.199 204.895 265.199 206V271H241.199V206Z" fill="#A7BAA6"/>
<path d="M244.068 288.584H241.512V296H240.456V288.584H237.9V287.6H244.068V288.584ZM245.183 287.228H246.287V288.392H245.183V287.228ZM245.231 289.52H246.251V296H245.231V289.52ZM254.362 292.784C254.362 292.872 254.354 292.996 254.338 293.156H248.806C248.894 293.756 249.142 294.24 249.55 294.608C249.966 294.968 250.478 295.148 251.086 295.148C251.534 295.148 251.93 295.052 252.274 294.86C252.626 294.66 252.906 294.38 253.114 294.02H254.182C253.91 294.692 253.502 295.216 252.958 295.592C252.422 295.96 251.798 296.144 251.086 296.144C250.47 296.144 249.91 295.996 249.406 295.7C248.902 295.404 248.506 295 248.218 294.488C247.93 293.968 247.786 293.392 247.786 292.76C247.786 292.128 247.93 291.556 248.218 291.044C248.506 290.524 248.902 290.116 249.406 289.82C249.91 289.524 250.47 289.376 251.086 289.376C251.726 289.376 252.294 289.528 252.79 289.832C253.286 290.128 253.67 290.536 253.942 291.056C254.222 291.576 254.362 292.152 254.362 292.784ZM251.086 290.348C250.502 290.348 250.006 290.516 249.598 290.852C249.198 291.188 248.942 291.64 248.83 292.208H253.33C253.226 291.632 252.97 291.18 252.562 290.852C252.154 290.516 251.662 290.348 251.086 290.348ZM259.412 289.484V290.456H258.752C258.16 290.456 257.704 290.636 257.384 290.996C257.064 291.356 256.904 291.852 256.904 292.484V296H255.884V289.52H256.604L256.772 290.504C257.244 289.824 257.932 289.484 258.836 289.484H259.412ZM268.413 294.32H267.573V296H266.613V294.32H262.521V294.08L265.329 288.02H266.361L263.865 293.432H266.625L266.781 290.972H267.573V293.432H268.413V294.32Z" fill="#444547"/>
<path d="M320.6 57C320.6 55.8954 321.495 55 322.6 55H342.6C343.704 55 344.6 55.8954 344.6 57V271H320.6V57Z" fill="#A7BAA6"/>
<path d="M323.551 288.584H320.995V296H319.939V288.584H317.383V287.6H323.551V288.584ZM324.666 287.228H325.77V288.392H324.666V287.228ZM324.714 289.52H325.734V296H324.714V289.52ZM333.844 292.784C333.844 292.872 333.836 292.996 333.82 293.156H328.288C328.376 293.756 328.624 294.24 329.032 294.608C329.448 294.968 329.96 295.148 330.568 295.148C331.016 295.148 331.412 295.052 331.756 294.86C332.108 294.66 332.388 294.38 332.596 294.02H333.664C333.392 294.692 332.984 295.216 332.44 295.592C331.904 295.96 331.28 296.144 330.568 296.144C329.952 296.144 329.392 295.996 328.888 295.7C328.384 295.404 327.988 295 327.7 294.488C327.412 293.968 327.268 293.392 327.268 292.76C327.268 292.128 327.412 291.556 327.7 291.044C327.988 290.524 328.384 290.116 328.888 289.82C329.392 289.524 329.952 289.376 330.568 289.376C331.208 289.376 331.776 289.528 332.272 289.832C332.768 290.128 333.152 290.536 333.424 291.056C333.704 291.576 333.844 292.152 333.844 292.784ZM330.568 290.348C329.984 290.348 329.488 290.516 329.08 290.852C328.68 291.188 328.424 291.64 328.312 292.208H332.812C332.708 291.632 332.452 291.18 332.044 290.852C331.636 290.516 331.144 290.348 330.568 290.348ZM338.894 289.484V290.456H338.234C337.642 290.456 337.186 290.636 336.866 290.996C336.546 291.356 336.386 291.852 336.386 292.484V296H335.366V289.52H336.086L336.254 290.504C336.726 289.824 337.414 289.484 338.318 289.484H338.894ZM344.824 290.96C345.344 290.96 345.812 291.076 346.228 291.308C346.652 291.532 346.98 291.84 347.212 292.232C347.452 292.624 347.572 293.06 347.572 293.54C347.572 294.028 347.452 294.472 347.212 294.872C346.98 295.272 346.66 295.584 346.252 295.808C345.852 296.032 345.404 296.144 344.908 296.144C344.412 296.144 343.968 296.04 343.576 295.832C343.184 295.616 342.872 295.32 342.64 294.944C342.408 294.568 342.284 294.144 342.268 293.672H343.24C343.264 294.12 343.428 294.488 343.732 294.776C344.044 295.056 344.436 295.196 344.908 295.196C345.38 295.196 345.772 295.04 346.084 294.728C346.404 294.416 346.564 294.02 346.564 293.54C346.564 293.052 346.396 292.648 346.06 292.328C345.724 292.008 345.3 291.848 344.788 291.848H342.76L342.616 291.68L343.024 288.02H347.02V288.932H343.84L343.624 290.96H344.824Z" fill="#444547"/>
<path d="M400 111C400 109.895 400.895 109 402 109H422C423.105 109 424 109.895 424 111V271H400V111Z" fill="#A7BAA6"/>
<path d="M402.775 288.584H400.219V296H399.163V288.584H396.607V287.6H402.775V288.584ZM403.89 287.228H404.994V288.392H403.89V287.228ZM403.938 289.52H404.958V296H403.938V289.52ZM413.069 292.784C413.069 292.872 413.061 292.996 413.045 293.156H407.513C407.601 293.756 407.849 294.24 408.257 294.608C408.673 294.968 409.185 295.148 409.793 295.148C410.241 295.148 410.637 295.052 410.981 294.86C411.333 294.66 411.613 294.38 411.821 294.02H412.889C412.617 294.692 412.209 295.216 411.665 295.592C411.129 295.96 410.505 296.144 409.793 296.144C409.177 296.144 408.617 295.996 408.113 295.7C407.609 295.404 407.213 295 406.925 294.488C406.637 293.968 406.493 293.392 406.493 292.76C406.493 292.128 406.637 291.556 406.925 291.044C407.213 290.524 407.609 290.116 408.113 289.82C408.617 289.524 409.177 289.376 409.793 289.376C410.433 289.376 411.001 289.528 411.497 289.832C411.993 290.128 412.377 290.536 412.649 291.056C412.929 291.576 413.069 292.152 413.069 292.784ZM409.793 290.348C409.209 290.348 408.713 290.516 408.305 290.852C407.905 291.188 407.649 291.64 407.537 292.208H412.037C411.933 291.632 411.677 291.18 411.269 290.852C410.861 290.516 410.369 290.348 409.793 290.348ZM418.119 289.484V290.456H417.459C416.867 290.456 416.411 290.636 416.091 290.996C415.771 291.356 415.611 291.852 415.611 292.484V296H414.591V289.52H415.311L415.479 290.504C415.951 289.824 416.639 289.484 417.543 289.484H418.119ZM424.564 290.804C425.044 290.804 425.492 290.916 425.908 291.14C426.324 291.356 426.656 291.664 426.904 292.064C427.152 292.464 427.276 292.916 427.276 293.42C427.276 293.94 427.152 294.408 426.904 294.824C426.664 295.24 426.328 295.564 425.896 295.796C425.464 296.028 424.976 296.144 424.432 296.144C423.88 296.144 423.384 296.028 422.944 295.796C422.512 295.564 422.172 295.24 421.924 294.824C421.684 294.408 421.564 293.94 421.564 293.42C421.564 292.684 421.856 291.8 422.44 290.768L424.036 287.948H425.128C424.656 288.78 424.28 289.448 424 289.952C423.72 290.456 423.52 290.828 423.4 291.068C423.792 290.892 424.18 290.804 424.564 290.804ZM424.42 295.196C424.964 295.196 425.408 295.028 425.752 294.692C426.104 294.356 426.28 293.932 426.28 293.42C426.28 292.908 426.104 292.488 425.752 292.16C425.408 291.824 424.964 291.656 424.42 291.656C423.884 291.656 423.44 291.824 423.088 292.16C422.736 292.488 422.56 292.908 422.56 293.42C422.56 293.932 422.736 294.356 423.088 294.692C423.44 295.028 423.884 295.196 424.42 295.196Z" fill="#444547"/>
</svg>
