<svg width="188" height="200" viewBox="0 0 188 200" fill="none" xmlns="http://www.w3.org/2000/svg">
<rect width="188" height="200" fill="#DDDDDD"/>
<g clip-path="url(#clip0_484_6767)">
<rect width="1440" height="1589" transform="translate(-918 -898)" fill="#F2F2F4"/>
<g clip-path="url(#clip1_484_6767)">
<g filter="url(#filter0_d_484_6767)">
<rect x="-72" y="-73" width="570" height="313" rx="8" fill="white"/>
<rect x="-71.5" y="-72.5" width="569" height="312" rx="7.5" stroke="#EFEFEE"/>
</g>
</g>
<path d="M188 100C188 155.228 143.228 200 88 200C32.7715 200 -12 155.228 -12 100C-12 44.7715 32.7715 0 88 0C143.228 0 188 44.7715 188 100ZM8 100C8 144.183 43.8172 180 88 180C132.183 180 168 144.183 168 100C168 55.8172 132.183 20 88 20C43.8172 20 8 55.8172 8 100Z" fill="#D2DDD0"/>
<path d="M88 0C105.589 2.0975e-07 122.867 4.63937 138.091 13.45C153.314 22.2606 165.945 34.9307 174.707 50.1819C183.47 65.4331 188.055 82.7257 188 100.315C187.944 117.904 183.25 135.167 174.392 150.363C165.533 165.559 152.824 178.149 137.545 186.864C122.266 195.578 104.959 200.109 87.3702 199.998C69.7813 199.887 52.5328 195.139 37.365 186.233C22.1973 177.327 9.64707 164.577 0.980657 149.271L18.3845 139.417C25.3177 151.662 35.3579 161.861 47.492 168.986C59.6262 176.111 73.425 179.91 87.4962 179.998C101.567 180.087 115.413 176.463 127.636 169.491C139.859 162.519 150.027 152.447 157.113 140.291C164.2 128.134 167.955 114.323 168 100.252C168.044 86.1806 164.376 72.3465 157.366 60.1455C150.356 47.9446 140.252 37.8085 128.073 30.76C115.894 23.7115 102.071 20 88 20V0Z" fill="#A7BAA6"/>
<path d="M54.0714 93.36V104H52.3594V94.912H50.4874V93.36H54.0714ZM62.6118 98.32C63.0491 98.5867 63.3905 98.944 63.6358 99.392C63.8918 99.8293 64.0198 100.32 64.0198 100.864C64.0198 101.504 63.8545 102.08 63.5238 102.592C63.1931 103.093 62.7345 103.488 62.1478 103.776C61.5611 104.053 60.8945 104.192 60.1478 104.192C59.3905 104.192 58.7185 104.053 58.1318 103.776C57.5558 103.499 57.1025 103.109 56.7718 102.608C56.4518 102.096 56.2918 101.515 56.2918 100.864C56.2918 100.331 56.4145 99.8453 56.6598 99.408C56.9158 98.96 57.2678 98.5973 57.7158 98.32C57.3745 98.064 57.1078 97.744 56.9158 97.36C56.7345 96.9653 56.6438 96.544 56.6438 96.096C56.6438 95.5307 56.7878 95.024 57.0758 94.576C57.3745 94.128 57.7905 93.7813 58.3238 93.536C58.8571 93.28 59.4651 93.152 60.1478 93.152C60.8305 93.152 61.4385 93.2747 61.9718 93.52C62.5051 93.7653 62.9158 94.112 63.2038 94.56C63.5025 95.008 63.6518 95.52 63.6518 96.096C63.6518 96.544 63.5558 96.9653 63.3638 97.36C63.1825 97.7547 62.9318 98.0747 62.6118 98.32ZM60.1478 94.608C59.6145 94.608 59.1771 94.752 58.8358 95.04C58.5051 95.3173 58.3398 95.6747 58.3398 96.112C58.3398 96.56 58.5051 96.928 58.8358 97.216C59.1771 97.504 59.6145 97.648 60.1478 97.648C60.6811 97.648 61.1131 97.504 61.4438 97.216C61.7851 96.928 61.9558 96.56 61.9558 96.112C61.9558 95.6747 61.7851 95.3173 61.4438 95.04C61.1131 94.752 60.6811 94.608 60.1478 94.608ZM60.1478 102.688C60.7878 102.688 61.2998 102.523 61.6838 102.192C62.0785 101.851 62.2758 101.413 62.2758 100.88C62.2758 100.336 62.0785 99.8987 61.6838 99.568C61.2998 99.2267 60.7878 99.056 60.1478 99.056C59.5291 99.056 59.0225 99.2267 58.6278 99.568C58.2331 99.9093 58.0358 100.347 58.0358 100.88C58.0358 101.413 58.2331 101.851 58.6278 102.192C59.0225 102.523 59.5291 102.688 60.1478 102.688ZM65.9567 105.376C66.618 105.216 66.9487 104.757 66.9487 104H65.8607V101.968H67.8767V103.856C67.8767 104.539 67.706 105.083 67.3647 105.488C67.034 105.904 66.5647 106.176 65.9567 106.304V105.376ZM73.0897 97.184C73.8044 97.184 74.4444 97.3387 75.0097 97.648C75.575 97.9467 76.0177 98.3627 76.3377 98.896C76.6577 99.4187 76.8177 100.005 76.8177 100.656C76.8177 101.328 76.6577 101.936 76.3377 102.48C76.0177 103.013 75.5804 103.435 75.0257 103.744C74.4817 104.043 73.8684 104.192 73.1857 104.192C72.5137 104.192 71.9057 104.048 71.3617 103.76C70.8177 103.461 70.3857 103.056 70.0657 102.544C69.7457 102.021 69.5804 101.435 69.5697 100.784H71.2977C71.319 101.307 71.5057 101.733 71.8577 102.064C72.2097 102.395 72.6524 102.56 73.1857 102.56C73.7297 102.56 74.1777 102.384 74.5297 102.032C74.8924 101.669 75.0737 101.211 75.0737 100.656C75.0737 100.091 74.8764 99.6267 74.4817 99.264C74.0977 98.8907 73.6124 98.704 73.0257 98.704H70.2097L70.0017 98.448L70.5777 93.36H76.0817V94.928H71.9697L71.7297 97.184H73.0897ZM82.4049 97.008C83.0556 97.008 83.6529 97.152 84.1969 97.44C84.7409 97.728 85.1729 98.1387 85.4929 98.672C85.8236 99.1947 85.9889 99.7973 85.9889 100.48C85.9889 101.195 85.8236 101.835 85.4929 102.4C85.1623 102.965 84.6983 103.408 84.1009 103.728C83.5143 104.037 82.8476 104.192 82.1009 104.192C81.3436 104.192 80.6663 104.037 80.0689 103.728C79.4716 103.408 79.0076 102.965 78.6769 102.4C78.3463 101.835 78.1809 101.195 78.1809 100.48C78.1809 99.5093 78.5649 98.352 79.3329 97.008L81.4609 93.296H83.3489L82.9009 94.08C81.8769 95.9147 81.2903 96.9707 81.1409 97.248C81.5569 97.088 81.9783 97.008 82.4049 97.008ZM82.0849 102.56C82.7143 102.56 83.2316 102.368 83.6369 101.984C84.0423 101.589 84.2449 101.088 84.2449 100.48C84.2449 99.8613 84.0423 99.36 83.6369 98.976C83.2316 98.5813 82.7143 98.384 82.0849 98.384C81.4556 98.384 80.9383 98.5813 80.5329 98.976C80.1276 99.3707 79.9249 99.872 79.9249 100.48C79.9249 101.077 80.1276 101.573 80.5329 101.968C80.9489 102.363 81.4663 102.56 82.0849 102.56ZM90.7813 93.152C91.5386 93.152 92.2106 93.312 92.7973 93.632C93.3946 93.952 93.8586 94.3947 94.1893 94.96C94.52 95.5147 94.6853 96.1493 94.6853 96.864C94.6853 97.888 94.312 99.0453 93.5653 100.336L91.4373 104H89.5333C90.76 101.877 91.496 100.581 91.7413 100.112C91.3466 100.272 90.9253 100.352 90.4773 100.352C89.8053 100.352 89.1973 100.203 88.6533 99.904C88.1093 99.5947 87.6826 99.1733 87.3733 98.64C87.064 98.1067 86.9093 97.5147 86.9093 96.864C86.9093 96.1493 87.0746 95.5147 87.4053 94.96C87.736 94.3947 88.1946 93.952 88.7813 93.632C89.368 93.312 90.0346 93.152 90.7813 93.152ZM90.7973 98.96C91.4266 98.96 91.944 98.7627 92.3493 98.368C92.7653 97.9733 92.9733 97.472 92.9733 96.864C92.9733 96.2667 92.7653 95.7707 92.3493 95.376C91.944 94.9813 91.4266 94.784 90.7973 94.784C90.168 94.784 89.6453 94.9813 89.2293 95.376C88.824 95.76 88.6213 96.256 88.6213 96.864C88.6213 97.4827 88.824 97.9893 89.2293 98.384C89.6453 98.768 90.168 98.96 90.7973 98.96ZM107.35 102.288V104H100.854V92.8H102.694V102.288H107.35ZM113.568 95.152C114.432 95.152 115.205 95.3493 115.888 95.744C116.57 96.128 117.104 96.6667 117.488 97.36C117.872 98.0427 118.064 98.816 118.064 99.68C118.064 100.533 117.872 101.307 117.488 102C117.104 102.683 116.57 103.221 115.888 103.616C115.205 104.011 114.432 104.208 113.568 104.208C112.97 104.208 112.41 104.107 111.888 103.904C111.376 103.691 110.917 103.397 110.512 103.024L110.288 104H108.944V92.256H110.72V96.16C111.104 95.84 111.536 95.5947 112.016 95.424C112.506 95.2427 113.024 95.152 113.568 95.152ZM113.424 102.512C113.957 102.512 114.437 102.389 114.864 102.144C115.301 101.899 115.637 101.563 115.872 101.136C116.117 100.699 116.24 100.213 116.24 99.68C116.24 99.1467 116.117 98.6667 115.872 98.24C115.637 97.8027 115.301 97.4613 114.864 97.216C114.437 96.9707 113.957 96.848 113.424 96.848C112.89 96.848 112.405 96.9707 111.968 97.216C111.541 97.4613 111.205 97.8027 110.96 98.24C110.714 98.6667 110.592 99.1467 110.592 99.68C110.592 100.203 110.714 100.683 110.96 101.12C111.205 101.547 111.541 101.888 111.968 102.144C112.405 102.389 112.89 102.512 113.424 102.512ZM122.839 104.208C121.783 104.208 120.935 103.941 120.295 103.408C119.655 102.875 119.325 102.16 119.303 101.264H121.047C121.069 101.712 121.25 102.053 121.591 102.288C121.933 102.523 122.37 102.64 122.903 102.64C123.394 102.64 123.794 102.544 124.103 102.352C124.423 102.149 124.583 101.872 124.583 101.52C124.583 101.157 124.418 100.896 124.087 100.736C123.757 100.576 123.261 100.443 122.599 100.336C121.959 100.229 121.426 100.107 120.999 99.968C120.573 99.8187 120.21 99.568 119.911 99.216C119.613 98.864 119.463 98.3787 119.463 97.76C119.463 97.248 119.602 96.7947 119.879 96.4C120.157 96.0053 120.546 95.7013 121.047 95.488C121.559 95.264 122.146 95.152 122.807 95.152C123.81 95.152 124.61 95.4027 125.207 95.904C125.815 96.4053 126.13 97.0773 126.151 97.92H124.471C124.461 97.504 124.306 97.1893 124.007 96.976C123.709 96.7627 123.298 96.656 122.775 96.656C122.285 96.656 121.895 96.752 121.607 96.944C121.319 97.136 121.175 97.3867 121.175 97.696C121.175 98.0373 121.33 98.2827 121.639 98.432C121.959 98.5707 122.45 98.688 123.111 98.784C123.805 98.9013 124.359 99.0293 124.775 99.168C125.202 99.3067 125.57 99.5573 125.879 99.92C126.189 100.272 126.343 100.779 126.343 101.44C126.343 102.272 126.023 102.944 125.383 103.456C124.743 103.957 123.895 104.208 122.839 104.208Z" fill="#444547"/>
</g>
<defs>
<filter id="filter0_d_484_6767" x="-76" y="-76" width="578" height="321" filterUnits="userSpaceOnUse" color-interpolation-filters="sRGB">
<feFlood flood-opacity="0" result="BackgroundImageFix"/>
<feColorMatrix in="SourceAlpha" type="matrix" values="0 0 0 0 0 0 0 0 0 0 0 0 0 0 0 0 0 0 127 0" result="hardAlpha"/>
<feMorphology radius="2" operator="erode" in="SourceAlpha" result="effect1_dropShadow_484_6767"/>
<feOffset dy="1"/>
<feGaussianBlur stdDeviation="3"/>
<feComposite in2="hardAlpha" operator="out"/>
<feColorMatrix type="matrix" values="0 0 0 0 0 0 0 0 0 0 0 0 0 0 0 0 0 0 0.1 0"/>
<feBlend mode="normal" in2="BackgroundImageFix" result="effect1_dropShadow_484_6767"/>
<feBlend mode="normal" in="SourceGraphic" in2="effect1_dropShadow_484_6767" result="shape"/>
</filter>
<clipPath id="clip0_484_6767">
<rect width="1440" height="1589" fill="white" transform="translate(-918 -898)"/>
</clipPath>
<clipPath id="clip1_484_6767">
<rect width="570" height="313" fill="white" transform="translate(-72 -73)"/>
</clipPath>
</defs>
</svg>
