<svg width="199" height="200" viewBox="0 0 199 200" fill="none" xmlns="http://www.w3.org/2000/svg">
<rect width="199" height="200" fill="#DDDDDD"/>
<g clip-path="url(#clip0_484_6767)">
<rect width="1440" height="1589" transform="translate(-325 -898)" fill="#F2F2F4"/>
<g clip-path="url(#clip1_484_6767)">
<g filter="url(#filter0_d_484_6767)">
<rect x="-61" y="-73" width="570" height="313" rx="8" fill="white"/>
<rect x="-60.5" y="-72.5" width="569" height="312" rx="7.5" stroke="#EFEFEE"/>
</g>
</g>
<path d="M199 100C199 155.228 154.228 200 99 200C43.7715 200 -1 155.228 -1 100C-1 44.7715 43.7715 0 99 0C154.228 0 199 44.7715 199 100ZM19 100C19 144.183 54.8172 180 99 180C143.183 180 179 144.183 179 100C179 55.8172 143.183 20 99 20C54.8172 20 19 55.8172 19 100Z" fill="#D2DDD0"/>
<path d="M79.7848 86.344C80.6168 86.4933 81.2835 86.872 81.7848 87.48C82.2968 88.088 82.5528 88.8133 82.5528 89.656C82.5528 90.328 82.3928 90.936 82.0728 91.48C81.7528 92.0133 81.3101 92.4347 80.7448 92.744C80.1901 93.0427 79.5715 93.192 78.8888 93.192C78.2168 93.192 77.6141 93.048 77.0808 92.76C76.5581 92.472 76.1368 92.072 75.8168 91.56C75.5075 91.0373 75.3368 90.4453 75.3048 89.784H77.0328C77.0648 90.3173 77.2461 90.7493 77.5768 91.08C77.9181 91.4 78.3555 91.56 78.8888 91.56C79.4435 91.56 79.9021 91.3787 80.2648 91.016C80.6275 90.6427 80.8088 90.1733 80.8088 89.608C80.8088 89.0427 80.6115 88.584 80.2168 88.232C79.8328 87.8693 79.3368 87.688 78.7288 87.688H77.3848V87.352L79.5928 83.928H75.6248V82.36H82.1368V82.712L79.7848 86.344ZM88.3287 93.192C87.4754 93.192 86.7287 92.968 86.0887 92.52C85.4594 92.072 84.974 91.432 84.6327 90.6C84.2914 89.768 84.1207 88.792 84.1207 87.672C84.1207 86.5413 84.286 85.5653 84.6167 84.744C84.958 83.912 85.4434 83.2773 86.0727 82.84C86.7127 82.392 87.4647 82.168 88.3287 82.168C89.182 82.168 89.9234 82.392 90.5527 82.84C91.182 83.2773 91.6674 83.912 92.0087 84.744C92.35 85.5653 92.5207 86.5413 92.5207 87.672C92.5207 88.792 92.35 89.768 92.0087 90.6C91.6674 91.432 91.1767 92.072 90.5367 92.52C89.9074 92.968 89.1714 93.192 88.3287 93.192ZM88.3287 91.56C89.0967 91.56 89.694 91.2187 90.1207 90.536C90.558 89.8533 90.7767 88.8987 90.7767 87.672C90.7767 86.456 90.558 85.5067 90.1207 84.824C89.694 84.1413 89.0967 83.8 88.3287 83.8C87.55 83.8 86.942 84.1413 86.5047 84.824C86.078 85.496 85.8647 86.4453 85.8647 87.672C85.8647 88.9093 86.078 89.8693 86.5047 90.552C86.942 91.224 87.55 91.56 88.3287 91.56ZM94.1286 94.376C94.7899 94.216 95.1206 93.7573 95.1206 93H94.0326V90.968H96.0486V92.856C96.0486 93.5387 95.8779 94.0827 95.5366 94.488C95.2059 94.904 94.7366 95.176 94.1286 95.304V94.376ZM104.206 87.32C104.643 87.5867 104.984 87.944 105.23 88.392C105.486 88.8293 105.614 89.32 105.614 89.864C105.614 90.504 105.448 91.08 105.118 91.592C104.787 92.0933 104.328 92.488 103.742 92.776C103.155 93.0533 102.488 93.192 101.742 93.192C100.984 93.192 100.312 93.0533 99.7256 92.776C99.1496 92.4987 98.6962 92.1093 98.3656 91.608C98.0456 91.096 97.8856 90.5147 97.8856 89.864C97.8856 89.3307 98.0082 88.8453 98.2536 88.408C98.5096 87.96 98.8616 87.5973 99.3096 87.32C98.9682 87.064 98.7016 86.744 98.5096 86.36C98.3282 85.9653 98.2376 85.544 98.2376 85.096C98.2376 84.5307 98.3816 84.024 98.6696 83.576C98.9682 83.128 99.3842 82.7813 99.9176 82.536C100.451 82.28 101.059 82.152 101.742 82.152C102.424 82.152 103.032 82.2747 103.566 82.52C104.099 82.7653 104.51 83.112 104.798 83.56C105.096 84.008 105.246 84.52 105.246 85.096C105.246 85.544 105.15 85.9653 104.958 86.36C104.776 86.7547 104.526 87.0747 104.206 87.32ZM101.742 83.608C101.208 83.608 100.771 83.752 100.43 84.04C100.099 84.3173 99.9336 84.6747 99.9336 85.112C99.9336 85.56 100.099 85.928 100.43 86.216C100.771 86.504 101.208 86.648 101.742 86.648C102.275 86.648 102.707 86.504 103.038 86.216C103.379 85.928 103.55 85.56 103.55 85.112C103.55 84.6747 103.379 84.3173 103.038 84.04C102.707 83.752 102.275 83.608 101.742 83.608ZM101.742 91.688C102.382 91.688 102.894 91.5227 103.278 91.192C103.672 90.8507 103.87 90.4133 103.87 89.88C103.87 89.336 103.672 88.8987 103.278 88.568C102.894 88.2267 102.382 88.056 101.742 88.056C101.123 88.056 100.616 88.2267 100.222 88.568C99.8269 88.9093 99.6296 89.3467 99.6296 89.88C99.6296 90.4133 99.8269 90.8507 100.222 91.192C100.616 91.5227 101.123 91.688 101.742 91.688ZM111.342 86.008C111.993 86.008 112.59 86.152 113.134 86.44C113.678 86.728 114.11 87.1387 114.43 87.672C114.761 88.1947 114.926 88.7973 114.926 89.48C114.926 90.1947 114.761 90.8347 114.43 91.4C114.1 91.9653 113.636 92.408 113.038 92.728C112.452 93.0373 111.785 93.192 111.038 93.192C110.281 93.192 109.604 93.0373 109.006 92.728C108.409 92.408 107.945 91.9653 107.614 91.4C107.284 90.8347 107.118 90.1947 107.118 89.48C107.118 88.5093 107.502 87.352 108.27 86.008L110.398 82.296H112.286L111.838 83.08C110.814 84.9147 110.228 85.9707 110.078 86.248C110.494 86.088 110.916 86.008 111.342 86.008ZM111.022 91.56C111.652 91.56 112.169 91.368 112.574 90.984C112.98 90.5893 113.182 90.088 113.182 89.48C113.182 88.8613 112.98 88.36 112.574 87.976C112.169 87.5813 111.652 87.384 111.022 87.384C110.393 87.384 109.876 87.5813 109.47 87.976C109.065 88.3707 108.862 88.872 108.862 89.48C108.862 90.0773 109.065 90.5733 109.47 90.968C109.886 91.3627 110.404 91.56 111.022 91.56ZM120.327 86.008C120.977 86.008 121.575 86.152 122.119 86.44C122.663 86.728 123.095 87.1387 123.415 87.672C123.745 88.1947 123.911 88.7973 123.911 89.48C123.911 90.1947 123.745 90.8347 123.415 91.4C123.084 91.9653 122.62 92.408 122.023 92.728C121.436 93.0373 120.769 93.192 120.023 93.192C119.265 93.192 118.588 93.0373 117.991 92.728C117.393 92.408 116.929 91.9653 116.599 91.4C116.268 90.8347 116.103 90.1947 116.103 89.48C116.103 88.5093 116.487 87.352 117.255 86.008L119.383 82.296H121.271L120.823 83.08C119.799 84.9147 119.212 85.9707 119.063 86.248C119.479 86.088 119.9 86.008 120.327 86.008ZM120.007 91.56C120.636 91.56 121.153 91.368 121.559 90.984C121.964 90.5893 122.167 90.088 122.167 89.48C122.167 88.8613 121.964 88.36 121.559 87.976C121.153 87.5813 120.636 87.384 120.007 87.384C119.377 87.384 118.86 87.5813 118.455 87.976C118.049 88.3707 117.847 88.872 117.847 89.48C117.847 90.0773 118.049 90.5733 118.455 90.968C118.871 91.3627 119.388 91.56 120.007 91.56ZM67.9494 113.368V115H60.6694V114.536C62.2587 112.797 63.4107 111.501 64.1254 110.648C64.84 109.795 65.3094 109.144 65.5334 108.696C65.768 108.237 65.8854 107.789 65.8854 107.352C65.8854 106.883 65.736 106.504 65.4374 106.216C65.1494 105.928 64.7654 105.784 64.2854 105.784C63.784 105.784 63.3787 105.933 63.0694 106.232C62.7707 106.52 62.6214 106.899 62.6214 107.368V107.608H60.8934V107.368C60.8934 106.739 61.032 106.179 61.3094 105.688C61.5974 105.197 61.9974 104.819 62.5094 104.552C63.0214 104.285 63.608 104.152 64.2694 104.152C64.92 104.152 65.5014 104.291 66.0134 104.568C66.5254 104.835 66.92 105.213 67.1974 105.704C67.4854 106.184 67.6294 106.733 67.6294 107.352C67.6294 107.843 67.5334 108.328 67.3414 108.808C67.16 109.277 66.808 109.864 66.2854 110.568C65.7734 111.272 65.0054 112.205 63.9814 113.368H67.9494ZM76.9599 112.84H75.9359V115H74.2719V112.84H68.9759V112.488L72.6079 104.36H74.3679L71.2639 111.32H74.3039L74.5919 108.36H75.9359V111.32H76.9599V112.84ZM78.5739 116.376C79.2352 116.216 79.5659 115.757 79.5659 115H78.4779V112.968H80.4939V114.856C80.4939 115.539 80.3232 116.083 79.9819 116.488C79.6512 116.904 79.1819 117.176 78.5739 117.304V116.376ZM85.7069 108.184C86.4215 108.184 87.0615 108.339 87.6269 108.648C88.1922 108.947 88.6349 109.363 88.9549 109.896C89.2749 110.419 89.4349 111.005 89.4349 111.656C89.4349 112.328 89.2749 112.936 88.9549 113.48C88.6349 114.013 88.1975 114.435 87.6429 114.744C87.0989 115.043 86.4855 115.192 85.8029 115.192C85.1309 115.192 84.5229 115.048 83.9789 114.76C83.4349 114.461 83.0029 114.056 82.6829 113.544C82.3629 113.021 82.1975 112.435 82.1869 111.784H83.9149C83.9362 112.307 84.1229 112.733 84.4749 113.064C84.8269 113.395 85.2695 113.56 85.8029 113.56C86.3469 113.56 86.7949 113.384 87.1469 113.032C87.5095 112.669 87.6909 112.211 87.6909 111.656C87.6909 111.091 87.4935 110.627 87.0989 110.264C86.7149 109.891 86.2295 109.704 85.6429 109.704H82.8269L82.6189 109.448L83.1949 104.36H88.6989V105.928H84.5869L84.3469 108.184H85.7069ZM97.9181 113.368V115H90.6381V114.536C92.2275 112.797 93.3795 111.501 94.0941 110.648C94.8088 109.795 95.2781 109.144 95.5021 108.696C95.7368 108.237 95.8541 107.789 95.8541 107.352C95.8541 106.883 95.7048 106.504 95.4061 106.216C95.1181 105.928 94.7341 105.784 94.2541 105.784C93.7528 105.784 93.3475 105.933 93.0381 106.232C92.7395 106.52 92.5901 106.899 92.5901 107.368V107.608H90.8621V107.368C90.8621 106.739 91.0008 106.179 91.2781 105.688C91.5661 105.197 91.9661 104.819 92.4781 104.552C92.9901 104.285 93.5768 104.152 94.2381 104.152C94.8888 104.152 95.4701 104.291 95.9821 104.568C96.4941 104.835 96.8888 105.213 97.1661 105.704C97.4541 106.184 97.5981 106.733 97.5981 107.352C97.5981 107.843 97.5021 108.328 97.3101 108.808C97.1288 109.277 96.7768 109.864 96.2541 110.568C95.7421 111.272 94.9741 112.205 93.9501 113.368H97.9181ZM103.793 108.344C104.625 108.493 105.291 108.872 105.793 109.48C106.305 110.088 106.561 110.813 106.561 111.656C106.561 112.328 106.401 112.936 106.081 113.48C105.761 114.013 105.318 114.435 104.753 114.744C104.198 115.043 103.579 115.192 102.897 115.192C102.225 115.192 101.622 115.048 101.089 114.76C100.566 114.472 100.145 114.072 99.8246 113.56C99.5153 113.037 99.3446 112.445 99.3126 111.784H101.041C101.073 112.317 101.254 112.749 101.585 113.08C101.926 113.4 102.363 113.56 102.897 113.56C103.451 113.56 103.91 113.379 104.273 113.016C104.635 112.643 104.817 112.173 104.817 111.608C104.817 111.043 104.619 110.584 104.225 110.232C103.841 109.869 103.345 109.688 102.737 109.688H101.393V109.352L103.601 105.928H99.6326V104.36H106.145V104.712L103.793 108.344ZM119.264 113.288V115H112.768V103.8H114.608V113.288H119.264ZM125.482 106.152C126.346 106.152 127.119 106.349 127.802 106.744C128.484 107.128 129.018 107.667 129.402 108.36C129.786 109.043 129.978 109.816 129.978 110.68C129.978 111.533 129.786 112.307 129.402 113C129.018 113.683 128.484 114.221 127.802 114.616C127.119 115.011 126.346 115.208 125.482 115.208C124.884 115.208 124.324 115.107 123.802 114.904C123.29 114.691 122.831 114.397 122.426 114.024L122.202 115H120.858V103.256H122.634V107.16C123.018 106.84 123.45 106.595 123.93 106.424C124.42 106.243 124.938 106.152 125.482 106.152ZM125.338 113.512C125.871 113.512 126.351 113.389 126.778 113.144C127.215 112.899 127.551 112.563 127.786 112.136C128.031 111.699 128.154 111.213 128.154 110.68C128.154 110.147 128.031 109.667 127.786 109.24C127.551 108.803 127.215 108.461 126.778 108.216C126.351 107.971 125.871 107.848 125.338 107.848C124.804 107.848 124.319 107.971 123.882 108.216C123.455 108.461 123.119 108.803 122.874 109.24C122.628 109.667 122.506 110.147 122.506 110.68C122.506 111.203 122.628 111.683 122.874 112.12C123.119 112.547 123.455 112.888 123.882 113.144C124.319 113.389 124.804 113.512 125.338 113.512ZM134.753 115.208C133.697 115.208 132.849 114.941 132.209 114.408C131.569 113.875 131.239 113.16 131.217 112.264H132.961C132.983 112.712 133.164 113.053 133.505 113.288C133.847 113.523 134.284 113.64 134.817 113.64C135.308 113.64 135.708 113.544 136.017 113.352C136.337 113.149 136.497 112.872 136.497 112.52C136.497 112.157 136.332 111.896 136.001 111.736C135.671 111.576 135.175 111.443 134.513 111.336C133.873 111.229 133.34 111.107 132.913 110.968C132.487 110.819 132.124 110.568 131.825 110.216C131.527 109.864 131.377 109.379 131.377 108.76C131.377 108.248 131.516 107.795 131.793 107.4C132.071 107.005 132.46 106.701 132.961 106.488C133.473 106.264 134.06 106.152 134.721 106.152C135.724 106.152 136.524 106.403 137.121 106.904C137.729 107.405 138.044 108.077 138.065 108.92H136.385C136.375 108.504 136.22 108.189 135.921 107.976C135.623 107.763 135.212 107.656 134.689 107.656C134.199 107.656 133.809 107.752 133.521 107.944C133.233 108.136 133.089 108.387 133.089 108.696C133.089 109.037 133.244 109.283 133.553 109.432C133.873 109.571 134.364 109.688 135.025 109.784C135.719 109.901 136.273 110.029 136.689 110.168C137.116 110.307 137.484 110.557 137.793 110.92C138.103 111.272 138.257 111.779 138.257 112.44C138.257 113.272 137.937 113.944 137.297 114.456C136.657 114.957 135.809 115.208 134.753 115.208Z" fill="#444547"/>
<path d="M99 0C118.121 2.28017e-07 136.841 5.48205 152.942 15.7964C169.043 26.1108 181.849 40.825 189.842 58.1951C197.836 75.5652 200.682 94.863 198.043 113.801C195.404 132.739 187.391 150.524 174.953 165.047C162.515 179.57 146.175 190.223 127.868 195.743C109.56 201.263 90.0546 201.418 71.6618 196.191C53.2691 190.963 36.7606 180.572 24.093 166.249C11.4254 151.926 3.12983 134.271 0.189438 115.378L19.9516 112.302C22.3039 127.417 28.9403 141.541 39.0744 152.999C49.2085 164.458 62.4153 172.771 77.1295 176.952C91.8437 181.134 107.448 181.01 122.094 176.594C136.74 172.178 149.812 163.656 159.763 152.038C169.713 140.419 176.123 126.191 178.234 111.041C180.346 95.8904 178.069 80.4522 171.674 66.5561C165.279 52.66 155.034 40.8886 142.154 32.6371C129.273 24.3856 114.297 20 99 20V0Z" fill="#A7BAA6"/>
</g>
<defs>
<filter id="filter0_d_484_6767" x="-65" y="-76" width="578" height="321" filterUnits="userSpaceOnUse" color-interpolation-filters="sRGB">
<feFlood flood-opacity="0" result="BackgroundImageFix"/>
<feColorMatrix in="SourceAlpha" type="matrix" values="0 0 0 0 0 0 0 0 0 0 0 0 0 0 0 0 0 0 127 0" result="hardAlpha"/>
<feMorphology radius="2" operator="erode" in="SourceAlpha" result="effect1_dropShadow_484_6767"/>
<feOffset dy="1"/>
<feGaussianBlur stdDeviation="3"/>
<feComposite in2="hardAlpha" operator="out"/>
<feColorMatrix type="matrix" values="0 0 0 0 0 0 0 0 0 0 0 0 0 0 0 0 0 0 0.1 0"/>
<feBlend mode="normal" in2="BackgroundImageFix" result="effect1_dropShadow_484_6767"/>
<feBlend mode="normal" in="SourceGraphic" in2="effect1_dropShadow_484_6767" result="shape"/>
</filter>
<clipPath id="clip0_484_6767">
<rect width="1440" height="1589" fill="white" transform="translate(-325 -898)"/>
</clipPath>
<clipPath id="clip1_484_6767">
<rect width="570" height="313" fill="white" transform="translate(-61 -73)"/>
</clipPath>
</defs>
</svg>
