<svg width="487" height="355" viewBox="0 0 487 355" fill="none" xmlns="http://www.w3.org/2000/svg">
<path d="M10 16C10 14.8954 10.8954 14 12 14H20C21.1046 14 22 14.8954 22 16V326H10V16Z" fill="#A7BAA6"/>
<path d="M12.6551 342.6L10.0151 351H9.07914L6.77514 345.024L4.51914 351H3.59514L0.883141 342.6H1.99914L4.09914 349.272L6.54714 342.768H6.97914L9.51114 349.284L11.5511 342.6H12.6551ZM16.4382 351.144C15.7982 351.144 15.2142 351 14.6862 350.712C14.1662 350.416 13.7542 350.012 13.4502 349.5C13.1542 348.98 13.0062 348.4 13.0062 347.76C13.0062 347.12 13.1542 346.544 13.4502 346.032C13.7542 345.512 14.1662 345.108 14.6862 344.82C15.2062 344.524 15.7902 344.376 16.4382 344.376C17.0862 344.376 17.6702 344.524 18.1902 344.82C18.7182 345.108 19.1302 345.512 19.4262 346.032C19.7302 346.544 19.8822 347.12 19.8822 347.76C19.8822 348.4 19.7302 348.98 19.4262 349.5C19.1302 350.012 18.7182 350.416 18.1902 350.712C17.6702 351 17.0862 351.144 16.4382 351.144ZM16.4382 350.16C16.8942 350.16 17.3022 350.056 17.6622 349.848C18.0302 349.64 18.3182 349.356 18.5262 348.996C18.7342 348.628 18.8382 348.216 18.8382 347.76C18.8382 347.304 18.7342 346.896 18.5262 346.536C18.3182 346.168 18.0302 345.88 17.6622 345.672C17.3022 345.464 16.8942 345.36 16.4382 345.36C15.9822 345.36 15.5702 345.464 15.2022 345.672C14.8422 345.88 14.5582 346.168 14.3502 346.536C14.1502 346.896 14.0502 347.304 14.0502 347.76C14.0502 348.216 14.1502 348.628 14.3502 348.996C14.5582 349.356 14.8422 349.64 15.2022 349.848C15.5702 350.056 15.9822 350.16 16.4382 350.16ZM24.3484 351.144C23.7084 351.144 23.1244 351 22.5964 350.712C22.0764 350.416 21.6644 350.012 21.3604 349.5C21.0644 348.98 20.9164 348.4 20.9164 347.76C20.9164 347.12 21.0644 346.544 21.3604 346.032C21.6644 345.512 22.0764 345.108 22.5964 344.82C23.1164 344.524 23.7004 344.376 24.3484 344.376C24.9964 344.376 25.5804 344.524 26.1004 344.82C26.6284 345.108 27.0404 345.512 27.3364 346.032C27.6404 346.544 27.7924 347.12 27.7924 347.76C27.7924 348.4 27.6404 348.98 27.3364 349.5C27.0404 350.012 26.6284 350.416 26.1004 350.712C25.5804 351 24.9964 351.144 24.3484 351.144ZM24.3484 350.16C24.8044 350.16 25.2124 350.056 25.5724 349.848C25.9404 349.64 26.2284 349.356 26.4364 348.996C26.6444 348.628 26.7484 348.216 26.7484 347.76C26.7484 347.304 26.6444 346.896 26.4364 346.536C26.2284 346.168 25.9404 345.88 25.5724 345.672C25.2124 345.464 24.8044 345.36 24.3484 345.36C23.8924 345.36 23.4804 345.464 23.1124 345.672C22.7524 345.88 22.4684 346.168 22.2604 346.536C22.0604 346.896 21.9604 347.304 21.9604 347.76C21.9604 348.216 22.0604 348.628 22.2604 348.996C22.4684 349.356 22.7524 349.64 23.1124 349.848C23.4804 350.056 23.8924 350.16 24.3484 350.16ZM29.3425 342.204H30.3625V351H29.3425V342.204Z" fill="#444547"/>
<path d="M60.334 139C60.334 137.895 61.2294 137 62.334 137H70.334C71.4386 137 72.334 137.895 72.334 139V326H60.334V139Z" fill="#A7BAA6"/>
<path d="M58.6729 351L57.5809 344.436L54.6769 350.784H54.4009L51.4969 344.448L50.4049 351H49.3249L50.7409 342.6H51.7489L54.5329 348.768L57.3169 342.6H58.3489L59.7409 351H58.6729ZM67.3147 347.784C67.3147 347.872 67.3067 347.996 67.2907 348.156H61.7587C61.8467 348.756 62.0947 349.24 62.5027 349.608C62.9187 349.968 63.4307 350.148 64.0387 350.148C64.4867 350.148 64.8827 350.052 65.2267 349.86C65.5787 349.66 65.8587 349.38 66.0667 349.02H67.1347C66.8627 349.692 66.4547 350.216 65.9107 350.592C65.3747 350.96 64.7507 351.144 64.0387 351.144C63.4227 351.144 62.8627 350.996 62.3587 350.7C61.8547 350.404 61.4587 350 61.1707 349.488C60.8827 348.968 60.7387 348.392 60.7387 347.76C60.7387 347.128 60.8827 346.556 61.1707 346.044C61.4587 345.524 61.8547 345.116 62.3587 344.82C62.8627 344.524 63.4227 344.376 64.0387 344.376C64.6787 344.376 65.2467 344.528 65.7427 344.832C66.2387 345.128 66.6227 345.536 66.8947 346.056C67.1747 346.576 67.3147 347.152 67.3147 347.784ZM64.0387 345.348C63.4547 345.348 62.9587 345.516 62.5507 345.852C62.1507 346.188 61.8947 346.64 61.7827 347.208H66.2827C66.1787 346.632 65.9227 346.18 65.5147 345.852C65.1067 345.516 64.6147 345.348 64.0387 345.348ZM72.1504 350.052V351H71.3104C70.6144 351 70.0664 350.8 69.6664 350.4C69.2664 349.992 69.0664 349.436 69.0664 348.732V345.444H67.9264V345.264L69.9304 343.152H70.0864V344.52H72.1144V345.444H70.0864V348.696C70.0864 349.136 70.2024 349.472 70.4344 349.704C70.6664 349.936 71.0024 350.052 71.4424 350.052H72.1504ZM79.7782 344.52V351H78.9262L78.8182 350.016C78.5222 350.368 78.1542 350.644 77.7142 350.844C77.2742 351.044 76.7942 351.144 76.2742 351.144C75.6502 351.144 75.0822 350.996 74.5702 350.7C74.0582 350.404 73.6542 350 73.3582 349.488C73.0702 348.968 72.9262 348.392 72.9262 347.76C72.9262 347.12 73.0702 346.544 73.3582 346.032C73.6542 345.512 74.0582 345.108 74.5702 344.82C75.0822 344.524 75.6502 344.376 76.2742 344.376C76.8022 344.376 77.2862 344.476 77.7262 344.676C78.1662 344.876 78.5342 345.156 78.8302 345.516L78.9622 344.52H79.7782ZM76.3582 350.16C76.8062 350.16 77.2102 350.056 77.5702 349.848C77.9382 349.64 78.2222 349.356 78.4222 348.996C78.6302 348.628 78.7342 348.216 78.7342 347.76C78.7342 347.304 78.6302 346.896 78.4222 346.536C78.2222 346.168 77.9382 345.88 77.5702 345.672C77.2102 345.464 76.8062 345.36 76.3582 345.36C75.9102 345.36 75.5022 345.464 75.1342 345.672C74.7742 345.88 74.4902 346.168 74.2822 346.536C74.0742 346.904 73.9702 347.312 73.9702 347.76C73.9702 348.208 74.0742 348.616 74.2822 348.984C74.4902 349.352 74.7742 349.64 75.1342 349.848C75.5022 350.056 75.9102 350.16 76.3582 350.16ZM81.8328 342.204H82.8528V351H81.8328V342.204Z" fill="#444547"/>
<path d="M110.666 77C110.666 75.8954 111.561 75 112.666 75H120.666C121.771 75 122.666 75.8954 122.666 77V326H110.666V77Z" fill="#A7BAA6"/>
<path d="M99.308 350.016V351H94.568V342.6H95.612V350.016H99.308ZM106.367 347.784C106.367 347.872 106.359 347.996 106.343 348.156H100.811C100.899 348.756 101.147 349.24 101.555 349.608C101.971 349.968 102.483 350.148 103.091 350.148C103.539 350.148 103.935 350.052 104.279 349.86C104.631 349.66 104.911 349.38 105.119 349.02H106.187C105.915 349.692 105.507 350.216 104.963 350.592C104.427 350.96 103.803 351.144 103.091 351.144C102.475 351.144 101.915 350.996 101.411 350.7C100.907 350.404 100.511 350 100.223 349.488C99.9354 348.968 99.7914 348.392 99.7914 347.76C99.7914 347.128 99.9354 346.556 100.223 346.044C100.511 345.524 100.907 345.116 101.411 344.82C101.915 344.524 102.475 344.376 103.091 344.376C103.731 344.376 104.299 344.528 104.795 344.832C105.291 345.128 105.675 345.536 105.947 346.056C106.227 346.576 106.367 347.152 106.367 347.784ZM103.091 345.348C102.507 345.348 102.011 345.516 101.603 345.852C101.203 346.188 100.947 346.64 100.835 347.208H105.335C105.231 346.632 104.975 346.18 104.567 345.852C104.159 345.516 103.667 345.348 103.091 345.348ZM114.225 344.52V351H113.373L113.265 350.016C112.969 350.368 112.601 350.644 112.161 350.844C111.721 351.044 111.241 351.144 110.721 351.144C110.097 351.144 109.529 350.996 109.017 350.7C108.505 350.404 108.101 350 107.805 349.488C107.517 348.968 107.373 348.392 107.373 347.76C107.373 347.12 107.517 346.544 107.805 346.032C108.101 345.512 108.505 345.108 109.017 344.82C109.529 344.524 110.097 344.376 110.721 344.376C111.249 344.376 111.733 344.476 112.173 344.676C112.613 344.876 112.981 345.156 113.277 345.516L113.409 344.52H114.225ZM110.805 350.16C111.253 350.16 111.657 350.056 112.017 349.848C112.385 349.64 112.669 349.356 112.869 348.996C113.077 348.628 113.181 348.216 113.181 347.76C113.181 347.304 113.077 346.896 112.869 346.536C112.669 346.168 112.385 345.88 112.017 345.672C111.657 345.464 111.253 345.36 110.805 345.36C110.357 345.36 109.949 345.464 109.581 345.672C109.221 345.88 108.937 346.168 108.729 346.536C108.521 346.904 108.417 347.312 108.417 347.76C108.417 348.208 108.521 348.616 108.729 348.984C108.937 349.352 109.221 349.64 109.581 349.848C109.949 350.056 110.357 350.16 110.805 350.16ZM119.664 350.052V351H118.824C118.128 351 117.58 350.8 117.18 350.4C116.78 349.992 116.58 349.436 116.58 348.732V345.444H115.44V345.264L117.444 343.152H117.6V344.52H119.628V345.444H117.6V348.696C117.6 349.136 117.716 349.472 117.948 349.704C118.18 349.936 118.516 350.052 118.956 350.052H119.664ZM124.278 344.376C125.046 344.376 125.654 344.624 126.102 345.12C126.55 345.608 126.774 346.276 126.774 347.124V351H125.754V347.364C125.754 346.7 125.602 346.192 125.298 345.84C125.002 345.488 124.574 345.312 124.014 345.312C123.654 345.312 123.322 345.408 123.018 345.6C122.722 345.784 122.486 346.04 122.31 346.368C122.142 346.696 122.058 347.06 122.058 347.46V351H121.038V342.204H122.058V345.396C122.306 345.076 122.622 344.828 123.006 344.652C123.39 344.468 123.814 344.376 124.278 344.376ZM134.797 347.784C134.797 347.872 134.789 347.996 134.773 348.156H129.241C129.329 348.756 129.577 349.24 129.985 349.608C130.401 349.968 130.913 350.148 131.521 350.148C131.969 350.148 132.365 350.052 132.709 349.86C133.061 349.66 133.341 349.38 133.549 349.02H134.617C134.345 349.692 133.937 350.216 133.393 350.592C132.857 350.96 132.233 351.144 131.521 351.144C130.905 351.144 130.345 350.996 129.841 350.7C129.337 350.404 128.941 350 128.653 349.488C128.365 348.968 128.221 348.392 128.221 347.76C128.221 347.128 128.365 346.556 128.653 346.044C128.941 345.524 129.337 345.116 129.841 344.82C130.345 344.524 130.905 344.376 131.521 344.376C132.161 344.376 132.729 344.528 133.225 344.832C133.721 345.128 134.105 345.536 134.377 346.056C134.657 346.576 134.797 347.152 134.797 347.784ZM131.521 345.348C130.937 345.348 130.441 345.516 130.033 345.852C129.633 346.188 129.377 346.64 129.265 347.208H133.765C133.661 346.632 133.405 346.18 132.997 345.852C132.589 345.516 132.097 345.348 131.521 345.348ZM139.847 344.484V345.456H139.187C138.595 345.456 138.139 345.636 137.819 345.996C137.499 346.356 137.339 346.852 137.339 347.484V351H136.319V344.52H137.039L137.207 345.504C137.679 344.824 138.367 344.484 139.271 344.484H139.847Z" fill="#444547"/>
<path d="M161 224C161 222.895 161.895 222 163 222H171C172.105 222 173 222.895 173 224V326H161V224Z" fill="#A7BAA6"/>
<path d="M157.498 342.6V351H156.61L151.822 344.448V351H150.802V342.6H151.75L156.466 349.08V342.6H157.498ZM165.491 344.52L162.407 351.264C162.167 351.784 161.931 352.192 161.699 352.488C161.467 352.784 161.207 352.996 160.919 353.124C160.631 353.252 160.279 353.316 159.863 353.316H159.251V352.392H159.779C160.075 352.392 160.311 352.352 160.487 352.272C160.671 352.2 160.835 352.072 160.979 351.888C161.131 351.704 161.295 351.424 161.471 351.048L161.699 350.556L158.819 344.52H159.935L162.239 349.428L164.399 344.52H165.491ZM166.702 342.204H167.722V351H166.702V342.204ZM172.688 351.144C172.048 351.144 171.464 351 170.936 350.712C170.416 350.416 170.004 350.012 169.7 349.5C169.404 348.98 169.256 348.4 169.256 347.76C169.256 347.12 169.404 346.544 169.7 346.032C170.004 345.512 170.416 345.108 170.936 344.82C171.456 344.524 172.04 344.376 172.688 344.376C173.336 344.376 173.92 344.524 174.44 344.82C174.968 345.108 175.38 345.512 175.676 346.032C175.98 346.544 176.132 347.12 176.132 347.76C176.132 348.4 175.98 348.98 175.676 349.5C175.38 350.012 174.968 350.416 174.44 350.712C173.92 351 173.336 351.144 172.688 351.144ZM172.688 350.16C173.144 350.16 173.552 350.056 173.912 349.848C174.28 349.64 174.568 349.356 174.776 348.996C174.984 348.628 175.088 348.216 175.088 347.76C175.088 347.304 174.984 346.896 174.776 346.536C174.568 346.168 174.28 345.88 173.912 345.672C173.552 345.464 173.144 345.36 172.688 345.36C172.232 345.36 171.82 345.464 171.452 345.672C171.092 345.88 170.808 346.168 170.6 346.536C170.4 346.896 170.3 347.304 170.3 347.76C170.3 348.216 170.4 348.628 170.6 348.996C170.808 349.356 171.092 349.64 171.452 349.848C171.82 350.056 172.232 350.16 172.688 350.16ZM180.922 344.376C181.426 344.376 181.866 344.496 182.242 344.736C182.618 344.968 182.906 345.292 183.106 345.708C183.314 346.124 183.418 346.596 183.418 347.124V351H182.398V347.364C182.398 346.7 182.246 346.192 181.942 345.84C181.646 345.488 181.218 345.312 180.658 345.312C180.298 345.312 179.966 345.408 179.662 345.6C179.366 345.784 179.13 346.04 178.954 346.368C178.786 346.696 178.702 347.06 178.702 347.46V351H177.682V344.52H178.402L178.606 345.54C178.846 345.172 179.166 344.888 179.566 344.688C179.974 344.48 180.426 344.376 180.922 344.376Z" fill="#444547"/>
<path d="M211.334 16C211.334 14.8954 212.229 14 213.334 14H221.334C222.439 14 223.334 14.8954 223.334 16V326H211.334V16Z" fill="#A7BAA6"/>
<path d="M199.976 350.016V351H195.236V342.6H196.28V350.016H199.976ZM207.035 347.784C207.035 347.872 207.027 347.996 207.011 348.156H201.479C201.567 348.756 201.815 349.24 202.223 349.608C202.639 349.968 203.151 350.148 203.759 350.148C204.207 350.148 204.603 350.052 204.947 349.86C205.299 349.66 205.579 349.38 205.787 349.02H206.855C206.583 349.692 206.175 350.216 205.631 350.592C205.095 350.96 204.471 351.144 203.759 351.144C203.143 351.144 202.583 350.996 202.079 350.7C201.575 350.404 201.179 350 200.891 349.488C200.603 348.968 200.459 348.392 200.459 347.76C200.459 347.128 200.603 346.556 200.891 346.044C201.179 345.524 201.575 345.116 202.079 344.82C202.583 344.524 203.143 344.376 203.759 344.376C204.399 344.376 204.967 344.528 205.463 344.832C205.959 345.128 206.343 345.536 206.615 346.056C206.895 346.576 207.035 347.152 207.035 347.784ZM203.759 345.348C203.175 345.348 202.679 345.516 202.271 345.852C201.871 346.188 201.615 346.64 201.503 347.208H206.003C205.899 346.632 205.643 346.18 205.235 345.852C204.827 345.516 204.335 345.348 203.759 345.348ZM214.893 344.52V351H214.041L213.933 350.016C213.637 350.368 213.269 350.644 212.829 350.844C212.389 351.044 211.909 351.144 211.389 351.144C210.765 351.144 210.197 350.996 209.685 350.7C209.173 350.404 208.769 350 208.473 349.488C208.185 348.968 208.041 348.392 208.041 347.76C208.041 347.12 208.185 346.544 208.473 346.032C208.769 345.512 209.173 345.108 209.685 344.82C210.197 344.524 210.765 344.376 211.389 344.376C211.917 344.376 212.401 344.476 212.841 344.676C213.281 344.876 213.649 345.156 213.945 345.516L214.077 344.52H214.893ZM211.473 350.16C211.921 350.16 212.325 350.056 212.685 349.848C213.053 349.64 213.337 349.356 213.537 348.996C213.745 348.628 213.849 348.216 213.849 347.76C213.849 347.304 213.745 346.896 213.537 346.536C213.337 346.168 213.053 345.88 212.685 345.672C212.325 345.464 211.921 345.36 211.473 345.36C211.025 345.36 210.617 345.464 210.249 345.672C209.889 345.88 209.605 346.168 209.397 346.536C209.189 346.904 209.085 347.312 209.085 347.76C209.085 348.208 209.189 348.616 209.397 348.984C209.605 349.352 209.889 349.64 210.249 349.848C210.617 350.056 211.025 350.16 211.473 350.16ZM220.332 350.052V351H219.492C218.796 351 218.248 350.8 217.848 350.4C217.448 349.992 217.248 349.436 217.248 348.732V345.444H216.108V345.264L218.112 343.152H218.268V344.52H220.296V345.444H218.268V348.696C218.268 349.136 218.384 349.472 218.616 349.704C218.848 349.936 219.184 350.052 219.624 350.052H220.332ZM224.946 344.376C225.714 344.376 226.322 344.624 226.77 345.12C227.218 345.608 227.442 346.276 227.442 347.124V351H226.422V347.364C226.422 346.7 226.27 346.192 225.966 345.84C225.67 345.488 225.242 345.312 224.682 345.312C224.322 345.312 223.99 345.408 223.686 345.6C223.39 345.784 223.154 346.04 222.978 346.368C222.81 346.696 222.726 347.06 222.726 347.46V351H221.706V342.204H222.726V345.396C222.974 345.076 223.29 344.828 223.674 344.652C224.058 344.468 224.482 344.376 224.946 344.376ZM235.465 347.784C235.465 347.872 235.457 347.996 235.441 348.156H229.909C229.997 348.756 230.245 349.24 230.653 349.608C231.069 349.968 231.581 350.148 232.189 350.148C232.637 350.148 233.033 350.052 233.377 349.86C233.729 349.66 234.009 349.38 234.217 349.02H235.285C235.013 349.692 234.605 350.216 234.061 350.592C233.525 350.96 232.901 351.144 232.189 351.144C231.573 351.144 231.013 350.996 230.509 350.7C230.005 350.404 229.609 350 229.321 349.488C229.033 348.968 228.889 348.392 228.889 347.76C228.889 347.128 229.033 346.556 229.321 346.044C229.609 345.524 230.005 345.116 230.509 344.82C231.013 344.524 231.573 344.376 232.189 344.376C232.829 344.376 233.397 344.528 233.893 344.832C234.389 345.128 234.773 345.536 235.045 346.056C235.325 346.576 235.465 347.152 235.465 347.784ZM232.189 345.348C231.605 345.348 231.109 345.516 230.701 345.852C230.301 346.188 230.045 346.64 229.933 347.208H234.433C234.329 346.632 234.073 346.18 233.665 345.852C233.257 345.516 232.765 345.348 232.189 345.348ZM240.515 344.484V345.456H239.855C239.263 345.456 238.807 345.636 238.487 345.996C238.167 346.356 238.007 346.852 238.007 347.484V351H236.987V344.52H237.707L237.875 345.504C238.347 344.824 239.035 344.484 239.939 344.484H240.515Z" fill="#444547"/>
<path d="M261.666 131C261.666 129.895 262.561 129 263.666 129H271.666C272.771 129 273.666 129.895 273.666 131V326H261.666V131Z" fill="#A7BAA6"/>
<path d="M251.456 351.132C250.632 351.132 249.892 350.948 249.236 350.58C248.588 350.204 248.076 349.688 247.7 349.032C247.332 348.376 247.148 347.632 247.148 346.8C247.148 345.968 247.332 345.224 247.7 344.568C248.076 343.912 248.588 343.4 249.236 343.032C249.892 342.656 250.632 342.468 251.456 342.468C252.096 342.468 252.688 342.592 253.232 342.84C253.776 343.08 254.236 343.424 254.612 343.872C254.996 344.32 255.268 344.844 255.428 345.444H254.36C254.136 344.836 253.768 344.36 253.256 344.016C252.744 343.672 252.144 343.5 251.456 343.5C250.84 343.5 250.284 343.64 249.788 343.92C249.3 344.2 248.916 344.592 248.636 345.096C248.364 345.6 248.228 346.168 248.228 346.8C248.228 347.432 248.364 348 248.636 348.504C248.916 349.008 249.3 349.4 249.788 349.68C250.276 349.96 250.832 350.1 251.456 350.1C252.16 350.1 252.772 349.92 253.292 349.56C253.812 349.192 254.18 348.684 254.396 348.036H255.476C255.316 348.66 255.044 349.208 254.66 349.68C254.284 350.144 253.82 350.504 253.268 350.76C252.716 351.008 252.112 351.132 251.456 351.132ZM259.837 351.144C259.197 351.144 258.613 351 258.085 350.712C257.565 350.416 257.153 350.012 256.849 349.5C256.553 348.98 256.405 348.4 256.405 347.76C256.405 347.12 256.553 346.544 256.849 346.032C257.153 345.512 257.565 345.108 258.085 344.82C258.605 344.524 259.189 344.376 259.837 344.376C260.485 344.376 261.069 344.524 261.589 344.82C262.117 345.108 262.529 345.512 262.825 346.032C263.129 346.544 263.281 347.12 263.281 347.76C263.281 348.4 263.129 348.98 262.825 349.5C262.529 350.012 262.117 350.416 261.589 350.712C261.069 351 260.485 351.144 259.837 351.144ZM259.837 350.16C260.293 350.16 260.701 350.056 261.061 349.848C261.429 349.64 261.717 349.356 261.925 348.996C262.133 348.628 262.237 348.216 262.237 347.76C262.237 347.304 262.133 346.896 261.925 346.536C261.717 346.168 261.429 345.88 261.061 345.672C260.701 345.464 260.293 345.36 259.837 345.36C259.381 345.36 258.969 345.464 258.601 345.672C258.241 345.88 257.957 346.168 257.749 346.536C257.549 346.896 257.449 347.304 257.449 347.76C257.449 348.216 257.549 348.628 257.749 348.996C257.957 349.356 258.241 349.64 258.601 349.848C258.969 350.056 259.381 350.16 259.837 350.16ZM268.133 350.052V351H267.293C266.597 351 266.049 350.8 265.649 350.4C265.249 349.992 265.049 349.436 265.049 348.732V345.444H263.909V345.264L265.913 343.152H266.069V344.52H268.097V345.444H266.069V348.696C266.069 349.136 266.185 349.472 266.417 349.704C266.649 349.936 266.985 350.052 267.425 350.052H268.133ZM272.891 350.052V351H272.051C271.355 351 270.807 350.8 270.407 350.4C270.007 349.992 269.807 349.436 269.807 348.732V345.444H268.667V345.264L270.671 343.152H270.827V344.52H272.855V345.444H270.827V348.696C270.827 349.136 270.943 349.472 271.175 349.704C271.407 349.936 271.743 350.052 272.183 350.052H272.891ZM277.098 351.144C276.458 351.144 275.874 351 275.346 350.712C274.826 350.416 274.414 350.012 274.11 349.5C273.814 348.98 273.666 348.4 273.666 347.76C273.666 347.12 273.814 346.544 274.11 346.032C274.414 345.512 274.826 345.108 275.346 344.82C275.866 344.524 276.45 344.376 277.098 344.376C277.746 344.376 278.33 344.524 278.85 344.82C279.378 345.108 279.79 345.512 280.086 346.032C280.39 346.544 280.542 347.12 280.542 347.76C280.542 348.4 280.39 348.98 280.086 349.5C279.79 350.012 279.378 350.416 278.85 350.712C278.33 351 277.746 351.144 277.098 351.144ZM277.098 350.16C277.554 350.16 277.962 350.056 278.322 349.848C278.69 349.64 278.978 349.356 279.186 348.996C279.394 348.628 279.498 348.216 279.498 347.76C279.498 347.304 279.394 346.896 279.186 346.536C278.978 346.168 278.69 345.88 278.322 345.672C277.962 345.464 277.554 345.36 277.098 345.36C276.642 345.36 276.23 345.464 275.862 345.672C275.502 345.88 275.218 346.168 275.01 346.536C274.81 346.896 274.71 347.304 274.71 347.76C274.71 348.216 274.81 348.628 275.01 348.996C275.218 349.356 275.502 349.64 275.862 349.848C276.23 350.056 276.642 350.16 277.098 350.16ZM285.333 344.376C285.837 344.376 286.277 344.496 286.653 344.736C287.029 344.968 287.317 345.292 287.517 345.708C287.725 346.124 287.829 346.596 287.829 347.124V351H286.809V347.364C286.809 346.7 286.657 346.192 286.353 345.84C286.057 345.488 285.629 345.312 285.069 345.312C284.709 345.312 284.377 345.408 284.073 345.6C283.777 345.784 283.541 346.04 283.365 346.368C283.197 346.696 283.113 347.06 283.113 347.46V351H282.093V344.52H282.813L283.017 345.54C283.257 345.172 283.577 344.888 283.977 344.688C284.385 344.48 284.837 344.376 285.333 344.376Z" fill="#444547"/>
<path d="M312 77C312 75.8954 312.895 75 314 75H322C323.105 75 324 75.8954 324 77V326H312V77Z" fill="#A7BAA6"/>
<path d="M314.16 342.6C314.68 342.6 315.152 342.716 315.576 342.948C316 343.18 316.332 343.5 316.572 343.908C316.82 344.316 316.944 344.776 316.944 345.288C316.944 345.792 316.824 346.252 316.584 346.668C316.344 347.076 316.012 347.396 315.588 347.628C315.164 347.86 314.688 347.976 314.16 347.976H312.192V351H311.148V342.6H314.16ZM314.1 346.956C314.612 346.956 315.032 346.8 315.36 346.488C315.696 346.168 315.864 345.768 315.864 345.288C315.864 344.808 315.696 344.412 315.36 344.1C315.032 343.78 314.612 343.62 314.1 343.62H312.192V346.956H314.1ZM321.676 351.144C321.052 351.144 320.488 351.004 319.984 350.724C319.48 350.444 319.084 350.056 318.796 349.56C318.508 349.064 318.364 348.5 318.364 347.868V342.6H319.432V347.796C319.432 348.252 319.524 348.656 319.708 349.008C319.9 349.352 320.168 349.624 320.512 349.824C320.856 350.016 321.244 350.112 321.676 350.112C322.108 350.112 322.492 350.016 322.828 349.824C323.164 349.624 323.424 349.352 323.608 349.008C323.8 348.656 323.896 348.252 323.896 347.796V342.6H324.964V347.868C324.964 348.5 324.82 349.064 324.532 349.56C324.252 350.056 323.86 350.444 323.356 350.724C322.86 351.004 322.3 351.144 321.676 351.144Z" fill="#444547"/>
<path d="M362.334 33C362.334 31.8954 363.229 31 364.334 31H372.334C373.439 31 374.334 31.8954 374.334 33V326H362.334V33Z" fill="#A7BAA6"/>
<path d="M363.416 343.584H360.86V351H359.804V343.584H357.248V342.6H363.416V343.584ZM367.828 342.6C368.348 342.6 368.82 342.716 369.244 342.948C369.668 343.18 370 343.5 370.24 343.908C370.488 344.316 370.612 344.776 370.612 345.288C370.612 345.792 370.492 346.252 370.252 346.668C370.012 347.076 369.68 347.396 369.256 347.628C368.832 347.86 368.356 347.976 367.828 347.976H365.86V351H364.816V342.6H367.828ZM367.768 346.956C368.28 346.956 368.7 346.8 369.028 346.488C369.364 346.168 369.532 345.768 369.532 345.288C369.532 344.808 369.364 344.412 369.028 344.1C368.7 343.78 368.28 343.62 367.768 343.62H365.86V346.956H367.768ZM375.344 351.144C374.72 351.144 374.156 351.004 373.652 350.724C373.148 350.444 372.752 350.056 372.464 349.56C372.176 349.064 372.032 348.5 372.032 347.868V342.6H373.1V347.796C373.1 348.252 373.192 348.656 373.376 349.008C373.568 349.352 373.836 349.624 374.18 349.824C374.524 350.016 374.912 350.112 375.344 350.112C375.776 350.112 376.16 350.016 376.496 349.824C376.832 349.624 377.092 349.352 377.276 349.008C377.468 348.656 377.564 348.252 377.564 347.796V342.6H378.632V347.868C378.632 348.5 378.488 349.064 378.2 349.56C377.92 350.056 377.528 350.444 377.024 350.724C376.528 351.004 375.968 351.144 375.344 351.144Z" fill="#444547"/>
<path d="M412.666 197C412.666 195.895 413.561 195 414.666 195H422.666C423.771 195 424.666 195.895 424.666 197V326H412.666V197Z" fill="#A7BAA6"/>
<path d="M409.164 342.6V351H408.276L403.488 344.448V351H402.468V342.6H403.416L408.132 349.08V342.6H409.164ZM417.157 344.52L414.073 351.264C413.833 351.784 413.597 352.192 413.365 352.488C413.133 352.784 412.873 352.996 412.585 353.124C412.297 353.252 411.945 353.316 411.529 353.316H410.917V352.392H411.445C411.741 352.392 411.977 352.352 412.153 352.272C412.337 352.2 412.501 352.072 412.645 351.888C412.797 351.704 412.961 351.424 413.137 351.048L413.365 350.556L410.485 344.52H411.601L413.905 349.428L416.065 344.52H417.157ZM418.368 342.204H419.388V351H418.368V342.204ZM424.354 351.144C423.714 351.144 423.13 351 422.602 350.712C422.082 350.416 421.67 350.012 421.366 349.5C421.07 348.98 420.922 348.4 420.922 347.76C420.922 347.12 421.07 346.544 421.366 346.032C421.67 345.512 422.082 345.108 422.602 344.82C423.122 344.524 423.706 344.376 424.354 344.376C425.002 344.376 425.586 344.524 426.106 344.82C426.634 345.108 427.046 345.512 427.342 346.032C427.646 346.544 427.798 347.12 427.798 347.76C427.798 348.4 427.646 348.98 427.342 349.5C427.046 350.012 426.634 350.416 426.106 350.712C425.586 351 425.002 351.144 424.354 351.144ZM424.354 350.16C424.81 350.16 425.218 350.056 425.578 349.848C425.946 349.64 426.234 349.356 426.442 348.996C426.65 348.628 426.754 348.216 426.754 347.76C426.754 347.304 426.65 346.896 426.442 346.536C426.234 346.168 425.946 345.88 425.578 345.672C425.218 345.464 424.81 345.36 424.354 345.36C423.898 345.36 423.486 345.464 423.118 345.672C422.758 345.88 422.474 346.168 422.266 346.536C422.066 346.896 421.966 347.304 421.966 347.76C421.966 348.216 422.066 348.628 422.266 348.996C422.474 349.356 422.758 349.64 423.118 349.848C423.486 350.056 423.898 350.16 424.354 350.16ZM432.588 344.376C433.092 344.376 433.532 344.496 433.908 344.736C434.284 344.968 434.572 345.292 434.772 345.708C434.98 346.124 435.084 346.596 435.084 347.124V351H434.064V347.364C434.064 346.7 433.912 346.192 433.608 345.84C433.312 345.488 432.884 345.312 432.324 345.312C431.964 345.312 431.632 345.408 431.328 345.6C431.032 345.784 430.796 346.04 430.62 346.368C430.452 346.696 430.368 347.06 430.368 347.46V351H429.348V344.52H430.068L430.272 345.54C430.512 345.172 430.832 344.888 431.232 344.688C431.64 344.48 432.092 344.376 432.588 344.376Z" fill="#444547"/>
<path d="M463 112C463 110.895 463.895 110 465 110H473C474.105 110 475 110.895 475 112V326H463V112Z" fill="#A7BAA6"/>
<path d="M456.659 351.144C455.827 351.144 455.075 350.956 454.403 350.58C453.739 350.204 453.215 349.684 452.831 349.02C452.455 348.356 452.267 347.616 452.267 346.8C452.267 345.984 452.455 345.244 452.831 344.58C453.215 343.916 453.739 343.396 454.403 343.02C455.075 342.644 455.827 342.456 456.659 342.456C457.491 342.456 458.243 342.644 458.915 343.02C459.587 343.396 460.111 343.916 460.487 344.58C460.871 345.244 461.063 345.984 461.063 346.8C461.063 347.616 460.871 348.356 460.487 349.02C460.111 349.684 459.587 350.204 458.915 350.58C458.243 350.956 457.491 351.144 456.659 351.144ZM456.659 350.112C457.283 350.112 457.847 349.968 458.351 349.68C458.863 349.392 459.263 348.996 459.551 348.492C459.839 347.988 459.983 347.424 459.983 346.8C459.983 346.176 459.839 345.612 459.551 345.108C459.263 344.604 458.863 344.208 458.351 343.92C457.847 343.632 457.283 343.488 456.659 343.488C456.035 343.488 455.471 343.632 454.967 343.92C454.463 344.208 454.067 344.604 453.779 345.108C453.491 345.612 453.347 346.176 453.347 346.8C453.347 347.424 453.491 347.988 453.779 348.492C454.067 348.996 454.463 349.392 454.967 349.68C455.471 349.968 456.035 350.112 456.659 350.112ZM466.057 350.052V351H465.217C464.521 351 463.973 350.8 463.573 350.4C463.173 349.992 462.973 349.436 462.973 348.732V345.444H461.833V345.264L463.837 343.152H463.993V344.52H466.021V345.444H463.993V348.696C463.993 349.136 464.109 349.472 464.341 349.704C464.573 349.936 464.909 350.052 465.349 350.052H466.057ZM470.67 344.376C471.438 344.376 472.046 344.624 472.494 345.12C472.942 345.608 473.166 346.276 473.166 347.124V351H472.146V347.364C472.146 346.7 471.994 346.192 471.69 345.84C471.394 345.488 470.966 345.312 470.406 345.312C470.046 345.312 469.714 345.408 469.41 345.6C469.114 345.784 468.878 346.04 468.702 346.368C468.534 346.696 468.45 347.06 468.45 347.46V351H467.43V342.204H468.45V345.396C468.698 345.076 469.014 344.828 469.398 344.652C469.782 344.468 470.206 344.376 470.67 344.376ZM481.19 347.784C481.19 347.872 481.182 347.996 481.166 348.156H475.634C475.722 348.756 475.97 349.24 476.378 349.608C476.794 349.968 477.306 350.148 477.914 350.148C478.362 350.148 478.758 350.052 479.102 349.86C479.454 349.66 479.734 349.38 479.942 349.02H481.01C480.738 349.692 480.33 350.216 479.786 350.592C479.25 350.96 478.626 351.144 477.914 351.144C477.298 351.144 476.738 350.996 476.234 350.7C475.73 350.404 475.334 350 475.046 349.488C474.758 348.968 474.614 348.392 474.614 347.76C474.614 347.128 474.758 346.556 475.046 346.044C475.334 345.524 475.73 345.116 476.234 344.82C476.738 344.524 477.298 344.376 477.914 344.376C478.554 344.376 479.122 344.528 479.618 344.832C480.114 345.128 480.498 345.536 480.77 346.056C481.05 346.576 481.19 347.152 481.19 347.784ZM477.914 345.348C477.33 345.348 476.834 345.516 476.426 345.852C476.026 346.188 475.77 346.64 475.658 347.208H480.158C480.054 346.632 479.798 346.18 479.39 345.852C478.982 345.516 478.49 345.348 477.914 345.348ZM486.24 344.484V345.456H485.58C484.988 345.456 484.532 345.636 484.212 345.996C483.892 346.356 483.732 346.852 483.732 347.484V351H482.712V344.52H483.432L483.6 345.504C484.072 344.824 484.76 344.484 485.664 344.484H486.24Z" fill="#444547"/>
</svg>
