<svg width="530" height="332" viewBox="0 0 530 332" fill="none" xmlns="http://www.w3.org/2000/svg">
<path d="M19.5516 10.992V12H14.6676V3.6H19.4196V4.596H15.7116V7.2H19.1076V8.172H15.7116V10.992H19.5516ZM21.1804 3.204H22.2004V12H21.1804V3.204ZM30.3108 8.784C30.3108 8.872 30.3028 8.996 30.2868 9.156H24.7548C24.8428 9.756 25.0908 10.24 25.4988 10.608C25.9148 10.968 26.4268 11.148 27.0348 11.148C27.4828 11.148 27.8788 11.052 28.2228 10.86C28.5748 10.66 28.8548 10.38 29.0628 10.02H30.1308C29.8588 10.692 29.4508 11.216 28.9068 11.592C28.3708 11.96 27.7468 12.144 27.0348 12.144C26.4188 12.144 25.8588 11.996 25.3548 11.7C24.8508 11.404 24.4548 11 24.1668 10.488C23.8788 9.968 23.7348 9.392 23.7348 8.76C23.7348 8.128 23.8788 7.556 24.1668 7.044C24.4548 6.524 24.8508 6.116 25.3548 5.82C25.8588 5.524 26.4188 5.376 27.0348 5.376C27.6748 5.376 28.2428 5.528 28.7388 5.832C29.2348 6.128 29.6188 6.536 29.8908 7.056C30.1708 7.576 30.3108 8.152 30.3108 8.784ZM27.0348 6.348C26.4508 6.348 25.9548 6.516 25.5468 6.852C25.1468 7.188 24.8908 7.64 24.7788 8.208H29.2787C29.1748 7.632 28.9188 7.18 28.5108 6.852C28.1028 6.516 27.6108 6.348 27.0348 6.348ZM34.6888 12.144C34.0568 12.144 33.4848 11.996 32.9728 11.7C32.4608 11.404 32.0568 11 31.7608 10.488C31.4648 9.968 31.3168 9.392 31.3168 8.76C31.3168 8.128 31.4648 7.556 31.7608 7.044C32.0568 6.524 32.4608 6.116 32.9728 5.82C33.4848 5.524 34.0568 5.376 34.6888 5.376C35.4488 5.376 36.1128 5.588 36.6808 6.012C37.2488 6.436 37.6328 7 37.8328 7.704H36.8248C36.6328 7.288 36.3448 6.96 35.9608 6.72C35.5848 6.48 35.1608 6.36 34.6888 6.36C34.2488 6.36 33.8528 6.468 33.5008 6.684C33.1488 6.892 32.8688 7.18 32.6608 7.548C32.4608 7.908 32.3608 8.312 32.3608 8.76C32.3608 9.208 32.4608 9.616 32.6608 9.984C32.8688 10.344 33.1488 10.632 33.5008 10.848C33.8608 11.056 34.2568 11.16 34.6888 11.16C35.1608 11.16 35.5808 11.04 35.9488 10.8C36.3248 10.552 36.6128 10.212 36.8128 9.78H37.8448C37.6448 10.492 37.2568 11.064 36.6808 11.496C36.1128 11.928 35.4488 12.144 34.6888 12.144ZM42.6582 11.052V12H41.8182C41.1222 12 40.5742 11.8 40.1742 11.4C39.7742 10.992 39.5742 10.436 39.5742 9.732V6.444H38.4342V6.264L40.4382 4.152H40.5942V5.52H42.6222V6.444H40.5942V9.696C40.5942 10.136 40.7102 10.472 40.9422 10.704C41.1742 10.936 41.5102 11.052 41.9502 11.052H42.6582ZM47.56 5.484V6.456H46.9C46.308 6.456 45.852 6.636 45.532 6.996C45.212 7.356 45.052 7.852 45.052 8.484V12H44.032V5.52H44.752L44.92 6.504C45.392 5.824 46.08 5.484 46.984 5.484H47.56ZM48.6129 3.228H49.7169V4.392H48.6129V3.228ZM48.6609 5.52H49.6809V12H48.6609V5.52ZM54.5872 12.144C53.9552 12.144 53.3832 11.996 52.8712 11.7C52.3592 11.404 51.9552 11 51.6592 10.488C51.3632 9.968 51.2152 9.392 51.2152 8.76C51.2152 8.128 51.3632 7.556 51.6592 7.044C51.9552 6.524 52.3592 6.116 52.8712 5.82C53.3832 5.524 53.9552 5.376 54.5872 5.376C55.3472 5.376 56.0112 5.588 56.5792 6.012C57.1472 6.436 57.5312 7 57.7312 7.704H56.7232C56.5312 7.288 56.2432 6.96 55.8592 6.72C55.4832 6.48 55.0592 6.36 54.5872 6.36C54.1472 6.36 53.7512 6.468 53.3992 6.684C53.0472 6.892 52.7672 7.18 52.5592 7.548C52.3592 7.908 52.2592 8.312 52.2592 8.76C52.2592 9.208 52.3592 9.616 52.5592 9.984C52.7672 10.344 53.0472 10.632 53.3992 10.848C53.7592 11.056 54.1552 11.16 54.5872 11.16C55.0592 11.16 55.4792 11.04 55.8472 10.8C56.2232 10.552 56.5112 10.212 56.7112 9.78H57.7432C57.5432 10.492 57.1552 11.064 56.5792 11.496C56.0112 11.928 55.3472 12.144 54.5872 12.144ZM59.1246 3.228H60.2286V4.392H59.1246V3.228ZM59.1726 5.52H60.1926V12H59.1726V5.52ZM65.6269 11.052V12H64.7869C64.0909 12 63.5429 11.8 63.1429 11.4C62.7429 10.992 62.5429 10.436 62.5429 9.732V6.444H61.4029V6.264L63.4069 4.152H63.5629V5.52H65.5909V6.444H63.5629V9.696C63.5629 10.136 63.6789 10.472 63.9109 10.704C64.1429 10.936 64.4789 11.052 64.9189 11.052H65.6269ZM72.8208 5.52L69.7368 12.264C69.4968 12.784 69.2608 13.192 69.0288 13.488C68.7968 13.784 68.5368 13.996 68.2488 14.124C67.9608 14.252 67.6088 14.316 67.1928 14.316H66.5808V13.392H67.1088C67.4048 13.392 67.6408 13.352 67.8168 13.272C68.0008 13.2 68.1648 13.072 68.3088 12.888C68.4608 12.704 68.6248 12.424 68.8008 12.048L69.0288 11.556L66.1488 5.52H67.2648L69.5688 10.428L71.7288 5.52H72.8208Z" fill="#444547"/>
<path d="M85 3H412C413.105 3 414 3.89543 414 5V13C414 14.1046 413.105 15 412 15H87C85.8954 15 85 14.1046 85 13V3Z" fill="#A7BAA6"/>
<path d="M17.7976 46.596V49.368H21.1576V50.352H17.7976V54H16.7536V45.6H21.4696V46.596H17.7976ZM25.7605 54.144C25.1205 54.144 24.5365 54 24.0085 53.712C23.4885 53.416 23.0765 53.012 22.7725 52.5C22.4765 51.98 22.3285 51.4 22.3285 50.76C22.3285 50.12 22.4765 49.544 22.7725 49.032C23.0765 48.512 23.4885 48.108 24.0085 47.82C24.5285 47.524 25.1125 47.376 25.7605 47.376C26.4085 47.376 26.9925 47.524 27.5125 47.82C28.0405 48.108 28.4525 48.512 28.7485 49.032C29.0525 49.544 29.2045 50.12 29.2045 50.76C29.2045 51.4 29.0525 51.98 28.7485 52.5C28.4525 53.012 28.0405 53.416 27.5125 53.712C26.9925 54 26.4085 54.144 25.7605 54.144ZM25.7605 53.16C26.2165 53.16 26.6245 53.056 26.9845 52.848C27.3525 52.64 27.6405 52.356 27.8485 51.996C28.0565 51.628 28.1605 51.216 28.1605 50.76C28.1605 50.304 28.0565 49.896 27.8485 49.536C27.6405 49.168 27.3525 48.88 26.9845 48.672C26.6245 48.464 26.2165 48.36 25.7605 48.36C25.3045 48.36 24.8925 48.464 24.5245 48.672C24.1645 48.88 23.8805 49.168 23.6725 49.536C23.4725 49.896 23.3725 50.304 23.3725 50.76C23.3725 51.216 23.4725 51.628 23.6725 51.996C23.8805 52.356 24.1645 52.64 24.5245 52.848C24.8925 53.056 25.3045 53.16 25.7605 53.16ZM33.6707 54.144C33.0307 54.144 32.4467 54 31.9187 53.712C31.3987 53.416 30.9867 53.012 30.6827 52.5C30.3867 51.98 30.2387 51.4 30.2387 50.76C30.2387 50.12 30.3867 49.544 30.6827 49.032C30.9867 48.512 31.3987 48.108 31.9187 47.82C32.4387 47.524 33.0227 47.376 33.6707 47.376C34.3187 47.376 34.9027 47.524 35.4227 47.82C35.9507 48.108 36.3627 48.512 36.6587 49.032C36.9627 49.544 37.1147 50.12 37.1147 50.76C37.1147 51.4 36.9627 51.98 36.6587 52.5C36.3627 53.012 35.9507 53.416 35.4227 53.712C34.9027 54 34.3187 54.144 33.6707 54.144ZM33.6707 53.16C34.1267 53.16 34.5347 53.056 34.8947 52.848C35.2627 52.64 35.5507 52.356 35.7587 51.996C35.9667 51.628 36.0707 51.216 36.0707 50.76C36.0707 50.304 35.9667 49.896 35.7587 49.536C35.5507 49.168 35.2627 48.88 34.8947 48.672C34.5347 48.464 34.1267 48.36 33.6707 48.36C33.2147 48.36 32.8027 48.464 32.4347 48.672C32.0747 48.88 31.7907 49.168 31.5827 49.536C31.3827 49.896 31.2827 50.304 31.2827 50.76C31.2827 51.216 31.3827 51.628 31.5827 51.996C31.7907 52.356 32.0747 52.64 32.4347 52.848C32.8027 53.056 33.2147 53.16 33.6707 53.16ZM41.9668 53.052V54H41.1268C40.4308 54 39.8828 53.8 39.4828 53.4C39.0828 52.992 38.8828 52.436 38.8828 51.732V48.444H37.7428V48.264L39.7468 46.152H39.9028V47.52H41.9308V48.444H39.9028V51.696C39.9028 52.136 40.0188 52.472 40.2508 52.704C40.4828 52.936 40.8188 53.052 41.2588 53.052H41.9668ZM52.2686 47.52L50.0606 54H49.2326L47.3966 49.584L45.5726 54H44.7446L42.5486 47.52H43.6166L45.2246 52.296L47.2166 47.616H47.5886L49.5806 52.332L51.2366 47.52H52.2686ZM59.4904 50.784C59.4904 50.872 59.4824 50.996 59.4664 51.156H53.9344C54.0224 51.756 54.2704 52.24 54.6784 52.608C55.0944 52.968 55.6064 53.148 56.2144 53.148C56.6624 53.148 57.0584 53.052 57.4024 52.86C57.7544 52.66 58.0344 52.38 58.2424 52.02H59.3104C59.0384 52.692 58.6304 53.216 58.0864 53.592C57.5504 53.96 56.9264 54.144 56.2144 54.144C55.5984 54.144 55.0384 53.996 54.5344 53.7C54.0304 53.404 53.6344 53 53.3464 52.488C53.0584 51.968 52.9144 51.392 52.9144 50.76C52.9144 50.128 53.0584 49.556 53.3464 49.044C53.6344 48.524 54.0304 48.116 54.5344 47.82C55.0384 47.524 55.5984 47.376 56.2144 47.376C56.8544 47.376 57.4224 47.528 57.9184 47.832C58.4144 48.128 58.7984 48.536 59.0704 49.056C59.3504 49.576 59.4904 50.152 59.4904 50.784ZM56.2144 48.348C55.6304 48.348 55.1344 48.516 54.7264 48.852C54.3264 49.188 54.0704 49.64 53.9584 50.208H58.4584C58.3544 49.632 58.0984 49.18 57.6904 48.852C57.2824 48.516 56.7904 48.348 56.2144 48.348ZM67.3485 47.52V54H66.4965L66.3885 53.016C66.0925 53.368 65.7245 53.644 65.2845 53.844C64.8445 54.044 64.3645 54.144 63.8445 54.144C63.2205 54.144 62.6525 53.996 62.1405 53.7C61.6285 53.404 61.2245 53 60.9285 52.488C60.6405 51.968 60.4965 51.392 60.4965 50.76C60.4965 50.12 60.6405 49.544 60.9285 49.032C61.2245 48.512 61.6285 48.108 62.1405 47.82C62.6525 47.524 63.2205 47.376 63.8445 47.376C64.3725 47.376 64.8565 47.476 65.2965 47.676C65.7365 47.876 66.1045 48.156 66.4005 48.516L66.5325 47.52H67.3485ZM63.9285 53.16C64.3765 53.16 64.7805 53.056 65.1405 52.848C65.5085 52.64 65.7925 52.356 65.9925 51.996C66.2005 51.628 66.3045 51.216 66.3045 50.76C66.3045 50.304 66.2005 49.896 65.9925 49.536C65.7925 49.168 65.5085 48.88 65.1405 48.672C64.7805 48.464 64.3765 48.36 63.9285 48.36C63.4805 48.36 63.0725 48.464 62.7045 48.672C62.3445 48.88 62.0605 49.168 61.8525 49.536C61.6445 49.904 61.5405 50.312 61.5405 50.76C61.5405 51.208 61.6445 51.616 61.8525 51.984C62.0605 52.352 62.3445 52.64 62.7045 52.848C63.0725 53.056 63.4805 53.16 63.9285 53.16ZM72.9311 47.484V48.456H72.2711C71.6791 48.456 71.2231 48.636 70.9031 48.996C70.5831 49.356 70.4231 49.852 70.4231 50.484V54H69.4031V47.52H70.1231L70.2911 48.504C70.7631 47.824 71.4511 47.484 72.3551 47.484H72.9311Z" fill="#444547"/>
<path d="M85 45H494C495.105 45 496 45.8954 496 47V55C496 56.1046 495.105 57 494 57H87C85.8954 57 85 56.1046 85 55V45Z" fill="#A7BAA6"/>
<path d="M16.6116 87.6V96H15.5676V92.184H11.2116V96H10.1676V87.6H11.2116V91.176H15.5676V87.6H16.6116ZM25.0321 89.52V96H24.1801L24.0721 95.016C23.7761 95.368 23.4081 95.644 22.9681 95.844C22.5281 96.044 22.0481 96.144 21.5281 96.144C20.9041 96.144 20.3361 95.996 19.8241 95.7C19.3121 95.404 18.9081 95 18.6121 94.488C18.3241 93.968 18.1801 93.392 18.1801 92.76C18.1801 92.12 18.3241 91.544 18.6121 91.032C18.9081 90.512 19.3121 90.108 19.8241 89.82C20.3361 89.524 20.9041 89.376 21.5281 89.376C22.0561 89.376 22.5401 89.476 22.9801 89.676C23.4201 89.876 23.7881 90.156 24.0841 90.516L24.2161 89.52H25.0321ZM21.6121 95.16C22.0601 95.16 22.4641 95.056 22.8241 94.848C23.1921 94.64 23.4761 94.356 23.6761 93.996C23.8841 93.628 23.9881 93.216 23.9881 92.76C23.9881 92.304 23.8841 91.896 23.6761 91.536C23.4761 91.168 23.1921 90.88 22.8241 90.672C22.4641 90.464 22.0601 90.36 21.6121 90.36C21.1641 90.36 20.7561 90.464 20.3881 90.672C20.0281 90.88 19.7441 91.168 19.5361 91.536C19.3281 91.904 19.2241 92.312 19.2241 92.76C19.2241 93.208 19.3281 93.616 19.5361 93.984C19.7441 94.352 20.0281 94.64 20.3881 94.848C20.7561 95.056 21.1641 95.16 21.6121 95.16ZM30.3267 89.376C30.8307 89.376 31.2707 89.496 31.6467 89.736C32.0227 89.968 32.3107 90.292 32.5107 90.708C32.7187 91.124 32.8227 91.596 32.8227 92.124V96H31.8027V92.364C31.8027 91.7 31.6507 91.192 31.3467 90.84C31.0507 90.488 30.6227 90.312 30.0627 90.312C29.7027 90.312 29.3707 90.408 29.0667 90.6C28.7707 90.784 28.5347 91.04 28.3587 91.368C28.1907 91.696 28.1067 92.06 28.1067 92.46V96H27.0867V89.52H27.8067L28.0107 90.54C28.2507 90.172 28.5707 89.888 28.9707 89.688C29.3787 89.48 29.8307 89.376 30.3267 89.376ZM41.0259 87.204V96H40.2459L40.1019 95.076C39.7979 95.412 39.4299 95.676 38.9979 95.868C38.5739 96.052 38.1139 96.144 37.6179 96.144C36.9779 96.144 36.4019 95.996 35.8899 95.7C35.3859 95.404 34.9899 95 34.7019 94.488C34.4139 93.976 34.2699 93.4 34.2699 92.76C34.2699 92.12 34.4139 91.544 34.7019 91.032C34.9899 90.512 35.3859 90.108 35.8899 89.82C36.4019 89.524 36.9779 89.376 37.6179 89.376C38.0899 89.376 38.5299 89.46 38.9379 89.628C39.3539 89.796 39.7099 90.032 40.0059 90.336V87.204H41.0259ZM37.6899 95.16C38.1379 95.16 38.5419 95.056 38.9019 94.848C39.2699 94.632 39.5579 94.344 39.7659 93.984C39.9739 93.616 40.0779 93.208 40.0779 92.76C40.0779 92.312 39.9739 91.904 39.7659 91.536C39.5579 91.168 39.2699 90.88 38.9019 90.672C38.5419 90.464 38.1379 90.36 37.6899 90.36C37.2419 90.36 36.8339 90.464 36.4659 90.672C36.1059 90.88 35.8219 91.168 35.6139 91.536C35.4139 91.896 35.3139 92.304 35.3139 92.76C35.3139 93.216 35.4139 93.628 35.6139 93.996C35.8219 94.356 36.1059 94.64 36.4659 94.848C36.8339 95.056 37.2419 95.16 37.6899 95.16ZM46.5145 89.376C47.1545 89.376 47.7265 89.524 48.2305 89.82C48.7425 90.108 49.1385 90.512 49.4185 91.032C49.7065 91.544 49.8505 92.12 49.8505 92.76C49.8505 93.4 49.7065 93.976 49.4185 94.488C49.1385 95 48.7425 95.404 48.2305 95.7C47.7265 95.996 47.1545 96.144 46.5145 96.144C46.0105 96.144 45.5425 96.052 45.1105 95.868C44.6865 95.676 44.3225 95.412 44.0185 95.076L43.8865 96H43.0945V87.204H44.1145V90.336C44.4105 90.032 44.7625 89.796 45.1705 89.628C45.5865 89.46 46.0345 89.376 46.5145 89.376ZM46.4305 95.16C46.8865 95.16 47.2945 95.056 47.6545 94.848C48.0145 94.64 48.2945 94.356 48.4945 93.996C48.7025 93.628 48.8065 93.216 48.8065 92.76C48.8065 92.304 48.7025 91.896 48.4945 91.536C48.2945 91.168 48.0145 90.88 47.6545 90.672C47.2945 90.464 46.8865 90.36 46.4305 90.36C45.9825 90.36 45.5745 90.464 45.2065 90.672C44.8465 90.88 44.5625 91.168 44.3545 91.536C44.1465 91.904 44.0425 92.312 44.0425 92.76C44.0425 93.208 44.1465 93.616 44.3545 93.984C44.5625 94.344 44.8465 94.632 45.2065 94.848C45.5745 95.056 45.9825 95.16 46.4305 95.16ZM57.7391 89.52V96H56.8871L56.7791 95.016C56.4831 95.368 56.1151 95.644 55.6751 95.844C55.2351 96.044 54.7551 96.144 54.2351 96.144C53.6111 96.144 53.0431 95.996 52.5311 95.7C52.0191 95.404 51.6151 95 51.3191 94.488C51.0311 93.968 50.8871 93.392 50.8871 92.76C50.8871 92.12 51.0311 91.544 51.3191 91.032C51.6151 90.512 52.0191 90.108 52.5311 89.82C53.0431 89.524 53.6111 89.376 54.2351 89.376C54.7631 89.376 55.2471 89.476 55.6871 89.676C56.1271 89.876 56.4951 90.156 56.7911 90.516L56.9231 89.52H57.7391ZM54.3191 95.16C54.7671 95.16 55.1711 95.056 55.5311 94.848C55.8991 94.64 56.1831 94.356 56.3831 93.996C56.5911 93.628 56.6951 93.216 56.6951 92.76C56.6951 92.304 56.5911 91.896 56.3831 91.536C56.1831 91.168 55.8991 90.88 55.5311 90.672C55.1711 90.464 54.7671 90.36 54.3191 90.36C53.8711 90.36 53.4631 90.464 53.0951 90.672C52.7351 90.88 52.4511 91.168 52.2431 91.536C52.0351 91.904 51.9311 92.312 51.9311 92.76C51.9311 93.208 52.0351 93.616 52.2431 93.984C52.4511 94.352 52.7351 94.64 53.0951 94.848C53.4631 95.056 53.8711 95.16 54.3191 95.16ZM65.8297 89.52V95.088C65.8297 96.136 65.5457 96.96 64.9777 97.56C64.4097 98.16 63.6337 98.46 62.6497 98.46C61.8577 98.46 61.1937 98.264 60.6577 97.872C60.1217 97.488 59.7617 96.948 59.5777 96.252H60.5977C60.7417 96.652 60.9977 96.964 61.3657 97.188C61.7417 97.412 62.1697 97.524 62.6497 97.524C63.3057 97.524 63.8297 97.316 64.2217 96.9C64.6217 96.492 64.8217 95.932 64.8217 95.22V94.824C64.5257 95.128 64.1737 95.368 63.7657 95.544C63.3657 95.712 62.9337 95.796 62.4697 95.796C61.8777 95.796 61.3377 95.656 60.8497 95.376C60.3617 95.096 59.9777 94.712 59.6977 94.224C59.4177 93.728 59.2777 93.184 59.2777 92.592C59.2777 92 59.4177 91.46 59.6977 90.972C59.9777 90.476 60.3617 90.088 60.8497 89.808C61.3377 89.52 61.8777 89.376 62.4697 89.376C62.9737 89.376 63.4417 89.48 63.8737 89.688C64.3137 89.888 64.6817 90.168 64.9777 90.528L65.1457 89.52H65.8297ZM62.5777 94.812C63.0017 94.812 63.3857 94.716 63.7297 94.524C64.0737 94.332 64.3417 94.068 64.5337 93.732C64.7257 93.396 64.8217 93.016 64.8217 92.592C64.8217 92.168 64.7257 91.788 64.5337 91.452C64.3417 91.108 64.0737 90.84 63.7297 90.648C63.3857 90.456 63.0017 90.36 62.5777 90.36C62.1537 90.36 61.7697 90.456 61.4257 90.648C61.0817 90.84 60.8097 91.108 60.6097 91.452C60.4177 91.788 60.3217 92.168 60.3217 92.592C60.3217 93.008 60.4177 93.388 60.6097 93.732C60.8097 94.068 61.0817 94.332 61.4257 94.524C61.7697 94.716 62.1537 94.812 62.5777 94.812ZM69.9317 96.144C69.1557 96.144 68.5357 95.952 68.0717 95.568C67.6077 95.184 67.3637 94.664 67.3397 94.008H68.3357C68.3677 94.392 68.5277 94.688 68.8157 94.896C69.1117 95.096 69.4917 95.196 69.9557 95.196C70.4117 95.196 70.7797 95.108 71.0597 94.932C71.3397 94.748 71.4797 94.5 71.4797 94.188C71.4797 93.948 71.4037 93.76 71.2517 93.624C71.1077 93.488 70.9197 93.388 70.6877 93.324C70.4637 93.26 70.1677 93.196 69.7997 93.132C69.3037 93.044 68.8997 92.948 68.5877 92.844C68.2757 92.74 68.0077 92.564 67.7837 92.316C67.5677 92.06 67.4597 91.708 67.4597 91.26C67.4597 90.692 67.6837 90.236 68.1317 89.892C68.5797 89.548 69.1677 89.376 69.8957 89.376C70.6237 89.376 71.2077 89.556 71.6477 89.916C72.0957 90.276 72.3277 90.764 72.3437 91.38H71.3837C71.3597 91.036 71.2157 90.768 70.9517 90.576C70.6877 90.384 70.3317 90.288 69.8837 90.288C69.4437 90.288 69.0917 90.376 68.8277 90.552C68.5717 90.72 68.4437 90.944 68.4437 91.224C68.4437 91.44 68.5117 91.608 68.6477 91.728C68.7917 91.848 68.9677 91.936 69.1757 91.992C69.3837 92.048 69.6757 92.108 70.0517 92.172C70.5717 92.252 70.9917 92.344 71.3117 92.448C71.6317 92.552 71.9077 92.74 72.1397 93.012C72.3717 93.276 72.4877 93.652 72.4877 94.14C72.4877 94.748 72.2517 95.236 71.7797 95.604C71.3157 95.964 70.6997 96.144 69.9317 96.144Z" fill="#444547"/>
<path d="M85 87H322C323.105 87 324 87.8954 324 89V97C324 98.1046 323.105 99 322 99H87C85.8954 99 85 98.1046 85 97V87Z" fill="#A7BAA6"/>
<path d="M6.86359 135.984H2.83159L2.00359 138H0.887594L4.31959 129.6H5.30359L8.84359 138H7.70359L6.86359 135.984ZM3.22759 135.024H6.46759L4.83559 131.052L3.22759 135.024ZM12.7747 138.144C12.1427 138.144 11.5707 137.996 11.0587 137.7C10.5467 137.404 10.1427 137 9.84672 136.488C9.55072 135.968 9.40272 135.392 9.40272 134.76C9.40272 134.128 9.55072 133.556 9.84672 133.044C10.1427 132.524 10.5467 132.116 11.0587 131.82C11.5707 131.524 12.1427 131.376 12.7747 131.376C13.5347 131.376 14.1987 131.588 14.7667 132.012C15.3347 132.436 15.7187 133 15.9187 133.704H14.9107C14.7187 133.288 14.4307 132.96 14.0467 132.72C13.6707 132.48 13.2467 132.36 12.7747 132.36C12.3347 132.36 11.9387 132.468 11.5867 132.684C11.2347 132.892 10.9547 133.18 10.7467 133.548C10.5467 133.908 10.4467 134.312 10.4467 134.76C10.4467 135.208 10.5467 135.616 10.7467 135.984C10.9547 136.344 11.2347 136.632 11.5867 136.848C11.9467 137.056 12.3427 137.16 12.7747 137.16C13.2467 137.16 13.6667 137.04 14.0347 136.8C14.4107 136.552 14.6987 136.212 14.8987 135.78H15.9307C15.7307 136.492 15.3427 137.064 14.7667 137.496C14.1987 137.928 13.5347 138.144 12.7747 138.144ZM20.2161 138.144C19.5841 138.144 19.0121 137.996 18.5001 137.7C17.9881 137.404 17.5841 137 17.2881 136.488C16.9921 135.968 16.8441 135.392 16.8441 134.76C16.8441 134.128 16.9921 133.556 17.2881 133.044C17.5841 132.524 17.9881 132.116 18.5001 131.82C19.0121 131.524 19.5841 131.376 20.2161 131.376C20.9761 131.376 21.6401 131.588 22.2081 132.012C22.7761 132.436 23.1601 133 23.3601 133.704H22.3521C22.1601 133.288 21.8721 132.96 21.4881 132.72C21.1121 132.48 20.6881 132.36 20.2161 132.36C19.7761 132.36 19.3801 132.468 19.0281 132.684C18.6761 132.892 18.3961 133.18 18.1881 133.548C17.9881 133.908 17.8881 134.312 17.8881 134.76C17.8881 135.208 17.9881 135.616 18.1881 135.984C18.3961 136.344 18.6761 136.632 19.0281 136.848C19.3881 137.056 19.7841 137.16 20.2161 137.16C20.6881 137.16 21.1081 137.04 21.4761 136.8C21.8521 136.552 22.1401 136.212 22.3401 135.78H23.3721C23.1721 136.492 22.7841 137.064 22.2081 137.496C21.6401 137.928 20.9761 138.144 20.2161 138.144ZM30.8615 134.784C30.8615 134.872 30.8535 134.996 30.8375 135.156H25.3055C25.3935 135.756 25.6415 136.24 26.0495 136.608C26.4655 136.968 26.9775 137.148 27.5855 137.148C28.0335 137.148 28.4295 137.052 28.7735 136.86C29.1255 136.66 29.4055 136.38 29.6135 136.02H30.6815C30.4095 136.692 30.0015 137.216 29.4575 137.592C28.9215 137.96 28.2975 138.144 27.5855 138.144C26.9695 138.144 26.4095 137.996 25.9055 137.7C25.4015 137.404 25.0055 137 24.7175 136.488C24.4295 135.968 24.2855 135.392 24.2855 134.76C24.2855 134.128 24.4295 133.556 24.7175 133.044C25.0055 132.524 25.4015 132.116 25.9055 131.82C26.4095 131.524 26.9695 131.376 27.5855 131.376C28.2255 131.376 28.7935 131.528 29.2895 131.832C29.7855 132.128 30.1695 132.536 30.4415 133.056C30.7215 133.576 30.8615 134.152 30.8615 134.784ZM27.5855 132.348C27.0015 132.348 26.5055 132.516 26.0975 132.852C25.6975 133.188 25.4415 133.64 25.3295 134.208H29.8295C29.7255 133.632 29.4695 133.18 29.0615 132.852C28.6535 132.516 28.1615 132.348 27.5855 132.348ZM34.4356 138.144C33.6596 138.144 33.0396 137.952 32.5756 137.568C32.1116 137.184 31.8676 136.664 31.8436 136.008H32.8396C32.8716 136.392 33.0316 136.688 33.3196 136.896C33.6156 137.096 33.9956 137.196 34.4596 137.196C34.9156 137.196 35.2836 137.108 35.5636 136.932C35.8436 136.748 35.9836 136.5 35.9836 136.188C35.9836 135.948 35.9076 135.76 35.7556 135.624C35.6116 135.488 35.4236 135.388 35.1916 135.324C34.9676 135.26 34.6716 135.196 34.3036 135.132C33.8076 135.044 33.4036 134.948 33.0916 134.844C32.7796 134.74 32.5116 134.564 32.2876 134.316C32.0716 134.06 31.9636 133.708 31.9636 133.26C31.9636 132.692 32.1876 132.236 32.6356 131.892C33.0836 131.548 33.6716 131.376 34.3996 131.376C35.1276 131.376 35.7116 131.556 36.1516 131.916C36.5996 132.276 36.8316 132.764 36.8476 133.38H35.8876C35.8636 133.036 35.7196 132.768 35.4556 132.576C35.1916 132.384 34.8356 132.288 34.3876 132.288C33.9476 132.288 33.5956 132.376 33.3316 132.552C33.0756 132.72 32.9476 132.944 32.9476 133.224C32.9476 133.44 33.0156 133.608 33.1516 133.728C33.2956 133.848 33.4716 133.936 33.6796 133.992C33.8876 134.048 34.1796 134.108 34.5556 134.172C35.0756 134.252 35.4956 134.344 35.8156 134.448C36.1356 134.552 36.4116 134.74 36.6436 135.012C36.8756 135.276 36.9916 135.652 36.9916 136.14C36.9916 136.748 36.7556 137.236 36.2836 137.604C35.8196 137.964 35.2036 138.144 34.4356 138.144ZM40.5879 138.144C39.8119 138.144 39.1919 137.952 38.7279 137.568C38.2639 137.184 38.0199 136.664 37.9959 136.008H38.9919C39.0239 136.392 39.1839 136.688 39.4719 136.896C39.7679 137.096 40.1479 137.196 40.6119 137.196C41.0679 137.196 41.4359 137.108 41.7159 136.932C41.9959 136.748 42.1359 136.5 42.1359 136.188C42.1359 135.948 42.0599 135.76 41.9079 135.624C41.7639 135.488 41.5759 135.388 41.3439 135.324C41.1199 135.26 40.8239 135.196 40.4559 135.132C39.9599 135.044 39.5559 134.948 39.2439 134.844C38.9319 134.74 38.6639 134.564 38.4399 134.316C38.2239 134.06 38.1159 133.708 38.1159 133.26C38.1159 132.692 38.3399 132.236 38.7879 131.892C39.2359 131.548 39.8239 131.376 40.5519 131.376C41.2799 131.376 41.8639 131.556 42.3039 131.916C42.7519 132.276 42.9839 132.764 42.9999 133.38H42.0399C42.0159 133.036 41.8719 132.768 41.6079 132.576C41.3439 132.384 40.9879 132.288 40.5399 132.288C40.0999 132.288 39.7479 132.376 39.4839 132.552C39.2279 132.72 39.0999 132.944 39.0999 133.224C39.0999 133.44 39.1679 133.608 39.3039 133.728C39.4479 133.848 39.6239 133.936 39.8319 133.992C40.0399 134.048 40.3319 134.108 40.7079 134.172C41.2279 134.252 41.6479 134.344 41.9679 134.448C42.2879 134.552 42.5639 134.74 42.7959 135.012C43.0279 135.276 43.1439 135.652 43.1439 136.14C43.1439 136.748 42.9079 137.236 42.4359 137.604C41.9719 137.964 41.3559 138.144 40.5879 138.144ZM47.6043 138.144C46.9643 138.144 46.3803 138 45.8523 137.712C45.3323 137.416 44.9203 137.012 44.6163 136.5C44.3203 135.98 44.1723 135.4 44.1723 134.76C44.1723 134.12 44.3203 133.544 44.6163 133.032C44.9203 132.512 45.3323 132.108 45.8523 131.82C46.3723 131.524 46.9563 131.376 47.6043 131.376C48.2523 131.376 48.8363 131.524 49.3563 131.82C49.8843 132.108 50.2963 132.512 50.5923 133.032C50.8963 133.544 51.0483 134.12 51.0483 134.76C51.0483 135.4 50.8963 135.98 50.5923 136.5C50.2963 137.012 49.8843 137.416 49.3563 137.712C48.8363 138 48.2523 138.144 47.6043 138.144ZM47.6043 137.16C48.0603 137.16 48.4683 137.056 48.8283 136.848C49.1963 136.64 49.4843 136.356 49.6923 135.996C49.9003 135.628 50.0043 135.216 50.0043 134.76C50.0043 134.304 49.9003 133.896 49.6923 133.536C49.4843 133.168 49.1963 132.88 48.8283 132.672C48.4683 132.464 48.0603 132.36 47.6043 132.36C47.1483 132.36 46.7363 132.464 46.3683 132.672C46.0083 132.88 45.7243 133.168 45.5163 133.536C45.3163 133.896 45.2163 134.304 45.2163 134.76C45.2163 135.216 45.3163 135.628 45.5163 135.996C45.7243 136.356 46.0083 136.64 46.3683 136.848C46.7363 137.056 47.1483 137.16 47.6043 137.16ZM56.1264 131.484V132.456H55.4664C54.8744 132.456 54.4184 132.636 54.0984 132.996C53.7784 133.356 53.6184 133.852 53.6184 134.484V138H52.5984V131.52H53.3184L53.4864 132.504C53.9584 131.824 54.6464 131.484 55.5504 131.484H56.1264ZM57.1793 129.228H58.2833V130.392H57.1793V129.228ZM57.2273 131.52H58.2473V138H57.2273V131.52ZM66.3576 134.784C66.3576 134.872 66.3496 134.996 66.3336 135.156H60.8016C60.8896 135.756 61.1376 136.24 61.5456 136.608C61.9616 136.968 62.4736 137.148 63.0816 137.148C63.5296 137.148 63.9256 137.052 64.2696 136.86C64.6216 136.66 64.9016 136.38 65.1096 136.02H66.1776C65.9056 136.692 65.4976 137.216 64.9536 137.592C64.4176 137.96 63.7936 138.144 63.0816 138.144C62.4656 138.144 61.9056 137.996 61.4016 137.7C60.8976 137.404 60.5016 137 60.2136 136.488C59.9256 135.968 59.7816 135.392 59.7816 134.76C59.7816 134.128 59.9256 133.556 60.2136 133.044C60.5016 132.524 60.8976 132.116 61.4016 131.82C61.9056 131.524 62.4656 131.376 63.0816 131.376C63.7216 131.376 64.2896 131.528 64.7856 131.832C65.2816 132.128 65.6656 132.536 65.9376 133.056C66.2176 133.576 66.3576 134.152 66.3576 134.784ZM63.0816 132.348C62.4976 132.348 62.0016 132.516 61.5936 132.852C61.1936 133.188 60.9376 133.64 60.8256 134.208H65.3256C65.2216 133.632 64.9656 133.18 64.5576 132.852C64.1496 132.516 63.6576 132.348 63.0816 132.348ZM69.9317 138.144C69.1557 138.144 68.5357 137.952 68.0717 137.568C67.6077 137.184 67.3637 136.664 67.3397 136.008H68.3357C68.3677 136.392 68.5277 136.688 68.8157 136.896C69.1117 137.096 69.4917 137.196 69.9557 137.196C70.4117 137.196 70.7797 137.108 71.0597 136.932C71.3397 136.748 71.4797 136.5 71.4797 136.188C71.4797 135.948 71.4037 135.76 71.2517 135.624C71.1077 135.488 70.9197 135.388 70.6877 135.324C70.4637 135.26 70.1677 135.196 69.7997 135.132C69.3037 135.044 68.8997 134.948 68.5877 134.844C68.2757 134.74 68.0077 134.564 67.7837 134.316C67.5677 134.06 67.4597 133.708 67.4597 133.26C67.4597 132.692 67.6837 132.236 68.1317 131.892C68.5797 131.548 69.1677 131.376 69.8957 131.376C70.6237 131.376 71.2077 131.556 71.6477 131.916C72.0957 132.276 72.3277 132.764 72.3437 133.38H71.3837C71.3597 133.036 71.2157 132.768 70.9517 132.576C70.6877 132.384 70.3317 132.288 69.8837 132.288C69.4437 132.288 69.0917 132.376 68.8277 132.552C68.5717 132.72 68.4437 132.944 68.4437 133.224C68.4437 133.44 68.5117 133.608 68.6477 133.728C68.7917 133.848 68.9677 133.936 69.1757 133.992C69.3837 134.048 69.6757 134.108 70.0517 134.172C70.5717 134.252 70.9917 134.344 71.3117 134.448C71.6317 134.552 71.9077 134.74 72.1397 135.012C72.3717 135.276 72.4877 135.652 72.4877 136.14C72.4877 136.748 72.2517 137.236 71.7797 137.604C71.3157 137.964 70.6997 138.144 69.9317 138.144Z" fill="#444547"/>
<path d="M85 129H482C483.105 129 484 129.895 484 131V139C484 140.105 483.105 141 482 141H87C85.8954 141 85 140.105 85 139V129Z" fill="#A7BAA6"/>
<path d="M12.3945 171.6C12.9145 171.6 13.3865 171.716 13.8105 171.948C14.2345 172.18 14.5665 172.5 14.8065 172.908C15.0545 173.316 15.1785 173.776 15.1785 174.288C15.1785 174.792 15.0585 175.252 14.8185 175.668C14.5785 176.076 14.2465 176.396 13.8225 176.628C13.3985 176.86 12.9225 176.976 12.3945 176.976H10.4265V180H9.38247V171.6H12.3945ZM12.3345 175.956C12.8465 175.956 13.2665 175.8 13.5945 175.488C13.9305 175.168 14.0985 174.768 14.0985 174.288C14.0985 173.808 13.9305 173.412 13.5945 173.1C13.2665 172.78 12.8465 172.62 12.3345 172.62H10.4265V175.956H12.3345ZM22.8524 173.52V180H22.0004L21.8924 179.016C21.5964 179.368 21.2284 179.644 20.7884 179.844C20.3484 180.044 19.8684 180.144 19.3484 180.144C18.7244 180.144 18.1564 179.996 17.6444 179.7C17.1324 179.404 16.7284 179 16.4324 178.488C16.1444 177.968 16.0004 177.392 16.0004 176.76C16.0004 176.12 16.1444 175.544 16.4324 175.032C16.7284 174.512 17.1324 174.108 17.6444 173.82C18.1564 173.524 18.7244 173.376 19.3484 173.376C19.8764 173.376 20.3604 173.476 20.8004 173.676C21.2404 173.876 21.6084 174.156 21.9044 174.516L22.0364 173.52H22.8524ZM19.4324 179.16C19.8804 179.16 20.2844 179.056 20.6444 178.848C21.0124 178.64 21.2964 178.356 21.4964 177.996C21.7044 177.628 21.8084 177.216 21.8084 176.76C21.8084 176.304 21.7044 175.896 21.4964 175.536C21.2964 175.168 21.0124 174.88 20.6444 174.672C20.2844 174.464 19.8804 174.36 19.4324 174.36C18.9844 174.36 18.5764 174.464 18.2084 174.672C17.8484 174.88 17.5644 175.168 17.3564 175.536C17.1484 175.904 17.0444 176.312 17.0444 176.76C17.0444 177.208 17.1484 177.616 17.3564 177.984C17.5644 178.352 17.8484 178.64 18.2084 178.848C18.5764 179.056 18.9844 179.16 19.4324 179.16ZM27.763 180.144C27.131 180.144 26.559 179.996 26.047 179.7C25.535 179.404 25.131 179 24.835 178.488C24.539 177.968 24.391 177.392 24.391 176.76C24.391 176.128 24.539 175.556 24.835 175.044C25.131 174.524 25.535 174.116 26.047 173.82C26.559 173.524 27.131 173.376 27.763 173.376C28.523 173.376 29.187 173.588 29.755 174.012C30.323 174.436 30.707 175 30.907 175.704H29.899C29.707 175.288 29.419 174.96 29.035 174.72C28.659 174.48 28.235 174.36 27.763 174.36C27.323 174.36 26.927 174.468 26.575 174.684C26.223 174.892 25.943 175.18 25.735 175.548C25.535 175.908 25.435 176.312 25.435 176.76C25.435 177.208 25.535 177.616 25.735 177.984C25.943 178.344 26.223 178.632 26.575 178.848C26.935 179.056 27.331 179.16 27.763 179.16C28.235 179.16 28.655 179.04 29.023 178.8C29.399 178.552 29.687 178.212 29.887 177.78H30.919C30.719 178.492 30.331 179.064 29.755 179.496C29.187 179.928 28.523 180.144 27.763 180.144ZM34.2924 177.096H33.3684V180H32.3484V171.204H33.3684V176.148H34.3044L36.3084 173.52H37.5444L35.1804 176.628L37.7844 180H36.5124L34.2924 177.096ZM45.036 173.52V180H44.184L44.076 179.016C43.78 179.368 43.412 179.644 42.972 179.844C42.532 180.044 42.052 180.144 41.532 180.144C40.908 180.144 40.34 179.996 39.828 179.7C39.316 179.404 38.912 179 38.616 178.488C38.328 177.968 38.184 177.392 38.184 176.76C38.184 176.12 38.328 175.544 38.616 175.032C38.912 174.512 39.316 174.108 39.828 173.82C40.34 173.524 40.908 173.376 41.532 173.376C42.06 173.376 42.544 173.476 42.984 173.676C43.424 173.876 43.792 174.156 44.088 174.516L44.22 173.52H45.036ZM41.616 179.16C42.064 179.16 42.468 179.056 42.828 178.848C43.196 178.64 43.48 178.356 43.68 177.996C43.888 177.628 43.992 177.216 43.992 176.76C43.992 176.304 43.888 175.896 43.68 175.536C43.48 175.168 43.196 174.88 42.828 174.672C42.468 174.464 42.064 174.36 41.616 174.36C41.168 174.36 40.76 174.464 40.392 174.672C40.032 174.88 39.748 175.168 39.54 175.536C39.332 175.904 39.228 176.312 39.228 176.76C39.228 177.208 39.332 177.616 39.54 177.984C39.748 178.352 40.032 178.64 40.392 178.848C40.76 179.056 41.168 179.16 41.616 179.16ZM53.1266 173.52V179.088C53.1266 180.136 52.8426 180.96 52.2746 181.56C51.7066 182.16 50.9306 182.46 49.9466 182.46C49.1546 182.46 48.4906 182.264 47.9546 181.872C47.4186 181.488 47.0586 180.948 46.8746 180.252H47.8946C48.0386 180.652 48.2946 180.964 48.6626 181.188C49.0386 181.412 49.4666 181.524 49.9466 181.524C50.6026 181.524 51.1266 181.316 51.5186 180.9C51.9186 180.492 52.1186 179.932 52.1186 179.22V178.824C51.8226 179.128 51.4706 179.368 51.0626 179.544C50.6626 179.712 50.2306 179.796 49.7666 179.796C49.1746 179.796 48.6346 179.656 48.1466 179.376C47.6586 179.096 47.2746 178.712 46.9946 178.224C46.7146 177.728 46.5746 177.184 46.5746 176.592C46.5746 176 46.7146 175.46 46.9946 174.972C47.2746 174.476 47.6586 174.088 48.1466 173.808C48.6346 173.52 49.1746 173.376 49.7666 173.376C50.2706 173.376 50.7386 173.48 51.1706 173.688C51.6106 173.888 51.9786 174.168 52.2746 174.528L52.4426 173.52H53.1266ZM49.8746 178.812C50.2986 178.812 50.6826 178.716 51.0266 178.524C51.3706 178.332 51.6386 178.068 51.8306 177.732C52.0226 177.396 52.1186 177.016 52.1186 176.592C52.1186 176.168 52.0226 175.788 51.8306 175.452C51.6386 175.108 51.3706 174.84 51.0266 174.648C50.6826 174.456 50.2986 174.36 49.8746 174.36C49.4506 174.36 49.0666 174.456 48.7226 174.648C48.3786 174.84 48.1066 175.108 47.9066 175.452C47.7146 175.788 47.6186 176.168 47.6186 176.592C47.6186 177.008 47.7146 177.388 47.9066 177.732C48.1066 178.068 48.3786 178.332 48.7226 178.524C49.0666 178.716 49.4506 178.812 49.8746 178.812ZM55.1285 171.228H56.2325V172.392H55.1285V171.228ZM55.1765 173.52H56.1965V180H55.1765V173.52ZM61.4868 173.376C61.9908 173.376 62.4308 173.496 62.8068 173.736C63.1828 173.968 63.4708 174.292 63.6708 174.708C63.8788 175.124 63.9828 175.596 63.9828 176.124V180H62.9628V176.364C62.9628 175.7 62.8108 175.192 62.5068 174.84C62.2108 174.488 61.7828 174.312 61.2228 174.312C60.8628 174.312 60.5308 174.408 60.2268 174.6C59.9308 174.784 59.6948 175.04 59.5188 175.368C59.3508 175.696 59.2668 176.06 59.2668 176.46V180H58.2468V173.52H58.9668L59.1708 174.54C59.4108 174.172 59.7308 173.888 60.1308 173.688C60.5388 173.48 60.9908 173.376 61.4868 173.376ZM71.9821 173.52V179.088C71.9821 180.136 71.6981 180.96 71.1301 181.56C70.5621 182.16 69.7861 182.46 68.8021 182.46C68.0101 182.46 67.3461 182.264 66.8101 181.872C66.2741 181.488 65.9141 180.948 65.7301 180.252H66.7501C66.8941 180.652 67.1501 180.964 67.5181 181.188C67.8941 181.412 68.3221 181.524 68.8021 181.524C69.4581 181.524 69.9821 181.316 70.3741 180.9C70.7741 180.492 70.9741 179.932 70.9741 179.22V178.824C70.6781 179.128 70.3261 179.368 69.9181 179.544C69.5181 179.712 69.0861 179.796 68.6221 179.796C68.0301 179.796 67.4901 179.656 67.0021 179.376C66.5141 179.096 66.1301 178.712 65.8501 178.224C65.5701 177.728 65.4301 177.184 65.4301 176.592C65.4301 176 65.5701 175.46 65.8501 174.972C66.1301 174.476 66.5141 174.088 67.0021 173.808C67.4901 173.52 68.0301 173.376 68.6221 173.376C69.1261 173.376 69.5941 173.48 70.0261 173.688C70.4661 173.888 70.8341 174.168 71.1301 174.528L71.2981 173.52H71.9821ZM68.7301 178.812C69.1541 178.812 69.5381 178.716 69.8821 178.524C70.2261 178.332 70.4941 178.068 70.6861 177.732C70.8781 177.396 70.9741 177.016 70.9741 176.592C70.9741 176.168 70.8781 175.788 70.6861 175.452C70.4941 175.108 70.2261 174.84 69.8821 174.648C69.5381 174.456 69.1541 174.36 68.7301 174.36C68.3061 174.36 67.9221 174.456 67.5781 174.648C67.2341 174.84 66.9621 175.108 66.7621 175.452C66.5701 175.788 66.4741 176.168 66.4741 176.592C66.4741 177.008 66.5701 177.388 66.7621 177.732C66.9621 178.068 67.2341 178.332 67.5781 178.524C67.9221 178.716 68.3061 178.812 68.7301 178.812Z" fill="#444547"/>
<path d="M85 171H412C413.105 171 414 171.895 414 173V181C414 182.105 413.105 183 412 183H87C85.8954 183 85 182.105 85 181V171Z" fill="#A7BAA6"/>
<path d="M25.2553 221.016V222H20.5153V213.6H21.5593V221.016H25.2553ZM28.9795 222.144C28.4035 222.144 27.8955 222.028 27.4555 221.796C27.0235 221.556 26.6875 221.22 26.4475 220.788C26.2155 220.348 26.0995 219.84 26.0995 219.264V215.52H27.1195V219.096C27.1195 219.736 27.2835 220.24 27.6115 220.608C27.9475 220.976 28.4035 221.16 28.9795 221.16C29.5555 221.16 30.0075 220.976 30.3355 220.608C30.6635 220.24 30.8275 219.736 30.8275 219.096V215.52H31.8475V219.264C31.8475 219.84 31.7275 220.348 31.4875 220.788C31.2555 221.22 30.9235 221.556 30.4915 221.796C30.0595 222.028 29.5555 222.144 28.9795 222.144ZM39.8375 215.52V221.088C39.8375 222.136 39.5535 222.96 38.9855 223.56C38.4175 224.16 37.6415 224.46 36.6575 224.46C35.8655 224.46 35.2015 224.264 34.6655 223.872C34.1295 223.488 33.7695 222.948 33.5855 222.252H34.6055C34.7495 222.652 35.0055 222.964 35.3735 223.188C35.7495 223.412 36.1775 223.524 36.6575 223.524C37.3135 223.524 37.8375 223.316 38.2295 222.9C38.6295 222.492 38.8295 221.932 38.8295 221.22V220.824C38.5335 221.128 38.1815 221.368 37.7735 221.544C37.3735 221.712 36.9415 221.796 36.4775 221.796C35.8855 221.796 35.3455 221.656 34.8575 221.376C34.3695 221.096 33.9855 220.712 33.7055 220.224C33.4255 219.728 33.2855 219.184 33.2855 218.592C33.2855 218 33.4255 217.46 33.7055 216.972C33.9855 216.476 34.3695 216.088 34.8575 215.808C35.3455 215.52 35.8855 215.376 36.4775 215.376C36.9815 215.376 37.4495 215.48 37.8815 215.688C38.3215 215.888 38.6895 216.168 38.9855 216.528L39.1535 215.52H39.8375ZM36.5855 220.812C37.0095 220.812 37.3935 220.716 37.7375 220.524C38.0815 220.332 38.3495 220.068 38.5415 219.732C38.7335 219.396 38.8295 219.016 38.8295 218.592C38.8295 218.168 38.7335 217.788 38.5415 217.452C38.3495 217.108 38.0815 216.84 37.7375 216.648C37.3935 216.456 37.0095 216.36 36.5855 216.36C36.1615 216.36 35.7775 216.456 35.4335 216.648C35.0895 216.84 34.8175 217.108 34.6175 217.452C34.4255 217.788 34.3295 218.168 34.3295 218.592C34.3295 219.008 34.4255 219.388 34.6175 219.732C34.8175 220.068 35.0895 220.332 35.4335 220.524C35.7775 220.716 36.1615 220.812 36.5855 220.812ZM47.9235 215.52V221.088C47.9235 222.136 47.6395 222.96 47.0715 223.56C46.5035 224.16 45.7275 224.46 44.7435 224.46C43.9515 224.46 43.2875 224.264 42.7515 223.872C42.2155 223.488 41.8555 222.948 41.6715 222.252H42.6915C42.8355 222.652 43.0915 222.964 43.4595 223.188C43.8355 223.412 44.2635 223.524 44.7435 223.524C45.3995 223.524 45.9235 223.316 46.3155 222.9C46.7155 222.492 46.9155 221.932 46.9155 221.22V220.824C46.6195 221.128 46.2675 221.368 45.8595 221.544C45.4595 221.712 45.0275 221.796 44.5635 221.796C43.9715 221.796 43.4315 221.656 42.9435 221.376C42.4555 221.096 42.0715 220.712 41.7915 220.224C41.5115 219.728 41.3715 219.184 41.3715 218.592C41.3715 218 41.5115 217.46 41.7915 216.972C42.0715 216.476 42.4555 216.088 42.9435 215.808C43.4315 215.52 43.9715 215.376 44.5635 215.376C45.0675 215.376 45.5355 215.48 45.9675 215.688C46.4075 215.888 46.7755 216.168 47.0715 216.528L47.2395 215.52H47.9235ZM44.6715 220.812C45.0955 220.812 45.4795 220.716 45.8235 220.524C46.1675 220.332 46.4355 220.068 46.6275 219.732C46.8195 219.396 46.9155 219.016 46.9155 218.592C46.9155 218.168 46.8195 217.788 46.6275 217.452C46.4355 217.108 46.1675 216.84 45.8235 216.648C45.4795 216.456 45.0955 216.36 44.6715 216.36C44.2475 216.36 43.8635 216.456 43.5195 216.648C43.1755 216.84 42.9035 217.108 42.7035 217.452C42.5115 217.788 42.4155 218.168 42.4155 218.592C42.4155 219.008 42.5115 219.388 42.7035 219.732C42.9035 220.068 43.1755 220.332 43.5195 220.524C43.8635 220.716 44.2475 220.812 44.6715 220.812ZM56.3094 215.52V222H55.4574L55.3494 221.016C55.0534 221.368 54.6854 221.644 54.2454 221.844C53.8054 222.044 53.3254 222.144 52.8054 222.144C52.1814 222.144 51.6134 221.996 51.1014 221.7C50.5894 221.404 50.1854 221 49.8894 220.488C49.6014 219.968 49.4574 219.392 49.4574 218.76C49.4574 218.12 49.6014 217.544 49.8894 217.032C50.1854 216.512 50.5894 216.108 51.1014 215.82C51.6134 215.524 52.1814 215.376 52.8054 215.376C53.3334 215.376 53.8174 215.476 54.2574 215.676C54.6974 215.876 55.0654 216.156 55.3614 216.516L55.4934 215.52H56.3094ZM52.8894 221.16C53.3374 221.16 53.7414 221.056 54.1014 220.848C54.4694 220.64 54.7534 220.356 54.9534 219.996C55.1614 219.628 55.2654 219.216 55.2654 218.76C55.2654 218.304 55.1614 217.896 54.9534 217.536C54.7534 217.168 54.4694 216.88 54.1014 216.672C53.7414 216.464 53.3374 216.36 52.8894 216.36C52.4414 216.36 52.0334 216.464 51.6654 216.672C51.3054 216.88 51.0214 217.168 50.8134 217.536C50.6054 217.904 50.5014 218.312 50.5014 218.76C50.5014 219.208 50.6054 219.616 50.8134 219.984C51.0214 220.352 51.3054 220.64 51.6654 220.848C52.0334 221.056 52.4414 221.16 52.8894 221.16ZM64.4 215.52V221.088C64.4 222.136 64.116 222.96 63.548 223.56C62.98 224.16 62.204 224.46 61.22 224.46C60.428 224.46 59.764 224.264 59.228 223.872C58.692 223.488 58.332 222.948 58.148 222.252H59.168C59.312 222.652 59.568 222.964 59.936 223.188C60.312 223.412 60.74 223.524 61.22 223.524C61.876 223.524 62.4 223.316 62.792 222.9C63.192 222.492 63.392 221.932 63.392 221.22V220.824C63.096 221.128 62.744 221.368 62.336 221.544C61.936 221.712 61.504 221.796 61.04 221.796C60.448 221.796 59.908 221.656 59.42 221.376C58.932 221.096 58.548 220.712 58.268 220.224C57.988 219.728 57.848 219.184 57.848 218.592C57.848 218 57.988 217.46 58.268 216.972C58.548 216.476 58.932 216.088 59.42 215.808C59.908 215.52 60.448 215.376 61.04 215.376C61.544 215.376 62.012 215.48 62.444 215.688C62.884 215.888 63.252 216.168 63.548 216.528L63.716 215.52H64.4ZM61.148 220.812C61.572 220.812 61.956 220.716 62.3 220.524C62.644 220.332 62.912 220.068 63.104 219.732C63.296 219.396 63.392 219.016 63.392 218.592C63.392 218.168 63.296 217.788 63.104 217.452C62.912 217.108 62.644 216.84 62.3 216.648C61.956 216.456 61.572 216.36 61.148 216.36C60.724 216.36 60.34 216.456 59.996 216.648C59.652 216.84 59.38 217.108 59.18 217.452C58.988 217.788 58.892 218.168 58.892 218.592C58.892 219.008 58.988 219.388 59.18 219.732C59.38 220.068 59.652 220.332 59.996 220.524C60.34 220.716 60.724 220.812 61.148 220.812ZM72.51 218.784C72.51 218.872 72.502 218.996 72.486 219.156H66.954C67.042 219.756 67.29 220.24 67.698 220.608C68.114 220.968 68.626 221.148 69.234 221.148C69.682 221.148 70.078 221.052 70.422 220.86C70.774 220.66 71.054 220.38 71.262 220.02H72.33C72.058 220.692 71.65 221.216 71.106 221.592C70.57 221.96 69.946 222.144 69.234 222.144C68.618 222.144 68.058 221.996 67.554 221.7C67.05 221.404 66.654 221 66.366 220.488C66.078 219.968 65.934 219.392 65.934 218.76C65.934 218.128 66.078 217.556 66.366 217.044C66.654 216.524 67.05 216.116 67.554 215.82C68.058 215.524 68.618 215.376 69.234 215.376C69.874 215.376 70.442 215.528 70.938 215.832C71.434 216.128 71.818 216.536 72.09 217.056C72.37 217.576 72.51 218.152 72.51 218.784ZM69.234 216.348C68.65 216.348 68.154 216.516 67.746 216.852C67.346 217.188 67.09 217.64 66.978 218.208H71.478C71.374 217.632 71.118 217.18 70.71 216.852C70.302 216.516 69.81 216.348 69.234 216.348Z" fill="#444547"/>
<path d="M85 213H257C258.105 213 259 213.895 259 215V223C259 224.105 258.105 225 257 225H87C85.8954 225 85 224.105 85 223V213Z" fill="#A7BAA6"/>
<path d="M40.9058 264.108C40.2898 264.108 39.7498 264 39.2858 263.784C38.8218 263.56 38.4578 263.244 38.1938 262.836C37.9378 262.428 37.8098 261.952 37.8098 261.408H38.8778C38.8778 261.92 39.0658 262.328 39.4418 262.632C39.8178 262.928 40.3018 263.076 40.8938 263.076C41.4378 263.076 41.8898 262.944 42.2498 262.68C42.6098 262.408 42.7898 262.056 42.7898 261.624C42.7898 261.32 42.6978 261.076 42.5138 260.892C42.3298 260.708 42.1018 260.568 41.8298 260.472C41.5578 260.376 41.1818 260.272 40.7018 260.16C40.1178 260.016 39.6418 259.876 39.2738 259.74C38.9138 259.596 38.6058 259.372 38.3498 259.068C38.0938 258.764 37.9658 258.352 37.9658 257.832C37.9658 257.112 38.2218 256.544 38.7338 256.128C39.2538 255.704 39.9498 255.492 40.8218 255.492C41.6938 255.492 42.3778 255.716 42.8738 256.164C43.3778 256.612 43.6298 257.216 43.6298 257.976H42.5858C42.5858 257.52 42.4178 257.16 42.0818 256.896C41.7538 256.632 41.3298 256.5 40.8098 256.5C40.2898 256.5 39.8618 256.616 39.5258 256.848C39.1898 257.08 39.0218 257.392 39.0218 257.784C39.0218 258.072 39.1098 258.304 39.2858 258.48C39.4618 258.656 39.6818 258.792 39.9458 258.888C40.2178 258.976 40.5898 259.076 41.0618 259.188C41.6618 259.332 42.1458 259.48 42.5138 259.632C42.8898 259.776 43.2098 260.008 43.4738 260.328C43.7378 260.648 43.8698 261.076 43.8698 261.612C43.8698 262.132 43.7418 262.58 43.4858 262.956C43.2298 263.332 42.8778 263.62 42.4298 263.82C41.9818 264.012 41.4738 264.108 40.9058 264.108ZM48.306 264.144C47.674 264.144 47.102 263.996 46.59 263.7C46.078 263.404 45.674 263 45.378 262.488C45.082 261.968 44.934 261.392 44.934 260.76C44.934 260.128 45.082 259.556 45.378 259.044C45.674 258.524 46.078 258.116 46.59 257.82C47.102 257.524 47.674 257.376 48.306 257.376C49.066 257.376 49.73 257.588 50.298 258.012C50.866 258.436 51.25 259 51.45 259.704H50.442C50.25 259.288 49.962 258.96 49.578 258.72C49.202 258.48 48.778 258.36 48.306 258.36C47.866 258.36 47.47 258.468 47.118 258.684C46.766 258.892 46.486 259.18 46.278 259.548C46.078 259.908 45.978 260.312 45.978 260.76C45.978 261.208 46.078 261.616 46.278 261.984C46.486 262.344 46.766 262.632 47.118 262.848C47.478 263.056 47.874 263.16 48.306 263.16C48.778 263.16 49.198 263.04 49.566 262.8C49.942 262.552 50.23 262.212 50.43 261.78H51.462C51.262 262.492 50.874 263.064 50.298 263.496C49.73 263.928 49.066 264.144 48.306 264.144ZM56.4194 257.484V258.456H55.7594C55.1674 258.456 54.7114 258.636 54.3914 258.996C54.0714 259.356 53.9114 259.852 53.9114 260.484V264H52.8914V257.52H53.6114L53.7794 258.504C54.2514 257.824 54.9394 257.484 55.8434 257.484H56.4194ZM63.6571 257.52V264H62.8051L62.6971 263.016C62.4011 263.368 62.0331 263.644 61.5931 263.844C61.1531 264.044 60.6731 264.144 60.1531 264.144C59.5291 264.144 58.9611 263.996 58.4491 263.7C57.9371 263.404 57.5331 263 57.2371 262.488C56.9491 261.968 56.8051 261.392 56.8051 260.76C56.8051 260.12 56.9491 259.544 57.2371 259.032C57.5331 258.512 57.9371 258.108 58.4491 257.82C58.9611 257.524 59.5291 257.376 60.1531 257.376C60.6811 257.376 61.1651 257.476 61.6051 257.676C62.0451 257.876 62.4131 258.156 62.7091 258.516L62.8411 257.52H63.6571ZM60.2371 263.16C60.6851 263.16 61.0891 263.056 61.4491 262.848C61.8171 262.64 62.1011 262.356 62.3011 261.996C62.5091 261.628 62.6131 261.216 62.6131 260.76C62.6131 260.304 62.5091 259.896 62.3011 259.536C62.1011 259.168 61.8171 258.88 61.4491 258.672C61.0891 258.464 60.6851 258.36 60.2371 258.36C59.7891 258.36 59.3811 258.464 59.0131 258.672C58.6531 258.88 58.3691 259.168 58.1611 259.536C57.9531 259.904 57.8491 260.312 57.8491 260.76C57.8491 261.208 57.9531 261.616 58.1611 261.984C58.3691 262.352 58.6531 262.64 59.0131 262.848C59.3811 263.056 59.7891 263.16 60.2371 263.16ZM69.1437 257.376C69.7757 257.376 70.3437 257.524 70.8477 257.82C71.3597 258.108 71.7597 258.512 72.0477 259.032C72.3357 259.544 72.4797 260.12 72.4797 260.76C72.4797 261.4 72.3357 261.976 72.0477 262.488C71.7597 263 71.3597 263.404 70.8477 263.7C70.3437 263.996 69.7757 264.144 69.1437 264.144C68.6637 264.144 68.2157 264.056 67.7997 263.88C67.3837 263.704 67.0277 263.456 66.7317 263.136V266.316H65.7117V257.52H66.4077L66.6117 258.516C66.9157 258.156 67.2837 257.876 67.7157 257.676C68.1557 257.476 68.6317 257.376 69.1437 257.376ZM69.0717 263.16C69.5277 263.16 69.9357 263.056 70.2957 262.848C70.6557 262.64 70.9357 262.356 71.1357 261.996C71.3437 261.628 71.4477 261.216 71.4477 260.76C71.4477 260.304 71.3437 259.896 71.1357 259.536C70.9357 259.168 70.6557 258.88 70.2957 258.672C69.9357 258.464 69.5277 258.36 69.0717 258.36C68.6237 258.36 68.2157 258.464 67.8477 258.672C67.4877 258.88 67.2037 259.168 66.9957 259.536C66.7877 259.904 66.6837 260.312 66.6837 260.76C66.6837 261.208 66.7877 261.616 66.9957 261.984C67.2037 262.352 67.4877 262.64 67.8477 262.848C68.2157 263.056 68.6237 263.16 69.0717 263.16Z" fill="#444547"/>
<path d="M85 255H270C271.105 255 272 255.895 272 257V265C272 266.105 271.105 267 270 267H87C85.8954 267 85 266.105 85 265V255Z" fill="#A7BAA6"/>
<path d="M22.1766 304.992V306H17.2926V297.6H22.0446V298.596H18.3366V301.2H21.7326V302.172H18.3366V304.992H22.1766ZM29.9285 299.52V308.316H28.9085V305.136C28.6125 305.456 28.2565 305.704 27.8405 305.88C27.4245 306.056 26.9765 306.144 26.4965 306.144C25.8645 306.144 25.2925 305.996 24.7805 305.7C24.2765 305.404 23.8805 305 23.5925 304.488C23.3045 303.976 23.1605 303.4 23.1605 302.76C23.1605 302.12 23.3045 301.544 23.5925 301.032C23.8805 300.512 24.2765 300.108 24.7805 299.82C25.2925 299.524 25.8645 299.376 26.4965 299.376C27.0005 299.376 27.4725 299.476 27.9125 299.676C28.3525 299.876 28.7245 300.152 29.0285 300.504L29.2325 299.52H29.9285ZM26.5685 305.16C27.0245 305.16 27.4325 305.056 27.7925 304.848C28.1525 304.64 28.4365 304.352 28.6445 303.984C28.8525 303.616 28.9565 303.208 28.9565 302.76C28.9565 302.312 28.8525 301.904 28.6445 301.536C28.4365 301.168 28.1525 300.88 27.7925 300.672C27.4325 300.464 27.0245 300.36 26.5685 300.36C26.1205 300.36 25.7125 300.464 25.3445 300.672C24.9845 300.88 24.7005 301.168 24.4925 301.536C24.2925 301.896 24.1925 302.304 24.1925 302.76C24.1925 303.216 24.2925 303.628 24.4925 303.996C24.7005 304.356 24.9845 304.64 25.3445 304.848C25.7125 305.056 26.1205 305.16 26.5685 305.16ZM34.7568 306.144C34.1808 306.144 33.6728 306.028 33.2328 305.796C32.8008 305.556 32.4648 305.22 32.2248 304.788C31.9928 304.348 31.8768 303.84 31.8768 303.264V299.52H32.8968V303.096C32.8968 303.736 33.0608 304.24 33.3888 304.608C33.7248 304.976 34.1808 305.16 34.7568 305.16C35.3328 305.16 35.7848 304.976 36.1128 304.608C36.4408 304.24 36.6048 303.736 36.6048 303.096V299.52H37.6248V303.264C37.6248 303.84 37.5048 304.348 37.2648 304.788C37.0328 305.22 36.7008 305.556 36.2688 305.796C35.8368 306.028 35.3328 306.144 34.7568 306.144ZM39.5309 297.228H40.6349V298.392H39.5309V297.228ZM39.5789 299.52H40.5989V306H39.5789V299.52ZM49.8012 299.376C50.2572 299.376 50.6572 299.484 51.0012 299.7C51.3452 299.908 51.6092 300.2 51.7932 300.576C51.9852 300.952 52.0812 301.38 52.0812 301.86V306H51.0612V302.172C51.0612 301.588 50.9332 301.132 50.6772 300.804C50.4212 300.476 50.0612 300.312 49.5972 300.312C49.2852 300.312 48.9972 300.404 48.7332 300.588C48.4692 300.772 48.2572 301.024 48.0972 301.344C47.9452 301.664 47.8692 302.02 47.8692 302.412V306H46.8732V302.172C46.8732 301.588 46.7412 301.132 46.4772 300.804C46.2212 300.476 45.8612 300.312 45.3972 300.312C45.0852 300.312 44.7972 300.404 44.5332 300.588C44.2692 300.772 44.0572 301.024 43.8972 301.344C43.7452 301.664 43.6692 302.02 43.6692 302.412V306H42.6492V299.52H43.3812L43.5492 300.408C43.7972 300.08 44.1012 299.828 44.4612 299.652C44.8292 299.468 45.2172 299.376 45.6252 299.376C46.0812 299.376 46.4812 299.488 46.8252 299.712C47.1692 299.928 47.4292 300.228 47.6052 300.612C47.8532 300.228 48.1692 299.928 48.5532 299.712C48.9452 299.488 49.3612 299.376 49.8012 299.376ZM60.1115 302.784C60.1115 302.872 60.1035 302.996 60.0875 303.156H54.5555C54.6435 303.756 54.8915 304.24 55.2995 304.608C55.7155 304.968 56.2275 305.148 56.8355 305.148C57.2835 305.148 57.6795 305.052 58.0235 304.86C58.3755 304.66 58.6555 304.38 58.8635 304.02H59.9315C59.6595 304.692 59.2515 305.216 58.7075 305.592C58.1715 305.96 57.5475 306.144 56.8355 306.144C56.2195 306.144 55.6595 305.996 55.1555 305.7C54.6515 305.404 54.2555 305 53.9675 304.488C53.6795 303.968 53.5355 303.392 53.5355 302.76C53.5355 302.128 53.6795 301.556 53.9675 301.044C54.2555 300.524 54.6515 300.116 55.1555 299.82C55.6595 299.524 56.2195 299.376 56.8355 299.376C57.4755 299.376 58.0435 299.528 58.5395 299.832C59.0355 300.128 59.4195 300.536 59.6915 301.056C59.9715 301.576 60.1115 302.152 60.1115 302.784ZM56.8355 300.348C56.2515 300.348 55.7555 300.516 55.3475 300.852C54.9475 301.188 54.6915 301.64 54.5795 302.208H59.0795C58.9755 301.632 58.7195 301.18 58.3115 300.852C57.9035 300.516 57.4115 300.348 56.8355 300.348ZM64.8736 299.376C65.3776 299.376 65.8176 299.496 66.1936 299.736C66.5696 299.968 66.8576 300.292 67.0576 300.708C67.2656 301.124 67.3696 301.596 67.3696 302.124V306H66.3496V302.364C66.3496 301.7 66.1976 301.192 65.8936 300.84C65.5976 300.488 65.1696 300.312 64.6096 300.312C64.2496 300.312 63.9176 300.408 63.6136 300.6C63.3176 300.784 63.0816 301.04 62.9056 301.368C62.7376 301.696 62.6536 302.06 62.6536 302.46V306H61.6336V299.52H62.3536L62.5576 300.54C62.7976 300.172 63.1176 299.888 63.5176 299.688C63.9256 299.48 64.3776 299.376 64.8736 299.376ZM72.6582 305.052V306H71.8182C71.1222 306 70.5742 305.8 70.1742 305.4C69.7742 304.992 69.5742 304.436 69.5742 303.732V300.444H68.4342V300.264L70.4382 298.152H70.5942V299.52H72.6222V300.444H70.5942V303.696C70.5942 304.136 70.7102 304.472 70.9422 304.704C71.1742 304.936 71.5102 305.052 71.9502 305.052H72.6582Z" fill="#444547"/>
<path d="M85 297H284C285.105 297 286 297.895 286 299V307C286 308.105 285.105 309 284 309H87C85.8954 309 85 308.105 85 307V297Z" fill="#A7BAA6"/>
</svg>
