<svg width="248" height="248" viewBox="0 0 248 248" fill="none" xmlns="http://www.w3.org/2000/svg">
<path d="M248 124C248 192.483 192.483 248 124 248C55.5167 248 0 192.483 0 124C0 55.5167 55.5167 0 124 0C192.483 0 248 55.5167 248 124ZM12.4 124C12.4 185.635 62.365 235.6 124 235.6C185.635 235.6 235.6 185.635 235.6 124C235.6 62.365 185.635 12.4 124 12.4C62.365 12.4 12.4 62.365 12.4 124Z" fill="#D2DDD0"/>
<path d="M124 0C150.186 3.12268e-07 175.7 8.29002 196.885 23.6819C218.07 39.0738 233.839 60.7773 241.931 85.6819C250.023 110.586 250.023 137.414 241.931 162.318C233.839 187.223 218.07 208.926 196.885 224.318C175.7 239.71 150.186 248 124 248C97.8138 248 72.2997 239.71 51.1146 224.318C29.9295 208.926 14.161 187.223 6.06899 162.318C-2.023 137.414 -2.023 110.586 6.069 85.6819L17.8621 89.5137C10.5793 111.928 10.5793 136.072 17.8621 158.486C25.1449 180.9 39.3366 200.434 58.4032 214.286C77.4697 228.139 100.432 235.6 124 235.6C147.568 235.6 170.53 228.139 189.597 214.286C208.663 200.434 222.855 180.9 230.138 158.486C237.421 136.072 237.421 111.928 230.138 89.5137C222.855 67.0996 208.663 47.5664 189.597 33.7137C170.53 19.861 147.568 12.4 124 12.4V0Z" fill="#A7BAA6"/>
<path d="M124 0C143.568 2.33352e-07 162.859 4.63128 180.295 13.5152C197.73 22.3991 212.816 35.2834 224.318 51.1146C235.82 66.9459 243.412 85.2745 246.473 104.602C249.535 123.93 247.978 143.707 241.931 162.318C235.884 180.929 225.518 197.844 211.681 211.681C197.844 225.518 180.929 235.884 162.318 241.931C143.707 247.978 123.93 249.535 104.602 246.473C85.2746 243.412 66.9459 235.82 51.1147 224.318L58.4032 214.286C72.6513 224.638 89.1471 231.471 106.542 234.226C123.937 236.981 141.737 235.58 158.486 230.138C175.236 224.696 190.46 215.366 202.913 202.913C215.366 190.46 224.696 175.236 230.138 158.486C235.58 141.737 236.981 123.937 234.226 106.542C231.471 89.1471 224.638 72.6513 214.286 58.4032C203.934 44.155 190.357 32.5592 174.665 24.5637C158.973 16.5682 141.612 12.4 124 12.4V0Z" fill="#7C987C"/>
<path d="M124 0C150.186 3.12268e-07 175.7 8.29002 196.885 23.6819C218.07 39.0738 233.839 60.7773 241.931 85.6819C250.023 110.586 250.023 137.414 241.931 162.318C233.839 187.223 218.07 208.926 196.885 224.318L189.597 214.286C208.663 200.434 222.855 180.9 230.138 158.486C237.421 136.072 237.421 111.928 230.138 89.5137C222.855 67.0996 208.663 47.5664 189.597 33.7137C170.53 19.861 147.568 12.4 124 12.4V0Z" fill="#597559"/>
<path d="M124 0C150.186 3.12268e-07 175.7 8.29002 196.885 23.6819C218.07 39.0738 233.839 60.7773 241.931 85.6819L230.138 89.5137C222.855 67.0996 208.663 47.5664 189.597 33.7137C170.53 19.861 147.568 12.4 124 12.4V0Z" fill="#365236"/>
<path d="M230 124C230 182.542 182.542 230 124 230C65.4578 230 18 182.542 18 124C18 65.4578 65.4578 18 124 18C182.542 18 230 65.4578 230 124ZM30.72 124C30.72 175.517 72.4829 217.28 124 217.28C175.517 217.28 217.28 175.517 217.28 124C217.28 72.4829 175.517 30.72 124 30.72C72.4829 30.72 30.72 72.4829 30.72 124Z" fill="#D2DDD0"/>
<path d="M124 18C144.965 18 165.459 24.2168 182.89 35.8642C200.322 47.5117 213.908 64.0666 221.931 83.4356C229.954 102.805 232.053 124.118 227.963 144.68C223.873 165.242 213.778 184.129 198.953 198.953C184.129 213.778 165.242 223.873 144.68 227.963C124.118 232.053 102.805 229.954 83.4356 221.931C64.0666 213.908 47.5116 200.322 35.8642 182.89C24.2168 165.459 18 144.965 18 124H30.72C30.72 142.449 36.1908 160.484 46.4405 175.824C56.6903 191.163 71.2586 203.119 88.3033 210.179C105.348 217.24 124.103 219.087 142.198 215.488C160.293 211.888 176.913 203.004 189.959 189.959C203.004 176.913 211.888 160.293 215.488 142.198C219.087 124.103 217.24 105.348 210.179 88.3033C203.119 71.2586 191.163 56.6903 175.824 46.4405C160.484 36.1908 142.449 30.72 124 30.72V18Z" fill="#A7BAA6"/>
<path d="M124 18C139.323 18 154.463 21.3219 168.378 27.7368C182.293 34.1517 194.652 43.5072 204.603 55.1585C214.554 66.8098 221.861 80.4801 226.02 95.2273C230.179 109.975 231.092 125.448 228.695 140.582C226.298 155.716 220.649 170.15 212.136 182.89C203.623 195.631 192.449 206.374 179.385 214.38C166.32 222.386 151.675 227.464 136.459 229.265C121.243 231.066 105.817 229.547 91.2442 224.812L95.1749 212.715C107.999 216.881 121.574 218.218 134.964 216.633C148.354 215.049 161.242 210.58 172.739 203.534C184.236 196.489 194.068 187.035 201.559 175.824C209.051 164.612 214.022 151.91 216.132 138.592C218.241 125.274 217.438 111.658 213.778 98.68C210.118 85.7025 203.688 73.6726 194.931 63.4195C186.174 53.1663 175.298 44.9335 163.053 39.2884C150.807 33.6433 137.484 30.72 124 30.72V18Z" fill="#7C987C"/>
<path d="M124 18C143.549 18 162.717 23.4059 179.385 33.6201C196.053 43.8343 209.572 58.4589 218.447 75.877C227.322 93.2951 231.207 112.828 229.673 132.317C228.139 151.805 221.246 170.49 209.756 186.305L199.465 178.829C209.577 164.911 215.643 148.469 216.992 131.319C218.342 114.169 214.923 96.9797 207.113 81.6518C199.303 66.3239 187.407 53.4542 172.739 44.4657C158.071 35.4772 141.203 30.72 124 30.72V18Z" fill="#597559"/>
<path d="M124 18C140.728 18 157.218 21.959 172.123 29.5533C187.028 37.1476 199.923 48.1616 209.756 61.6948L199.465 69.1714C190.813 57.2622 179.464 47.5699 166.348 40.8869C153.232 34.2039 138.721 30.72 124 30.72V18Z" fill="#365236"/>
<path d="M212 124C212 172.601 172.601 212 124 212C75.3989 212 36 172.601 36 124C36 75.3989 75.3989 36 124 36C172.601 36 212 75.3989 212 124ZM48.32 124C48.32 165.797 82.2031 199.68 124 199.68C165.797 199.68 199.68 165.797 199.68 124C199.68 82.2031 165.797 48.32 124 48.32C82.2031 48.32 48.32 82.2031 48.32 124Z" fill="#D2DDD0"/>
<path d="M124 36C144.953 36 165.219 43.4763 181.151 57.0843C197.084 70.6922 207.639 89.5387 210.917 110.234C214.194 130.929 209.98 152.114 199.032 169.98C188.084 187.845 171.121 201.218 151.193 207.693C131.266 214.168 109.682 213.32 90.3238 205.301C70.9657 197.283 55.1039 182.62 45.5914 163.951C36.0789 145.282 33.54 123.831 38.4315 103.457C43.3229 83.0826 55.3235 65.1224 72.2749 52.8065L79.5164 62.7736C64.9382 73.3652 54.6177 88.8111 50.4111 106.333C46.2044 123.855 48.3879 142.302 56.5686 158.358C64.7494 174.414 78.3905 187.023 95.0385 193.919C111.686 200.815 130.249 201.544 147.386 195.976C164.524 190.408 179.113 178.907 188.528 163.543C197.943 148.178 201.567 129.959 198.748 112.161C195.929 94.3633 186.852 78.1553 173.15 66.4525C159.448 54.7497 142.02 48.32 124 48.32V36Z" fill="#A7BAA6"/>
<path d="M124 36C140.229 36 156.142 40.4879 169.98 48.9677C183.818 57.4474 195.041 69.5885 202.409 84.0488C209.776 98.5091 213.002 114.725 211.729 130.904C210.455 147.084 204.733 162.595 195.193 175.725C185.654 188.855 172.67 199.091 157.676 205.301C142.682 211.512 126.263 213.455 110.234 210.917C94.2044 208.378 79.1893 201.456 66.8486 190.916C54.5078 180.376 45.3221 166.628 40.307 151.194L52.024 147.386C56.337 160.66 64.2367 172.483 74.8498 181.548C85.4628 190.612 98.3758 196.565 112.161 198.748C125.946 200.932 140.067 199.26 152.961 193.919C165.856 188.578 177.023 179.775 185.226 168.484C193.43 157.192 198.352 143.852 199.447 129.938C200.542 116.024 197.768 102.078 191.431 89.642C185.095 77.2061 175.443 66.7647 163.543 59.4722C151.642 52.1796 137.957 48.32 124 48.32V36Z" fill="#7C987C"/>
<path d="M124 36C135.556 36 146.999 38.2762 157.676 42.6986C168.353 47.121 178.054 53.6031 186.225 61.7746C194.397 69.9462 200.879 79.6472 205.301 90.3239C209.724 101.001 212 112.444 212 124C212 135.556 209.724 147 205.301 157.676C200.879 168.353 194.397 178.054 186.225 186.225C178.054 194.397 168.353 200.879 157.676 205.301C146.999 209.724 135.556 212 124 212L124 199.68C133.938 199.68 143.78 197.722 152.961 193.919C162.143 190.116 170.486 184.541 177.514 177.514C184.541 170.486 190.116 162.143 193.919 152.961C197.722 143.78 199.68 133.938 199.68 124C199.68 114.062 197.722 104.22 193.919 95.0385C190.116 85.8566 184.541 77.5137 177.514 70.4862C170.486 63.4586 162.143 57.8841 152.961 54.0808C143.78 50.2775 133.938 48.32 124 48.32V36Z" fill="#597559"/>
<path d="M124 36C142.584 36 160.691 41.8832 175.725 52.8065C190.76 63.7298 201.95 79.1323 207.693 96.8065L195.976 100.614C191.037 85.4138 181.413 72.1676 168.484 62.7736C155.554 53.3796 139.982 48.32 124 48.32V36Z" fill="#365236"/>
<path d="M194 124C194 162.66 162.66 194 124 194C85.3401 194 54 162.66 54 124C54 85.3401 85.3401 54 124 54C162.66 54 194 85.3401 194 124ZM65.9 124C65.9 156.088 91.9123 182.1 124 182.1C156.088 182.1 182.1 156.088 182.1 124C182.1 91.9123 156.088 65.9 124 65.9C91.9123 65.9 65.9 91.9123 65.9 124Z" fill="#D2DDD0"/>
<path d="M124 54C138.032 54 151.74 58.2172 163.346 66.1044C174.951 73.9915 183.919 85.1846 189.084 98.2313C194.25 111.278 195.375 125.576 192.314 139.27C189.253 152.964 182.147 165.422 171.918 175.028C161.689 184.633 148.81 190.943 134.95 193.138C121.091 195.333 106.892 193.312 94.1954 187.338C81.4989 181.363 70.8909 171.711 63.7481 159.633C56.6052 147.555 53.257 133.609 54.1381 119.605L66.0146 120.352C65.2834 131.975 68.0623 143.551 73.9909 153.575C79.9195 163.6 88.7241 171.612 99.2622 176.57C109.8 181.529 121.586 183.207 133.089 181.385C144.592 179.563 155.282 174.326 163.772 166.353C172.262 158.38 178.16 148.04 180.701 136.674C183.241 125.308 182.307 113.441 178.02 102.612C173.733 91.7832 166.29 82.493 156.657 75.9466C147.024 69.4003 135.647 65.9 124 65.9V54Z" fill="#A7BAA6"/>
<path d="M124 54C134.304 54 144.481 56.2748 153.805 60.6621C163.128 65.0494 171.368 71.4409 177.936 79.3803C184.504 87.3198 189.238 96.6113 191.801 106.592C194.363 116.572 194.691 126.995 192.76 137.117C190.829 147.238 186.688 156.809 180.631 165.145C174.575 173.481 166.752 180.377 157.723 185.341C148.693 190.305 138.679 193.215 128.395 193.862C118.112 194.509 107.812 192.878 98.2313 189.084L102.612 178.02C110.564 181.168 119.113 182.522 127.648 181.985C136.184 181.448 144.495 179.034 151.99 174.913C159.484 170.793 165.977 165.069 171.004 158.15C176.031 151.231 179.468 143.288 181.071 134.887C182.673 126.486 182.402 117.835 180.275 109.551C178.148 101.267 174.218 93.5554 168.767 86.9657C163.315 80.3759 156.476 75.071 148.738 71.4295C140.999 67.7881 132.552 65.9 124 65.9V54Z" fill="#7C987C"/>
<path d="M124 54C137.283 54 150.292 57.7795 161.508 64.897C172.723 72.0146 181.682 82.1764 187.338 94.1954C192.994 106.215 195.113 119.595 193.448 132.773C191.783 145.952 186.403 158.385 177.936 168.62L168.767 161.034C175.795 152.539 180.26 142.22 181.642 131.282C183.024 120.344 181.265 109.238 176.57 99.2622C171.876 89.2864 164.44 80.8521 155.132 74.9445C145.823 69.037 135.025 65.9 124 65.9V54Z" fill="#597559"/>
<path d="M124 54C135.791 54 147.39 56.9783 157.723 62.6585C168.055 68.3388 176.785 76.5369 183.103 86.4921L173.055 92.8685C167.812 84.6056 160.566 77.8012 151.99 73.0866C143.414 68.372 133.786 65.9 124 65.9V54Z" fill="#365236"/>
<path d="M176 124C176 152.719 152.719 176 124 176C95.2812 176 72 152.719 72 124C72 95.2812 95.2812 72 124 72C152.719 72 176 95.2812 176 124ZM83.96 124C83.96 146.113 101.887 164.04 124 164.04C146.113 164.04 164.04 146.113 164.04 124C164.04 101.887 146.113 83.96 124 83.96C101.887 83.96 83.96 101.887 83.96 124Z" fill="#D2DDD0"/>
<path d="M124 72C132.206 72 140.296 73.9422 147.608 77.6677C154.919 81.3932 161.245 86.7963 166.069 93.4352C170.892 100.074 174.076 107.76 175.36 115.865C176.644 123.971 175.991 132.264 173.455 140.069C170.919 147.873 166.572 154.967 160.77 160.77C154.967 166.572 147.873 170.919 140.069 173.455C132.264 175.991 123.971 176.644 115.865 175.36C107.76 174.076 100.074 170.892 93.4352 166.069L100.465 156.393C105.577 160.107 111.495 162.559 117.736 163.547C123.977 164.536 130.364 164.033 136.373 162.08C142.383 160.128 147.845 156.781 152.313 152.313C156.781 147.845 160.128 142.382 162.08 136.373C164.033 130.364 164.536 123.977 163.547 117.736C162.559 111.495 160.107 105.577 156.393 100.465C152.679 95.3531 147.808 91.1927 142.178 88.3241C136.548 85.4555 130.319 83.96 124 83.96V72Z" fill="#A7BAA6"/>
<path d="M124 72C136.381 72 148.356 76.4178 157.771 84.4589C167.186 92.4999 173.423 103.636 175.36 115.865C177.297 128.094 174.807 140.613 168.337 151.17C161.868 161.727 151.844 169.629 140.069 173.455L136.373 162.08C145.44 159.134 153.158 153.05 158.14 144.921C163.121 136.792 165.038 127.153 163.547 117.736C162.056 108.32 157.253 99.745 150.004 93.5533C142.754 87.3617 133.534 83.96 124 83.96V72Z" fill="#7C987C"/>
<path d="M124 72C132.206 72 140.296 73.9422 147.608 77.6677C154.919 81.3932 161.245 86.7963 166.069 93.4352C170.892 100.074 174.076 107.76 175.36 115.865C176.644 123.971 175.991 132.264 173.455 140.069L162.08 136.373C164.033 130.364 164.536 123.977 163.547 117.736C162.559 111.495 160.107 105.577 156.393 100.465C152.679 95.3531 147.808 91.1927 142.178 88.3241C136.548 85.4555 130.319 83.96 124 83.96V72Z" fill="#597559"/>
<path d="M124 72C132.206 72 140.296 73.9422 147.608 77.6677C154.919 81.3932 161.245 86.7963 166.069 93.4352L156.393 100.465C152.679 95.3531 147.808 91.1927 142.178 88.3241C136.548 85.4555 130.319 83.96 124 83.96V72Z" fill="#365236"/>
</svg>
